<?xml version="1.0" encoding="utf-8"?>
<!-- Generator: Adobe Illustrator 27.0.1, SVG Export Plug-In . SVG Version: 6.00 Build 0)  -->
<svg version="1.1" id="Capa_1" xmlns="http://www.w3.org/2000/svg" xmlns:xlink="http://www.w3.org/1999/xlink" x="0px" y="0px"
	 viewBox="0 0 160.2 56.1" style="enable-background:new 0 0 160.2 56.1;" xml:space="preserve">
<style type="text/css">
	.st0{fill:#00247D;}
	.st1{fill:#CF152B;}
	.st2{fill:#FEFDFE;}
	.st3{fill:#01247D;}
	.st4{fill:none;}
	.st5{fill:#FFFFFF;}
	.st6{font-family:'OpenSans-Extrabold';}
	.st7{font-size:25px;}
</style>
<g shape-rendering="crispEdges">
	<rect width="65" height="56.1"/>
	<rect x="65" class="st0" width="95.2" height="56.1"/>
</g>
<g>
	<path class="st1" d="M28.9,7.4c2.4,0,4.8,0,7.2,0c0,0.1,0,0.1,0,0.2c0,5.5,0,11.1,0,16.6c0,0.1,0.2,0.2,0.2,0.2c7,0,13.9,0,20.9,0
		c0.1,0,0.2,0,0.3,0c0,2.4,0,4.8,0,7.1c-7.1,0-14.1,0-21.2,0c-0.1,0-0.2,0.2-0.2,0.2c0,5.5,0,11.1,0,16.6c0,0.1,0,0.1,0,0.2
		c-2.4,0-4.8,0-7.2,0c0,0,0-0.1,0-0.1c0-5.6,0-11.2,0-16.8c0-0.1-0.1-0.1-0.2-0.1c-7.1,0-14.2,0-21.3,0c0-2.4,0-4.8,0-7.1
		c0.1,0,0.2,0,0.3,0c7,0,14,0,20.9,0c0.1,0,0.2-0.2,0.2-0.2c0-5.5,0-11.1,0-16.6C28.9,7.6,28.9,7.5,28.9,7.4z"/>
	<path class="st2" d="M28.9,7.4c0,0.1,0,0.1,0,0.2c0,5.5,0,11.1,0,16.6c0,0.1-0.2,0.2-0.2,0.2c-7,0-14,0-20.9,0c-0.1,0-0.2,0-0.3,0
		c0-0.5,0-1.1,0-1.6c4,0,8,0,12.1,0c0,0,0.1,0,0.1,0c0,0-0.1-0.1-0.1-0.1c-4-3.3-7.9-6.5-11.9-9.8c-0.1,0-0.1-0.1-0.2-0.1
		c0-0.4,0-0.9,0-1.3c0.1,0,0.2,0.1,0.2,0.1c4.5,3.7,8.9,7.4,13.4,11.1c0.1,0.1,0.2,0.1,0.3,0.1c1.5,0,3,0,4.6,0c0.1,0,0.1,0,0.2,0
		c0,0-0.1-0.1-0.1-0.1c-4.6-3.8-9.2-7.6-13.9-11.4C10.7,10,9.1,8.7,7.5,7.4c1.9,0,3.8,0,5.6,0c0.1,0.1,0.1,0.1,0.2,0.2
		c4.6,3.8,9.2,7.6,13.9,11.4c0,0,0.1,0.1,0.1,0.1c0-0.1,0-0.1,0-0.2c0-3.8,0-7.7,0-11.5C27.9,7.4,28.4,7.4,28.9,7.4z"/>
	<path class="st2" d="M36.1,48.7c0-0.1,0-0.1,0-0.2c0-5.5,0-11.1,0-16.6c0-0.1,0.2-0.2,0.2-0.2c7.1,0,14.1,0,21.2,0c0,0.5,0,1,0,1.6
		c-4,0-8,0-11.9,0c-0.1,0-0.1,0-0.2,0c0,0,0.1,0.1,0.1,0.1c4,3.3,8,6.6,12,9.9c0,0.4,0,0.9,0,1.3c0,0-0.1-0.1-0.1-0.1
		c-4.5-3.7-9-7.4-13.5-11.2c-0.1-0.1-0.2-0.1-0.3-0.1c-1.5,0-3,0-4.5,0c-0.1,0-0.2,0-0.2,0c0.1,0.1,0.1,0.1,0.2,0.2
		c6.1,5,12.2,10.1,18.3,15.1c0,0,0.1,0.1,0.1,0.1c-1.9,0-3.7,0-5.6,0c0,0,0-0.1-0.1-0.1c-4.6-3.8-9.3-7.7-13.9-11.5
		c0,0-0.1-0.1-0.1-0.1c0,0.1,0,0.1,0,0.2c0,3.8,0,7.7,0,11.5C37.2,48.7,36.6,48.7,36.1,48.7z"/>
	<path class="st2" d="M57.5,24.5c-0.1,0-0.2,0-0.3,0c-7,0-13.9,0-20.9,0c-0.1,0-0.2-0.2-0.2-0.2c0-5.5,0-11.1,0-16.6
		c0-0.1,0-0.1,0-0.2c0.5,0,1,0,1.6,0c0,3.6,0,7.2,0,10.7c0,0.1,0,0.1,0,0.2c0.1,0,0.1-0.1,0.2-0.1c4.2-3.5,8.4-7,12.7-10.5
		c0.1-0.1,0.3-0.2,0.4-0.4c0.5,0,1,0,1.6,0c0,0-0.1,0.1-0.1,0.1c-4.8,4-9.7,8-14.5,12c-0.1,0.1-0.1,0.2-0.1,0.3c0,1,0,1.9,0,2.9
		c0,0.1,0,0.1,0.1,0.1c0.4-0.1,1,0,1.2-0.2c6.1-5,12.2-10.1,18.3-15.1c0.1,0,0.1-0.1,0.1-0.2c0,0.1,0,0.1,0,0.2c0,1.5,0,3,0,4.5
		c-0.5,0.4-1,0.8-1.5,1.2c-3.8,3.2-7.7,6.3-11.5,9.5c0,0-0.1,0.1-0.1,0.1c0.1,0,0.1,0,0.2,0c0.5,0,1,0,1.4,0c3.8,0,7.6,0,11.5,0
		C57.5,23.4,57.5,24,57.5,24.5z"/>
	<path class="st2" d="M7.5,31.6c7.1,0,14.2,0,21.3,0c0.1,0,0.2,0.1,0.2,0.1c0,5.6,0,11.2,0,16.8c0,0,0,0.1,0,0.1c-0.5,0-1,0-1.6,0
		c0-3.6,0-7.2,0-10.7c0-0.1,0-0.1,0-0.2c-0.1,0-0.1,0.1-0.2,0.1c-2.8,2.3-5.7,4.7-8.5,7c-1.5,1.3-3.1,2.5-4.6,3.8c-0.5,0-1,0-1.6,0
		c0.1-0.1,0.1-0.1,0.2-0.2c4.8-4,9.6-7.9,14.4-11.9c0.1-0.1,0.2-0.2,0.2-0.3c0-1,0-1.9,0-2.9c0-0.1,0-0.2,0-0.2
		c-0.4,0-0.9-0.1-1.2,0.1c-5.5,4.5-10.9,9-16.4,13.5c-0.7,0.6-1.5,1.2-2.2,1.8c0,0-0.1-0.1-0.1-0.1c0-1.5,0-3,0-4.5
		c0.2-0.2,0.5-0.3,0.7-0.5c4.1-3.4,8.2-6.8,12.3-10.2c0,0,0.1-0.1,0.1-0.1c-0.1,0-0.1,0-0.2,0c-0.5,0-1,0-1.6,0c-3.8,0-7.6,0-11.4,0
		C7.5,32.7,7.5,32.2,7.5,31.6z"/>
	<path class="st3" d="M27.4,7.4c0,3.8,0,7.7,0,11.5c0,0.1,0,0.1,0,0.2c0,0-0.1-0.1-0.1-0.1c-4.6-3.8-9.2-7.6-13.9-11.4
		c-0.1,0-0.1-0.1-0.2-0.2C17.9,7.4,22.6,7.4,27.4,7.4z"/>
	<path class="st3" d="M37.7,48.7c0-3.8,0-7.7,0-11.5c0-0.1,0-0.1,0-0.2c0,0,0.1,0.1,0.1,0.1c4.6,3.8,9.3,7.7,13.9,11.5
		c0,0,0.1,0.1,0.1,0.1C47.1,48.7,42.4,48.7,37.7,48.7z"/>
	<path class="st3" d="M50.9,7.4c-0.1,0.1-0.3,0.3-0.4,0.4c-4.2,3.5-8.4,7-12.7,10.5c-0.1,0-0.1,0.1-0.2,0.1c0-0.1,0-0.1,0-0.2
		c0-3.6,0-7.2,0-10.7C42.1,7.4,46.5,7.4,50.9,7.4z"/>
	<path class="st3" d="M14.1,48.7c1.5-1.3,3.1-2.5,4.6-3.8c2.8-2.3,5.7-4.7,8.5-7c0,0,0.1-0.1,0.2-0.1c0,0.1,0,0.1,0,0.2
		c0,3.6,0,7.2,0,10.7C22.9,48.7,18.5,48.7,14.1,48.7z"/>
	<path class="st3" d="M7.5,33.2c3.8,0,7.6,0,11.4,0c0.5,0,1,0,1.6,0c0.1,0,0.1,0,0.2,0c0,0-0.1,0.1-0.1,0.1
		c-4.1,3.4-8.2,6.8-12.3,10.2c-0.2,0.2-0.5,0.3-0.7,0.5C7.5,40.4,7.5,36.8,7.5,33.2z"/>
	<path class="st3" d="M57.5,22.9c-3.8,0-7.6,0-11.5,0c-0.5,0-1,0-1.4,0c-0.1,0-0.1,0-0.2,0c0,0,0.1-0.1,0.1-0.1
		c3.8-3.2,7.7-6.3,11.5-9.5c0.5-0.4,1-0.8,1.5-1.2C57.5,15.7,57.5,19.3,57.5,22.9z"/>
	<path class="st1" d="M57.5,7.4c0,0.1-0.1,0.1-0.1,0.2c-6.1,5-12.2,10.1-18.3,15.1c-0.3,0.2-0.8,0.1-1.2,0.2c0,0-0.1-0.1-0.1-0.1
		c0-1,0-1.9,0-2.9c0-0.1,0.1-0.2,0.1-0.3c4.8-4,9.7-8,14.5-12c0.1,0,0.1-0.1,0.1-0.1C54.2,7.4,55.8,7.4,57.5,7.4z"/>
	<path class="st1" d="M7.6,48.7c0.7-0.6,1.5-1.2,2.2-1.8c5.4-4.5,10.9-9,16.4-13.5c0.3-0.2,0.8-0.1,1.2-0.1c0,0,0,0.1,0,0.2
		c0,1,0,1.9,0,2.9c0,0.1-0.1,0.2-0.2,0.3c-4.8,4-9.6,7.9-14.4,11.9c-0.1,0.1-0.1,0.1-0.2,0.2C10.9,48.7,9.2,48.7,7.6,48.7z"/>
	<path class="st1" d="M7.5,7.4c1.6,1.3,3.1,2.6,4.7,3.9c4.6,3.8,9.2,7.6,13.9,11.4c0,0,0.1,0.1,0.1,0.1c-0.1,0-0.1,0-0.2,0
		c-1.5,0-3,0-4.6,0c-0.1,0-0.2,0-0.3-0.1c-4.5-3.7-8.9-7.4-13.4-11.1c-0.1-0.1-0.2-0.1-0.2-0.1c0-1.3,0-2.7,0-4
		C7.5,7.5,7.5,7.5,7.5,7.4z"/>
	<path class="st1" d="M57.5,48.7c0,0-0.1-0.1-0.1-0.1c-6.1-5-12.2-10.1-18.3-15.1c-0.1,0-0.1-0.1-0.2-0.2c0.1,0,0.2,0,0.2,0
		c1.5,0,3,0,4.5,0c0.1,0,0.2,0,0.3,0.1c4.5,3.7,9,7.4,13.5,11.2c0,0,0.1,0.1,0.1,0.1c0,1.3,0,2.6,0,4C57.5,48.6,57.5,48.6,57.5,48.7
		z"/>
	<path class="st3" d="M7.5,12.9c0.1,0,0.1,0.1,0.2,0.1c4,3.3,7.9,6.5,11.9,9.8c0,0,0.1,0.1,0.1,0.1c0,0-0.1,0-0.1,0c-4,0-8,0-12.1,0
		C7.5,19.5,7.5,16.2,7.5,12.9z"/>
	<path class="st3" d="M57.5,43.3c-4-3.3-8-6.6-12-9.9c0,0-0.1-0.1-0.1-0.1c0.1,0,0.1,0,0.2,0c4,0,8,0,11.9,0
		C57.5,36.6,57.5,39.9,57.5,43.3z"/>
</g>
<rect x="68.5" y="3.1" class="st4" width="87.5" height="49.9"/>
<text transform="matrix(1 0 0 1 79.4019 22.5749)"><tspan x="0" y="0" class="st5 st6 st7">VIEW </tspan><tspan x="6.6" y="30" class="st5 st6 st7">LIST</tspan></text>
</svg>
