<?xml version="1.0" encoding="utf-8"?>
<!-- Generator: Adobe Illustrator 27.0.1, SVG Export Plug-In . SVG Version: 6.00 Build 0)  -->
<svg version="1.1" id="Capa_1" xmlns="http://www.w3.org/2000/svg" xmlns:xlink="http://www.w3.org/1999/xlink" x="0px" y="0px"
	 viewBox="0 0 160.2 56.1" style="enable-background:new 0 0 160.2 56.1;" xml:space="preserve">
<style type="text/css">
	.st0{fill:#FFFFFF;}
	.st1{fill:#C50B1E;}
	.st2{fill:none;}
	.st3{fill:#FEC300;}
	.st4{font-family:'OpenSans-Extrabold';}
	.st5{font-size:25px;}
</style>
<g shape-rendering="crispEdges">
	<rect y="0" class="st0" width="65" height="56.1"/>
	<rect x="65" y="0" class="st1" width="95.2" height="56.1"/>
</g>
<rect x="68.5" y="3.1" class="st2" width="87.5" height="49.9"/>
<g>
	<path class="st3" d="M57.5,17.9c0,6.9,0,13.8,0,20.7c-0.1,0-0.3,0-0.4,0c-16.6,0-33.2,0-49.8,0c-0.1,0-0.3,0.2-0.3,0.3
		c0,3.2,0,6.5,0,9.7c0,0.1,0.2,0.3,0.3,0.3c16.7,0,33.4,0,50.2,0c-0.1,0-0.1,0-0.2,0c-16.7,0-33.4,0-50.1,0c0,0.2-0.2,0.1-0.2,0
		C7,35.2,7,21.4,7,7.7c0-0.1,0.1-0.2,0.2-0.2c16.7,0,33.4,0,50.2,0c0.1,0,0.1,0,0.2,0c-16.7,0-33.5,0-50.2,0c-0.1,0-0.3,0.2-0.3,0.3
		c0,3.3,0,6.5,0,9.8c0,0.1,0.2,0.3,0.3,0.3c8.4,0,16.9,0,25.3,0C41,17.9,49.3,17.9,57.5,17.9z"/>
	<path class="st1" d="M57.5,17.9c-8.3,0-16.6,0-24.9,0c-8.4,0-16.9,0-25.3,0c-0.1,0-0.3-0.2-0.3-0.3c0-3.3,0-6.5,0-9.8
		c0-0.1,0.2-0.3,0.3-0.3c16.7,0,33.5,0,50.2,0C57.5,11,57.5,14.4,57.5,17.9z"/>
	<path class="st1" d="M57.5,49.1c-16.7,0-33.4,0-50.2,0c-0.1,0-0.3-0.2-0.3-0.3c0-3.2,0-6.5,0-9.7c0-0.1,0.2-0.3,0.3-0.3
		c16.6,0,33.2,0,49.8,0c0.1,0,0.3,0,0.4,0C57.5,42.1,57.5,45.6,57.5,49.1z"/>
</g>
<rect x="68.5" y="3.1" class="st2" width="87.5" height="49.9"/>
<text transform="matrix(1 0 0 1 88.2567 22.5498)"><tspan x="0" y="0" class="st0 st4 st5">VER</tspan><tspan x="-11.3" y="30" class="st0 st4 st5">LISTA</tspan></text>
</svg>
