<?xml version="1.0" encoding="utf-8"?>
<!-- Generator: Adobe Illustrator 27.0.1, SVG Export Plug-In . SVG Version: 6.00 Build 0)  -->
<svg version="1.1" id="Layer_1" xmlns="http://www.w3.org/2000/svg" xmlns:xlink="http://www.w3.org/1999/xlink" x="0px" y="0px"
	 viewBox="0 0 512 512" style="enable-background:new 0 0 512 512;" xml:space="preserve">
<style type="text/css">
	.st0{fill:#6E3D1D;}
	.st1{fill:#C9D1D9;}
	.st2{fill:#3C9684;}
	.st3{fill:#F2C07E;}
	.st4{fill:#F23488;}
	.st5{fill:#D6A86F;}
	.st6{fill:#DB2A78;}
	.st7{fill:#2B7C67;}
</style>
<g>
	<path class="st0" d="M75,507c-38.6,0-70-31.4-70-70V75C5,36.4,36.4,5,75,5h362c38.6,0,70,31.4,70,70v362c0,38.6-31.4,70-70,70H75z"
		/>
	<path class="st1" d="M437,10c35.8,0,65,29.2,65,65v362c0,35.8-29.2,65-65,65H75c-35.8,0-65-29.2-65-65V75c0-35.8,29.2-65,65-65H437
		 M437,0H75C33.6,0,0,33.6,0,75v362c0,41.4,33.6,75,75,75h362c41.4,0,75-33.6,75-75V75C512,33.6,478.4,0,437,0L437,0z"/>
</g>
<path class="st2" d="M269.6,406.4c18.3,1.2,36.7,1.4,55-0.1c17.7-1.5,35.8-4.5,52.3-11.4c4-1.7,7.8-3.6,11.6-5.7
	c3.7-2.1,7.4-4.2,10.7-6.8c6.4-5,11.8-11.3,15.5-18.6c3.9-7.7,5.7-16.2,6.2-24.8c0.4-8.2-0.6-16.4-5-23.5
	c-8.2-13.5-24.3-20-38.8-24.1c-17.2-4.9-35.1-7.1-52.9-8.7c-14.3-1.3-28.7-2.1-43-2.8c-6.3-0.3-12.7-0.6-19-0.9
	c-5-0.2-10.1-0.2-15.1-0.3c-9.1-0.2-18.2-0.6-27.3-1.1c-18.2-1.1-36.4-2.6-54.4-5.7c-7.4-1.2-14.8-2.7-22-5
	c-8.4-2.7-16.5-6.2-24.2-10.5c-14.4-8-28.2-19.5-34.5-35.1c-3.2-8-4.4-17-3.3-25.5c1.1-8.1,4.6-15.7,10-21.8
	c7.1-8.1,16.7-13.3,26.6-17.2c16.3-6.5,34.1-9.4,51.6-10.4c11-0.6,22.1-0.5,33.1,0.4c15,1.3,29.9,3,44.9,4.8
	c18.3,2.1,36.5,4.5,54.8,6.1c9.1,0.8,18.2,2,27.2,3c9.1,0.9,18.2,1.7,27.3,2.1c9,0.4,18.1,0.5,27.2-0.2c8.7-0.6,17.6-1.9,25.9-5.1
	c7.1-2.7,13.7-6.9,17.8-13.5c-3.9,7.9-11.3,13-19.2,16.5c-8.3,3.6-17.3,5.5-26.3,6.8c-18.5,2.6-37.3,2.6-56,2
	c-4.7-0.2-9.4-0.3-14.1-0.6c-4.7-0.3-9.3-0.8-14-1.3c-3.5-0.4-7.1-0.8-10.6-1.2c-14.7-1.6-29.5-3.4-44.2-5.1
	c-14.4-1.7-28.8-3.5-43.2-4.5c-13.4-1-26.9-0.9-40.3,0.5c-9.1,1-18.2,2.6-27,5.1c-6.7,1.9-13.4,4.3-19.5,7.5
	c-8.7,4.6-16.8,11-20.5,20.4c-3.1,7.9-2.6,17.2,0.1,25.2c2.6,7.6,7.5,14.2,13.2,19.7c6,5.7,13.1,10.4,20.5,14.2
	c7.9,4.1,16.3,7.4,24.9,9.8c3.3,0.9,6.6,1.5,9.9,2.1c4.6,0.9,9.3,1.6,13.9,2.3c9.3,1.3,18.6,2.3,28,3c17.8,1.5,35.6,2.3,53.4,2.5
	c6.1,0.1,12.1,0.5,18.2,0.8c12.6,0.6,25.2,1.3,37.8,2.2c18.7,1.4,37.4,3.2,55.8,7.2c8.7,1.9,17.3,4.3,25.5,7.7
	c8,3.3,15.8,7.6,22.1,13.6c6.2,5.8,10.8,13.1,13,21.3c2.4,8.9,2.1,18.6,0.5,27.6c-1.5,8.6-4.5,16.9-9.1,24.3
	c-4.6,7.3-10.7,13.5-17.6,18.6c-14.4,10.6-32.4,15.1-49.9,17.4c-18.6,2.4-37.7,2.2-56.4,0.5C287.7,409.1,278.6,407.9,269.6,406.4z"
	/>
<path class="st3" d="M248.5,403.2c-47.3-15.9-64.8-48.9-65.9-50.9c0,0,0-0.1,0-0.1v0l28.8-12.7l43.9-19.4
	C255.2,320.1,269.2,356,248.5,403.2z"/>
<path class="st4" d="M228,356.9c-2.6,1.1-5.1,2.1-7.7,2.9c-0.6,0.2-1.1,0.3-1.7,0.5c-15.3,4.2-29.3,2-34.8-5.8c0,0,0,0,0,0
	c-0.5-0.7-0.9-1.4-1.2-2.2v0L90.1,143l28.8-12.7l43.9-19.4l92.4,209.2C260.2,331.6,248.1,348.1,228,356.9z"/>
<path class="st5" d="M248.5,403.2c-47.3-15.9-64.8-48.9-65.9-50.9c0,0,0-0.1,0-0.1v0l28.8-12.7l5.3,12.1
	C217.9,354.4,235.1,394.3,248.5,403.2z"/>
<path class="st6" d="M220.3,359.8c-0.6,0.2-1.1,0.3-1.7,0.5c-15.3,4.2-29.3,2-34.8-5.8c0,0,0,0,0,0c-0.7-1.1-1.1-1.9-1.2-2.1
	c0,0,0-0.1,0-0.1v0L90.1,143l28.8-12.7l92.4,209.2l5.3,12.1C217,352.3,218.3,355.4,220.3,359.8z"/>
<ellipse transform="matrix(0.9147 -0.4041 0.4041 0.9147 -40.5208 61.9196)" class="st5" cx="126.4" cy="127" rx="39.7" ry="22.7"/>
<g>
	<path class="st2" d="M113.7,138.8c-2.4,0-4.7-1.4-5.7-3.7c-1.1-2.4-0.5-5.2,1.4-7c3.6-3.4,8.3-6.4,13.6-8.8
		c5.2-2.3,10.7-3.8,15.6-4.1c2.6-0.2,5.1,1.3,6.2,3.7c1.1,2.4,0.5,5.2-1.4,7c-3.6,3.4-8.3,6.4-13.6,8.8c-5.2,2.3-10.7,3.8-15.6,4.1
		C114,138.8,113.9,138.8,113.7,138.8z"/>
	<path class="st2" d="M256.7,378.5c-1.8,7.8-4.4,16.1-8.2,24.7v0c0,0,0,0,0,0c-8.6-2.9-16.1-6.3-22.8-10.1c0,0,2.4-5,7.3-9.4
		C238,379.1,245.9,375.2,256.7,378.5z"/>
</g>
<path class="st7" d="M248.5,403.2L248.5,403.2c-8.6-2.9-16.2-6.3-22.9-10.1c0,0,2.4-5,7.3-9.4C237.9,392.2,243.5,399.9,248.5,403.2z
	"/>
</svg>
