<?xml version="1.0" encoding="iso-8859-1"?>
<!-- Generator: Adobe Illustrator 19.0.0, SVG Export Plug-In . SVG Version: 6.00 Build 0)  -->
<svg version="1.1" id="Layer_1" xmlns="http://www.w3.org/2000/svg" xmlns:xlink="http://www.w3.org/1999/xlink" x="0px" y="0px"
	 viewBox="0 0 508 508" style="enable-background:new 0 0 508 508;" xml:space="preserve">
<circle style="fill:#324A5E;" cx="254" cy="254" r="254"/>
<path style="fill:#FFD05B;" d="M310,126c-13.6,13.2-34,22-56,22c-22.4,0-42.4-8.4-56-21.6l0,0c2.4-7.2,7.6-13.2,14.4-16.8L234,99.2
	c0.8-2.8,4-6.8,4-6.8c-1.6-2.4-2.8-4.8-4-7.6c-1.6,0-3.6-1.6-4.8-3.6s-0.8-4.4,0-6C226,66,224,52,235.2,42l-5.6,1.2
	c0,0,6.8-12.4,20.4-8c0,0-1.2-2-5.6-3.2c0,0,6-2.8,9.6,1.6c0,0,2-1.6,0-3.2c0,0,10.4,0.4,20,9.2c12.4,11.6,9.2,26.8,5.2,36.8
	c0.4,1.2,0.4,3.2-0.4,4.8c-0.8,2-2.4,3.2-4,3.6c-0.8,1.2-3.6,6-4.4,7.6c0,0,3.6,4,4,6.8l21.6,10.4C302.4,112.8,307.6,118.8,310,126
	L310,126z"/>
<path style="fill:#FF7058;" d="M310,456.4c-13.6,13.2-34,22-56,22c-22.4,0-42.4-8.4-56-21.6l0,0c2.4-7.2,7.6-13.2,14.4-16.8
	l21.6-10.4c0.8-2.8,4-6.8,4-6.8c-1.6-2.4-2.8-4.8-4-7.6c-1.6,0-3.6-1.6-4.8-3.6s-0.8-4.4,0-6c-3.6-9.2-5.6-22.8,5.6-33.2l-5.6,1.2
	c0,0,6.8-12.4,20.4-8c0,0-1.2-2-5.6-3.2c0,0,6-2.8,9.6,1.6c0,0,2-1.6,0-3.2c0,0,10.4,0.4,20,9.2c12.4,11.6,9.2,26.8,5.2,36.8
	c0.4,1.2,0.4,3.2-0.4,4.8c-0.8,2-2.4,3.2-4,3.6c-0.8,1.2-3.6,6-4.4,7.6c0,0,3.6,4,4,6.8l21.6,10.4
	C302.4,442.8,307.6,448.8,310,456.4L310,456.4z"/>
<path style="fill:#84DBFF;" d="M478,291.2c-13.6,13.2-34,22-56,22c-22.4,0-42.4-8.4-56-21.6l0,0c2.4-7.2,7.6-13.2,14.4-16.8
	l21.6-10.4c0.8-2.8,4-6.8,4-6.8c-1.6-2.4-2.8-4.8-4-7.6c-1.6,0-3.6-1.6-4.8-3.6c-1.2-2-0.8-4.4,0-6c-3.6-9.2-5.6-22.8,5.6-33.2
	l-5.6,1.2c0,0,6.8-12.4,20.4-8c0,0-1.2-2-5.6-3.2c0,0,6-2.8,9.6,1.6c0,0,2-1.6,0-3.2c0,0,10.4,0.4,20,9.2
	c12.4,11.6,9.2,26.8,5.2,36.8c0.4,1.2,0.4,3.2-0.4,4.8c-0.8,2-2.4,3.2-4,3.6c-0.8,1.2-3.6,6-4.4,7.6c0,0,3.6,4,4,6.8l21.6,10.4
	C470.4,277.6,475.6,283.6,478,291.2L478,291.2z"/>
<path style="fill:#4CDBC4;" d="M142,291.2c-13.6,13.2-34,22-56,22c-22.4,0-42.4-8.4-56-21.6l0,0c2.4-7.2,7.6-13.2,14.4-16.8
	L66,264.4c0.8-2.8,4-6.8,4-6.8c-1.6-2.4-2.8-4.8-4-7.6c-1.6,0-3.6-1.6-4.8-3.6s-0.8-4.4,0-6c-3.6-9.2-5.6-22.8,5.6-33.2l-5.6,1.2
	c0,0,6.8-12.4,20.4-8c0,0-1.2-2-5.6-3.2c0,0,6-2.8,9.6,1.6c0,0,2-1.6,0-3.2c0,0,10.4,0.4,20,9.2c12.4,11.6,9.2,26.8,5.2,36.8
	c0.4,1.2,0.4,3.2-0.4,4.8c-0.8,2-2.4,3.2-4,3.6c-0.8,1.2-3.6,6-4.4,7.6c0,0,3.6,4,4,6.8l21.6,10.4C134.4,277.6,139.6,284,142,291.2
	L142,291.2z"/>
<path style="fill:#FFFFFF;" d="M347.2,245.6v17.2L330,268c-2,10.8-6.4,21.2-12.4,30l8,15.6l-12,12L298,318c-8.8,6-18.8,10.4-30,12.4
	l-5.6,16.8h-17.2L240,330c-10.8-2-21.2-6.4-30-12.4l-15.6,8l-12-12l8-15.6c-6-8.8-10.4-18.8-12.4-30l-16.8-5.6v-17.2l16.8-5.6
	c2-10.8,6.4-21.2,12.4-30l-8-15.6l12-12l15.6,8c8.8-6,18.8-10.4,30-12.4l5.6-16.8h17.2l5.6,16.8c10.8,2,21.2,6.4,30,12.4l15.6-8
	l12,12l-8,16c6,8.8,10.4,18.8,12.4,30L347.2,245.6z"/>
<circle style="fill:#324A5E;" cx="254" cy="254" r="42.8"/>
<g>
</g>
<g>
</g>
<g>
</g>
<g>
</g>
<g>
</g>
<g>
</g>
<g>
</g>
<g>
</g>
<g>
</g>
<g>
</g>
<g>
</g>
<g>
</g>
<g>
</g>
<g>
</g>
<g>
</g>
</svg>
