<?xml version="1.0" encoding="utf-8"?>
<!-- Generator: Adobe Illustrator 27.0.1, SVG Export Plug-In . SVG Version: 6.00 Build 0)  -->
<svg version="1.1" id="Layer_1" xmlns="http://www.w3.org/2000/svg" xmlns:xlink="http://www.w3.org/1999/xlink" x="0px" y="0px"
	 viewBox="0 0 512 512" style="enable-background:new 0 0 512 512;" xml:space="preserve">
<style type="text/css">
	.st0{fill:#5D802C;}
	.st1{fill:#C9D1D9;}
	.st2{fill:#324A5E;}
	.st3{fill:#FFD05B;}
	.st4{fill:#FF7058;}
	.st5{fill:#84DBFF;}
	.st6{fill:#4CDBC4;}
	.st7{fill:#FFFFFF;}
</style>
<g>
	<path class="st0" d="M75,507c-38.6,0-70-31.4-70-70V75C5,36.4,36.4,5,75,5h362c38.6,0,70,31.4,70,70v362c0,38.6-31.4,70-70,70H75z"
		/>
	<path class="st1" d="M437,10c35.8,0,65,29.2,65,65v362c0,35.8-29.2,65-65,65H75c-35.8,0-65-29.2-65-65V75c0-35.8,29.2-65,65-65H437
		 M437,0H75C33.6,0,0,33.6,0,75v362c0,41.4,33.6,75,75,75h362c41.4,0,75-33.6,75-75V75C512,33.6,478.4,0,437,0L437,0z"/>
</g>
<circle class="st2" cx="256" cy="256" r="175"/>
<path class="st3" d="M294.6,167.8c-9.4,9.1-23.4,15.2-38.6,15.2c-15.4,0-29.2-5.8-38.6-14.9l0,0c1.7-5,5.2-9.1,9.9-11.6l14.9-7.2
	c0.6-1.9,2.8-4.7,2.8-4.7c-1.1-1.7-1.9-3.3-2.8-5.2c-1.1,0-2.5-1.1-3.3-2.5c-0.8-1.4-0.6-3,0-4.1c-2.2-6.3-3.6-16,4.1-22.9l-3.9,0.8
	c0,0,4.7-8.5,14.1-5.5c0,0-0.8-1.4-3.9-2.2c0,0,4.1-1.9,6.6,1.1c0,0,1.4-1.1,0-2.2c0,0,7.2,0.3,13.8,6.3c8.5,8,6.3,18.5,3.6,25.4
	c0.3,0.8,0.3,2.2-0.3,3.3c-0.6,1.4-1.7,2.2-2.8,2.5c-0.6,0.8-2.5,4.1-3,5.2c0,0,2.5,2.8,2.8,4.7l14.9,7.2
	C289.3,158.7,292.9,162.9,294.6,167.8L294.6,167.8z"/>
<path class="st4" d="M294.6,395.4c-9.4,9.1-23.4,15.2-38.6,15.2c-15.4,0-29.2-5.8-38.6-14.9l0,0c1.7-5,5.2-9.1,9.9-11.6l14.9-7.2
	c0.6-1.9,2.8-4.7,2.8-4.7c-1.1-1.7-1.9-3.3-2.8-5.2c-1.1,0-2.5-1.1-3.3-2.5c-0.8-1.4-0.6-3,0-4.1c-2.5-6.3-3.9-15.7,3.9-22.9
	l-3.9,0.8c0,0,4.7-8.5,14.1-5.5c0,0-0.8-1.4-3.9-2.2c0,0,4.1-1.9,6.6,1.1c0,0,1.4-1.1,0-2.2c0,0,7.2,0.3,13.8,6.3
	c8.5,8,6.3,18.5,3.6,25.4c0.3,0.8,0.3,2.2-0.3,3.3c-0.6,1.4-1.7,2.2-2.8,2.5c-0.6,0.8-2.5,4.1-3,5.2c0,0,2.5,2.8,2.8,4.7l14.9,7.2
	C289.3,386.1,292.9,390.2,294.6,395.4L294.6,395.4z"/>
<path class="st5" d="M410.3,281.6c-9.4,9.1-23.4,15.2-38.6,15.2c-15.4,0-29.2-5.8-38.6-14.9l0,0c1.7-5,5.2-9.1,9.9-11.6l14.9-7.2
	c0.6-1.9,2.8-4.7,2.8-4.7c-1.1-1.7-1.9-3.3-2.8-5.2c-1.1,0-2.5-1.1-3.3-2.5c-0.8-1.4-0.6-3,0-4.1c-2.5-6.3-3.9-15.7,3.9-22.9
	l-3.9,0.8c0,0,4.7-8.5,14.1-5.5c0,0-0.8-1.4-3.9-2.2c0,0,4.1-1.9,6.6,1.1c0,0,1.4-1.1,0-2.2c0,0,7.2,0.3,13.8,6.3
	c8.5,8,6.3,18.5,3.6,25.4c0.3,0.8,0.3,2.2-0.3,3.3c-0.6,1.4-1.7,2.2-2.8,2.5c-0.6,0.8-2.5,4.1-3,5.2c0,0,2.5,2.8,2.8,4.7l14.9,7.2
	C405.1,272.3,408.7,276.4,410.3,281.6L410.3,281.6z"/>
<path class="st6" d="M178.8,281.6c-9.4,9.1-23.4,15.2-38.6,15.2c-15.4,0-29.2-5.8-38.6-14.9l0,0c1.7-5,5.2-9.1,9.9-11.6l14.9-7.2
	c0.6-1.9,2.8-4.7,2.8-4.7c-1.1-1.7-1.9-3.3-2.8-5.2c-1.1,0-2.5-1.1-3.3-2.5c-0.8-1.4-0.6-3,0-4.1c-2.5-6.3-3.9-15.7,3.9-22.9
	l-3.9,0.8c0,0,4.7-8.5,14.1-5.5c0,0-0.8-1.4-3.9-2.2c0,0,4.1-1.9,6.6,1.1c0,0,1.4-1.1,0-2.2c0,0,7.2,0.3,13.8,6.3
	c8.5,8,6.3,18.5,3.6,25.4c0.3,0.8,0.3,2.2-0.3,3.3c-0.6,1.4-1.7,2.2-2.8,2.5c-0.6,0.8-2.5,4.1-3,5.2c0,0,2.5,2.8,2.8,4.7l14.9,7.2
	C173.6,272.3,177.2,276.7,178.8,281.6L178.8,281.6z"/>
<path class="st7" d="M320.2,250.2v11.9l-11.9,3.6c-1.4,7.4-4.4,14.6-8.5,20.7l5.5,10.7l-8.3,8.3l-10.7-5.2c-6.1,4.1-13,7.2-20.7,8.5
	l-3.9,11.6h-11.9l-3.6-11.9c-7.4-1.4-14.6-4.4-20.7-8.5l-10.7,5.5l-8.3-8.3l5.5-10.7c-4.1-6.1-7.2-13-8.5-20.7l-11.6-3.9v-11.9
	l11.6-3.9c1.4-7.4,4.4-14.6,8.5-20.7l-5.5-10.7l8.3-8.3l10.7,5.5c6.1-4.1,13-7.2,20.7-8.5l3.9-11.6h11.9l3.9,11.6
	c7.4,1.4,14.6,4.4,20.7,8.5l10.7-5.5l8.3,8.3l-5.5,11c4.1,6.1,7.2,13,8.5,20.7L320.2,250.2z"/>
<circle class="st2" cx="256" cy="256" r="29.5"/>
</svg>
