<?xml version="1.0" encoding="utf-8"?>
<!-- Generator: Adobe Illustrator 27.0.1, SVG Export Plug-In . SVG Version: 6.00 Build 0)  -->
<svg version="1.1" id="Layer_1" xmlns="http://www.w3.org/2000/svg" xmlns:xlink="http://www.w3.org/1999/xlink" x="0px" y="0px"
	 viewBox="0 0 512 512" style="enable-background:new 0 0 512 512;" xml:space="preserve">
<style type="text/css">
	.st0{fill:#E60C6A;}
	.st1{fill:#C9D1D9;}
	.st2{fill:#FFD0A1;}
	.st3{fill:#F2EDDA;}
	.st4{fill:#C49AE9;}
	.st5{fill:#7EE1E6;}
	.st6{fill:#ECF4F7;}
	.st7{fill:#FFE079;}
	.st8{fill:#51565F;}
</style>
<g>
	<path class="st0" d="M75,507c-38.6,0-70-31.4-70-70V75C5,36.4,36.4,5,75,5h362c38.6,0,70,31.4,70,70v362c0,38.6-31.4,70-70,70H75z"
		/>
	<path class="st1" d="M437,10c35.8,0,65,29.2,65,65v362c0,35.8-29.2,65-65,65H75c-35.8,0-65-29.2-65-65V75c0-35.8,29.2-65,65-65H437
		 M437,0H75C33.6,0,0,33.6,0,75v362c0,41.4,33.6,75,75,75h362c41.4,0,75-33.6,75-75V75C512,33.6,478.4,0,437,0L437,0z"/>
</g>
<g transform="translate(1 1)">
	<path class="st2" d="M355.7,212.9v23.7c0,6.5-5.3,11.9-11.9,11.9c0,0-17.8,47.4-29.6,65.2c-1.8,2.4-3,4.7-5.3,7.7
		c-7.7,10.7-21.3,21.9-54,21.9s-46.3-11.3-54-21.9c-2.4-3-4.2-5.3-5.3-7.7c-11.9-17.8-29.6-65.2-29.6-65.2
		c-6.5,0-11.9-5.3-11.9-11.9v-23.7c0-6.5,5.3-11.9,11.9-11.9v-23.7c0,0,35.6,5.9,88.9,5.9s88.9-5.9,88.9-5.9V201
		C350.4,201,355.7,206.4,355.7,212.9"/>
	<path class="st3" d="M225.3,284.1h59.3c0,0-5.9,23.7-29.6,23.7S225.3,284.1,225.3,284.1z M254.9,248.5c3.6,0,5.9,3,5.9,5.9
		c0,3-2.4,5.9-5.9,5.9s-5.9-3-5.9-5.9C249,251.4,251.4,248.5,254.9,248.5z"/>
	<g>
		<path class="st4" d="M379.4,165.5c6.5,0,11.9,5.3,11.9,11.9s-5.3,11.9-11.9,11.9c-6.5,0-11.9-5.3-11.9-11.9
			S372.9,165.5,379.4,165.5"/>
		<path class="st4" d="M379.4,94.3c5.9,29.6,0,71.2,0,71.2s-28.5-39.1-40.3-56.9l-0.6-1.2C349.2,100.2,362.8,94.3,379.4,94.3"/>
	</g>
	<path class="st5" d="M254.9,426.4H83l5.9-23.7c5.9-17.8,17.8-35.6,47.4-35.6H160l0.6,0.6c-4.2,7.7-5.3,12.5-5.3,12.5
		s19.6-2.4,52.2-21.9c-10.7,36.8-7.7,56.3-7.7,56.3s16.6-10.1,37.9-41.5C244.2,410.4,254.9,426.4,254.9,426.4z M426.9,426.4h-172
		c0,0,10.7-16.6,17.2-54c21.3,31.4,37.9,41.5,37.9,41.5s3-19.6-7.7-56.3c32.6,19.6,52.2,21.9,52.2,21.9s-1.2-4.7-5.3-12.5l0.6-0.6
		h23.7c29.6,0,41.5,17.8,47.4,35.6L426.9,426.4z"/>
	<g>
		<path class="st6" d="M330.2,339.2c9.5,11.9,15.4,21.3,19,28.5c4.2,7.7,5.3,12.5,5.3,12.5s-19.6-2.4-52.2-21.9
			c10.7,36.8,7.7,56.3,7.7,56.3s-16.6-10.1-37.9-41.5c-5.9,37.9-17.2,54-17.2,54s-10.7-16.6-17.2-54c-21.3,31.4-37.9,41.5-37.9,41.5
			s-3-19.6,7.7-56.3c-32.6,19.6-52.2,21.9-52.2,21.9s1.2-4.7,5.3-12.5c3.6-7.1,9.5-16.6,19-28.5c0,0,7.1-9.5,20.2-16.6l1.2-1.2
			c7.7,10.1,21.3,21.9,54,21.9c33.2,0,46.3-11.9,54-21.9l0.6,0.6C321.9,329.1,330.2,339.2,330.2,339.2"/>
		<path class="st6" d="M331.4,114.5l12.5,62.9c0,0-35.6,5.9-88.9,5.9s-88.9-5.9-88.9-5.9l13-61.7l1.2-1.2
			c14.2,13,21.3,27.3,21.3,27.3l23.7-59.3l29.6,47.4c-6.5,0-11.9,5.3-11.9,11.9c0,6.5,5.3,11.9,11.9,11.9s11.9-5.3,11.9-11.9
			c0-6.5-5.3-11.9-11.9-11.9l29.6-47.4l23.7,59.3c0,0,7.7-14.8,22.5-27.9L331.4,114.5z"/>
	</g>
	<g>
		<path class="st5" d="M171.9,107.9l-1.2,1.2c-11.9,17.8-40.3,55.7-40.3,55.7s-5.9-41.5,0-71.2C147,94.3,161.2,100.2,171.9,107.9"/>
		<path class="st5" d="M130.4,165.5c6.5,0,11.9,5.3,11.9,11.9s-5.3,11.9-11.9,11.9c-6.5,0-11.9-5.3-11.9-11.9
			S123.9,165.5,130.4,165.5"/>
	</g>
	<g>
		<polygon class="st7" points="284.6,82.4 254.9,129.9 225.3,82.4 		"/>
		<path class="st7" d="M254.9,129.9c6.5,0,11.9,5.3,11.9,11.9s-5.3,11.9-11.9,11.9s-11.9-5.3-11.9-11.9S248.4,129.9,254.9,129.9"/>
	</g>
</g>
<path class="st8" d="M427.9,430.3c-1.2,0-2.4-1.2-3-2.4l-5.9-23.7c-7.7-22.5-21.9-33.2-44.5-33.2c-1.8,0-3-1.2-3-3c0-1.8,1.2-3,3-3
	c25.5,0,42.1,12.5,50.4,37.4l5.9,23.7c0.6,1.8-0.6,3-2.4,3.6C428.5,430.3,427.9,430.3,427.9,430.3z M84,430.3h-0.6
	c-1.8-0.6-2.4-1.8-2.4-3.6l5.9-23.7c8.3-25.5,24.9-37.9,50.4-37.9c1.8,0,3,1.2,3,3c0,1.8-1.2,3-3,3c-22.5,0-36.8,10.7-44.5,33.8
	l-5.9,23.7C86.3,429.1,85.1,430.3,84,430.3z M255.9,430.3c-1.2,0-1.8-0.6-2.4-1.2c-0.6-0.6-10.1-15.4-16-48
	c-19.6,27.3-34.4,36.2-35,36.8c-0.6,0.6-1.8,0.6-3,0s-1.8-1.2-1.8-2.4c0-0.6-2.4-17.8,5.9-50.4c-29.1,16.6-46.3,18.4-47.4,18.4
	c-1.2,0-1.8,0-2.4-1.2c-0.6-0.6-0.6-1.8-0.6-3c0-0.6,4.7-16.6,24.9-41.5c1.2-1.2,3-1.2,4.2-0.6c1.2,1.2,1.8,3,0.6,4.2
	c-13,16-19.6,28.5-21.9,35c7.7-1.8,23.7-7.1,46.3-20.2c1.2-0.6,2.4-0.6,3.6,0c1.2,0.6,1.2,1.8,1.2,3c-7.1,24.9-7.7,41.5-7.7,49.8
	c5.9-4.7,18.4-16.6,33.2-37.9c0.6-1.2,1.8-1.8,3-1.2c1.2,0,2.4,1.2,2.4,2.4c4.2,25.5,10.7,40.9,14.2,48c3.6-7.1,10.1-22.5,14.2-48
	c0-1.2,1.2-2.4,2.4-2.4c1.2,0,2.4,0,3,1.2c14.8,21.3,26.7,32.6,33.2,37.9c0-7.7-0.6-24.9-7.7-49.8c-0.6-1.2,0-2.4,1.2-3
	s2.4-0.6,3.6,0c22.5,13,38.5,18.4,46.3,20.2c-3-6.5-8.9-18.4-21.9-34.4c-1.2-1.2-0.6-3,0.6-4.2c1.2-1.2,3-0.6,4.2,0.6
	c20.2,24.9,24.9,40.9,24.9,41.5c0,1.2,0,1.8-0.6,3c-0.6,0.6-1.8,1.2-2.4,1.2c-0.6,0-17.8-2.4-47.4-18.4c8.3,32.6,5.9,49.8,5.9,50.4
	c0,1.2-0.6,1.8-1.8,2.4c-1.2,0.6-1.8,0.6-3,0c-0.6-0.6-15.4-9.5-35-36.8c-6.5,32.6-16,47.4-16,48
	C257.7,429.7,257.1,430.3,255.9,430.3z M255.9,347.3c-41.5,0-53.4-18.4-61.1-29.6l-1.2-1.2c-10.7-16-26.1-55.1-29.1-64
	c-7.1-1.2-12.5-7.1-12.5-14.8v-23.7c0-8.3,6.5-14.8,14.8-14.8c1.8,0,3,1.2,3,3s-1.2,3-3,3c-4.7,0-8.9,4.2-8.9,8.9v23.7
	c0,4.7,4.2,8.9,8.9,8.9c1.2,0,2.4,0.6,3,1.8c0,0.6,17.8,47.4,29.1,64.6l1.2,1.2c7.1,10.7,17.8,26.7,55.7,26.7s48.6-16,55.7-26.7
	l1.2-1.2c11.3-17.2,29.1-64,29.1-64.6c0.6-1.2,1.8-1.8,3-1.8c4.7,0,8.9-4.2,8.9-8.9v-23.7c0-4.7-4.2-8.9-8.9-8.9c-1.8,0-3-1.2-3-3
	s1.2-3,3-3c8.3,0,14.8,6.5,14.8,14.8v23.7c0,7.7-5.3,13.6-12.5,14.8c-3.6,8.9-18.4,48-29.1,64l-1.2,1.2
	C309.3,328.9,297.4,347.3,255.9,347.3z M255.9,311.7c-25.5,0-32.6-25.5-32.6-26.1c0-0.6,0-1.8,0.6-2.4c0.6-0.6,1.2-1.2,2.4-1.2h59.3
	c1.2,0,1.8,0.6,2.4,1.2c0.6,0.6,0.6,1.8,0.6,2.4C288.5,286.2,281.4,311.7,255.9,311.7z M230.4,288c2.4,5.9,9.5,17.8,25.5,17.8
	s23.1-11.9,25.5-17.8H230.4z M255.9,264.3c-4.7,0-8.9-4.2-8.9-8.9c0-4.7,4.2-8.9,8.9-8.9c4.7,0,8.9,4.2,8.9,8.9
	C264.8,260.2,260.7,264.3,255.9,264.3z M255.9,252.4c-1.8,0-3,1.2-3,3c0,1.8,1.2,3,3,3c1.8,0,3-1.2,3-3
	C258.9,253.6,257.7,252.4,255.9,252.4z M291.5,234.7c-1.8,0-3-1.2-3-3v-3h-8.9c-1.8,0-3-1.2-3-3c0-1.8,1.2-3,3-3h23.7
	c1.8,0,3,1.2,3,3c0,1.8-1.2,3-3,3h-8.9v3C294.5,233.5,293.3,234.7,291.5,234.7z M220.3,234.7c-1.8,0-3-1.2-3-3v-3h-8.9
	c-1.8,0-3-1.2-3-3c0-1.8,1.2-3,3-3h23.7c1.8,0,3,1.2,3,3c0,1.8-1.2,3-3,3h-8.9v3C223.3,233.5,222.1,234.7,220.3,234.7z M380.4,193.1
	c-8.3,0-14.8-6.5-14.8-14.8c0-6.5,4.2-11.9,9.5-13.6c-5.3-7.7-17.8-24.3-26.7-37.9c-1.2-1.2-0.6-3,0.6-4.2c1.2-1.2,3-0.6,4.2,0.6
	c8.3,11.9,19,27.3,24.9,35.6c1.2-12.5,3.6-39.1-0.6-60.5c-43.3,1.8-65.8,45.1-65.8,45.7l0,0l0,0l0,0l0,0c0,0,0,0.6-0.6,0.6l0,0
	l-0.6,0.6l0,0l0,0l0,0l0,0c-0.6,0-0.6,0-1.2,0c-0.6,0-0.6,0-1.2,0l0,0l0,0c0,0,0,0-0.6,0l0,0l0,0c0,0-0.6,0-0.6-0.6l0,0l0,0
	l-0.6-0.6l0,0l0,0l0,0L285,90l-24.3,38.5c5.9,1.8,10.1,7.7,10.1,14.2c0,8.3-6.5,14.8-14.8,14.8c-8.3,0-14.8-6.5-14.8-14.8
	c0-6.5,4.2-11.9,10.1-14.2L226.9,90l-21.3,54c-0.6,1.8-2.4,2.4-3.6,1.8c-0.6,0-1.2-0.6-1.8-1.2c-0.6-0.6-22.5-43.9-65.8-45.7
	c-3.6,21.3-1.8,47.4-0.6,60.5c5.9-8.3,17.2-23.1,24.9-35.6c1.2-1.2,3-1.8,4.2-0.6c1.2,1.2,1.8,3,0.6,4.2
	c-8.9,13.6-21.3,30.2-26.7,37.9c5.3,2.4,9.5,7.7,9.5,13.6c0,8.3-6.5,14.8-14.8,14.8c-8.3,0-14.8-6.5-14.8-14.8
	c0-7.1,4.7-13,11.3-14.2c-1.2-10.1-4.7-43.9,0.6-69.4c0-1.2,1.8-2.4,3-2.4c39.1,0,62.9,30.8,70.6,43.9l21.3-53.4c0,0,0-0.6,0.6-0.6
	l0,0l0,0c0,0,0,0,0.6-0.6s1.2-0.6,1.8-0.6l0,0h59.3l0,0c0.6,0,1.2,0.6,1.8,0.6c0,0,0,0,0.6,0.6l0,0l0,0l0.6,0.6l21.3,53.4
	c8.3-13,31.4-43.9,70.6-43.9c1.2,0,2.4,1.2,3,2.4c5.3,25.5,1.8,58.7,0.6,69.4c6.5,1.8,11.3,7.7,11.3,14.2
	C395.3,186.6,388.7,193.1,380.4,193.1z M380.4,169.4c-4.7,0-8.9,4.2-8.9,8.9c0,4.7,4.2,8.9,8.9,8.9c4.7,0,8.9-4.2,8.9-8.9
	C389.3,173.6,385.2,169.4,380.4,169.4L380.4,169.4z M131.4,169.4c-4.7,0-8.9,4.2-8.9,8.9c0,4.7,4.2,8.9,8.9,8.9s8.9-4.2,8.9-8.9
	C140.3,173.6,136.1,169.4,131.4,169.4L131.4,169.4z M255.9,133.9c-4.7,0-8.9,4.2-8.9,8.9s4.2,8.9,8.9,8.9c4.7,0,8.9-4.2,8.9-8.9
	S260.7,133.9,255.9,133.9z M231.6,86.4l24.3,39.1l24.3-39.1C280.2,86.4,231.6,86.4,231.6,86.4z M255.9,187.2
	c-52.8,0-88.9-5.9-89.5-5.9s-1.8-0.6-1.8-1.2c-0.6-0.6-0.6-1.2-0.6-2.4l5.9-29.6c0.6-1.8,1.8-3,3.6-2.4c1.8,0.6,2.4,1.8,2.4,3.6
	l-5.3,26.7c9.5,1.2,41.5,5.3,85.4,5.3s75.9-4.2,85.4-5.3l-5.3-26.7c-0.6-1.8,0.6-3,2.4-3.6s3,0.6,3.6,2.4l5.9,29.6
	c0,0.6,0,1.8-0.6,2.4c-0.6,0.6-1.2,1.2-1.8,1.2C344.9,181.3,308.7,187.2,255.9,187.2z"/>
</svg>
