<?xml version="1.0" encoding="iso-8859-1"?>
<!-- Generator: Adobe Illustrator 19.0.0, SVG Export Plug-In . SVG Version: 6.00 Build 0)  -->
<svg version="1.1" id="Layer_1" xmlns="http://www.w3.org/2000/svg" xmlns:xlink="http://www.w3.org/1999/xlink" x="0px" y="0px"
	 viewBox="0 0 503.689 503.689" style="enable-background:new 0 0 503.689 503.689;" xml:space="preserve">
<g transform="translate(1 1)">
	<path style="fill:#FFD0A1;" d="M395.8,190.258v34.133c0,9.387-7.68,17.067-17.067,17.067c0,0-25.6,68.267-42.667,93.867
		c-2.56,3.413-4.267,6.827-7.68,11.093c-11.093,15.36-30.72,31.573-77.653,31.573s-66.56-16.213-77.653-31.573
		c-3.413-4.267-5.973-7.68-7.68-11.093c-17.067-25.6-42.667-93.867-42.667-93.867c-9.387,0-17.067-7.68-17.067-17.067v-34.133
		c0-9.387,7.68-17.067,17.067-17.067v-34.133c0,0,51.2,8.533,128,8.533s128-8.533,128-8.533v34.133
		C388.12,173.191,395.8,180.871,395.8,190.258"/>
	<path style="fill:#F2EDDA;" d="M208.067,292.658H293.4c0,0-8.533,34.133-42.667,34.133S208.067,292.658,208.067,292.658z
		 M250.733,241.458c5.12,0,8.533,4.267,8.533,8.533c0,4.267-3.413,8.533-8.533,8.533c-5.12,0-8.533-4.267-8.533-8.533
		C242.2,245.725,245.613,241.458,250.733,241.458z"/>
	<g>
		<path style="fill:#C49AE9;" d="M429.933,121.991c9.387,0,17.067,7.68,17.067,17.067s-7.68,17.067-17.067,17.067
			s-17.067-7.68-17.067-17.067S420.547,121.991,429.933,121.991"/>
		<path style="fill:#C49AE9;" d="M429.933,19.591c8.533,42.667,0,102.4,0,102.4s-40.96-56.32-58.027-81.92l-0.853-1.707
			C386.413,28.125,406.04,19.591,429.933,19.591"/>
	</g>
	<path style="fill:#7EE1E6;" d="M250.733,497.458H3.267l8.533-34.133c8.533-25.6,25.6-51.2,68.267-51.2H114.2l0.853,0.853
		c-5.973,11.093-7.68,17.92-7.68,17.92s28.16-3.413,75.093-31.573c-15.36,52.907-11.093,81.067-11.093,81.067
		s23.893-14.507,54.613-59.733C235.373,474.418,250.733,497.458,250.733,497.458z M498.2,497.458H250.733
		c0,0,15.36-23.893,24.747-77.653c30.72,45.227,54.613,59.733,54.613,59.733s4.267-28.16-11.093-81.067
		c46.933,28.16,75.093,31.573,75.093,31.573s-1.707-6.827-7.68-17.92l0.853-0.853H421.4c42.667,0,59.733,25.6,68.267,51.2
		L498.2,497.458z"/>
	<g>
		<path style="fill:#ECF4F7;" d="M359.107,372.018c13.653,17.067,22.187,30.72,27.307,40.96c5.973,11.093,7.68,17.92,7.68,17.92
			s-28.16-3.413-75.093-31.573c15.36,52.907,11.093,81.067,11.093,81.067s-23.893-14.507-54.613-59.733
			c-8.533,54.613-24.747,77.653-24.747,77.653s-15.36-23.893-24.747-77.653c-30.72,45.227-54.613,59.733-54.613,59.733
			s-4.267-28.16,11.093-81.067c-46.933,28.16-75.093,31.573-75.093,31.573s1.707-6.827,7.68-17.92
			c5.12-10.24,13.653-23.893,27.307-40.96c0,0,10.24-13.653,29.013-23.893l1.707-1.707c11.093,14.507,30.72,31.573,77.653,31.573
			c47.787,0,66.56-17.067,77.653-31.573l0.853,0.853C347.16,357.511,359.107,372.018,359.107,372.018"/>
		<path style="fill:#ECF4F7;" d="M360.813,48.604l17.92,90.453c0,0-51.2,8.533-128,8.533s-128-8.533-128-8.533l18.773-88.747
			l1.707-1.707c20.48,18.773,30.72,39.253,30.72,39.253l34.133-85.333l42.667,68.267c-9.387,0-17.067,7.68-17.067,17.067
			s7.68,17.067,17.067,17.067s17.067-7.68,17.067-17.067s-7.68-17.067-17.067-17.067L293.4,2.525l34.133,85.333
			c0,0,11.093-21.333,32.427-40.107L360.813,48.604z"/>
	</g>
	<g>
		<path style="fill:#7EE1E6;" d="M131.267,39.218l-1.707,1.707c-17.067,25.6-58.027,80.213-58.027,80.213s-8.533-59.733,0-102.4
			C95.427,19.591,115.907,28.125,131.267,39.218"/>
		<path style="fill:#7EE1E6;" d="M71.533,121.991c9.387,0,17.067,7.68,17.067,17.067s-7.68,17.067-17.067,17.067
			s-17.067-7.68-17.067-17.067S62.147,121.991,71.533,121.991"/>
	</g>
	<g>
		<polygon style="fill:#FFE079;" points="293.4,2.525 250.733,70.791 208.067,2.525 		"/>
		<path style="fill:#FFE079;" d="M250.733,70.791c9.387,0,17.067,7.68,17.067,17.067s-7.68,17.067-17.067,17.067
			c-9.387,0-17.067-7.68-17.067-17.067S241.347,70.791,250.733,70.791"/>
	</g>
</g>
<path style="fill:#51565F;" d="M499.2,502.725c-1.707,0-3.413-1.707-4.267-3.413l-8.533-34.133
	c-11.093-32.427-31.573-47.787-64-47.787c-2.56,0-4.267-1.707-4.267-4.267c0-2.56,1.707-4.267,4.267-4.267
	c36.693,0,60.587,17.92,72.533,53.76l8.533,34.133c0.853,2.56-0.853,4.267-3.413,5.12C500.053,502.725,499.2,502.725,499.2,502.725z
	 M4.267,502.725H3.413c-2.56-0.853-3.413-2.56-3.413-5.12l8.533-34.133c11.947-36.693,35.84-54.613,72.533-54.613
	c2.56,0,4.267,1.707,4.267,4.267c0,2.56-1.707,4.267-4.267,4.267c-32.427,0-52.907,15.36-64,48.64l-8.533,34.133
	C7.68,501.018,5.973,502.725,4.267,502.725z M251.733,502.725c-1.707,0-2.56-0.853-3.413-1.707
	c-0.853-0.853-14.507-22.187-23.04-69.12c-28.16,39.253-49.493,52.053-50.347,52.907c-0.853,0.853-2.56,0.853-4.267,0
	c-1.707-0.853-2.56-1.707-2.56-3.413c0-0.853-3.413-25.6,8.533-72.533c-41.813,23.893-66.56,26.453-68.267,26.453
	s-2.56,0-3.413-1.707c-0.853-0.853-0.853-2.56-0.853-4.267c0-0.853,6.827-23.893,35.84-59.733c1.707-1.707,4.267-1.707,5.973-0.853
	c1.707,1.707,2.56,4.267,0.853,5.973c-18.773,23.04-28.16,40.96-31.573,50.347c11.093-2.56,34.133-10.24,66.56-29.013
	c1.707-0.853,3.413-0.853,5.12,0c1.707,0.853,1.707,2.56,1.707,4.267c-10.24,35.84-11.093,59.733-11.093,71.68
	c8.533-6.827,26.453-23.893,47.787-54.613c0.853-1.707,2.56-2.56,4.267-1.707c1.707,0,3.413,1.707,3.413,3.413
	c5.973,36.693,15.36,58.88,20.48,69.12c5.12-10.24,14.507-32.427,20.48-69.12c0-1.707,1.707-3.413,3.413-3.413
	c1.707,0,3.413,0,4.267,1.707c21.333,30.72,38.4,46.933,47.787,54.613c0-11.093-0.853-35.84-11.093-71.68
	c-0.853-1.707,0-3.413,1.707-4.267s3.413-0.853,5.12,0c32.427,18.773,55.467,26.453,66.56,29.013
	c-4.267-9.387-12.8-26.453-31.573-49.493c-1.707-1.707-0.853-4.267,0.853-5.973c1.707-1.707,4.267-0.853,5.973,0.853
	c29.013,35.84,35.84,58.88,35.84,59.733c0,1.707,0,2.56-0.853,4.267c-0.853,0.853-2.56,1.707-3.413,1.707
	c-0.853,0-25.6-3.413-68.267-26.453c11.947,46.933,8.533,71.68,8.533,72.533c0,1.707-0.853,2.56-2.56,3.413s-2.56,0.853-4.267,0
	c-0.853-0.853-22.187-13.653-50.347-52.907c-9.387,46.933-23.04,68.267-23.04,69.12C254.293,501.871,253.44,502.725,251.733,502.725
	z M251.733,383.258c-59.733,0-76.8-26.453-87.893-42.667l-1.707-1.707c-15.36-23.04-37.547-79.36-41.813-92.16
	c-10.24-1.707-17.92-10.24-17.92-21.333v-34.133c0-11.947,9.387-21.333,21.333-21.333c2.56,0,4.267,1.707,4.267,4.267
	c0,2.56-1.707,4.267-4.267,4.267c-6.827,0-12.8,5.973-12.8,12.8v34.133c0,6.827,5.973,12.8,12.8,12.8
	c1.707,0,3.413,0.853,4.267,2.56c0,0.853,25.6,68.267,41.813,93.013l1.707,1.707c10.24,15.36,25.6,38.4,80.213,38.4
	s69.973-23.04,80.213-38.4l1.707-1.707c16.213-24.747,41.813-92.16,41.813-93.013c0.853-1.707,2.56-2.56,4.267-2.56
	c6.827,0,12.8-5.973,12.8-12.8v-34.133c0-6.827-5.973-12.8-12.8-12.8c-2.56,0-4.267-1.707-4.267-4.267
	c0-2.56,1.707-4.267,4.267-4.267c11.947,0,21.333,9.387,21.333,21.333v34.133c0,11.093-7.68,19.627-17.92,21.333
	c-5.12,12.8-26.453,69.12-41.813,92.16l-1.707,1.707C328.533,356.805,311.467,383.258,251.733,383.258z M251.733,332.058
	c-36.693,0-46.933-36.693-46.933-37.547c0-0.853,0-2.56,0.853-3.413s1.707-1.707,3.413-1.707H294.4c1.707,0,2.56,0.853,3.413,1.707
	c0.853,0.853,0.853,2.56,0.853,3.413C298.667,295.365,288.427,332.058,251.733,332.058z M215.04,297.925
	c3.413,8.533,13.653,25.6,36.693,25.6s33.28-17.067,36.693-25.6H215.04z M251.733,263.791c-6.827,0-12.8-5.973-12.8-12.8
	c0-6.827,5.973-12.8,12.8-12.8c6.827,0,12.8,5.973,12.8,12.8C264.533,257.818,258.56,263.791,251.733,263.791z M251.733,246.725
	c-2.56,0-4.267,1.707-4.267,4.267c0,2.56,1.707,4.267,4.267,4.267c2.56,0,4.267-1.707,4.267-4.267
	C256,248.431,254.293,246.725,251.733,246.725z M302.933,221.125c-2.56,0-4.267-1.707-4.267-4.267v-4.267h-12.8
	c-2.56,0-4.267-1.707-4.267-4.267c0-2.56,1.707-4.267,4.267-4.267H320c2.56,0,4.267,1.707,4.267,4.267
	c0,2.56-1.707,4.267-4.267,4.267h-12.8v4.267C307.2,219.418,305.493,221.125,302.933,221.125z M200.533,221.125
	c-2.56,0-4.267-1.707-4.267-4.267v-4.267h-12.8c-2.56,0-4.267-1.707-4.267-4.267c0-2.56,1.707-4.267,4.267-4.267H217.6
	c2.56,0,4.267,1.707,4.267,4.267c0,2.56-1.707,4.267-4.267,4.267h-12.8v4.267C204.8,219.418,203.093,221.125,200.533,221.125z
	 M430.933,161.391c-11.947,0-21.333-9.387-21.333-21.333c0-9.387,5.973-17.067,13.653-19.627c-7.68-11.093-25.6-34.987-38.4-54.613
	c-1.707-1.707-0.853-4.267,0.853-5.973c1.707-1.707,4.267-0.853,5.973,0.853c11.947,17.067,27.307,39.253,35.84,51.2
	c1.707-17.92,5.12-56.32-0.853-87.04c-62.293,2.56-94.72,64.853-94.72,65.707l0,0l0,0l0,0l0,0c0,0,0,0.853-0.853,0.853l0,0
	l-0.853,0.853l0,0l0,0l0,0l0,0c-0.853,0-0.853,0-1.707,0c-0.853,0-0.853,0-1.707,0l0,0l0,0c0,0,0,0-0.853,0l0,0l0,0
	c0,0-0.853,0-0.853-0.853l0,0l0,0l-0.853-0.853l0,0l0,0l0,0l-30.72-77.653L258.56,68.378c8.533,2.56,14.507,11.093,14.507,20.48
	c0,11.947-9.387,21.333-21.333,21.333S230.4,100.804,230.4,88.858c0-9.387,5.973-17.067,14.507-20.48L209.92,12.911l-30.72,77.653
	c-0.853,2.56-3.413,3.413-5.12,2.56c-0.853,0-1.707-0.853-2.56-1.707c-0.853-0.853-32.427-63.147-94.72-65.707
	c-5.12,30.72-2.56,68.267-0.853,87.04c8.533-11.947,24.747-33.28,35.84-51.2c1.707-1.707,4.267-2.56,5.973-0.853
	c1.707,1.707,2.56,4.267,0.853,5.973c-12.8,19.627-30.72,43.52-38.4,54.613c7.68,3.413,13.653,11.093,13.653,19.627
	c0,11.947-9.387,21.333-21.333,21.333S51.2,152.858,51.2,140.911c0-10.24,6.827-18.773,16.213-20.48
	c-1.707-14.507-6.827-63.147,0.853-99.84c0-1.707,2.56-3.413,4.267-3.413c56.32,0,90.453,44.373,101.547,63.147l30.72-76.8
	c0,0,0-0.853,0.853-0.853l0,0l0,0c0,0,0,0,0.853-0.853c0.853-0.853,1.707-0.853,2.56-0.853l0,0H294.4l0,0
	c0.853,0,1.707,0.853,2.56,0.853c0,0,0,0,0.853,0.853l0,0l0,0l0.853,0.853l30.72,76.8c11.947-18.773,45.227-63.147,101.547-63.147
	c1.707,0,3.413,1.707,4.267,3.413c7.68,36.693,2.56,84.48,0.853,99.84c9.387,2.56,16.213,11.093,16.213,20.48
	C452.267,152.004,442.88,161.391,430.933,161.391z M430.933,127.258c-6.827,0-12.8,5.973-12.8,12.8s5.973,12.8,12.8,12.8
	s12.8-5.973,12.8-12.8S437.76,127.258,430.933,127.258L430.933,127.258z M72.533,127.258c-6.827,0-12.8,5.973-12.8,12.8
	s5.973,12.8,12.8,12.8c6.827,0,12.8-5.973,12.8-12.8S79.36,127.258,72.533,127.258L72.533,127.258z M251.733,76.058
	c-6.827,0-12.8,5.973-12.8,12.8c0,6.827,5.973,12.8,12.8,12.8c6.827,0,12.8-5.973,12.8-12.8
	C264.533,82.031,258.56,76.058,251.733,76.058z M216.747,7.791l34.987,56.32l34.987-56.32H216.747z M251.733,152.858
	c-75.947,0-128-8.533-128.853-8.533s-2.56-0.853-2.56-1.707c-0.853-0.853-0.853-1.707-0.853-3.413L128,96.538
	c0.853-2.56,2.56-4.267,5.12-3.413c2.56,0.853,3.413,2.56,3.413,5.12l-7.68,38.4c13.653,1.707,59.733,7.68,122.88,7.68
	s109.227-5.973,122.88-7.68l-7.68-38.4c-0.853-2.56,0.853-4.267,3.413-5.12c2.56-0.853,4.267,0.853,5.12,3.413L384,139.204
	c0,0.853,0,2.56-0.853,3.413c-0.853,0.853-1.707,1.707-2.56,1.707C379.733,144.325,327.68,152.858,251.733,152.858z"/>
<g>
</g>
<g>
</g>
<g>
</g>
<g>
</g>
<g>
</g>
<g>
</g>
<g>
</g>
<g>
</g>
<g>
</g>
<g>
</g>
<g>
</g>
<g>
</g>
<g>
</g>
<g>
</g>
<g>
</g>
</svg>
