<?xml version="1.0" encoding="utf-8"?>
<!-- Generator: Adobe Illustrator 27.0.1, SVG Export Plug-In . SVG Version: 6.00 Build 0)  -->
<svg version="1.1" id="Layer_1" xmlns="http://www.w3.org/2000/svg" xmlns:xlink="http://www.w3.org/1999/xlink" x="0px" y="0px"
	 viewBox="0 0 512 512" style="enable-background:new 0 0 512 512;" xml:space="preserve">
<style type="text/css">
	.st0{fill:#F9B259;}
	.st1{fill:#C9D1D9;}
	.st2{fill:#434A54;}
	.st3{fill:#7F4545;}
	.st4{fill:#48CFAD;}
	.st5{fill:#FFCE54;}
	.st6{fill:#965353;}
	.st7{fill:#ED5564;}
	.st8{fill:#5D9CEC;}
	.st9{fill:#A0D468;}
	.st10{fill:#AC92EB;}
	.st11{fill:#E6E9ED;}
</style>
<g>
	<path class="st0" d="M75,507c-38.6,0-70-31.4-70-70V75C5,36.4,36.4,5,75,5h362c38.6,0,70,31.4,70,70v362c0,38.6-31.4,70-70,70H75z"
		/>
	<path class="st1" d="M437,10c35.8,0,65,29.2,65,65v362c0,35.8-29.2,65-65,65H75c-35.8,0-65-29.2-65-65V75c0-35.8,29.2-65,65-65H437
		 M437,0H75C33.6,0,0,33.6,0,75v362c0,41.4,33.6,75,75,75h362c41.4,0,75-33.6,75-75V75C512,33.6,478.4,0,437,0L437,0z"/>
</g>
<g>
	<path class="st2" d="M328.9,431c-4,0-7.3-3.3-7.3-7.3v-14.6c0-4,3.3-7.3,7.3-7.3c4,0,7.3,3.3,7.3,7.3v14.6
		C336.2,427.7,332.9,431,328.9,431z"/>
	<path class="st2" d="M423.7,431c-4,0-7.3-3.3-7.3-7.3v-14.6c0-4,3.3-7.3,7.3-7.3s7.3,3.3,7.3,7.3v14.6
		C431,427.7,427.7,431,423.7,431z"/>
</g>
<g>
	<path class="st3" d="M416.4,372.7h-80.2c-4,0-7.3-3.3-7.3-7.3s3.3-7.3,7.3-7.3h80.2c4,0,7.3,3.3,7.3,7.3S420.4,372.7,416.4,372.7z"
		/>
	<path class="st3" d="M416.4,314.3h-80.2c-4,0-7.3-3.3-7.3-7.3c0-4,3.3-7.3,7.3-7.3h80.2c4,0,7.3,3.3,7.3,7.3
		C423.7,311.1,420.4,314.3,416.4,314.3z"/>
	<path class="st3" d="M416.4,256h-80.2c-4,0-7.3-3.3-7.3-7.3c0-4,3.3-7.3,7.3-7.3h80.2c4,0,7.3,3.3,7.3,7.3
		C423.7,252.7,420.4,256,416.4,256z"/>
	<path class="st3" d="M416.4,197.7h-80.2c-4,0-7.3-3.3-7.3-7.3c0-4,3.3-7.3,7.3-7.3h80.2c4,0,7.3,3.3,7.3,7.3
		C423.7,194.4,420.4,197.7,416.4,197.7z"/>
	<path class="st3" d="M416.4,139.3h-80.2c-4,0-7.3-3.3-7.3-7.3s3.3-7.3,7.3-7.3h80.2c4,0,7.3,3.3,7.3,7.3S420.4,139.3,416.4,139.3z"
		/>
	<path class="st3" d="M102.9,431c-4,0-7.3-3.3-7.3-7.3v-14.6c0-4,3.3-7.3,7.3-7.3s7.3,3.3,7.3,7.3v14.6
		C110.2,427.7,106.9,431,102.9,431z"/>
	<path class="st3" d="M292.5,431c-4,0-7.3-3.3-7.3-7.3v-14.6c0-4,3.3-7.3,7.3-7.3c4,0,7.3,3.3,7.3,7.3v14.6
		C299.8,427.7,296.5,431,292.5,431z"/>
	<rect x="89.7" y="88.3" class="st3" width="218.7" height="320.8"/>
</g>
<rect x="168.5" y="263.3" class="st4" width="58.3" height="29.2"/>
<rect x="168.5" y="102.9" class="st5" width="29.2" height="58.3"/>
<path class="st6" d="M307,81H88.3c-4,0-7.3,3.3-7.3,7.3v320.8c0,4,3.3,7.3,7.3,7.3H307c4,0,7.3-3.3,7.3-7.3V88.3
	C314.3,84.3,311.1,81,307,81z M95.6,175.8h204.2v65.6H95.6V175.8z M95.6,256h204.2v65.6H95.6V256z M299.8,95.6v65.6H95.6V95.6H299.8
	z M95.6,401.8v-65.6h204.2v65.6H95.6L95.6,401.8z"/>
<rect x="256" y="263.3" class="st4" width="29.2" height="58.3"/>
<g>
	<rect x="226.8" y="263.3" class="st7" width="29.2" height="58.3"/>
	<rect x="139.3" y="183.1" class="st7" width="29.2" height="58.3"/>
</g>
<rect x="168.5" y="183.1" class="st8" width="29.2" height="58.3"/>
<rect x="197.7" y="183.1" class="st9" width="29.2" height="58.3"/>
<rect x="256" y="102.9" class="st10" width="29.2" height="58.3"/>
<rect x="110.2" y="132" class="st9" width="58.3" height="29.2"/>
<rect x="110.2" y="103.4" class="st7" width="58.3" height="29.2"/>
<g>
	<rect x="145.7" y="183.1" class="st11" width="16.4" height="58.3"/>
	<rect x="262.4" y="102.9" class="st11" width="16.4" height="58.3"/>
	<rect x="174.9" y="102.9" class="st11" width="16.4" height="58.3"/>
</g>
<rect x="110.2" y="372.7" class="st7" width="58.3" height="29.2"/>
<g>
	<rect x="110.2" y="379" class="st11" width="58.3" height="16.4"/>
	<rect x="168.5" y="269.7" class="st11" width="58.3" height="16.4"/>
	<rect x="110.2" y="138.4" class="st11" width="58.3" height="16.4"/>
</g>
<rect x="226.8" y="102.9" class="st8" width="29.2" height="58.3"/>
<rect x="197.7" y="102.9" class="st7" width="29.2" height="58.3"/>
<rect x="110.2" y="183.1" class="st4" width="29.2" height="58.3"/>
<rect x="226.8" y="212.2" class="st5" width="58.3" height="29.2"/>
<rect x="226.8" y="183.1" class="st7" width="58.3" height="29.2"/>
<rect x="110.2" y="263.3" class="st5" width="29.2" height="58.3"/>
<rect x="139.3" y="263.3" class="st10" width="29.2" height="58.3"/>
<rect x="168.5" y="292.5" class="st9" width="58.3" height="29.2"/>
<rect x="256" y="343.5" class="st5" width="29.2" height="58.3"/>
<rect x="168.5" y="343.5" class="st8" width="29.2" height="58.3"/>
<rect x="197.7" y="343.5" class="st10" width="29.2" height="58.3"/>
<rect x="226.8" y="343.5" class="st4" width="29.2" height="58.3"/>
<rect x="110.2" y="343.5" class="st9" width="58.3" height="29.2"/>
<g>
	<path class="st6" d="M336.2,431c-4,0-7.3-3.3-7.3-7.3V88.3c0-4,3.3-7.3,7.3-7.3c4,0,7.3,3.3,7.3,7.3v335.4
		C343.5,427.7,340.2,431,336.2,431z"/>
	<path class="st6" d="M416.4,431c-4,0-7.3-3.3-7.3-7.3V88.3c0-4,3.3-7.3,7.3-7.3s7.3,3.3,7.3,7.3v335.4
		C423.7,427.7,420.4,431,416.4,431z"/>
</g>
<g>
	<rect x="226.8" y="189.5" class="st11" width="58.3" height="16.4"/>
	<rect x="168.5" y="298.8" class="st11" width="58.3" height="16.4"/>
	<rect x="116.5" y="263.3" class="st11" width="16.4" height="58.3"/>
	<rect x="204" y="343.5" class="st11" width="16.4" height="58.3"/>
	<rect x="233.2" y="343.5" class="st11" width="16.4" height="58.3"/>
	<rect x="262.4" y="343.5" class="st11" width="16.4" height="58.3"/>
</g>
</svg>
