<?xml version="1.0" encoding="utf-8"?>
<!-- Generator: Adobe Illustrator 27.0.1, SVG Export Plug-In . SVG Version: 6.00 Build 0)  -->
<svg version="1.1"
	 id="Capa_1" image-rendering="optimizeQuality" shape-rendering="geometricPrecision" text-rendering="geometricPrecision"
	 xmlns="http://www.w3.org/2000/svg" xmlns:xlink="http://www.w3.org/1999/xlink" x="0px" y="0px" viewBox="0 0 406 511.8"
	 style="enable-background:new 0 0 406 511.8;" xml:space="preserve">
<style type="text/css">
	.st0{fill:#FFFFFF;}
</style>
<path class="st0" d="M391.1,313.4c0.1,3.5-2.3,6.5-5.6,7.3c-4.2,1.4-8.9,3.5-13.2,3.6c-3.4,0.1-6.3-2.2-7.2-5.4l-7.2-20.5
	c-1.2-3.3-2.3-6.5-3.4-9.9l-13.8,26c-1.5,2.8-7.3,6-9.8,7.6c-3.4,2.2-7.9,1.3-10.2-2c-0.6-0.9-0.9-1.8-1.1-2.7l-8.1-40.5l-11.1-7.5
	l-25.8-4c0.9,1.4,1.8,2.7,2.8,4.1c4.7,7,9.2,13.5,10.7,20.3c2.5,10.9-1.4,20.1-19.5,27.1c0.5,0.3,1.1,0.6,1.6,1
	c7.2,5.3,9.1,13.3-6,33.8c-3.8,5.2-7.1,9.8-9.8,13.8c-2.1,3.1-4.2,6.1-6,9l4,25.3c0.5,3.4-0.2,6.7-2.3,10
	c-3.4,5.1-8.3,7.1-12.5,11.2c-0.6,0.6-1.1,1.1-1.6,1.7l1.8,7.2c0.7,2.7-0.3,5.4-2.2,7.1c-1.2,1.1-3,1.8-4.5,2.5
	c-0.5,2.1-1.2,4.1-2.1,6.2c-3.2,6.9-9.3,13.8-16.1,17.2c-7.6,3.8-16.4,3-24.7,3.2c-4.1,0.1-7.4-3.1-7.5-7.2
	c-0.1-3.3-0.6-6.8-1.4-10.5c-2.1-8.9-6.3-16.9-8.7-25.7c-2.1-7.8-3.3-18.4,1.4-25.5c0.7-1,0.7-6.3,0.7-7.5
	c-0.1-4.7-2.2-9.3-4.6-13.3c-2.1-3.6-6.5-10.5-6.5-14.6c-0.3-12-4.4-14.5-10.1-14.4c-8.7,0.2-17.5,2.8-26.5,3
	c-3.8,0.1-7.7-1.6-11.5-5c-5.7-5.1-11.4-14.6-15-21.5c-3.2-6-3-7.3-3.1-14c-0.6-20.4-1.2-39.6,18.1-54.2
	c7.9-11.7,15.1-19.4,23.8-24.4c9.1-5.2,19.2-7.1,33.1-7.4c4.1-0.1,7.4,3.1,7.5,7.2l0.2,10.4l8.9,3.7l0.1-0.6
	c1.6-8.5,10.7-5.7,16.1-3.9c6.4,2.2,10,5.9,17.6,4.2c2.9-0.6,2.3-1.4,2.6-4.4l-8.7,1c-2.2,0.2-4.3-0.5-5.8-1.9
	c-1.3-1.2-1.8-2.7-2.8-4.1c-3.3-4.7-8.8-7.4-15.6-10.6c-8.3-4-18-8.7-28.6-18.4c-34.8,13.2-46,15.1-48.9,7.4
	c-1.8-4.5,0.6-8.3,3.6-13.3c2.8-4.5,6.8-10.9,6.6-16.9c-0.1-3.1,1.8-5.9,4.7-7l29.2-14.1c-7,0-9.6-12-10.8-16.9
	c-1.6-6.9,7-9.9,11.6-13.1c3.1-2.2,6.8-5,11.1-8.5l0.3-0.2c-27,4.8-52.5,15.7-74.9,31.4c-39.8,27.9-68,72.1-76.5,120
	c-2.2,12.3-3.1,24.9-2.9,38c0.3,13,1.8,25.6,4.5,37.8c0.1,0.7,0.3,1.3,0.5,2l34.3,15.5c3.2,1.4,4.3,4.2,4.3,7.4
	c0.3,9.1-2,16.1-4.4,23.2c-1.9,5.5-3.8,11.1-4,17.7c0,0.7-0.1,1.4-0.3,2c13.7,19.3,31.2,36.1,51.2,48.8c20.7,13.3,44.1,22.7,68.3,27
	c24.7,4.4,51.3,3.8,75.8-1.6c24.1-5.3,46.9-15.7,67.1-29.9c19.6-13.8,36.6-31.5,49.5-51.6c13.3-20.7,22.7-44.1,27-68.3
	c2.2-12.2,3.1-24.8,2.9-37.8C391.1,307.7,391,310.6,391.1,313.4L391.1,313.4z M296.8,49.7c21.5,0,38.9,17.4,38.9,38.9
	c0,21.5-17.4,38.9-38.9,38.9c-21.5,0-38.9-17.4-38.9-38.9C257.8,67.2,275.2,49.7,296.8,49.7z M341.8,196.1
	c-9.9,10.8-21.4,20.5-34.3,28.5c-4.7,3.5-11.1,3.7-16,0.6c-19.2-12.2-35.4-27-48.1-43c-17.7-22.2-28.9-47-32.7-70.9
	c-4-24.9-0.2-49,12.4-68.8c5-7.9,11.4-15,19.2-21.2C259.7,7.2,280-0.2,300.3,0c19.7,0.2,39.2,7.4,55.9,22.7
	C362,28,367,34.2,371.1,40.9c13.4,22.1,16.4,50,10.6,78.1C376.1,146.1,362.2,173.7,341.8,196.1z M299,213.2
	c68.2-41.4,94.5-137.2,47.6-180C318,7,280.5,8.8,251,32.4C199.2,73.6,222.4,164.5,299,213.2L299,213.2z M369.8,192.8
	c14.8,21.4,25.7,45.6,31.3,71c2.9,13.1,4.5,26.7,4.8,40.7c0.3,14-0.7,27.6-3.1,40.8c-4.7,26.2-14.8,51.3-29.1,73.6
	c-14,21.8-32.2,40.9-53.4,55.7c-21.7,15.2-46.4,26.5-72.3,32.2c-26.4,5.9-54.9,6.5-81.5,1.7c-26.2-4.7-51.3-14.8-73.6-29.1
	c-21.8-14-40.9-32.2-55.7-53.4c-15.2-21.7-26.5-46.4-32.2-72.3C2,340.6,0.3,327,0.1,313.1c-0.3-14,0.7-27.6,3.1-40.8
	c9.2-51.7,39.6-99.2,82.6-129.4c31.1-21.8,66.3-34.3,104.4-36.7c0.2,1.5,0.4,3.1,0.7,4.6c0.8,5.2,1.9,10.4,3.3,15.6
	c-3.2,0.1-3.3,0.1-6.3,1.7c-2.6,1.5-6,3.8-9.9,7c-4.3,3.4-8.2,6.4-11.8,8.9c-2.1,1.5-4,2.8-5.8,3.9c2.7,0.6,5,2,6.9,10.2
	c1.2,5.2,3.8,13.4-2.5,16.5l-27.5,13.2c-1.2,8.1-5.4,14.9-8.6,20c-0.1,0.1-0.1,0.2-0.2,0.2c3.5-2.2,11.8-9.5,31.8-17.2
	c2.8-1.3,6.1-0.7,8.2,1.5c10.1,10.1,19.9,14.9,28.1,18.8c8.6,4.1,15.7,7.6,20.9,14.9l11.8-1.3c2.3-0.4,4.7,0.2,6.4,1.8
	c1.5,1.3,2.3,3.2,2.4,5.2c0.1,5.2,0,14.9-2.9,19.6c-2.5,4.1-6.7,6.5-11.5,7.5c-10.1,2.2-15.2-0.4-24-4.1c-0.4,1.9-0.5,3.2-1.8,4.8
	c-2,2.5-5.5,3.4-8.5,2.2l-21.1-8.7c-2.9-0.9-5-3.6-5.1-6.8l-0.2-7.6c-7.7,0.7-13.7,2.2-18.8,5.1c-6.7,3.8-12.5,10.3-19.3,20.5
	c-0.5,0.9-1.2,1.6-2,2.2c-14.1,10.1-13.6,25.9-13.1,42.7c0.1,3.4,0.2,4.7,0.2,5.7c0,0.3,0.4,0.2,1.2,1.7c2.8,5.2,7.7,13.6,12,17.5
	c0.9,0.8,1.3,1.2,1.3,1.2c8.9-0.2,17.7-2.8,26.5-3c14.2-0.3,24.6,4.8,25.1,28.8c0,0,4.3,7.2,4.4,7.4c5.5,9.2,7.9,18.2,6.2,29
	c-1.6,9.6-5.4,8.9-2.1,21c2.4,9,6.6,16.9,8.8,26.2c0.5,2.1,0.9,4.2,1.2,6.2c3.8-0.1,8.2,0.3,11.7-1.4c5.2-2.6,10.3-9.8,10.8-15.6
	c0.2-3.4,2.1-5.3,5-6.7c-0.8-3.4-2.3-6.8-0.3-10.1c3.2-5.2,7.8-9.4,12.8-12.8c1.5-1,2.5-1.9,3.1-2.7c0.2-0.4,0.2,0,0.1-0.5
	l-4.3-26.9c-0.4-1.8-0.1-3.8,0.9-5.5c2.1-3.3,4.7-7.2,7.8-11.9c3.1-4.5,6.4-9.2,10-14.1c7.9-10.8,9.4-13.2,9.2-13.4
	c-0.5-0.4-1.7-0.9-3-1.3c-3.9-1.5-8.2-3.2-11.1-7.3c-3.4-4.7-4.6-12.3,2.9-14.1c19.8-4.6,24.6-9.1,23.5-14c-1-4.1-4.6-9.5-8.6-15.3
	c-3.9-5.8-8-11.9-10.9-18.6c-0.7-1.4-0.9-2.9-0.7-4.4c0.6-4,4.3-6.8,8.3-6.1l39.7,6.2c2,0.3,3.8,0.5,5.5,1.6l14.5,9.8
	c1.9,1,3.2,2.9,3.7,5l6,29.9l17.9-33.8c2.7-6,11.5-5.8,13.7,0.6c4.5,13.3,9,26.4,13.7,39.7c0.2-4,0.5-9.3,1-14.6
	c0.6-5.4,1.4-10.7,2.6-14.8c0.9-3,2.1-5.6,3.6-7.5c-1.2-7-2.9-13.8-4.9-20.5c-2.5-8.1-5.5-16-9.2-23.6c-3.2-6.6-6.7-13.1-10.6-19.3
	C362.9,202.4,366.5,197.6,369.8,192.8L369.8,192.8z M39,396.8c0.3-0.9,0.6-1.9,0.9-2.8c1.6-4.8,3.2-9.4,3.6-14.6l-15.6-7
	C31,380.6,34.8,389.1,39,396.8z"/>
</svg>
