<?xml version="1.0" encoding="utf-8"?>
<!-- Generator: Adobe Illustrator 27.0.1, SVG Export Plug-In . SVG Version: 6.00 Build 0)  -->
<svg version="1.1" id="Layer_1" xmlns="http://www.w3.org/2000/svg" xmlns:xlink="http://www.w3.org/1999/xlink" x="0px" y="0px"
	 viewBox="0 0 512 512" style="enable-background:new 0 0 512 512;" xml:space="preserve">
<style type="text/css">
	.st0{fill:#373636;}
	.st1{fill:#C9D1D9;}
	.st2{fill:#E0E2E3;}
	.st3{fill:#B88353;}
	.st4{fill:#8C5D37;}
	.st5{fill:#D75A4A;}
	.st6{fill:#ECBA16;}
	.st7{fill:#7383BF;}
	.st8{fill:#B0B6BB;}
</style>
<g>
	<path class="st0" d="M75,507c-38.6,0-70-31.4-70-70V75C5,36.4,36.4,5,75,5h362c38.6,0,70,31.4,70,70v362c0,38.6-31.4,70-70,70H75z"
		/>
	<path class="st1" d="M437,10c35.8,0,65,29.2,65,65v362c0,35.8-29.2,65-65,65H75c-35.8,0-65-29.2-65-65V75c0-35.8,29.2-65,65-65H437
		 M437,0H75C33.6,0,0,33.6,0,75v362c0,41.4,33.6,75,75,75h362c41.4,0,75-33.6,75-75V75C512,33.6,478.4,0,437,0L437,0z"/>
</g>
<g>
	<g>
		<path class="st2" d="M424.9,144.4c0-0.4-0.1-0.8-0.2-1.1c-0.1-0.4-0.1-0.8-0.2-1.1c-0.2-0.4-0.4-0.8-0.7-1.1
			c-0.2-0.2-0.2-0.5-0.5-0.8l-41.5-46c-2.2-2.5-6.1-2.7-8.5-0.4c-2.5,2.2-2.7,6-0.4,8.5l39,43.2l-22.7,56.9
			c-1.2,3.1,0.3,6.6,3.4,7.9c0.7,0.3,1.5,0.4,2.2,0.4c2.4,0,4.7-1.4,5.6-3.8l24.1-60.3c0.1-0.3,0.1-0.6,0.2-0.9
			C424.8,145.3,424.9,144.9,424.9,144.4"/>
		<path class="st2" d="M340.5,428c-3.3,0-6-2.7-6-6c0-0.2,0-0.5-0.6-1.1c-4.3-4.1-19.8-5.4-29.3-4.9h0c-23.8,0-40-4.8-48.5-14.3
			c-8.5,9.5-24.8,14.3-48.3,14.3c-9.8-0.5-25.2,0.8-29.6,4.9c-0.6,0.6-0.6,0.9-0.6,1.1c0,3.3-2.7,6-6,6s-6-2.7-6-6
			c0-3.7,1.5-7.1,4.3-9.8c9.5-9.1,33.5-8.5,38.2-8.3c25.7,0,35.5-6.4,38.9-10.2c2.1-2.4,2.8-4.6,3-5.9c-0.1-1.5,0-2.6,0.1-2.9
			c0.4-3,3-5.1,6-5.1s5.5,2.2,6,5.1c0,0.3,0.2,1.4,0.1,2.9c0.2,1.3,0.9,3.5,3,5.9c3.5,3.8,13.2,10.2,39.2,10.2
			c4.4-0.2,28.4-0.8,37.9,8.3c2.8,2.7,4.3,6.1,4.3,9.8C346.5,425.3,343.8,428,340.5,428"/>
	</g>
	<path class="st3" d="M93.1,385.7h325.9V253H93.1V385.7z"/>
	<g>
		<path class="st4" d="M93.1,421.9h24.1v-36.2H93.1C93.1,385.7,93.1,421.9,93.1,421.9z"/>
		<path class="st4" d="M394.8,421.9h24.1v-36.2h-24.1V421.9z"/>
		<path class="st4" d="M81,253h350v-24.1H81V253z"/>
	</g>
	<path class="st5" d="M165.5,228.8H93.1c-6.7,0-12.1-5.4-12.1-12.1c0-6.7,5.4-12.1,12.1-12.1h72.4
		C157.4,211.4,157.4,222.2,165.5,228.8"/>
	<path class="st6" d="M177.6,204.7h-72.4c-6.7,0-12.1-5.4-12.1-12.1s5.4-12.1,12.1-12.1h72.4C169.5,187.2,169.5,198,177.6,204.7"/>
	<path class="st7" d="M310.3,228.8H201.7l10-107.5c0.7-7.4,5.1-13.8,11.2-18.4c6.2-4.7,14-6.7,21.8-6.7h25.9c6.3,0,12.7,1.4,18,4.9
		c7.1,4.6,12.2,11.8,13,20.3L310.3,228.8z"/>
	<g>
		<path class="st8" d="M418.9,228.8h-48.3V217c0-6.8,5.5-12.3,12.3-12.3h23.6c6.8,0,12.3,5.5,12.3,12.3V228.8z"/>
		<path class="st8" d="M385.5,120.1l-10.7,10.7L345,100.9l10.7-10.7c8.2-8.2,21.6-8.2,29.9,0S393.8,111.8,385.5,120.1"/>
	</g>
	<path class="st4" d="M361.9,355.5H150.1c-11.5,0-20.8-9.3-20.8-20.8V304c0-11.5,9.3-20.8,20.8-20.8h211.8
		c11.5,0,20.8,9.3,20.8,20.8v30.8C382.7,346.2,373.4,355.5,361.9,355.5"/>
</g>
</svg>
