<?xml version="1.0" encoding="iso-8859-1"?>
<!-- Generator: Adobe Illustrator 19.0.0, SVG Export Plug-In . SVG Version: 6.00 Build 0)  -->
<svg version="1.1" id="Layer_1" xmlns="http://www.w3.org/2000/svg" xmlns:xlink="http://www.w3.org/1999/xlink" x="0px" y="0px"
	 viewBox="0 0 512 512" style="enable-background:new 0 0 512 512;" xml:space="preserve">
<g>
	<g>
		<path style="fill:#E0E2E3;" d="M503.117,92.802c0.009-0.583-0.132-1.112-0.238-1.677c-0.097-0.556-0.15-1.103-0.353-1.633
			c-0.23-0.6-0.618-1.103-0.971-1.642c-0.247-0.362-0.362-0.777-0.662-1.103l-60.716-67.275c-3.275-3.628-8.854-3.902-12.473-0.636
			c-3.619,3.266-3.902,8.845-0.636,12.465l57.035,63.188l-33.262,83.165c-1.818,4.529,0.388,9.666,4.917,11.485
			c1.068,0.424,2.18,0.627,3.275,0.627c3.505,0,6.824-2.101,8.201-5.553l35.31-88.276c0.168-0.424,0.141-0.865,0.238-1.298
			C502.923,94.02,503.108,93.429,503.117,92.802"/>
		<path style="fill:#E0E2E3;" d="M379.586,507.556c-4.882,0-8.828-3.955-8.828-8.828c0-0.335,0-0.786-0.883-1.624
			c-6.321-6.047-28.893-7.865-42.849-7.212h-0.071c-34.763,0-58.492-7.027-70.956-20.895
			c-12.465,13.877-36.228,20.904-70.621,20.904c-14.354-0.662-36.935,1.156-43.255,7.203c-0.883,0.839-0.883,1.289-0.883,1.624
			c0,4.873-3.946,8.828-8.828,8.828c-4.882,0-8.828-3.955-8.828-8.828c0-5.455,2.198-10.443,6.356-14.398
			c13.956-13.338,48.975-12.385,55.852-12.076c37.632-0.009,51.862-9.366,56.956-14.936c3.143-3.443,4.114-6.709,4.387-8.66
			c-0.124-2.26,0.071-3.778,0.132-4.193c0.644-4.326,4.361-7.53,8.73-7.53s8.086,3.204,8.73,7.53
			c0.062,0.424,0.265,1.977,0.124,4.273c0.291,1.889,1.262,5.155,4.396,8.58c5.094,5.57,19.324,14.927,57.37,14.927
			c6.462-0.3,41.481-1.236,55.437,12.085c4.158,3.955,6.356,8.942,6.356,14.398C388.414,503.601,384.468,507.556,379.586,507.556"/>
	</g>
	<path style="fill:#B88353;" d="M17.655,445.762h476.69V251.556H17.655V445.762z"/>
	<g>
		<path style="fill:#8C5D37;" d="M17.655,498.728h35.31v-52.966h-35.31V498.728z"/>
		<path style="fill:#8C5D37;" d="M459.034,498.728h35.31v-52.966h-35.31V498.728z"/>
		<path style="fill:#8C5D37;" d="M0,251.556h512v-35.31H0V251.556z"/>
	</g>
	<path style="fill:#D75A4A;" d="M123.586,216.245H17.655C7.901,216.245,0,208.344,0,198.59c0-9.755,7.901-17.655,17.655-17.655
		h105.931C111.81,190.733,111.819,206.535,123.586,216.245"/>
	<path style="fill:#ECBA16;" d="M141.241,180.935H35.31c-9.754,0-17.655-7.901-17.655-17.655s7.901-17.655,17.655-17.655h105.931
		C129.465,155.423,129.474,171.225,141.241,180.935"/>
	<path style="fill:#7383BF;" d="M335.448,216.245H176.552l14.627-157.228c1.006-10.876,7.442-20.259,16.393-26.968
		c9.119-6.824,20.542-9.825,31.929-9.825h37.932c9.26,0,18.582,2.083,26.341,7.124c10.408,6.762,17.814,17.24,18.953,29.67
		L335.448,216.245z"/>
	<g>
		<path style="fill:#B0B6BB;" d="M494.345,216.245h-70.621V198.97c0-9.958,8.077-18.035,18.035-18.035h34.551
			c9.958,0,18.035,8.077,18.035,18.035V216.245z"/>
		<path style="fill:#B0B6BB;" d="M445.506,57.192l-15.607,15.607l-43.697-43.697l15.607-15.607
			c12.067-12.067,31.629-12.067,43.697,0S457.574,45.124,445.506,57.192"/>
	</g>
	<path style="fill:#8C5D37;" d="M410.921,401.624H101.081c-16.825,0-30.464-13.639-30.464-30.455v-45.021
		c0-16.817,13.639-30.455,30.464-30.455h309.839c16.825,0,30.455,13.639,30.455,30.455v45.021
		C441.376,387.986,427.746,401.624,410.921,401.624"/>
</g>
<g>
</g>
<g>
</g>
<g>
</g>
<g>
</g>
<g>
</g>
<g>
</g>
<g>
</g>
<g>
</g>
<g>
</g>
<g>
</g>
<g>
</g>
<g>
</g>
<g>
</g>
<g>
</g>
<g>
</g>
</svg>
