<?xml version="1.0" encoding="utf-8"?>
<!-- Generator: Adobe Illustrator 27.0.1, SVG Export Plug-In . SVG Version: 6.00 Build 0)  -->
<svg version="1.1"
	 id="svg8" xmlns:svg="http://www.w3.org/2000/svg" xmlns:inkscape="http://www.inkscape.org/namespaces/inkscape" xmlns:sodipodi="http://sodipodi.sourceforge.net/DTD/sodipodi-0.dtd" xmlns:dc="http://purl.org/dc/elements/1.1/" xmlns:cc="http://creativecommons.org/ns#" xmlns:rdf="http://www.w3.org/1999/02/22-rdf-syntax-ns#" inkscape:export-filename="/home/nestor/Pictures/Fediversal/Logo_penta_connectat-imbrincat_retallats-color-512x.png" inkscape:export-xdpi="66.175453" inkscape:export-ydpi="66.175453" inkscape:version="0.92.2 2405546, 2018-03-11" sodipodi:docname="Logo_penta_connectat-imbrincat_retallats-color.svg"
	 xmlns="http://www.w3.org/2000/svg" xmlns:xlink="http://www.w3.org/1999/xlink" x="0px" y="0px" viewBox="0 0 557.1 557.1"
	 style="enable-background:new 0 0 557.1 557.1;" xml:space="preserve">
<style type="text/css">
	.st0{fill:#A730B8;}
	.st1{fill:#5496BE;}
	.st2{fill:#CE3D1A;}
	.st3{fill:#D0188F;}
	.st4{fill:#5B36E9;}
	.st5{fill:#30B873;}
	.st6{fill:#EBE305;}
	.st7{fill:#F47601;}
	.st8{fill:#57C115;}
	.st9{fill:#DBB210;}
	.st10{fill:#FFCA00;fill-opacity:0.996;}
	.st11{fill:#64FF00;fill-opacity:0.996;}
	.st12{fill:#00A3FF;fill-opacity:0.996;}
	.st13{fill:#9500FF;fill-opacity:0.996;}
	.st14{fill:#FF0000;fill-opacity:0.996;}
</style>
<sodipodi:namedview  bordercolor="#666666" borderopacity="1.0" fit-margin-bottom="5" fit-margin-left="5" fit-margin-right="5" fit-margin-top="5" id="base" inkscape:current-layer="layer2" inkscape:cx="-209.83484" inkscape:cy="399.15332" inkscape:document-units="mm" inkscape:pageopacity="0.0" inkscape:pageshadow="2" inkscape:snap-global="false" inkscape:snap-midpoints="true" inkscape:snap-smooth-nodes="true" inkscape:window-height="736" inkscape:window-maximized="1" inkscape:window-width="1366" inkscape:window-x="0" inkscape:window-y="32" inkscape:zoom="0.50411932" pagecolor="#ffffff" showgrid="false">
	</sodipodi:namedview>
<g id="layer2" transform="translate(6.6789703,-32.495842)" inkscape:groupmode="layer" inkscape:label="Linies">
	<path id="path9722" inkscape:connector-curvature="0" class="st0" d="M129.2,238.8c-4.9,9.4-12.6,17.1-22.1,22l121.3,121.8
		l29.2-14.8L129.2,238.8z M289.2,399.5l-29.2,14.8l61.5,61.7c4.9-9.4,12.6-17.1,22.1-22L289.2,399.5z"/>
	<path id="path9729" inkscape:connector-curvature="0" class="st1" d="M429.6,287l-68.7,34.8l5.1,32.4l77.7-39.4
		C436.2,307.3,431.3,297.5,429.6,287z M321,342.1l-162.4,82.3c7.5,7.6,12.4,17.3,14.1,27.8l153.4-77.7L321,342.1z"/>
	<path id="path9713" inkscape:connector-curvature="0" class="st2" d="M268.8,139.3l-78.4,153l23.1,23.2l83-162
		C286,151.8,276.3,146.8,268.8,139.3z M170,332.1l-39.7,77.5c10.5,1.8,20.2,6.7,27.7,14.2l35.1-68.5L170,332.1z"/>
	<path id="path1015" inkscape:connector-curvature="0" class="st3" d="M106.4,261.2c-8,4-16.9,5.9-25.8,5.4c-1.7-0.1-3.3-0.3-5-0.5
		l23.2,148.2c8-4,16.9-5.9,25.8-5.4c1.7,0.1,3.3,0.3,5,0.5L106.4,261.2z"/>
	<path id="path1674" inkscape:connector-curvature="0" class="st4" d="M172.8,452.9c0.5,3.4,0.7,6.9,0.5,10.4
		c-0.4,7.1-2.3,14-5.5,20.4l148.2,23.8c-0.5-3.4-0.7-6.9-0.5-10.4c0.4-7.1,2.3-14,5.5-20.4L172.8,452.9z"/>
	<path id="path1676" inkscape:connector-curvature="0" class="st5" d="M444.2,315.4L375.8,449c10.5,1.8,20.2,6.7,27.7,14.2
		l68.4-133.6C461.4,327.9,451.7,322.9,444.2,315.4z"/>
	<path id="path1678" inkscape:connector-curvature="0" class="st6" d="M350.9,126.5c-4.9,9.4-12.6,17.1-22.1,22l105.9,106.4
		c4.9-9.4,12.6-17.1,22.1-22L350.9,126.5z"/>
	<path id="path1680" inkscape:connector-curvature="0" class="st7" d="M254.2,111l-133.9,67.9c7.5,7.6,12.4,17.3,14.1,27.8
		l133.9-67.9C260.8,131.2,255.9,121.5,254.2,111z"/>
	<path id="path9758" inkscape:connector-curvature="0" class="st8" d="M328.5,148.6c-8.1,4.1-17.1,6.1-26.2,5.6
		c-1.5-0.1-3-0.3-4.5-0.5l11.9,76l32.4,5.2L328.5,148.6z M316.5,273.9l28.1,179.6c7.9-3.9,16.7-5.7,25.4-5.2
		c1.8,0.1,3.6,0.3,5.4,0.6l-26.5-169.8L316.5,273.9z"/>
	<path id="path9760" inkscape:connector-curvature="0" class="st9" d="M134.4,207.2c0.6,3.5,0.7,7,0.6,10.6
		c-0.4,7-2.2,13.9-5.4,20.2l76,12.2l14.9-29.2L134.4,207.2z M264.7,228.2l-14.9,29.2l179.6,28.9c-0.5-3.4-0.7-6.9-0.5-10.3
		c0.4-7.1,2.3-14.1,5.5-20.5L264.7,228.2z"/>
</g>
<g id="layer3" transform="translate(6.6789703,-32.495842)" inkscape:groupmode="layer" inkscape:label="Nodes">
	<circle id="path817" class="st10" cx="305.1" cy="102.6" r="47"/>
	<circle id="path819" class="st11" cx="480.5" cy="278.7" r="47"/>
	<circle id="path823" class="st12" cx="367.2" cy="499.9" r="47"/>
	<circle id="path825" class="st13" cx="121.8" cy="460.5" r="47"/>
	<circle id="path827" class="st14" cx="83.4" cy="215" r="47"/>
</g>
</svg>
