<?xml version="1.0" encoding="iso-8859-1"?>
<!-- Generator: Adobe Illustrator 19.0.0, SVG Export Plug-In . SVG Version: 6.00 Build 0)  -->
<svg version="1.1" id="Layer_1" xmlns="http://www.w3.org/2000/svg" xmlns:xlink="http://www.w3.org/1999/xlink" x="0px" y="0px"
	 viewBox="0 0 56.292 56.292" style="enable-background:new 0 0 56.292 56.292;" xml:space="preserve">
<g>
	<path style="fill:#66CEDB;" d="M32.146,14.292h-8c-1.302,0-2.402,0-2.816,2h13.631C34.548,14.292,33.448,14.292,32.146,14.292z"/>
	<circle style="fill:#F8CF26;" cx="5.146" cy="37" r="3"/>
	<circle style="fill:#F8CF26;" cx="5.146" cy="50" r="3"/>
	<circle style="fill:#F8CF26;" cx="5.146" cy="24" r="3"/>
	<path style="fill:#EE8B26;" d="M3.146,12c0-0.553,0.448-0.708,1-0.708h10v-6h-12v6.374l1,1.334V12z M4.146,7.292h8v2h-8V7.292z"/>
	<circle style="fill:#F8CF26;" cx="51.146" cy="24" r="3"/>
	<circle style="fill:#F8CF26;" cx="51.146" cy="37" r="3"/>
	<circle style="fill:#F8CF26;" cx="51.146" cy="50" r="3"/>
	<circle style="fill:#F8CF26;" cx="28.146" cy="5" r="3"/>
	<path style="fill:#EE8B26;" d="M52.146,2.292h-12V6c0,0.315-0.148,0.758-0.4,0.946l-1.6,1.346h14V2.292z M50.146,6.292h-8v-2h8
		V6.292z"/>
	<g>
		<path d="M43.146,16.292h-6.101c-0.465-3-2.485-4-4.899-4h-8c-2.414,0-4.434,1-4.899,4h-6.101c-0.552,0-1,0.155-1,0.708v39.292h2
			v-38h28v38h2V17C44.146,16.447,43.698,16.292,43.146,16.292z M24.146,14.292h8c1.302,0,2.402,0,2.816,2H21.33
			C21.744,14.292,22.844,14.292,24.146,14.292z"/>
		<path d="M28.146,10c2.757,0,5-2.243,5-5s-2.243-5-5-5s-5,2.243-5,5S25.389,10,28.146,10z M28.146,1.999c1.654,0,3,1.346,3,3
			s-1.346,3-3,3s-3-1.346-3-3S26.492,1.999,28.146,1.999z"/>
		<path d="M46.146,24c0,2.757,2.243,5,5,5c2.757,0,5-2.243,5-5s-2.243-5-5-5C48.389,19,46.146,21.243,46.146,24z M54.146,24
			c0,1.654-1.346,3-3,3s-3-1.346-3-3s1.346-3,3-3S54.146,22.345,54.146,24z"/>
		<path d="M5.146,19c-2.757,0-5,2.243-5,5s2.243,5,5,5s5-2.243,5-5S7.903,19,5.146,19z M5.146,27c-1.654,0-3-1.346-3-3s1.346-3,3-3
			s3,1.346,3,3S6.8,27,5.146,27z"/>
		<path d="M51.146,32c-2.757,0-5,2.243-5,5s2.243,5,5,5c2.757,0,5-2.243,5-5S53.903,32,51.146,32z M51.146,40c-1.654,0-3-1.346-3-3
			s1.346-3,3-3s3,1.346,3,3S52.8,40,51.146,40z"/>
		<path d="M5.146,32c-2.757,0-5,2.243-5,5s2.243,5,5,5s5-2.243,5-5S7.903,32,5.146,32z M5.146,40c-1.654,0-3-1.346-3-3s1.346-3,3-3
			s3,1.346,3,3S6.8,40,5.146,40z"/>
		<path d="M51.146,45c-2.757,0-5,2.243-5,5s2.243,5,5,5c2.757,0,5-2.243,5-5S53.903,45,51.146,45z M51.146,53c-1.654,0-3-1.346-3-3
			s1.346-3,3-3s3,1.346,3,3S52.8,53,51.146,53z"/>
		<path d="M5.146,45c-2.757,0-5,2.243-5,5s2.243,5,5,5s5-2.243,5-5S7.903,45,5.146,45z M5.146,53c-1.654,0-3-1.346-3-3s1.346-3,3-3
			s3,1.346,3,3S6.8,53,5.146,53z"/>
		<rect x="4.146" y="7.292" width="8" height="2"/>
		<rect x="42.146" y="4.292" width="8" height="2"/>
		<path d="M3.346,16.6c0.192,0.256,0.491,0.4,0.8,0.4c0.106,0,0.212-0.017,0.316-0.051C4.871,16.812,5.146,16.43,5.146,16v-2.708h10
			c0.552,0,1-0.74,1-1.292V4c0-0.553-0.448-0.708-1-0.708h-14c-0.552,0-1,0.155-1,0.707v8c0,0.216,0.07,0.427,0.2,0.6L3.346,16.6z
			 M2.146,5.292h12v6h-10c-0.552,0-1,0.155-1,0.708v1l-1-1.334V5.292z"/>
		<path d="M35.146,10.292h18c0.552,0,1-0.74,1-1.292V1c0-0.553-0.448-0.708-1-0.708h-14c-0.552,0-1,0.155-1,0.707v4.5l-3.6,2.7
			c-0.344,0.258-0.485,0.854-0.349,1.262C34.334,9.87,34.715,10.292,35.146,10.292z M39.746,6.946c0.252-0.189,0.4-0.631,0.4-0.946
			V2.292h12v6h-14L39.746,6.946z"/>
		<path d="M22.136,24.004c-0.057-0.402-0.353-0.803-0.747-0.902l-4-1.037l-0.485,1.922l3.348,0.974l0.741,5.331h-0.847v2h4v-2
			h-1.133L22.136,24.004z"/>
		<path d="M22.136,36.004c-0.057-0.402-0.353-0.803-0.747-0.902l-4-1.037l-0.485,1.922l3.348,0.974l0.741,5.331h-0.847v2h4v-2
			h-1.133L22.136,36.004z"/>
		<path d="M22.136,48.004c-0.057-0.402-0.353-0.803-0.747-0.902l-4-1.037l-0.485,1.922l3.348,0.974l0.741,5.331h-0.847v2h4v-2
			h-1.133L22.136,48.004z"/>
		<path d="M34.903,23.029c-0.395,0.099-0.69,0.573-0.747,0.975l-0.877,6.288h-1.133v2h4v-2h-0.847l0.742-5.339l3.348-0.91
			l-0.485-1.977L34.903,23.029z"/>
		<path d="M34.903,35.029c-0.395,0.099-0.69,0.573-0.747,0.975l-0.877,6.288h-1.133v2h4v-2h-0.847l0.742-5.339l3.348-0.91
			l-0.485-1.977L34.903,35.029z"/>
		<path d="M39.389,47.97l-0.485-1.94l-4,1c-0.395,0.099-0.69,0.573-0.747,0.975l-0.878,6.287h-1.133v2h4v-2h-0.847l0.742-5.339
			L39.389,47.97z"/>
		<polygon points="29.146,20.292 27.146,20.292 27.146,26.292 26.146,26.292 26.146,28.292 30.146,28.292 30.146,26.292 
			29.146,26.292 		"/>
		<rect x="27.146" y="30" width="2" height="2"/>
		<rect x="27.146" y="34" width="2" height="2"/>
		<rect x="27.146" y="38" width="2" height="2"/>
	</g>
</g>
<g>
</g>
<g>
</g>
<g>
</g>
<g>
</g>
<g>
</g>
<g>
</g>
<g>
</g>
<g>
</g>
<g>
</g>
<g>
</g>
<g>
</g>
<g>
</g>
<g>
</g>
<g>
</g>
<g>
</g>
</svg>
