<?xml version="1.0" encoding="utf-8"?>
<!-- Generator: Adobe Illustrator 27.0.1, SVG Export Plug-In . SVG Version: 6.00 Build 0)  -->
<svg version="1.1" id="Layer_1" xmlns="http://www.w3.org/2000/svg" xmlns:xlink="http://www.w3.org/1999/xlink" x="0px" y="0px"
	 viewBox="0 0 512 512" style="enable-background:new 0 0 512 512;" xml:space="preserve">
<style type="text/css">
	.st0{fill:#7FBF72;}
	.st1{fill:#C9D1D9;}
	.st2{fill:#66CEDB;}
	.st3{fill:#F8CF26;}
	.st4{fill:#EE8B26;}
</style>
<g>
	<path class="st0" d="M75,507c-38.6,0-70-31.4-70-70V75C5,36.4,36.4,5,75,5h362c38.6,0,70,31.4,70,70v362c0,38.6-31.4,70-70,70H75z"
		/>
	<path class="st1" d="M437,10c35.8,0,65,29.2,65,65v362c0,35.8-29.2,65-65,65H75c-35.8,0-65-29.2-65-65V75c0-35.8,29.2-65,65-65H437
		 M437,0H75C33.6,0,0,33.6,0,75v362c0,41.4,33.6,75,75,75h362c41.4,0,75-33.6,75-75V75C512,33.6,478.4,0,437,0L437,0z"/>
</g>
<g>
	<path class="st2" d="M281,169.4h-50c-8.1,0-15,0-17.6,12.5h85.2C296,169.4,289.1,169.4,281,169.4z"/>
	<circle class="st3" cx="112.2" cy="311.3" r="18.8"/>
	<circle class="st3" cx="112.2" cy="392.6" r="18.8"/>
	<circle class="st3" cx="112.2" cy="230.1" r="18.8"/>
	<path class="st4" d="M99.8,155.1c0-3.5,2.8-4.4,6.2-4.4h62.5v-37.5h-75V153l6.2,8.3V155.1z M106,125.7h50v12.5h-50V125.7z"/>
	<circle class="st3" cx="399.8" cy="230.1" r="18.8"/>
	<circle class="st3" cx="399.8" cy="311.3" r="18.8"/>
	<circle class="st3" cx="399.8" cy="392.6" r="18.8"/>
	<circle class="st3" cx="256" cy="111.3" r="18.8"/>
	<path class="st4" d="M406,94.4h-75v23.2c0,2-0.9,4.7-2.5,5.9l-10,8.4H406V94.4z M393.5,119.4h-50v-12.5h50V119.4z"/>
	<g>
		<path d="M349.8,181.9h-38.1c-2.9-18.8-15.5-25-30.6-25h-50c-15.1,0-27.7,6.2-30.6,25h-38.1c-3.4,0-6.2,1-6.2,4.4v245.6h12.5V194.4
			h175v237.5H356V186.3C356,182.9,353.2,181.9,349.8,181.9z M231,169.4h50c8.1,0,15,0,17.6,12.5h-85.2
			C216,169.4,222.9,169.4,231,169.4z"/>
		<path d="M256,142.6c17.2,0,31.2-14,31.2-31.3s-14-31.2-31.2-31.2s-31.2,14-31.2,31.2S238.8,142.6,256,142.6z M256,92.6
			c10.3,0,18.8,8.4,18.8,18.8s-8.4,18.8-18.8,18.8s-18.8-8.4-18.8-18.8S245.7,92.6,256,92.6z"/>
		<path d="M368.5,230.1c0,17.2,14,31.2,31.2,31.2s31.2-14,31.2-31.2s-14-31.2-31.2-31.2S368.5,212.9,368.5,230.1z M418.5,230.1
			c0,10.3-8.4,18.8-18.8,18.8s-18.8-8.4-18.8-18.8s8.4-18.8,18.8-18.8S418.5,219.7,418.5,230.1z"/>
		<path d="M112.2,198.8c-17.2,0-31.2,14-31.2,31.2s14,31.2,31.2,31.2s31.2-14,31.2-31.2S129.5,198.8,112.2,198.8z M112.2,248.8
			c-10.3,0-18.8-8.4-18.8-18.8s8.4-18.8,18.8-18.8s18.8,8.4,18.8,18.8S122.6,248.8,112.2,248.8z"/>
		<path d="M399.8,280.1c-17.2,0-31.2,14-31.2,31.2c0,17.2,14,31.2,31.2,31.2s31.2-14,31.2-31.2C431,294.1,417,280.1,399.8,280.1z
			 M399.8,330.1c-10.3,0-18.8-8.4-18.8-18.8s8.4-18.8,18.8-18.8s18.8,8.4,18.8,18.8S410.1,330.1,399.8,330.1z"/>
		<path d="M112.2,280.1c-17.2,0-31.2,14-31.2,31.2c0,17.2,14,31.2,31.2,31.2s31.2-14,31.2-31.2C143.5,294.1,129.5,280.1,112.2,280.1
			z M112.2,330.1c-10.3,0-18.8-8.4-18.8-18.8s8.4-18.8,18.8-18.8S131,301,131,311.3S122.6,330.1,112.2,330.1z"/>
		<path d="M399.8,361.3c-17.2,0-31.2,14-31.2,31.2c0,17.2,14,31.2,31.2,31.2s31.2-14,31.2-31.2C431,375.4,417,361.3,399.8,361.3z
			 M399.8,411.3c-10.3,0-18.8-8.4-18.8-18.8s8.4-18.8,18.8-18.8s18.8,8.4,18.8,18.8S410.1,411.3,399.8,411.3z"/>
		<path d="M112.2,361.3c-17.2,0-31.2,14-31.2,31.2c0,17.2,14,31.2,31.2,31.2s31.2-14,31.2-31.2C143.5,375.4,129.5,361.3,112.2,361.3
			z M112.2,411.3c-10.3,0-18.8-8.4-18.8-18.8s8.4-18.8,18.8-18.8s18.8,8.4,18.8,18.8S122.6,411.3,112.2,411.3z"/>
		<rect x="106" y="125.7" width="50" height="12.5"/>
		<rect x="343.5" y="106.9" width="50" height="12.5"/>
		<path d="M101,183.8c1.2,1.6,3.1,2.5,5,2.5c0.7,0,1.3-0.1,2-0.3c2.6-0.9,4.3-3.2,4.3-5.9v-16.9h62.5c3.4,0,6.2-4.6,6.2-8.1v-50
			c0-3.5-2.8-4.4-6.2-4.4H87.2c-3.4,0-6.2,1-6.2,4.4v50c0,1.4,0.4,2.7,1.2,3.8L101,183.8z M93.5,113.2h75v37.5H106
			c-3.4,0-6.2,1-6.2,4.4v6.2l-6.2-8.3V113.2z"/>
		<path d="M299.8,144.4h112.5c3.4,0,6.2-4.6,6.2-8.1v-50c0-3.5-2.8-4.4-6.2-4.4h-87.5c-3.4,0-6.2,1-6.2,4.4v28.1L296,131.3
			c-2.1,1.6-3,5.3-2.2,7.9C294.7,141.8,297.1,144.4,299.8,144.4z M328.5,123.5c1.6-1.2,2.5-3.9,2.5-5.9V94.4h75v37.5h-87.5
			L328.5,123.5z"/>
		<path d="M218.4,230.1c-0.4-2.5-2.2-5-4.7-5.6l-25-6.5l-3,12l20.9,6.1l4.6,33.3H206v12.5h25v-12.5h-7.1L218.4,230.1z"/>
		<path d="M218.4,305.1c-0.4-2.5-2.2-5-4.7-5.6l-25-6.5l-3,12l20.9,6.1l4.6,33.3H206v12.5h25v-12.5h-7.1L218.4,305.1z"/>
		<path d="M218.4,380.1c-0.4-2.5-2.2-5-4.7-5.6l-25-6.5l-3,12l20.9,6.1l4.6,33.3H206v12.5h25v-12.5h-7.1L218.4,380.1z"/>
		<path d="M298.2,224c-2.5,0.6-4.3,3.6-4.7,6.1l-5.5,39.3H281v12.5h25v-12.5h-5.3l4.6-33.4l20.9-5.7l-3-12.4L298.2,224z"/>
		<path d="M298.2,299c-2.5,0.6-4.3,3.6-4.7,6.1l-5.5,39.3H281v12.5h25v-12.5h-5.3l4.6-33.4l20.9-5.7l-3-12.4L298.2,299z"/>
		<path d="M326.3,379.9l-3-12.1l-25,6.2c-2.5,0.6-4.3,3.6-4.7,6.1l-5.5,39.3H281v12.5h25v-12.5h-5.3l4.6-33.4L326.3,379.9z"/>
		<polygon points="262.2,206.9 249.8,206.9 249.8,244.4 243.5,244.4 243.5,256.9 268.5,256.9 268.5,244.4 262.2,244.4 		"/>
		<rect x="249.8" y="267.6" width="12.5" height="12.5"/>
		<rect x="249.8" y="292.6" width="12.5" height="12.5"/>
		<rect x="249.8" y="317.6" width="12.5" height="12.5"/>
	</g>
</g>
</svg>
