<?xml version="1.0" encoding="utf-8"?>
<!-- Generator: Adobe Illustrator 27.0.1, SVG Export Plug-In . SVG Version: 6.00 Build 0)  -->
<svg version="1.1" id="Layer_1" xmlns="http://www.w3.org/2000/svg" xmlns:xlink="http://www.w3.org/1999/xlink" x="0px" y="0px"
	 viewBox="0 0 512 512" style="enable-background:new 0 0 512 512;" xml:space="preserve">
<style type="text/css">
	.st0{fill:#666665;}
	.st1{fill:#C9D1D9;}
	.st2{fill:#FFD05B;}
	.st3{fill:#FFFFFF;}
	.st4{fill:#E6E9EE;}
</style>
<g>
	<path class="st0" d="M75,507c-38.6,0-70-31.4-70-70V75C5,36.4,36.4,5,75,5h362c38.6,0,70,31.4,70,70v362c0,38.6-31.4,70-70,70H75z"
		/>
	<path class="st1" d="M437,10c35.8,0,65,29.2,65,65v362c0,35.8-29.2,65-65,65H75c-35.8,0-65-29.2-65-65V75c0-35.8,29.2-65,65-65H437
		 M437,0H75C33.6,0,0,33.6,0,75v362c0,41.4,33.6,75,75,75h362c41.4,0,75-33.6,75-75V75C512,33.6,478.4,0,437,0L437,0z"/>
</g>
<circle class="st2" cx="256" cy="256" r="175"/>
<g>
	<rect x="173.9" y="206.7" class="st3" width="31.7" height="116.6"/>
	<rect x="240.3" y="208" class="st3" width="31.7" height="116.6"/>
	<rect x="306.7" y="208" class="st3" width="31.7" height="116.6"/>
	<rect x="149.3" y="318.8" class="st3" width="213.3" height="20.9"/>
	<polygon class="st3" points="362.7,183 256.6,133.9 149.6,183 149.6,210 362.7,210 	"/>
</g>
<g>
	<polygon class="st4" points="165.9,193.4 165.9,193.4 256.6,152.1 346.1,193.2 346.1,193.4 	"/>
	<path class="st4" d="M301.5,210v9.1c0,1.7,1.4,3,3,3h36.1c1.7,0,3-1.4,3-3V210H301.5z"/>
	<path class="st4" d="M235.1,210v9.1c0,1.7,1.4,3,3,3h36.1c1.7,0,3-1.4,3-3V210H235.1z"/>
	<path class="st4" d="M168.6,210v9.1c0,1.7,1.4,3,3,3h36.1c1.7,0,3-1.4,3-3V210H168.6z"/>
	<path class="st4" d="M301.5,318.8v-9.1c0-1.7,1.4-3,3-3h36.1c1.7,0,3,1.4,3,3v9.1H301.5z"/>
	<path class="st4" d="M235.1,318.8v-9.1c0-1.7,1.4-3,3-3h36.1c1.7,0,3,1.4,3,3v9.1H235.1z"/>
	<path class="st4" d="M168.6,318.8v-9.1c0-1.7,1.4-3,3-3h36.1c1.7,0,3,1.4,3,3v9.1H168.6z"/>
</g>
</svg>
