<?xml version="1.0" encoding="iso-8859-1"?>
<!-- Generator: Adobe Illustrator 19.0.0, SVG Export Plug-In . SVG Version: 6.00 Build 0)  -->
<svg version="1.1" id="Layer_1" xmlns="http://www.w3.org/2000/svg" xmlns:xlink="http://www.w3.org/1999/xlink" x="0px" y="0px"
	 viewBox="0 0 508 508" style="enable-background:new 0 0 508 508;" xml:space="preserve">
<circle style="fill:#FFD05B;" cx="254" cy="254" r="254"/>
<g>
	<rect x="134.8" y="182.4" style="fill:#FFFFFF;" width="46" height="169.2"/>
	<rect x="231.2" y="184.4" style="fill:#FFFFFF;" width="46" height="169.2"/>
	<rect x="327.6" y="184.4" style="fill:#FFFFFF;" width="46" height="169.2"/>
	<rect x="99.2" y="345.2" style="fill:#FFFFFF;" width="309.6" height="30.4"/>
	<polygon style="fill:#FFFFFF;" points="408.8,148 254.8,76.8 99.6,148 99.6,187.2 408.8,187.2 	"/>
</g>
<g>
	<polygon style="fill:#E6E9EE;" points="123.2,163.2 123.2,163.2 254.8,103.2 384.8,162.8 384.8,163.2 	"/>
	<path style="fill:#E6E9EE;" d="M320,187.2v13.2c0,2.4,2,4.4,4.4,4.4h52.4c2.4,0,4.4-2,4.4-4.4v-13.2H320z"/>
	<path style="fill:#E6E9EE;" d="M223.6,187.2v13.2c0,2.4,2,4.4,4.4,4.4h52.4c2.4,0,4.4-2,4.4-4.4v-13.2H223.6z"/>
	<path style="fill:#E6E9EE;" d="M127.2,187.2v13.2c0,2.4,2,4.4,4.4,4.4H184c2.4,0,4.4-2,4.4-4.4v-13.2H127.2z"/>
	<path style="fill:#E6E9EE;" d="M320,345.2V332c0-2.4,2-4.4,4.4-4.4h52.4c2.4,0,4.4,2,4.4,4.4v13.2H320z"/>
	<path style="fill:#E6E9EE;" d="M223.6,345.2V332c0-2.4,2-4.4,4.4-4.4h52.4c2.4,0,4.4,2,4.4,4.4v13.2H223.6z"/>
	<path style="fill:#E6E9EE;" d="M127.2,345.2V332c0-2.4,2-4.4,4.4-4.4H184c2.4,0,4.4,2,4.4,4.4v13.2H127.2z"/>
</g>
<g>
</g>
<g>
</g>
<g>
</g>
<g>
</g>
<g>
</g>
<g>
</g>
<g>
</g>
<g>
</g>
<g>
</g>
<g>
</g>
<g>
</g>
<g>
</g>
<g>
</g>
<g>
</g>
<g>
</g>
</svg>
