<?xml version="1.0" encoding="utf-8"?>
<!-- Generator: Adobe Illustrator 27.0.1, SVG Export Plug-In . SVG Version: 6.00 Build 0)  -->
<svg version="1.1" id="Capa_1" xmlns="http://www.w3.org/2000/svg" xmlns:xlink="http://www.w3.org/1999/xlink" x="0px" y="0px"
	 viewBox="0 0 512 512" style="enable-background:new 0 0 512 512;" xml:space="preserve">
<style type="text/css">
	.st0{fill:#FFE6AC;}
	.st1{fill:#C9D1D9;}
	.st2{fill:#D1A169;}
	.st3{fill:#EFBF7F;}
	.st4{fill:#047FA0;}
	.st5{fill:#333333;}
	.st6{fill:#E6E6E6;}
	.st7{fill:#808080;}
	.st8{fill:#999999;}
	.st9{fill:#B3B3B3;}
	.st10{fill:#29ABE2;}
	.st11{fill:#F2F2F2;}
	.st12{fill:#E8653D;}
</style>
<g>
	<path class="st0" d="M75,507c-38.6,0-70-31.4-70-70V75C5,36.4,36.4,5,75,5h362c38.6,0,70,31.4,70,70v362c0,38.6-31.4,70-70,70H75z"
		/>
	<path class="st1" d="M437,10c35.8,0,65,29.2,65,65v362c0,35.8-29.2,65-65,65H75c-35.8,0-65-29.2-65-65V75c0-35.8,29.2-65,65-65H437
		 M437,0H75C33.6,0,0,33.6,0,75v362c0,41.4,33.6,75,75,75h362c41.4,0,75-33.6,75-75V75C512,33.6,478.4,0,437,0L437,0z"/>
</g>
<g>
	<g id="XMLID_3_">
		<g>
			<path d="M431,386.2V406c0,1.6-1.3,2.9-2.9,2.9H83.9c-1.6,0-2.9-1.3-2.9-2.9v-19.8c0,0,0,0,0,0V154.8c0-1.6,1.3-2.9,2.9-2.9h93.5
				v-39.9c0-4.9,4-8.9,8.8-8.9h141.8c4.9,0,8.8,4,8.8,8.9v39.9h91.2c1.6,0,2.9,1.3,2.9,2.9V386.2C431,386.2,431,386.2,431,386.2z
				 M425.2,403.1v-14H86.8v14L425.2,403.1L425.2,403.1z M425.2,383.3V157.7h-88.3V279c0,5.5-4.5,10-10,10H187.4c-5.5,0-10-4.5-10-10
				V157.7H86.8v225.6H425.2z M331.1,279v-0.4H183.2v0.4c0,2.3,1.9,4.2,4.2,4.2h139.5C329.2,283.1,331.1,281.3,331.1,279z
				 M331.1,272.7v-65.8H183.2v65.8h49.8v-11.2c0-4.1,3.4-7.5,7.5-7.5h33.1c4.1,0,7.5,3.4,7.5,7.5v11.2H331.1z M331.1,201.1v-84.1
				H183.2v84.1H331.1z M183.4,111.1h147.6c-0.4-1.3-1.5-2.2-2.9-2.2H186.2C184.9,108.9,183.7,109.8,183.4,111.1z M275.4,272.7v-11.2
				c0-0.9-0.8-1.7-1.7-1.7h-33.1c-0.9,0-1.7,0.8-1.7,1.7v11.2H275.4z"/>
			<rect x="86.8" y="389.1" class="st2" width="338.3" height="14"/>
			<path class="st3" d="M425.2,157.7v225.6H86.8V157.7h90.6V279c0,5.5,4.5,10,10,10h139.5c5.5,0,10-4.5,10-10V157.7H425.2z
				 M416.9,219v-49.7c0-1.6-1.3-2.9-2.9-2.9h-68.6c-1.6,0-2.9,1.3-2.9,2.9V219c0,1.6,1.3,2.9,2.9,2.9H414
				C415.6,221.9,416.9,220.6,416.9,219z M410.3,364.3V299c0-5.9-4.8-10.8-10.8-10.8H354c-5.9,0-10.7,4.8-10.7,10.8v65.3
				c0,5.9,4.8,10.7,10.7,10.7h45.6C405.5,375,410.3,370.2,410.3,364.3z M394.2,263.4v-15.9c0-9.5-7.7-17.2-17.2-17.2h-1.2
				c-9.5,0-17.2,7.7-17.2,17.2v15.9c0,9.5,7.7,17.2,17.2,17.2h1.2C386.5,280.5,394.2,272.8,394.2,263.4z M334.8,364.8V309
				c0-1.6-1.3-2.9-2.9-2.9c-1.6,0-2.9,1.3-2.9,2.9v55.8c0,1.6,1.3,2.9,2.9,2.9C333.5,367.7,334.8,366.4,334.8,364.8z M324.3,364.8
				V309c0-1.6-1.3-2.9-2.9-2.9c-1.6,0-2.9,1.3-2.9,2.9v55.8c0,1.6,1.3,2.9,2.9,2.9C323,367.7,324.3,366.4,324.3,364.8z M311.5,371.7
				v-70.4c0-1.2-0.8-2.3-1.9-2.7c-16.5-6.3-34.8-6.3-51.3,0c-1.1,0.4-1.9,1.5-1.9,2.7v3.6c-1.1-0.1-2.2-0.1-3.3,0v-3.6
				c0-1.2-0.8-2.3-1.9-2.7c-16.5-6.3-34.8-6.3-51.3,0c-1.1,0.4-1.9,1.5-1.9,2.7v70.4c0,1,0.5,1.9,1.3,2.4c0.8,0.5,1.8,0.7,2.7,0.3
				c15.2-5.7,32-5.7,47.2,0c0.3,0.1,0.7,0.2,1,0.2c0.6,0,1.2-0.2,1.7-0.5c0.8-0.5,1.3-1.4,1.3-2.4v-8.3c1.1-0.1,2.2-0.1,3.3,0v8.3
				c0,1,0.5,1.9,1.3,2.4c0.8,0.5,1.8,0.7,2.7,0.3c15.2-5.7,32-5.7,47.2,0c0.3,0.1,0.7,0.2,1,0.2c0.6,0,1.2-0.2,1.7-0.5
				C311,373.6,311.5,372.7,311.5,371.7z M174.2,236.4v-64.1c0-1.6-1.3-2.9-2.9-2.9H166v-2.2c0-1.6-1.3-2.9-2.9-2.9
				c-1.6,0-2.9,1.3-2.9,2.9v2.2h-6.3v-2.2c0-1.6-1.3-2.9-2.9-2.9c-1.6,0-2.9,1.3-2.9,2.9v2.2h-6.3v-2.2c0-1.6-1.3-2.9-2.9-2.9
				s-2.9,1.3-2.9,2.9v2.2h-6.3v-2.2c0-1.6-1.3-2.9-2.9-2.9c-1.6,0-2.9,1.3-2.9,2.9v2.2h-6.3v-2.2c0-1.6-1.3-2.9-2.9-2.9
				c-1.6,0-2.9,1.3-2.9,2.9v2.2h-6.3v-2.2c0-1.6-1.3-2.9-2.9-2.9s-2.9,1.3-2.9,2.9v2.2h-5.1c-1.6,0-2.9,1.3-2.9,2.9v64.1
				c0,1.6,1.3,2.9,2.9,2.9h76.8C172.9,239.3,174.2,238,174.2,236.4z M168.5,372.7v-72.5c0-1.6-1.3-2.9-2.9-2.9h-3.2l0.2-0.8
				c0.4-1.6-0.5-3.2-2.1-3.6c-1.6-0.4-3.2,0.5-3.6,2.1l-0.6,2.3h-4.7l0.2-0.8c0.4-1.6-0.5-3.2-2.1-3.6c-1.6-0.4-3.2,0.5-3.6,2.1
				l-0.6,2.3h-4.7l0.2-0.8c0.4-1.6-0.5-3.2-2.1-3.6c-1.6-0.4-3.2,0.5-3.6,2.1l-0.6,2.3h-4.7l0.2-0.8c0.4-1.6-0.5-3.2-2.1-3.6
				c-1.6-0.4-3.2,0.5-3.6,2.1l-0.6,2.3h-6.9c-1.6,0-2.9,1.3-2.9,2.9v72.5c0,1.6,1.3,2.9,2.9,2.9h48.1
				C167.2,375.6,168.5,374.3,168.5,372.7z M164.5,285.3v-37.9c0-1.6-1.3-2.9-2.9-2.9h-60.9c-1.6,0-2.9,1.3-2.9,2.9v37.9
				c0,1.6,1.3,2.9,2.9,2.9h60.9C163.2,288.2,164.5,286.9,164.5,285.3z"/>
			<path d="M416.9,169.3V219c0,1.6-1.3,2.9-2.9,2.9h-68.6c-1.6,0-2.9-1.3-2.9-2.9v-49.7c0-1.6,1.3-2.9,2.9-2.9H414
				C415.6,166.4,416.9,167.7,416.9,169.3z M411.1,216.1v-32.9h-62.7v32.9H411.1z M411.1,177.3v-5.1h-49.6v5.1H411.1z M355.6,177.3
				v-5.1h-7.3v5.1H355.6z"/>
			<path class="st4" d="M411.1,183.2v32.9h-62.7v-32.9H411.1z M408.1,189.7c0-1.6-1.3-2.9-2.9-2.9h-9.5c-1.6,0-2.9,1.3-2.9,2.9
				c0,1.6,1.3,2.9,2.9,2.9h9.5C406.8,192.7,408.1,191.4,408.1,189.7z M392.8,200c0-7.2-5.9-13.1-13.1-13.1
				c-7.2,0-13.1,5.9-13.1,13.1c0,7.2,5.9,13.1,13.1,13.1C386.9,213.1,392.8,207.2,392.8,200z M364.6,208c0-1.7-1.4-3.1-3.1-3.1
				c-1.7,0-3.1,1.4-3.1,3.1c0,1.7,1.4,3.1,3.1,3.1C363.2,211.1,364.6,209.7,364.6,208z"/>
			<rect x="361.5" y="172.2" class="st4" width="49.6" height="5.1"/>
			<path d="M410.3,299v65.3c0,5.9-4.8,10.7-10.8,10.7H354c-5.9,0-10.7-4.8-10.7-10.7V299c0-5.9,4.8-10.8,10.7-10.8h45.6
				C405.5,288.2,410.3,293,410.3,299z M404.5,364.3V299c0-2.7-2.2-4.9-4.9-4.9H354c-2.7,0-4.9,2.2-4.9,4.9v65.3
				c0,2.7,2.2,4.9,4.9,4.9h45.6C402.3,369.2,404.5,367,404.5,364.3z"/>
			<path d="M405.2,186.8c1.6,0,2.9,1.3,2.9,2.9c0,1.6-1.3,2.9-2.9,2.9h-9.5c-1.6,0-2.9-1.3-2.9-2.9c0-1.6,1.3-2.9,2.9-2.9H405.2z"/>
			<path class="st5" d="M404.5,299v65.3c0,2.7-2.2,4.9-4.9,4.9H354c-2.7,0-4.9-2.2-4.9-4.9V299c0-2.7,2.2-4.9,4.9-4.9h45.6
				C402.3,294,404.5,296.2,404.5,299z M400.8,358.5v-57.9c0-1.6-1.3-2.9-2.9-2.9h-42.3c-1.6,0-2.9,1.3-2.9,2.9v57.9
				c0,1.6,1.3,2.9,2.9,2.9h42.3C399.5,361.4,400.8,360.1,400.8,358.5z M379.9,365.5c0-1.7-1.4-3.1-3.1-3.1c-1.7,0-3.1,1.4-3.1,3.1
				c0,1.7,1.4,3.1,3.1,3.1C378.5,368.6,379.9,367.2,379.9,365.5z"/>
			<path d="M400.8,300.6v57.9c0,1.6-1.3,2.9-2.9,2.9h-42.3c-1.6,0-2.9-1.3-2.9-2.9v-57.9c0-1.6,1.3-2.9,2.9-2.9h42.3
				C399.5,297.7,400.8,299,400.8,300.6z M395,355.6v-52.1h-36.5v52.1L395,355.6L395,355.6z"/>
			<rect x="358.5" y="303.5" class="st6" width="36.5" height="52.1"/>
			<path d="M394.2,247.5v15.9c0,9.5-7.7,17.2-17.2,17.2h-1.2c-9.5,0-17.2-7.7-17.2-17.2v-15.9c0-9.5,7.7-17.2,17.2-17.2h1.2
				C386.5,230.3,394.2,238,394.2,247.5z M388.3,263.4v-8.5h-24v8.5c0,6.3,5.1,11.3,11.4,11.3h1.2
				C383.3,274.7,388.3,269.6,388.3,263.4z M388.3,249v-1.5c0-5.5-3.9-10.1-9.1-11.1V249H388.3z M373.4,249v-12.6
				c-5.2,1.1-9.1,5.6-9.1,11.1v1.5H373.4z"/>
			<path d="M379.7,186.8c7.2,0,13.1,5.9,13.1,13.1c0,7.2-5.9,13.1-13.1,13.1c-7.2,0-13.1-5.9-13.1-13.1
				C366.6,192.7,372.5,186.8,379.7,186.8z M387,200c0-4-3.3-7.3-7.3-7.3c-4,0-7.3,3.3-7.3,7.3c0,4,3.3,7.3,7.3,7.3
				C383.7,207.2,387,204,387,200z"/>
			<path class="st7" d="M379.7,192.7c4,0,7.3,3.3,7.3,7.3c0,4-3.3,7.3-7.3,7.3c-4,0-7.3-3.3-7.3-7.3
				C372.4,195.9,375.7,192.7,379.7,192.7z"/>
			<path d="M376.8,362.4c1.7,0,3.1,1.4,3.1,3.1c0,1.7-1.4,3.1-3.1,3.1c-1.7,0-3.1-1.4-3.1-3.1C373.7,363.8,375.1,362.4,376.8,362.4z
				"/>
			<path d="M361.5,204.9c1.7,0,3.1,1.4,3.1,3.1c0,1.7-1.4,3.1-3.1,3.1c-1.7,0-3.1-1.4-3.1-3.1C358.4,206.3,359.7,204.9,361.5,204.9z
				"/>
			<rect x="348.3" y="172.2" class="st4" width="7.3" height="5.1"/>
			<path d="M334.8,309v55.8c0,1.6-1.3,2.9-2.9,2.9c-1.6,0-2.9-1.3-2.9-2.9V309c0-1.6,1.3-2.9,2.9-2.9
				C333.5,306.1,334.8,307.4,334.8,309z"/>
			<path class="st8" d="M331.1,278.6v0.4c0,2.3-1.9,4.2-4.2,4.2H187.4c-2.3,0-4.2-1.9-4.2-4.2v-0.4H331.1z"/>
			<path class="st9" d="M331.1,206.9v65.8h-49.8v-11.2c0-4.1-3.4-7.5-7.5-7.5h-33.1c-4.1,0-7.5,3.4-7.5,7.5v11.2h-49.8v-65.8H331.1z
				 M323.9,248.7v-35.8c0-1.6-1.3-2.9-2.9-2.9H193.4c-1.6,0-2.9,1.3-2.9,2.9v35.8c0,1.6,1.3,2.9,2.9,2.9H321
				C322.6,251.6,323.9,250.3,323.9,248.7z"/>
			<path class="st8" d="M331.1,116.9v84.1H183.2v-84.1H331.1z M327.4,194.5v-71c0-1.6-1.3-2.9-2.9-2.9H189.8c-1.6,0-2.9,1.3-2.9,2.9
				v71c0,1.6,1.3,2.9,2.9,2.9h134.7C326.1,197.4,327.4,196.1,327.4,194.5z"/>
			<path class="st9" d="M330.9,111.1H183.4c0.4-1.3,1.5-2.2,2.9-2.2h141.8C329.4,108.9,330.6,109.8,330.9,111.1z"/>
			<path d="M327.4,123.5v71c0,1.6-1.3,2.9-2.9,2.9H189.8c-1.6,0-2.9-1.3-2.9-2.9v-71c0-1.6,1.3-2.9,2.9-2.9h134.7
				C326.1,120.6,327.4,121.9,327.4,123.5z M321.6,191.6v-65.2H192.7v65.2H321.6z"/>
			<path d="M324.3,309v55.8c0,1.6-1.3,2.9-2.9,2.9c-1.6,0-2.9-1.3-2.9-2.9V309c0-1.6,1.3-2.9,2.9-2.9
				C323,306.1,324.3,307.4,324.3,309z"/>
			<path d="M323.9,212.9v35.8c0,1.6-1.3,2.9-2.9,2.9H193.4c-1.6,0-2.9-1.3-2.9-2.9v-35.8c0-1.6,1.3-2.9,2.9-2.9H321
				C322.6,210,323.9,211.3,323.9,212.9z M318,245.8v-6.1h-9.4v6.1H318z M318,233.9v-6.1h-3.4v6.1H318z M318,221.9v-6.1h-9.4v6.1H318
				z M308.8,233.9v-6.1h-6.1v6.1H308.8z M302.8,245.8v-6.1h-10.4v6.1H302.8z M302.8,221.9v-6.1h-10.4v6.1H302.8z M296.9,233.9v-6.1
				h-10.4v6.1H296.9z M286.6,245.8v-6.1h-10.4v6.1H286.6z M286.6,221.9v-6.1h-10.4v6.1H286.6z M280.7,233.9v-6.1h-10.4v6.1H280.7z
				 M270.4,245.8v-6.1h-26.6v6.1H270.4z M270.4,221.9v-6.1h-10.4v6.1H270.4z M264.5,233.9v-6.1h-10.4v6.1H264.5z M254.2,221.9v-6.1
				h-10.4v6.1H254.2z M248.3,233.9v-6.1h-10.4v6.1H248.3z M238,245.8v-6.1h-10.4v6.1H238z M238,221.9v-6.1h-10.4v6.1H238z
				 M232.1,233.9v-6.1h-10.4v6.1H232.1z M221.8,245.8v-6.1h-10.4v6.1H221.8z M221.8,221.9v-6.1h-10.4v6.1H221.8z M215.9,233.9v-6.1
				h-10.4v6.1H215.9z M205.6,245.8v-6.1h-9.4v6.1H205.6z M205.6,221.9v-6.1h-9.4v6.1H205.6z M199.7,233.9v-6.1h-3.4v6.1H199.7z"/>
			<path class="st10" d="M321.6,126.4v65.2H192.7v-65.2H321.6z M304.6,149.6c0-1.6-1.3-2.9-2.9-2.9h-8.8c-1.6,0-2.9,1.3-2.9,2.9
				c0,1.6,1.3,2.9,2.9,2.9h8.8C303.3,152.5,304.6,151.2,304.6,149.6z M304.6,160c0-1.6-1.3-2.9-2.9-2.9h-21.4
				c-1.6,0-2.9,1.3-2.9,2.9s1.3,2.9,2.9,2.9h21.4C303.3,162.9,304.6,161.6,304.6,160z M290.7,180.6c0-1.6-1.3-2.9-2.9-2.9h-59.6
				c-1.6,0-2.9,1.3-2.9,2.9c0,1.6,1.3,2.9,2.9,2.9h59.6C289.4,183.5,290.7,182.2,290.7,180.6z M285.6,149.6c0-1.6-1.3-2.9-2.9-2.9
				H255c-1.6,0-2.9,1.3-2.9,2.9c0,1.6,1.3,2.9,2.9,2.9h27.7C284.3,152.5,285.6,151.2,285.6,149.6z M273.9,160c0-1.6-1.3-2.9-2.9-2.9
				h-43.5c-1.6,0-2.9,1.3-2.9,2.9s1.3,2.9,2.9,2.9H271C272.6,162.9,273.9,161.6,273.9,160z M269.2,136.1c0-1.6-1.3-2.9-2.9-2.9h-19
				c-1.6,0-2.9,1.3-2.9,2.9c0,1.6,1.3,2.9,2.9,2.9h19C267.9,139,269.2,137.7,269.2,136.1z M267.4,170.3c0-1.6-1.3-2.9-2.9-2.9h-13.4
				c-1.6,0-2.9,1.3-2.9,2.9c0,1.6,1.3,2.9,2.9,2.9h13.4C266.1,173.2,267.4,171.9,267.4,170.3z M248.4,149.6c0-1.6-1.3-2.9-2.9-2.9
				h-28.2c-1.6,0-2.9,1.3-2.9,2.9c0,1.6,1.3,2.9,2.9,2.9h28.2C247.1,152.5,248.4,151.2,248.4,149.6z M244.8,170.3
				c0-1.6-1.3-2.9-2.9-2.9h-43c-1.6,0-2.9,1.3-2.9,2.9c0,1.6,1.3,2.9,2.9,2.9h43C243.4,173.2,244.8,171.9,244.8,170.3z M221.4,180.6
				c0-1.6-1.3-2.9-2.9-2.9h-19.7c-1.6,0-2.9,1.3-2.9,2.9c0,1.6,1.3,2.9,2.9,2.9h19.7C220.1,183.5,221.4,182.2,221.4,180.6z
				 M221.2,160c0-1.6-1.3-2.9-2.9-2.9h-19.4c-1.6,0-2.9,1.3-2.9,2.9s1.3,2.9,2.9,2.9h19.4C219.9,162.9,221.2,161.6,221.2,160z
				 M211.2,149.6c0-1.6-1.3-2.9-2.9-2.9h-9.5c-1.6,0-2.9,1.3-2.9,2.9c0,1.6,1.3,2.9,2.9,2.9h9.5
				C209.9,152.5,211.2,151.2,211.2,149.6z"/>
			<rect x="308.7" y="239.7" class="st6" width="9.4" height="6.1"/>
			<rect x="314.6" y="227.8" class="st6" width="3.4" height="6.1"/>
			<rect x="308.7" y="215.8" class="st6" width="9.4" height="6.1"/>
			<path d="M311.5,301.3v70.4c0,1-0.5,1.9-1.3,2.4c-0.5,0.3-1.1,0.5-1.7,0.5c-0.3,0-0.7-0.1-1-0.2c-15.2-5.7-32-5.7-47.2,0
				c-0.9,0.3-1.9,0.2-2.7-0.3c-0.8-0.5-1.3-1.4-1.3-2.4v-8.3c-1.1-0.1-2.2-0.1-3.3,0v8.3c0,1-0.5,1.9-1.3,2.4
				c-0.5,0.3-1.1,0.5-1.7,0.5c-0.3,0-0.7-0.1-1-0.2c-15.2-5.7-32-5.7-47.2,0c-0.9,0.3-1.9,0.2-2.7-0.3c-0.8-0.5-1.3-1.4-1.3-2.4
				v-70.4c0-1.2,0.8-2.3,1.9-2.7c16.5-6.3,34.8-6.3,51.3,0c1.1,0.4,1.9,1.5,1.9,2.7v3.6c1.1-0.1,2.2-0.1,3.3,0v-3.6
				c0-1.2,0.8-2.3,1.9-2.7c16.5-6.3,34.8-6.3,51.3,0C310.7,299,311.5,300.1,311.5,301.3z M305.6,367.6v-64.3
				c-14.1-4.8-29.3-4.8-43.4,0v2.6c0.7,0.2,1.4,0.4,2.1,0.7c1.5,0.6,2.3,2.3,1.7,3.8c-0.4,1.2-1.6,1.9-2.7,1.9c-0.3,0-0.7-0.1-1-0.2
				c0,0,0,0-0.1,0v7c0.7,0.2,1.4,0.4,2.1,0.7c1.5,0.6,2.3,2.3,1.7,3.8c-0.6,1.5-2.3,2.3-3.8,1.7c0,0,0,0-0.1,0v7
				c0.7,0.2,1.4,0.4,2.1,0.7c1.5,0.6,2.3,2.3,1.7,3.8c-0.6,1.5-2.3,2.3-3.8,1.7c0,0,0,0-0.1,0v7c0.7,0.2,1.4,0.4,2.1,0.7
				c1.5,0.6,2.3,2.3,1.7,3.8c-0.6,1.5-2.3,2.3-3.8,1.7c0,0,0,0-0.1,0v7c0.7,0.2,1.4,0.4,2.1,0.7c1.5,0.6,2.3,2.3,1.7,3.8
				c-0.6,1.5-2.3,2.3-3.8,1.7c0,0,0,0-0.1,0v2.9c7.1-2.2,14.4-3.3,21.7-3.3C291.3,364.3,298.6,365.4,305.6,367.6z M256.4,357.6v-7.3
				c-1.1-0.1-2.2-0.1-3.3,0v7.3C254.2,357.5,255.3,357.5,256.4,357.6z M256.4,344.4v-7.3c-1.1-0.1-2.2-0.1-3.3,0v7.3
				C254.2,344.3,255.3,344.3,256.4,344.4z M256.4,331.2v-7.3c-1.1-0.1-2.2-0.1-3.3,0v7.3C254.2,331.2,255.3,331.2,256.4,331.2z
				 M256.4,318.1v-7.3c-1.1-0.1-2.2-0.1-3.3,0v7.3C254.2,318,255.3,318,256.4,318.1z M247.3,367.6v-3c-0.1,0.1-0.3,0.1-0.4,0.2
				c-0.3,0.1-0.7,0.2-1,0.2c-1.2,0-2.3-0.7-2.7-1.9c-0.6-1.5,0.2-3.2,1.7-3.8c0.8-0.3,1.6-0.6,2.5-0.8v-7.1
				c-0.1,0.1-0.3,0.1-0.4,0.2c-0.3,0.1-0.7,0.2-1,0.2c-1.2,0-2.3-0.7-2.7-1.9c-0.6-1.5,0.2-3.2,1.7-3.8c0.8-0.3,1.6-0.6,2.5-0.8v-7
				c-0.1,0-0.3,0.1-0.4,0.1c-0.3,0.1-0.7,0.2-1,0.2c-1.2,0-2.3-0.7-2.7-1.9c-0.6-1.5,0.2-3.2,1.7-3.8c0.8-0.3,1.6-0.6,2.5-0.8v-7
				c-0.1,0.1-0.3,0.1-0.4,0.1c-0.3,0.1-0.7,0.2-1,0.2c-1.2,0-2.3-0.7-2.7-1.9c-0.6-1.5,0.2-3.2,1.7-3.8c0.8-0.3,1.6-0.6,2.5-0.8v-7
				c-0.1,0.1-0.3,0.1-0.4,0.2c-1.5,0.6-3.2-0.2-3.8-1.7c-0.6-1.5,0.2-3.2,1.7-3.8c0.8-0.3,1.6-0.6,2.5-0.8v-2.5
				c-14.1-4.8-29.3-4.8-43.4,0v64.3c7.1-2.2,14.4-3.3,21.7-3.3S240.2,365.4,247.3,367.6z"/>
			<rect x="302.7" y="227.8" class="st6" width="6.1" height="6.1"/>
			<path class="st11" d="M305.6,303.3v64.3c-7.1-2.2-14.4-3.3-21.7-3.3c-7.3,0-14.6,1.1-21.7,3.3v-2.9c0,0,0,0,0.1,0
				c1.5,0.6,3.2-0.2,3.8-1.7c0.6-1.5-0.2-3.2-1.7-3.8c-0.7-0.3-1.4-0.5-2.1-0.7v-7c0,0,0,0,0.1,0c1.5,0.6,3.2-0.2,3.8-1.7
				c0.6-1.5-0.2-3.2-1.7-3.8c-0.7-0.3-1.4-0.5-2.1-0.7v-7c0,0,0,0,0.1,0c1.5,0.6,3.2-0.2,3.8-1.7c0.6-1.5-0.2-3.2-1.7-3.8
				c-0.7-0.3-1.4-0.5-2.1-0.7v-7c0,0,0,0,0.1,0c1.5,0.6,3.2-0.2,3.8-1.7c0.6-1.5-0.2-3.2-1.7-3.8c-0.7-0.3-1.4-0.5-2.1-0.7v-7
				c0,0,0,0,0.1,0c0.3,0.1,0.7,0.2,1,0.2c1.2,0,2.3-0.7,2.7-1.9c0.6-1.5-0.2-3.2-1.7-3.8c-0.7-0.3-1.4-0.5-2.1-0.7v-2.6
				C276.3,298.5,291.6,298.5,305.6,303.3z M303.2,313.4c0.4-1.6-0.6-3.1-2.1-3.5c-9.4-2.3-19-2.7-28.6-1.2c-1.6,0.2-2.7,1.7-2.4,3.3
				c0.2,1.6,1.7,2.7,3.3,2.4c8.8-1.4,17.7-1,26.3,1.1c0.2,0.1,0.5,0.1,0.7,0.1C301.7,315.6,302.8,314.7,303.2,313.4z M303.2,323.6
				c0.4-1.6-0.6-3.1-2.1-3.5c-9.4-2.3-19-2.7-28.6-1.2c-1.6,0.2-2.7,1.7-2.4,3.3c0.2,1.6,1.7,2.7,3.3,2.4c8.8-1.4,17.7-1,26.3,1.1
				c0.2,0.1,0.5,0.1,0.7,0.1C301.7,325.8,302.8,324.9,303.2,323.6z"/>
			<path d="M301.6,146.7c1.6,0,2.9,1.3,2.9,2.9c0,1.6-1.3,2.9-2.9,2.9h-8.8c-1.6,0-2.9-1.3-2.9-2.9c0-1.6,1.3-2.9,2.9-2.9H301.6z"/>
			<path d="M301.6,157c1.6,0,2.9,1.3,2.9,2.9s-1.3,2.9-2.9,2.9h-21.4c-1.6,0-2.9-1.3-2.9-2.9s1.3-2.9,2.9-2.9H301.6z"/>
			<path d="M301,309.9c1.6,0.4,2.5,2,2.1,3.5c-0.3,1.3-1.5,2.2-2.8,2.2c-0.2,0-0.5,0-0.7-0.1c-8.7-2.1-17.5-2.5-26.3-1.1
				c-1.6,0.3-3.1-0.8-3.3-2.4c-0.2-1.6,0.8-3.1,2.4-3.3C282,307.1,291.6,307.5,301,309.9z"/>
			<path d="M301,320c1.6,0.4,2.5,2,2.1,3.5c-0.3,1.3-1.5,2.2-2.8,2.2c-0.2,0-0.5,0-0.7-0.1c-8.7-2.1-17.5-2.5-26.3-1.1
				c-1.6,0.2-3.1-0.8-3.3-2.4c-0.2-1.6,0.8-3.1,2.4-3.3C282,317.3,291.6,317.7,301,320z"/>
			<rect x="292.5" y="239.7" class="st6" width="10.4" height="6.1"/>
			<rect x="292.5" y="215.8" class="st6" width="10.4" height="6.1"/>
			<rect x="286.5" y="227.8" class="st6" width="10.4" height="6.1"/>
			<path d="M287.8,177.7c1.6,0,2.9,1.3,2.9,2.9c0,1.6-1.3,2.9-2.9,2.9h-59.6c-1.6,0-2.9-1.3-2.9-2.9c0-1.6,1.3-2.9,2.9-2.9H287.8z"
				/>
			<rect x="276.3" y="239.7" class="st6" width="10.4" height="6.1"/>
			<rect x="276.3" y="215.8" class="st6" width="10.4" height="6.1"/>
			<path d="M282.7,146.7c1.6,0,2.9,1.3,2.9,2.9c0,1.6-1.3,2.9-2.9,2.9H255c-1.6,0-2.9-1.3-2.9-2.9c0-1.6,1.3-2.9,2.9-2.9H282.7z"/>
			<rect x="270.3" y="227.8" class="st6" width="10.4" height="6.1"/>
			<path class="st6" d="M275.4,261.6v11.2h-36.5v-11.2c0-0.9,0.7-1.7,1.7-1.7h33.1C274.6,259.9,275.4,260.6,275.4,261.6z"/>
			<path d="M271,157c1.6,0,2.9,1.3,2.9,2.9s-1.3,2.9-2.9,2.9h-43.5c-1.6,0-2.9-1.3-2.9-2.9s1.3-2.9,2.9-2.9H271z"/>
			<rect x="243.9" y="239.7" class="st6" width="26.6" height="6.1"/>
			<rect x="260.1" y="215.8" class="st6" width="10.4" height="6.1"/>
			<path d="M266.3,133.2c1.6,0,2.9,1.3,2.9,2.9c0,1.6-1.3,2.9-2.9,2.9h-19c-1.6,0-2.9-1.3-2.9-2.9c0-1.6,1.3-2.9,2.9-2.9H266.3z"/>
			<path d="M264.4,167.4c1.6,0,2.9,1.3,2.9,2.9c0,1.6-1.3,2.9-2.9,2.9h-13.4c-1.6,0-2.9-1.3-2.9-2.9c0-1.6,1.3-2.9,2.9-2.9H264.4z"
				/>
			<rect x="254.1" y="227.8" class="st6" width="10.4" height="6.1"/>
			<path class="st3" d="M256.4,350.3v7.3c-1.1-0.1-2.2-0.1-3.3,0v-7.3C254.2,350.2,255.3,350.2,256.4,350.3z"/>
			<path class="st3" d="M256.4,337.1v7.3c-1.1-0.1-2.2-0.1-3.3,0v-7.3C254.2,337,255.3,337,256.4,337.1z"/>
			<path class="st3" d="M256.4,323.9v7.3c-1.1-0.1-2.2-0.1-3.3,0v-7.3C254.2,323.8,255.3,323.8,256.4,323.9z"/>
			<path class="st3" d="M256.4,310.8v7.3c-1.1-0.1-2.2-0.1-3.3,0v-7.3C254.2,310.7,255.3,310.7,256.4,310.8z"/>
			<rect x="243.9" y="215.8" class="st6" width="10.4" height="6.1"/>
			<rect x="237.9" y="227.8" class="st6" width="10.4" height="6.1"/>
			<path d="M245.5,146.7c1.6,0,2.9,1.3,2.9,2.9c0,1.6-1.3,2.9-2.9,2.9h-28.2c-1.6,0-2.9-1.3-2.9-2.9c0-1.6,1.3-2.9,2.9-2.9H245.5z"
				/>
			<path class="st11" d="M247.3,364.6v3c-7.1-2.2-14.4-3.3-21.7-3.3s-14.6,1.1-21.7,3.3v-64.3c14.1-4.8,29.3-4.8,43.4,0v2.5
				c-0.8,0.2-1.7,0.5-2.5,0.8c-1.5,0.6-2.3,2.3-1.7,3.8c0.6,1.5,2.3,2.3,3.8,1.7c0.1-0.1,0.3-0.1,0.4-0.2v7
				c-0.8,0.2-1.7,0.5-2.5,0.8c-1.5,0.6-2.3,2.3-1.7,3.8c0.4,1.2,1.6,1.9,2.7,1.9c0.3,0,0.7-0.1,1-0.2c0.1-0.1,0.3-0.1,0.4-0.1v7
				c-0.8,0.2-1.7,0.5-2.5,0.8c-1.5,0.6-2.3,2.3-1.7,3.8c0.4,1.2,1.6,1.9,2.7,1.9c0.3,0,0.7-0.1,1-0.2c0.1-0.1,0.3-0.1,0.4-0.1v7
				c-0.8,0.2-1.7,0.5-2.5,0.8c-1.5,0.6-2.3,2.3-1.7,3.8c0.4,1.2,1.6,1.9,2.7,1.9c0.3,0,0.7-0.1,1-0.2c0.1-0.1,0.3-0.1,0.4-0.2v7.1
				c-0.8,0.2-1.7,0.5-2.5,0.8c-1.5,0.6-2.3,2.3-1.7,3.8c0.4,1.2,1.6,1.9,2.7,1.9c0.3,0,0.7-0.1,1-0.2
				C247,364.7,247.1,364.7,247.3,364.6z M239.3,312c0.2-1.6-0.8-3.1-2.4-3.3c-9.6-1.5-19.2-1.1-28.6,1.2c-1.6,0.4-2.5,2-2.1,3.5
				c0.3,1.3,1.5,2.2,2.8,2.2c0.2,0,0.5,0,0.7-0.1c8.7-2.1,17.5-2.5,26.3-1.1C237.5,314.7,239,313.6,239.3,312z M239.3,322.1
				c0.2-1.6-0.8-3.1-2.4-3.3c-9.6-1.5-19.2-1.1-28.6,1.2c-1.6,0.4-2.5,2-2.1,3.5c0.3,1.3,1.5,2.2,2.8,2.2c0.2,0,0.5,0,0.7-0.1
				c8.7-2.1,17.5-2.5,26.3-1.1C237.5,324.8,239,323.7,239.3,322.1z M239.3,332.3c0.2-1.6-0.8-3.1-2.4-3.3
				c-9.6-1.5-19.2-1.1-28.6,1.2c-1.6,0.4-2.5,2-2.1,3.5c0.3,1.3,1.5,2.2,2.8,2.2c0.2,0,0.5,0,0.7-0.1c8.7-2.1,17.5-2.5,26.3-1.1
				C237.5,335,239,333.9,239.3,332.3z M239.3,342.4c0.2-1.6-0.8-3.1-2.4-3.3c-9.6-1.5-19.2-1.1-28.6,1.2c-1.6,0.4-2.5,2-2.1,3.5
				c0.3,1.3,1.5,2.2,2.8,2.2c0.2,0,0.5,0,0.7-0.1c8.7-2.1,17.5-2.5,26.3-1.1C237.5,345.1,239,344,239.3,342.4z M239.3,352.6
				c0.2-1.6-0.8-3.1-2.4-3.3c-9.6-1.5-19.2-1.1-28.6,1.2c-1.6,0.4-2.5,2-2.1,3.5c0.3,1.3,1.5,2.2,2.8,2.2c0.2,0,0.5,0,0.7-0.1
				c8.7-2.1,17.5-2.5,26.3-1.1C237.5,355.3,239,354.2,239.3,352.6z"/>
			<path d="M241.8,167.4c1.6,0,2.9,1.3,2.9,2.9c0,1.6-1.3,2.9-2.9,2.9h-43c-1.6,0-2.9-1.3-2.9-2.9c0-1.6,1.3-2.9,2.9-2.9H241.8z"/>
			<path d="M236.8,308.6c1.6,0.2,2.7,1.7,2.4,3.3c-0.3,1.6-1.7,2.7-3.3,2.4c-8.8-1.4-17.7-1-26.3,1.1c-0.2,0.1-0.5,0.1-0.7,0.1
				c-1.3,0-2.5-0.9-2.8-2.2c-0.4-1.6,0.6-3.1,2.1-3.5C217.6,307.5,227.3,307.1,236.8,308.6z"/>
			<path d="M236.8,318.8c1.6,0.2,2.7,1.7,2.4,3.3c-0.3,1.6-1.7,2.7-3.3,2.4c-8.8-1.4-17.7-1-26.3,1.1c-0.2,0.1-0.5,0.1-0.7,0.1
				c-1.3,0-2.5-0.9-2.8-2.2c-0.4-1.6,0.6-3.1,2.1-3.5C217.6,317.7,227.3,317.3,236.8,318.8z"/>
			<path d="M236.8,328.9c1.6,0.2,2.7,1.7,2.4,3.3c-0.3,1.6-1.7,2.7-3.3,2.4c-8.8-1.4-17.7-1-26.3,1.1c-0.2,0.1-0.5,0.1-0.7,0.1
				c-1.3,0-2.5-0.9-2.8-2.2c-0.4-1.6,0.6-3.2,2.1-3.5C217.6,327.9,227.3,327.4,236.8,328.9z"/>
			<path d="M236.8,339.1c1.6,0.2,2.7,1.7,2.4,3.3c-0.3,1.6-1.7,2.7-3.3,2.4c-8.8-1.4-17.7-1-26.3,1.1c-0.2,0.1-0.5,0.1-0.7,0.1
				c-1.3,0-2.5-0.9-2.8-2.2c-0.4-1.6,0.6-3.1,2.1-3.5C217.6,338,227.3,337.6,236.8,339.1z"/>
			<path d="M236.8,349.3c1.6,0.2,2.7,1.7,2.4,3.3c-0.3,1.6-1.7,2.7-3.3,2.4c-8.8-1.4-17.7-1-26.3,1.1c-0.2,0.1-0.5,0.1-0.7,0.1
				c-1.3,0-2.5-0.9-2.8-2.2c-0.4-1.6,0.6-3.1,2.1-3.5C217.6,348.2,227.3,347.8,236.8,349.3z"/>
			<rect x="227.7" y="239.7" class="st6" width="10.4" height="6.1"/>
			<rect x="227.7" y="215.8" class="st6" width="10.4" height="6.1"/>
			<rect x="221.7" y="227.8" class="st6" width="10.4" height="6.1"/>
			<rect x="211.5" y="239.7" class="st6" width="10.4" height="6.1"/>
			<rect x="211.5" y="215.8" class="st6" width="10.4" height="6.1"/>
			<path d="M218.5,177.7c1.6,0,2.9,1.3,2.9,2.9c0,1.6-1.3,2.9-2.9,2.9h-19.7c-1.6,0-2.9-1.3-2.9-2.9c0-1.6,1.3-2.9,2.9-2.9H218.5z"
				/>
			<path d="M218.2,157c1.6,0,2.9,1.3,2.9,2.9s-1.3,2.9-2.9,2.9h-19.4c-1.6,0-2.9-1.3-2.9-2.9s1.3-2.9,2.9-2.9H218.2z"/>
			<rect x="205.5" y="227.8" class="st6" width="10.4" height="6.1"/>
			<path d="M208.3,146.7c1.6,0,2.9,1.3,2.9,2.9c0,1.6-1.3,2.9-2.9,2.9h-9.5c-1.6,0-2.9-1.3-2.9-2.9c0-1.6,1.3-2.9,2.9-2.9H208.3z"/>
			<rect x="196.3" y="239.7" class="st6" width="9.4" height="6.1"/>
			<rect x="196.3" y="215.8" class="st6" width="9.4" height="6.1"/>
			<rect x="196.3" y="227.8" class="st6" width="3.4" height="6.1"/>
			<path d="M174.2,172.2v64.1c0,1.6-1.3,2.9-2.9,2.9H94.5c-1.6,0-2.9-1.3-2.9-2.9v-64.1c0-1.6,1.3-2.9,2.9-2.9h5.1v-2.2
				c0-1.6,1.3-2.9,2.9-2.9c1.6,0,2.9,1.3,2.9,2.9v2.2h6.3v-2.2c0-1.6,1.3-2.9,2.9-2.9c1.6,0,2.9,1.3,2.9,2.9v2.2h6.3v-2.2
				c0-1.6,1.3-2.9,2.9-2.9c1.6,0,2.9,1.3,2.9,2.9v2.2h6.3v-2.2c0-1.6,1.3-2.9,2.9-2.9s2.9,1.3,2.9,2.9v2.2h6.3v-2.2
				c0-1.6,1.3-2.9,2.9-2.9s2.9,1.3,2.9,2.9v2.2h6.3v-2.2c0-1.6,1.3-2.9,2.9-2.9s2.9,1.3,2.9,2.9v2.2h5.3
				C172.9,169.3,174.2,170.6,174.2,172.2z M168.4,233.4v-19.1v-8.4v-8.4v-22.3H166v1.8c0,1.6-1.3,2.9-2.9,2.9
				c-1.6,0-2.9-1.3-2.9-2.9v-1.8h-6.3v1.8c0,1.6-1.3,2.9-2.9,2.9c-1.6,0-2.9-1.3-2.9-2.9v-1.8h-6.3v1.8c0,1.6-1.3,2.9-2.9,2.9
				s-2.9-1.3-2.9-2.9v-1.8h-6.3v1.8c0,1.6-1.3,2.9-2.9,2.9c-1.6,0-2.9-1.3-2.9-2.9v-1.8h-6.3v1.8c0,1.6-1.3,2.9-2.9,2.9
				c-1.6,0-2.9-1.3-2.9-2.9v-1.8h-6.3v1.8c0,1.6-1.3,2.9-2.9,2.9s-2.9-1.3-2.9-2.9v-1.8h-2.2v22.3v8.4v8.4v19.1H168.4z"/>
			<path d="M168.5,300.2v72.5c0,1.6-1.3,2.9-2.9,2.9h-48.1c-1.6,0-2.9-1.3-2.9-2.9v-72.5c0-1.6,1.3-2.9,2.9-2.9h6.9l0.6-2.3
				c0.4-1.6,2-2.5,3.6-2.1c1.6,0.4,2.5,2,2.1,3.6l-0.2,0.8h4.7l0.6-2.3c0.4-1.6,2-2.5,3.6-2.1c1.6,0.4,2.5,2,2.1,3.6l-0.2,0.8h4.7
				l0.6-2.3c0.4-1.6,2-2.5,3.6-2.1c1.6,0.4,2.5,2,2.1,3.6l-0.2,0.8h4.7l0.6-2.3c0.4-1.6,2-2.5,3.6-2.1c1.6,0.4,2.5,2,2.1,3.6
				l-0.2,0.8h3.2C167.2,297.3,168.5,298.6,168.5,300.2z M162.7,369.8v-2.5h-42.3v2.5H162.7z M162.7,361.5v-58.4h-1.8l-1,3.7
				c-0.3,1.3-1.5,2.2-2.8,2.2c-0.2,0-0.5,0-0.8-0.1c-1.6-0.4-2.5-2-2.1-3.6l0.6-2.2h-4.7l-1,3.7c-0.4,1.3-1.5,2.2-2.8,2.2
				c-0.2,0-0.5,0-0.7-0.1c-1.6-0.4-2.5-2-2.1-3.6l0.6-2.2h-4.7l-1,3.7c-0.3,1.3-1.5,2.2-2.8,2.2c-0.2,0-0.5,0-0.8-0.1
				c-1.6-0.4-2.5-2-2.1-3.6l0.6-2.2h-4.7l-1,3.7c-0.3,1.3-1.5,2.2-2.8,2.2c-0.2,0-0.5,0-0.8-0.1c-1.6-0.4-2.5-2-2.1-3.6l0.6-2.2
				h-2.4v58.4L162.7,361.5L162.7,361.5z"/>
			<path class="st6" d="M168.4,214.4v19.1h-71v-19.1h2.2c0,1.6,1.3,2.9,2.9,2.9h2.9c1.6,0,2.9-1.3,2.9-2.9h0.9
				c0,1.6,1.3,2.9,2.9,2.9h2.9c1.6,0,2.9-1.3,2.9-2.9h0.9c0,1.6,1.3,2.9,2.9,2.9h2.9c1.6,0,2.9-1.3,2.9-2.9h0.9
				c0,1.6,1.3,2.9,2.9,2.9h2.9c1.6,0,2.9-1.3,2.9-2.9h0.9c0,1.6,1.3,2.9,2.9,2.9h2.9c1.6,0,2.9-1.3,2.9-2.9h0.9
				c0,1.6,1.3,2.9,2.9,2.9h2.9c1.6,0,2.9-1.3,2.9-2.9h0.9c0,1.6,1.3,2.9,2.9,2.9h2.9c1.6,0,2.9-1.3,2.9-2.9H168.4z M137.4,222.8
				c0-1.6-1.3-2.9-2.9-2.9h-2.9c-1.6,0-2.9,1.3-2.9,2.9s1.3,2.9,2.9,2.9h2.9C136.1,225.7,137.4,224.4,137.4,222.8z M127.7,222.8
				c0-1.6-1.3-2.9-2.9-2.9h-2.9c-1.6,0-2.9,1.3-2.9,2.9s1.3,2.9,2.9,2.9h2.9C126.4,225.7,127.7,224.4,127.7,222.8z M118,222.8
				c0-1.6-1.3-2.9-2.9-2.9h-2.9c-1.6,0-2.9,1.3-2.9,2.9s1.3,2.9,2.9,2.9h2.9C116.7,225.7,118,224.4,118,222.8z M108.4,222.8
				c0-1.6-1.3-2.9-2.9-2.9h-2.9c-1.6,0-2.9,1.3-2.9,2.9s1.3,2.9,2.9,2.9h2.9C107,225.7,108.4,224.4,108.4,222.8z"/>
			<path class="st6" d="M168.4,205.9v8.4h-1.9c0-1.6-1.3-2.9-2.9-2.9h-2.9c-1.6,0-2.9,1.3-2.9,2.9h-0.9c0-1.6-1.3-2.9-2.9-2.9h-2.9
				c-1.6,0-2.9,1.3-2.9,2.9h-0.9c0-1.6-1.3-2.9-2.9-2.9h-2.9c-1.6,0-2.9,1.3-2.9,2.9h-0.9c0-1.6-1.3-2.9-2.9-2.9h-2.9
				c-1.6,0-2.9,1.3-2.9,2.9h-0.9c0-1.6-1.3-2.9-2.9-2.9h-2.9c-1.6,0-2.9,1.3-2.9,2.9H118c0-1.6-1.3-2.9-2.9-2.9h-2.9
				c-1.6,0-2.9,1.3-2.9,2.9h-0.9c0-1.6-1.3-2.9-2.9-2.9h-2.9c-1.6,0-2.9,1.3-2.9,2.9h-2.2v-8.4h2.2c0,1.6,1.3,2.9,2.9,2.9h2.9
				c1.6,0,2.9-1.3,2.9-2.9h0.9c0,1.6,1.3,2.9,2.9,2.9h2.9c1.6,0,2.9-1.3,2.9-2.9h0.9c0,1.6,1.3,2.9,2.9,2.9h2.9
				c1.6,0,2.9-1.3,2.9-2.9h0.9c0,1.6,1.3,2.9,2.9,2.9h2.9c1.6,0,2.9-1.3,2.9-2.9h0.9c0,1.6,1.3,2.9,2.9,2.9h2.9
				c1.6,0,2.9-1.3,2.9-2.9h0.9c0,1.6,1.3,2.9,2.9,2.9h2.9c1.6,0,2.9-1.3,2.9-2.9h0.9c0,1.6,1.3,2.9,2.9,2.9h2.9
				c1.6,0,2.9-1.3,2.9-2.9H168.4z"/>
			<path class="st6" d="M168.4,197.5v8.4h-1.9c0-1.6-1.3-2.9-2.9-2.9h-2.9c-1.6,0-2.9,1.3-2.9,2.9h-0.9c0-1.6-1.3-2.9-2.9-2.9h-2.9
				c-1.6,0-2.9,1.3-2.9,2.9h-0.9c0-1.6-1.3-2.9-2.9-2.9h-2.9c-1.6,0-2.9,1.3-2.9,2.9h-0.9c0-1.6-1.3-2.9-2.9-2.9h-2.9
				c-1.6,0-2.9,1.3-2.9,2.9h-0.9c0-1.6-1.3-2.9-2.9-2.9h-2.9c-1.6,0-2.9,1.3-2.9,2.9H118c0-1.6-1.3-2.9-2.9-2.9h-2.9
				c-1.6,0-2.9,1.3-2.9,2.9h-0.9c0-1.6-1.3-2.9-2.9-2.9h-2.9c-1.6,0-2.9,1.3-2.9,2.9h-2.2v-8.4h2.2c0,1.6,1.3,2.9,2.9,2.9h2.9
				c1.6,0,2.9-1.3,2.9-2.9h0.9c0,1.6,1.3,2.9,2.9,2.9h2.9c1.6,0,2.9-1.3,2.9-2.9h0.9c0,1.6,1.3,2.9,2.9,2.9h2.9
				c1.6,0,2.9-1.3,2.9-2.9h0.9c0,1.6,1.3,2.9,2.9,2.9h2.9c1.6,0,2.9-1.3,2.9-2.9h0.9c0,1.6,1.3,2.9,2.9,2.9h2.9
				c1.6,0,2.9-1.3,2.9-2.9h0.9c0,1.6,1.3,2.9,2.9,2.9h2.9c1.6,0,2.9-1.3,2.9-2.9h0.9c0,1.6,1.3,2.9,2.9,2.9h2.9
				c1.6,0,2.9-1.3,2.9-2.9H168.4z"/>
			<path class="st6" d="M168.4,175.2v22.3h-1.9c0-1.6-1.3-2.9-2.9-2.9h-2.9c-1.6,0-2.9,1.3-2.9,2.9h-0.9c0-1.6-1.3-2.9-2.9-2.9h-2.9
				c-1.6,0-2.9,1.3-2.9,2.9h-0.9c0-1.6-1.3-2.9-2.9-2.9h-2.9c-1.6,0-2.9,1.3-2.9,2.9h-0.9c0-1.6-1.3-2.9-2.9-2.9h-2.9
				c-1.6,0-2.9,1.3-2.9,2.9h-0.9c0-1.6-1.3-2.9-2.9-2.9h-2.9c-1.6,0-2.9,1.3-2.9,2.9H118c0-1.6-1.3-2.9-2.9-2.9h-2.9
				c-1.6,0-2.9,1.3-2.9,2.9h-0.9c0-1.6-1.3-2.9-2.9-2.9h-2.9c-1.6,0-2.9,1.3-2.9,2.9h-2.2v-22.3h2.2v1.8c0,1.6,1.3,2.9,2.9,2.9
				c1.6,0,2.9-1.3,2.9-2.9v-1.8h6.3v1.8c0,1.6,1.3,2.9,2.9,2.9c1.6,0,2.9-1.3,2.9-2.9v-1.8h6.3v1.8c0,1.6,1.3,2.9,2.9,2.9
				c1.6,0,2.9-1.3,2.9-2.9v-1.8h6.3v1.8c0,1.6,1.3,2.9,2.9,2.9s2.9-1.3,2.9-2.9v-1.8h6.3v1.8c0,1.6,1.3,2.9,2.9,2.9
				c1.6,0,2.9-1.3,2.9-2.9v-1.8h6.3v1.8c0,1.6,1.3,2.9,2.9,2.9c1.6,0,2.9-1.3,2.9-2.9v-1.8H168.4z M166.5,189c0-1.6-1.3-2.9-2.9-2.9
				h-2.9c-1.6,0-2.9,1.3-2.9,2.9c0,1.6,1.3,2.9,2.9,2.9h2.9C165.2,191.9,166.5,190.6,166.5,189z M156.8,189c0-1.6-1.3-2.9-2.9-2.9
				h-2.9c-1.6,0-2.9,1.3-2.9,2.9c0,1.6,1.3,2.9,2.9,2.9h2.9C155.5,191.9,156.8,190.6,156.8,189z M147.1,189c0-1.6-1.3-2.9-2.9-2.9
				h-2.9c-1.6,0-2.9,1.3-2.9,2.9c0,1.6,1.3,2.9,2.9,2.9h2.9C145.8,191.9,147.1,190.6,147.1,189z M137.4,189c0-1.6-1.3-2.9-2.9-2.9
				h-2.9c-1.6,0-2.9,1.3-2.9,2.9c0,1.6,1.3,2.9,2.9,2.9h2.9C136.1,191.9,137.4,190.6,137.4,189z M127.7,189c0-1.6-1.3-2.9-2.9-2.9
				h-2.9c-1.6,0-2.9,1.3-2.9,2.9c0,1.6,1.3,2.9,2.9,2.9h2.9C126.4,191.9,127.7,190.6,127.7,189z"/>
			<path d="M163.5,186.1c1.6,0,2.9,1.3,2.9,2.9c0,1.6-1.3,2.9-2.9,2.9h-2.9c-1.6,0-2.9-1.3-2.9-2.9c0-1.6,1.3-2.9,2.9-2.9H163.5z"/>
			<path d="M163.5,194.5c1.6,0,2.9,1.3,2.9,2.9s-1.3,2.9-2.9,2.9h-2.9c-1.6,0-2.9-1.3-2.9-2.9s1.3-2.9,2.9-2.9H163.5z"/>
			<path d="M163.5,203c1.6,0,2.9,1.3,2.9,2.9c0,1.6-1.3,2.9-2.9,2.9h-2.9c-1.6,0-2.9-1.3-2.9-2.9c0-1.6,1.3-2.9,2.9-2.9H163.5z"/>
			<path d="M163.5,211.4c1.6,0,2.9,1.3,2.9,2.9c0,1.6-1.3,2.9-2.9,2.9h-2.9c-1.6,0-2.9-1.3-2.9-2.9c0-1.6,1.3-2.9,2.9-2.9H163.5z"/>
			<path d="M164.5,247.4v37.9c0,1.6-1.3,2.9-2.9,2.9h-60.9c-1.6,0-2.9-1.3-2.9-2.9v-37.9c0-1.6,1.3-2.9,2.9-2.9h60.9
				C163.2,244.4,164.5,245.8,164.5,247.4z M158.7,282.4v-23h-36.8v23H158.7z M158.7,253.6v-3.3h-2.3v3.3H158.7z M150.5,253.6v-3.3
				H148v3.3H150.5z M142.1,253.6v-3.3h-2.6v3.3H142.1z M133.8,253.6v-3.3h-30.1v3.3H133.8z M116,282.4v-3.6h-12.4v3.6H116z
				 M116,272.9v-4h-12.4v4H116z M116,263v-3.6h-12.4v3.6H116z"/>
			<rect x="120.4" y="367.4" class="st9" width="42.3" height="2.5"/>
			<path class="st10" d="M162.7,303.2v58.4h-42.3v-58.4h2.4l-0.6,2.2c-0.4,1.6,0.5,3.2,2.1,3.6c0.3,0.1,0.5,0.1,0.8,0.1
				c1.3,0,2.5-0.9,2.8-2.2l1-3.7h4.7l-0.6,2.2c-0.4,1.6,0.5,3.2,2.1,3.6c0.2,0.1,0.5,0.1,0.8,0.1c1.3,0,2.5-0.9,2.8-2.2l1-3.7h4.7
				l-0.6,2.2c-0.4,1.6,0.5,3.2,2.1,3.6c0.2,0.1,0.5,0.1,0.7,0.1c1.3,0,2.5-0.9,2.8-2.2l1-3.7h4.7l-0.6,2.2c-0.4,1.6,0.5,3.2,2.1,3.6
				c0.2,0.1,0.5,0.1,0.8,0.1c1.3,0,2.5-0.9,2.8-2.2l1-3.7L162.7,303.2L162.7,303.2z M155.8,322.1c0-1.6-1.3-2.9-2.9-2.9h-22.6
				c-1.6,0-2.9,1.3-2.9,2.9c0,1.6,1.3,2.9,2.9,2.9h22.6C154.5,325,155.8,323.7,155.8,322.1z M155.8,330.5c0-1.6-1.3-2.9-2.9-2.9
				h-22.6c-1.6,0-2.9,1.3-2.9,2.9c0,1.6,1.3,2.9,2.9,2.9h22.6C154.5,333.4,155.8,332.1,155.8,330.5z"/>
			<path class="st10" d="M158.7,259.4v23h-36.8v-23H158.7L158.7,259.4z M155.4,271.3c0-4.4-3.6-8-8-8c-4.4,0-8,3.6-8,8
				c0,4.4,3.6,8,8,8C151.8,279.2,155.4,275.6,155.4,271.3z M135.2,271.3c0-1.7-1.4-3.1-3.1-3.1s-3.1,1.4-3.1,3.1
				c0,1.7,1.4,3.1,3.1,3.1S135.2,273,135.2,271.3z"/>
			<rect x="156.4" y="250.3" class="st6" width="2.3" height="3.3"/>
			<path d="M153.9,186.1c1.6,0,2.9,1.3,2.9,2.9c0,1.6-1.3,2.9-2.9,2.9h-2.9c-1.6,0-2.9-1.3-2.9-2.9c0-1.6,1.3-2.9,2.9-2.9H153.9z"/>
			<path d="M153.9,194.5c1.6,0,2.9,1.3,2.9,2.9s-1.3,2.9-2.9,2.9h-2.9c-1.6,0-2.9-1.3-2.9-2.9s1.3-2.9,2.9-2.9H153.9z"/>
			<path d="M153.9,203c1.6,0,2.9,1.3,2.9,2.9c0,1.6-1.3,2.9-2.9,2.9h-2.9c-1.6,0-2.9-1.3-2.9-2.9c0-1.6,1.3-2.9,2.9-2.9H153.9z"/>
			<path d="M153.9,211.4c1.6,0,2.9,1.3,2.9,2.9c0,1.6-1.3,2.9-2.9,2.9h-2.9c-1.6,0-2.9-1.3-2.9-2.9c0-1.6,1.3-2.9,2.9-2.9H153.9z"/>
			<path d="M152.8,319.2c1.6,0,2.9,1.3,2.9,2.9c0,1.6-1.3,2.9-2.9,2.9h-22.6c-1.6,0-2.9-1.3-2.9-2.9c0-1.6,1.3-2.9,2.9-2.9H152.8z"
				/>
			<path d="M152.8,327.6c1.6,0,2.9,1.3,2.9,2.9c0,1.6-1.3,2.9-2.9,2.9h-22.6c-1.6,0-2.9-1.3-2.9-2.9c0-1.6,1.3-2.9,2.9-2.9H152.8z"
				/>
			<path d="M147.4,263.3c4.4,0,8,3.6,8,8c0,4.4-3.6,8-8,8c-4.4,0-8-3.6-8-8S143,263.3,147.4,263.3z M149.5,271.3
				c0-1.2-1-2.1-2.1-2.1c-1.2,0-2.1,1-2.1,2.1c0,1.2,1,2.1,2.1,2.1C148.6,273.4,149.5,272.4,149.5,271.3z"/>
			<rect x="148" y="250.3" class="st6" width="2.6" height="3.3"/>
			<path class="st12" d="M147.4,269.1c1.2,0,2.1,1,2.1,2.1c0,1.2-1,2.1-2.1,2.1c-1.2,0-2.1-1-2.1-2.1
				C145.3,270.1,146.2,269.1,147.4,269.1z"/>
			<path d="M144.2,186.1c1.6,0,2.9,1.3,2.9,2.9c0,1.6-1.3,2.9-2.9,2.9h-2.9c-1.6,0-2.9-1.3-2.9-2.9c0-1.6,1.3-2.9,2.9-2.9H144.2z"/>
			<path d="M144.2,194.5c1.6,0,2.9,1.3,2.9,2.9s-1.3,2.9-2.9,2.9h-2.9c-1.6,0-2.9-1.3-2.9-2.9s1.3-2.9,2.9-2.9H144.2z"/>
			<path d="M144.2,203c1.6,0,2.9,1.3,2.9,2.9c0,1.6-1.3,2.9-2.9,2.9h-2.9c-1.6,0-2.9-1.3-2.9-2.9c0-1.6,1.3-2.9,2.9-2.9H144.2z"/>
			<path d="M144.2,211.4c1.6,0,2.9,1.3,2.9,2.9c0,1.6-1.3,2.9-2.9,2.9h-2.9c-1.6,0-2.9-1.3-2.9-2.9c0-1.6,1.3-2.9,2.9-2.9H144.2z"/>
			<rect x="139.6" y="250.3" class="st6" width="2.6" height="3.3"/>
			<path d="M134.5,186.1c1.6,0,2.9,1.3,2.9,2.9c0,1.6-1.3,2.9-2.9,2.9h-2.9c-1.6,0-2.9-1.3-2.9-2.9c0-1.6,1.3-2.9,2.9-2.9H134.5z"/>
			<path d="M134.5,194.5c1.6,0,2.9,1.3,2.9,2.9s-1.3,2.9-2.9,2.9h-2.9c-1.6,0-2.9-1.3-2.9-2.9s1.3-2.9,2.9-2.9H134.5z"/>
			<path d="M134.5,203c1.6,0,2.9,1.3,2.9,2.9c0,1.6-1.3,2.9-2.9,2.9h-2.9c-1.6,0-2.9-1.3-2.9-2.9c0-1.6,1.3-2.9,2.9-2.9H134.5z"/>
			<path d="M134.5,211.4c1.6,0,2.9,1.3,2.9,2.9c0,1.6-1.3,2.9-2.9,2.9h-2.9c-1.6,0-2.9-1.3-2.9-2.9c0-1.6,1.3-2.9,2.9-2.9H134.5z"/>
			<path d="M134.5,219.9c1.6,0,2.9,1.3,2.9,2.9s-1.3,2.9-2.9,2.9h-2.9c-1.6,0-2.9-1.3-2.9-2.9s1.3-2.9,2.9-2.9H134.5z"/>
			<path d="M132.1,268.2c1.7,0,3.1,1.4,3.1,3.1c0,1.7-1.4,3.1-3.1,3.1s-3.1-1.4-3.1-3.1C129,269.5,130.4,268.2,132.1,268.2z"/>
			<rect x="103.6" y="250.3" class="st10" width="30.1" height="3.3"/>
			<path d="M124.8,186.1c1.6,0,2.9,1.3,2.9,2.9c0,1.6-1.3,2.9-2.9,2.9h-2.9c-1.6,0-2.9-1.3-2.9-2.9c0-1.6,1.3-2.9,2.9-2.9H124.8z"/>
			<path d="M124.8,194.5c1.6,0,2.9,1.3,2.9,2.9s-1.3,2.9-2.9,2.9h-2.9c-1.6,0-2.9-1.3-2.9-2.9s1.3-2.9,2.9-2.9H124.8z"/>
			<path d="M124.8,203c1.6,0,2.9,1.3,2.9,2.9c0,1.6-1.3,2.9-2.9,2.9h-2.9c-1.6,0-2.9-1.3-2.9-2.9c0-1.6,1.3-2.9,2.9-2.9H124.8z"/>
			<path d="M124.8,211.4c1.6,0,2.9,1.3,2.9,2.9c0,1.6-1.3,2.9-2.9,2.9h-2.9c-1.6,0-2.9-1.3-2.9-2.9c0-1.6,1.3-2.9,2.9-2.9H124.8z"/>
			<path d="M124.8,219.9c1.6,0,2.9,1.3,2.9,2.9s-1.3,2.9-2.9,2.9h-2.9c-1.6,0-2.9-1.3-2.9-2.9s1.3-2.9,2.9-2.9H124.8z"/>
			<path d="M115.1,194.5c1.6,0,2.9,1.3,2.9,2.9s-1.3,2.9-2.9,2.9h-2.9c-1.6,0-2.9-1.3-2.9-2.9s1.3-2.9,2.9-2.9H115.1z"/>
			<path d="M115.1,203c1.6,0,2.9,1.3,2.9,2.9c0,1.6-1.3,2.9-2.9,2.9h-2.9c-1.6,0-2.9-1.3-2.9-2.9c0-1.6,1.3-2.9,2.9-2.9H115.1z"/>
			<path d="M115.1,211.4c1.6,0,2.9,1.3,2.9,2.9c0,1.6-1.3,2.9-2.9,2.9h-2.9c-1.6,0-2.9-1.3-2.9-2.9c0-1.6,1.3-2.9,2.9-2.9H115.1z"/>
			<path d="M115.1,219.9c1.6,0,2.9,1.3,2.9,2.9s-1.3,2.9-2.9,2.9h-2.9c-1.6,0-2.9-1.3-2.9-2.9s1.3-2.9,2.9-2.9H115.1z"/>
			<rect x="103.6" y="278.7" class="st4" width="12.4" height="3.6"/>
			<rect x="103.6" y="268.9" class="st4" width="12.4" height="4"/>
			<rect x="103.6" y="259.4" class="st4" width="12.4" height="3.6"/>
			<path d="M105.4,194.5c1.6,0,2.9,1.3,2.9,2.9s-1.3,2.9-2.9,2.9h-2.9c-1.6,0-2.9-1.3-2.9-2.9s1.3-2.9,2.9-2.9H105.4z"/>
			<path d="M105.4,203c1.6,0,2.9,1.3,2.9,2.9c0,1.6-1.3,2.9-2.9,2.9h-2.9c-1.6,0-2.9-1.3-2.9-2.9c0-1.6,1.3-2.9,2.9-2.9H105.4z"/>
			<path d="M105.4,211.4c1.6,0,2.9,1.3,2.9,2.9c0,1.6-1.3,2.9-2.9,2.9h-2.9c-1.6,0-2.9-1.3-2.9-2.9c0-1.6,1.3-2.9,2.9-2.9H105.4z"/>
			<path d="M105.4,219.9c1.6,0,2.9,1.3,2.9,2.9s-1.3,2.9-2.9,2.9h-2.9c-1.6,0-2.9-1.3-2.9-2.9s1.3-2.9,2.9-2.9H105.4z"/>
		</g>
	</g>
</g>
</svg>
