<?xml version="1.0" encoding="iso-8859-1"?>
<!-- Generator: Adobe Illustrator 18.0.0, SVG Export Plug-In . SVG Version: 6.00 Build 0)  -->
<!DOCTYPE svg PUBLIC "-//W3C//DTD SVG 1.1//EN" "http://www.w3.org/Graphics/SVG/1.1/DTD/svg11.dtd">
<svg version="1.1" id="Capa_1" xmlns="http://www.w3.org/2000/svg" xmlns:xlink="http://www.w3.org/1999/xlink" x="0px" y="0px"
	 viewBox="0 0 480.34 480.34" style="enable-background:new 0 0 480.34 480.34;" xml:space="preserve">
<g>
	<g id="XMLID_3_">
		<g>
			<path d="M480.09,418.72v27.12c0,2.21-1.8,4-4,4H4.25c-2.21,0-4-1.79-4-4v-27.12c0-0.01,0-0.01,0-0.02V101.36c0-2.21,1.79-4,4-4
				h128.16V42.64c0-6.69,5.45-12.14,12.13-12.14h194.41c6.69,0,12.13,5.45,12.13,12.14v54.72h125.01c2.21,0,4,1.79,4,4V418.7
				C480.09,418.7,480.09,418.71,480.09,418.72z M472.09,441.84V422.7H8.25v19.14H472.09z M472.09,414.7V105.36H351.08v166.31
				c0,7.56-6.15,13.71-13.71,13.71H146.13c-7.56,0-13.72-6.15-13.72-13.71V105.36H8.25V414.7H472.09z M343.08,271.67v-0.56H140.41
				v0.56c0,3.15,2.57,5.71,5.72,5.71h191.24C340.52,277.38,343.08,274.82,343.08,271.67z M343.08,263.11v-90.27H140.41v90.27h68.34
				v-15.32c0-5.67,4.61-10.29,10.28-10.29h45.43c5.67,0,10.29,4.62,10.29,10.29v15.32H343.08z M343.08,164.84V49.5H140.41v115.34
				H343.08z M140.59,41.5H342.9c-0.49-1.72-2.07-3-3.95-3H144.54C142.66,38.5,141.09,39.78,140.59,41.5z M266.75,263.11v-15.32
				c0-1.26-1.03-2.29-2.29-2.29h-45.43c-1.26,0-2.28,1.03-2.28,2.29v15.32H266.75z"/>
			<rect x="8.25" y="422.7" style="fill:#D1A169;" width="463.84" height="19.14"/>
			<path style="fill:#EFBF7F;" d="M472.09,105.36V414.7H8.25V105.36h124.16v166.31c0,7.56,6.16,13.71,13.72,13.71h191.24
				c7.56,0,13.71-6.15,13.71-13.71V105.36H472.09z M460.75,189.42v-68.09c0-2.2-1.79-4-4-4h-94c-2.21,0-4,1.8-4,4v68.09
				c0,2.21,1.79,4,4,4h94C458.96,193.42,460.75,191.63,460.75,189.42z M451.75,388.6v-89.53c0-8.13-6.61-14.74-14.74-14.74h-62.53
				c-8.12,0-14.73,6.61-14.73,14.74v89.53c0,8.13,6.61,14.73,14.73,14.73h62.53C445.14,403.33,451.75,396.73,451.75,388.6z
				 M429.61,250.25v-21.73c0-12.99-10.57-23.56-23.57-23.56h-1.71c-13,0-23.57,10.57-23.57,23.56v21.73
				c0,12.99,10.57,23.56,23.57,23.56h1.71C419.04,273.81,429.61,263.24,429.61,250.25z M348.25,389.33v-76.5c0-2.2-1.79-4-4-4
				s-4,1.8-4,4v76.5c0,2.21,1.79,4,4,4S348.25,391.54,348.25,389.33z M333.75,389.33v-76.5c0-2.2-1.79-4-4-4s-4,1.8-4,4v76.5
				c0,2.21,1.79,4,4,4S333.75,391.54,333.75,389.33z M316.22,398.79v-96.56c0-1.66-1.03-3.15-2.59-3.74
				c-22.68-8.57-47.65-8.57-70.33,0c-1.55,0.59-2.58,2.08-2.58,3.74v5c-1.5-0.1-3-0.11-4.5-0.03v-4.97c0-1.66-1.03-3.15-2.58-3.74
				c-22.68-8.57-47.65-8.57-70.33,0c-1.56,0.59-2.59,2.08-2.59,3.74v96.56c0,1.31,0.65,2.54,1.73,3.29
				c1.08,0.74,2.46,0.91,3.69,0.45c20.85-7.88,43.82-7.88,64.67,0c0.46,0.17,0.94,0.26,1.41,0.26c0.8,0,1.6-0.25,2.28-0.71
				c1.08-0.75,1.72-1.98,1.72-3.29v-11.38c1.5-0.1,3-0.09,4.5,0.03v11.35c0,1.31,0.64,2.54,1.72,3.29c1.08,0.74,2.46,0.91,3.69,0.45
				c20.85-7.88,43.82-7.88,64.67,0c0.46,0.17,0.94,0.26,1.41,0.26c0.81,0,1.6-0.25,2.28-0.71
				C315.57,401.33,316.22,400.1,316.22,398.79z M128.08,213.25v-87.92c0-2.2-1.79-4-4-4h-7.33v-3c0-2.2-1.79-4-4-4s-4,1.8-4,4v3
				h-8.6v-3c0-2.2-1.79-4-4-4s-4,1.8-4,4v3h-8.6v-3c0-2.2-1.79-4-4-4c-2.21,0-4,1.8-4,4v3h-8.6v-3c0-2.2-1.79-4-4-4
				c-2.21,0-4,1.8-4,4v3h-8.6v-3c0-2.2-1.79-4-4-4c-2.21,0-4,1.8-4,4v3h-8.6v-3c0-2.2-1.79-4-4-4s-4,1.8-4,4v3h-7c-2.21,0-4,1.8-4,4
				v87.92c0,2.21,1.79,4,4,4h105.33C126.29,217.25,128.08,215.46,128.08,213.25z M120.25,400.19v-99.36c0-2.2-1.79-4-4-4h-4.32
				l0.28-1.05c0.56-2.13-0.71-4.32-2.85-4.89c-2.13-0.56-4.32,0.71-4.89,2.85l-0.82,3.09h-6.38l0.28-1.05
				c0.57-2.13-0.71-4.32-2.84-4.89c-2.14-0.56-4.33,0.71-4.89,2.85L89,296.83h-6.38l0.27-1.05c0.57-2.13-0.7-4.32-2.84-4.89
				c-2.13-0.56-4.32,0.71-4.89,2.85l-0.82,3.09h-6.38l0.28-1.05c0.56-2.13-0.71-4.32-2.84-4.89c-2.14-0.56-4.33,0.71-4.9,2.85
				l-0.81,3.09h-9.44c-2.21,0-4,1.8-4,4v99.36c0,2.21,1.79,4,4,4h66C118.46,404.19,120.25,402.4,120.25,400.19z M114.75,280.33v-52
				c0-2.2-1.79-4-4-4h-83.5c-2.21,0-4,1.8-4,4v52c0,2.21,1.79,4,4,4h83.5C112.96,284.33,114.75,282.54,114.75,280.33z"/>
			<path d="M460.75,121.33v68.09c0,2.21-1.79,4-4,4h-94c-2.21,0-4-1.79-4-4v-68.09c0-2.2,1.79-4,4-4h94
				C458.96,117.33,460.75,119.13,460.75,121.33z M452.75,185.42v-45.09h-86v45.09H452.75z M452.75,132.33v-7h-68v7H452.75z
				 M376.75,132.33v-7h-10v7H376.75z"/>
			<path style="fill:#047FA0;" d="M452.75,140.33v45.09h-86v-45.09H452.75z M448.75,149.33c0-2.2-1.79-4-4-4h-13c-2.21,0-4,1.8-4,4
				c0,2.21,1.79,4,4,4h13C446.96,153.33,448.75,151.54,448.75,149.33z M427.75,163.33c0-9.92-8.08-18-18-18c-9.93,0-18,8.08-18,18
				c0,9.93,8.07,18,18,18C419.67,181.33,427.75,173.26,427.75,163.33z M389,174.33c0-2.34-1.91-4.25-4.25-4.25
				c-2.35,0-4.25,1.91-4.25,4.25c0,2.35,1.9,4.25,4.25,4.25C387.09,178.58,389,176.68,389,174.33z"/>
			<rect x="384.75" y="125.33" style="fill:#047FA0;" width="68" height="7"/>
			<path d="M451.75,299.07v89.53c0,8.13-6.61,14.73-14.74,14.73h-62.53c-8.12,0-14.73-6.6-14.73-14.73v-89.53
				c0-8.13,6.61-14.74,14.73-14.74h62.53C445.14,284.33,451.75,290.94,451.75,299.07z M443.75,388.6v-89.53
				c0-3.72-3.02-6.74-6.74-6.74h-62.53c-3.71,0-6.73,3.02-6.73,6.74v89.53c0,3.71,3.02,6.73,6.73,6.73h62.53
				C440.73,395.33,443.75,392.31,443.75,388.6z"/>
			<path d="M444.75,145.33c2.21,0,4,1.8,4,4c0,2.21-1.79,4-4,4h-13c-2.21,0-4-1.79-4-4c0-2.2,1.79-4,4-4H444.75z"/>
			<path style="fill:#333333;" d="M443.75,299.07v89.53c0,3.71-3.02,6.73-6.74,6.73h-62.53c-3.71,0-6.73-3.02-6.73-6.73v-89.53
				c0-3.72,3.02-6.74,6.73-6.74h62.53C440.73,292.33,443.75,295.35,443.75,299.07z M438.75,380.72v-79.39c0-2.2-1.79-4-4-4h-58
				c-2.21,0-4,1.8-4,4v79.39c0,2.21,1.79,4,4,4h58C436.96,384.72,438.75,382.93,438.75,380.72z M410,390.33
				c0-2.34-1.91-4.25-4.25-4.25c-2.35,0-4.25,1.91-4.25,4.25c0,2.35,1.9,4.25,4.25,4.25C408.09,394.58,410,392.68,410,390.33z"/>
			<path d="M438.75,301.33v79.39c0,2.21-1.79,4-4,4h-58c-2.21,0-4-1.79-4-4v-79.39c0-2.2,1.79-4,4-4h58
				C436.96,297.33,438.75,299.13,438.75,301.33z M430.75,376.72v-71.39h-50v71.39H430.75z"/>
			<rect x="380.75" y="305.33" style="fill:#E6E6E6;" width="50" height="71.39"/>
			<path d="M429.61,228.52v21.73c0,12.99-10.57,23.56-23.57,23.56h-1.71c-13,0-23.57-10.57-23.57-23.56v-21.73
				c0-12.99,10.57-23.56,23.57-23.56h1.71C419.04,204.96,429.61,215.53,429.61,228.52z M421.61,250.25v-11.67h-32.85v11.67
				c0,8.58,6.98,15.56,15.57,15.56h1.71C414.63,265.81,421.61,258.83,421.61,250.25z M421.61,230.58v-2.06
				c0-7.5-5.34-13.78-12.43-15.24v17.3H421.61z M401.18,230.58v-17.3c-7.08,1.46-12.42,7.74-12.42,15.24v2.06H401.18z"/>
			<path d="M409.75,145.33c9.92,0,18,8.08,18,18c0,9.93-8.08,18-18,18c-9.93,0-18-8.07-18-18
				C391.75,153.41,399.82,145.33,409.75,145.33z M419.75,163.33c0-5.51-4.49-10-10-10c-5.52,0-10,4.49-10,10c0,5.52,4.48,10,10,10
				C415.26,173.33,419.75,168.85,419.75,163.33z"/>
			<path style="fill:#808080;" d="M409.75,153.33c5.51,0,10,4.49,10,10c0,5.52-4.49,10-10,10c-5.52,0-10-4.48-10-10
				C399.75,157.82,404.23,153.33,409.75,153.33z"/>
			<path d="M405.75,386.08c2.34,0,4.25,1.91,4.25,4.25c0,2.35-1.91,4.25-4.25,4.25c-2.35,0-4.25-1.9-4.25-4.25
				C401.5,387.99,403.4,386.08,405.75,386.08z"/>
			<path d="M384.75,170.08c2.34,0,4.25,1.91,4.25,4.25c0,2.35-1.91,4.25-4.25,4.25c-2.35,0-4.25-1.9-4.25-4.25
				C380.5,171.99,382.4,170.08,384.75,170.08z"/>
			<rect x="366.75" y="125.33" style="fill:#047FA0;" width="10" height="7"/>
			<path d="M348.25,312.83v76.5c0,2.21-1.79,4-4,4s-4-1.79-4-4v-76.5c0-2.2,1.79-4,4-4S348.25,310.63,348.25,312.83z"/>
			<path style="fill:#999999;" d="M343.08,271.11v0.56c0,3.15-2.56,5.71-5.71,5.71H146.13c-3.15,0-5.72-2.56-5.72-5.71v-0.56H343.08
				z"/>
			<path style="fill:#B3B3B3;" d="M343.08,172.84v90.27h-68.33v-15.32c0-5.67-4.62-10.29-10.29-10.29h-45.43
				c-5.67,0-10.28,4.62-10.28,10.29v15.32h-68.34v-90.27H343.08z M333.22,230.17v-49.06c0-2.21-1.79-4-4-4H154.28
				c-2.21,0-4,1.79-4,4v49.06c0,2.21,1.79,4,4,4h174.94C331.43,234.17,333.22,232.38,333.22,230.17z"/>
			<path style="fill:#999999;" d="M343.08,49.5v115.34H140.41V49.5H343.08z M338.08,155.84V58.5c0-2.2-1.79-4-4-4H149.41
				c-2.21,0-4,1.8-4,4v97.34c0,2.21,1.79,4,4,4h184.67C336.29,159.84,338.08,158.05,338.08,155.84z"/>
			<path style="fill:#B3B3B3;" d="M342.9,41.5H140.59c0.5-1.72,2.07-3,3.95-3h194.41C340.83,38.5,342.41,39.78,342.9,41.5z"/>
			<path d="M338.08,58.5v97.34c0,2.21-1.79,4-4,4H149.41c-2.21,0-4-1.79-4-4V58.5c0-2.2,1.79-4,4-4h184.67
				C336.29,54.5,338.08,56.3,338.08,58.5z M330.08,151.84V62.5H153.41v89.34H330.08z"/>
			<path d="M333.75,312.83v76.5c0,2.21-1.79,4-4,4s-4-1.79-4-4v-76.5c0-2.2,1.79-4,4-4S333.75,310.63,333.75,312.83z"/>
			<path d="M333.22,181.11v49.06c0,2.21-1.79,4-4,4H154.28c-2.21,0-4-1.79-4-4v-49.06c0-2.21,1.79-4,4-4h174.94
				C331.43,177.11,333.22,178.9,333.22,181.11z M325.22,226.17v-8.35h-12.84v8.35H325.22z M325.22,209.82v-8.36h-4.66v8.36H325.22z
				 M325.22,193.46v-8.35h-12.84v8.35H325.22z M312.56,209.82v-8.36h-8.36v8.36H312.56z M304.38,226.17v-8.35h-14.21v8.35H304.38z
				 M304.38,193.46v-8.35h-14.21v8.35H304.38z M296.2,209.82v-8.36h-14.21v8.36H296.2z M282.17,226.17v-8.35h-14.21v8.35H282.17z
				 M282.17,193.46v-8.35h-14.21v8.35H282.17z M273.99,209.82v-8.36h-14.21v8.36H273.99z M259.96,226.17v-8.35h-36.42v8.35H259.96z
				 M259.96,193.46v-8.35h-14.21v8.35H259.96z M251.78,209.82v-8.36h-14.21v8.36H251.78z M237.75,193.46v-8.35h-14.21v8.35H237.75z
				 M229.57,209.82v-8.36h-14.21v8.36H229.57z M215.54,226.17v-8.35h-14.22v8.35H215.54z M215.54,193.46v-8.35h-14.22v8.35H215.54z
				 M207.36,209.82v-8.36h-14.21v8.36H207.36z M193.32,226.17v-8.35h-14.21v8.35H193.32z M193.32,193.46v-8.35h-14.21v8.35H193.32z
				 M185.15,209.82v-8.36h-14.21v8.36H185.15z M171.11,226.17v-8.35h-12.83v8.35H171.11z M171.11,193.46v-8.35h-12.83v8.35H171.11z
				 M162.94,209.82v-8.36h-4.66v8.36H162.94z"/>
			<path style="fill:#29ABE2;" d="M330.08,62.5v89.34H153.41V62.5H330.08z M306.75,94.33c0-2.2-1.79-4-4-4h-12c-2.21,0-4,1.8-4,4
				c0,2.21,1.79,4,4,4h12C304.96,98.33,306.75,96.54,306.75,94.33z M306.75,108.5c0-2.21-1.79-4-4-4h-29.34c-2.2,0-4,1.79-4,4
				s1.8,4,4,4h29.34C304.96,112.5,306.75,110.71,306.75,108.5z M287.75,136.83c0-2.2-1.79-4-4-4h-81.67c-2.21,0-4,1.8-4,4
				c0,2.21,1.79,4,4,4h81.67C285.96,140.83,287.75,139.04,287.75,136.83z M280.75,94.33c0-2.2-1.79-4-4-4h-38c-2.21,0-4,1.8-4,4
				c0,2.21,1.79,4,4,4h38C278.96,98.33,280.75,96.54,280.75,94.33z M264.75,108.5c0-2.21-1.79-4-4-4h-59.67c-2.21,0-4,1.79-4,4
				s1.79,4,4,4h59.67C262.96,112.5,264.75,110.71,264.75,108.5z M258.25,75.83c0-2.2-1.79-4-4-4h-26c-2.21,0-4,1.8-4,4
				c0,2.21,1.79,4,4,4h26C256.46,79.83,258.25,78.04,258.25,75.83z M255.75,122.67c0-2.21-1.79-4-4-4h-18.34c-2.21,0-4,1.79-4,4
				s1.79,4,4,4h18.34C253.96,126.67,255.75,124.88,255.75,122.67z M229.75,94.33c0-2.2-1.79-4-4-4h-38.67c-2.21,0-4,1.8-4,4
				c0,2.21,1.79,4,4,4h38.67C227.96,98.33,229.75,96.54,229.75,94.33z M224.75,122.67c0-2.21-1.79-4-4-4h-59c-2.21,0-4,1.79-4,4
				s1.79,4,4,4h59C222.96,126.67,224.75,124.88,224.75,122.67z M192.75,136.83c0-2.2-1.79-4-4-4h-27c-2.21,0-4,1.8-4,4
				c0,2.21,1.79,4,4,4h27C190.96,140.83,192.75,139.04,192.75,136.83z M192.41,108.5c0-2.21-1.79-4-4-4h-26.66c-2.21,0-4,1.79-4,4
				s1.79,4,4,4h26.66C190.62,112.5,192.41,110.71,192.41,108.5z M178.75,94.33c0-2.2-1.79-4-4-4h-13c-2.21,0-4,1.8-4,4
				c0,2.21,1.79,4,4,4h13C176.96,98.33,178.75,96.54,178.75,94.33z"/>
			<rect x="312.38" y="217.82" style="fill:#E6E6E6;" width="12.84" height="8.35"/>
			<rect x="320.56" y="201.46" style="fill:#E6E6E6;" width="4.66" height="8.36"/>
			<rect x="312.38" y="185.11" style="fill:#E6E6E6;" width="12.84" height="8.35"/>
			<path d="M316.22,302.23v96.56c0,1.31-0.65,2.54-1.73,3.29c-0.68,0.46-1.47,0.71-2.28,0.71c-0.47,0-0.95-0.09-1.41-0.26
				c-20.85-7.88-43.82-7.88-64.67,0c-1.23,0.46-2.61,0.29-3.69-0.45c-1.08-0.75-1.72-1.98-1.72-3.29v-11.35
				c-1.5-0.12-3-0.13-4.5-0.03v11.38c0,1.31-0.64,2.54-1.72,3.29c-0.68,0.46-1.48,0.71-2.28,0.71c-0.47,0-0.95-0.09-1.41-0.26
				c-20.85-7.88-43.82-7.88-64.67,0c-1.23,0.46-2.61,0.29-3.69-0.45c-1.08-0.75-1.73-1.98-1.73-3.29v-96.56
				c0-1.66,1.03-3.15,2.59-3.74c22.68-8.57,47.65-8.57,70.33,0c1.55,0.59,2.58,2.08,2.58,3.74v4.97c1.5-0.08,3-0.07,4.5,0.03v-5
				c0-1.66,1.03-3.15,2.58-3.74c22.68-8.57,47.65-8.57,70.33,0C315.19,299.08,316.22,300.57,316.22,302.23z M308.22,393.17v-88.13
				c-19.29-6.63-40.22-6.63-59.5,0v3.59c0.98,0.28,1.95,0.6,2.92,0.96c2.06,0.78,3.11,3.09,2.33,5.16c-0.61,1.6-2.13,2.59-3.75,2.59
				c-0.47,0-0.94-0.09-1.41-0.26c-0.03-0.02-0.06-0.03-0.09-0.04v9.64c0.98,0.28,1.95,0.6,2.92,0.96c2.06,0.78,3.11,3.09,2.33,5.16
				c-0.79,2.06-3.09,3.11-5.16,2.32c-0.03-0.01-0.06-0.02-0.09-0.03v9.63c0.98,0.29,1.95,0.6,2.92,0.97
				c2.06,0.78,3.11,3.09,2.33,5.15c-0.79,2.07-3.09,3.11-5.16,2.33c-0.03-0.01-0.06-0.02-0.09-0.03v9.63
				c0.98,0.29,1.95,0.6,2.92,0.97c2.06,0.78,3.11,3.09,2.33,5.15c-0.79,2.07-3.09,3.11-5.16,2.33c-0.03-0.01-0.06-0.02-0.09-0.03
				v9.63c0.98,0.28,1.95,0.6,2.92,0.96c2.06,0.78,3.11,3.09,2.33,5.16c-0.79,2.07-3.09,3.11-5.16,2.33
				c-0.03-0.01-0.06-0.02-0.09-0.04v3.94c9.68-3.03,19.71-4.55,29.75-4.55C288.5,388.62,298.53,390.14,308.22,393.17z
				 M240.72,379.42v-10.03c-1.5-0.12-3-0.13-4.5-0.03v10.03C237.72,379.31,239.22,379.33,240.72,379.42z M240.72,361.38v-10.03
				c-1.5-0.13-3-0.14-4.5-0.04v10.03C237.72,361.26,239.22,361.28,240.72,361.38z M240.72,343.33V333.3c-1.5-0.13-3-0.14-4.5-0.04
				v10.04C237.72,343.22,239.22,343.23,240.72,343.33z M240.72,325.28v-10.03c-1.5-0.13-3-0.13-4.5-0.03v10.03
				C237.72,325.17,239.22,325.18,240.72,325.28z M228.22,393.17v-4.11c-0.19,0.07-0.39,0.13-0.58,0.21
				c-0.47,0.17-0.95,0.26-1.42,0.26c-1.61,0-3.13-0.99-3.74-2.59c-0.78-2.07,0.26-4.38,2.33-5.16c1.12-0.42,2.26-0.79,3.41-1.1
				v-9.67c-0.19,0.07-0.39,0.14-0.58,0.21c-0.47,0.18-0.95,0.26-1.42,0.26c-1.61,0-3.13-0.99-3.74-2.59
				c-0.78-2.06,0.26-4.37,2.33-5.15c1.12-0.43,2.26-0.8,3.41-1.11v-9.66c-0.19,0.06-0.39,0.13-0.58,0.2
				c-0.47,0.18-0.95,0.26-1.42,0.26c-1.61,0-3.13-0.98-3.74-2.59c-0.78-2.06,0.26-4.37,2.33-5.15c1.12-0.43,2.26-0.79,3.41-1.11
				v-9.66c-0.19,0.07-0.39,0.13-0.58,0.2c-0.47,0.18-0.95,0.26-1.42,0.26c-1.61,0-3.13-0.98-3.74-2.58
				c-0.78-2.07,0.26-4.38,2.33-5.16c1.12-0.42,2.26-0.79,3.41-1.11v-9.66c-0.19,0.07-0.39,0.13-0.58,0.21
				c-2.07,0.78-4.38-0.27-5.16-2.33c-0.78-2.07,0.26-4.38,2.33-5.16c1.12-0.42,2.26-0.79,3.41-1.1v-3.45
				c-19.28-6.63-40.21-6.63-59.5,0v88.13c9.69-3.03,19.72-4.55,29.75-4.55S218.54,390.14,228.22,393.17z"/>
			<rect x="304.2" y="201.46" style="fill:#E6E6E6;" width="8.36" height="8.36"/>
			<path style="fill:#F2F2F2;" d="M308.22,305.04v88.13c-9.69-3.03-19.72-4.55-29.75-4.55c-10.04,0-20.07,1.52-29.75,4.55v-3.94
				c0.03,0.02,0.06,0.03,0.09,0.04c2.07,0.78,4.37-0.26,5.16-2.33c0.78-2.07-0.27-4.38-2.33-5.16c-0.97-0.36-1.94-0.68-2.92-0.96
				v-9.63c0.03,0.01,0.06,0.02,0.09,0.03c2.07,0.78,4.37-0.26,5.16-2.33c0.78-2.06-0.27-4.37-2.33-5.15
				c-0.97-0.37-1.94-0.68-2.92-0.97v-9.63c0.03,0.01,0.06,0.02,0.09,0.03c2.07,0.78,4.37-0.26,5.16-2.33
				c0.78-2.06-0.27-4.37-2.33-5.15c-0.97-0.37-1.94-0.68-2.92-0.97v-9.63c0.03,0.01,0.06,0.02,0.09,0.03
				c2.07,0.79,4.37-0.26,5.16-2.32c0.78-2.07-0.27-4.38-2.33-5.16c-0.97-0.36-1.94-0.68-2.92-0.96v-9.64
				c0.03,0.01,0.06,0.02,0.09,0.04c0.47,0.17,0.94,0.26,1.41,0.26c1.62,0,3.14-0.99,3.75-2.59c0.78-2.07-0.27-4.38-2.33-5.16
				c-0.97-0.36-1.94-0.68-2.92-0.96v-3.59C268,298.41,288.93,298.41,308.22,305.04z M304.85,318.86c0.52-2.14-0.79-4.31-2.93-4.84
				c-12.9-3.18-26.09-3.75-39.22-1.69c-2.18,0.34-3.67,2.39-3.33,4.57s2.39,3.68,4.57,3.33c12.07-1.89,24.2-1.37,36.06,1.56
				c0.33,0.08,0.65,0.11,0.96,0.11C302.76,321.9,304.4,320.68,304.85,318.86z M304.85,332.78c0.52-2.14-0.79-4.31-2.93-4.84
				c-12.9-3.18-26.09-3.75-39.22-1.69c-2.18,0.34-3.67,2.39-3.33,4.57c0.34,2.19,2.39,3.68,4.57,3.34
				c12.07-1.9,24.2-1.37,36.06,1.55c0.33,0.08,0.65,0.12,0.96,0.12C302.76,335.83,304.4,334.61,304.85,332.78z"/>
			<path d="M302.75,90.33c2.21,0,4,1.8,4,4c0,2.21-1.79,4-4,4h-12c-2.21,0-4-1.79-4-4c0-2.2,1.79-4,4-4H302.75z"/>
			<path d="M302.75,104.5c2.21,0,4,1.79,4,4s-1.79,4-4,4h-29.34c-2.2,0-4-1.79-4-4s1.8-4,4-4H302.75z"/>
			<path d="M301.92,314.02c2.14,0.53,3.45,2.7,2.93,4.84c-0.45,1.82-2.09,3.04-3.89,3.04c-0.31,0-0.63-0.03-0.96-0.11
				c-11.86-2.93-23.99-3.45-36.06-1.56c-2.18,0.35-4.23-1.15-4.57-3.33s1.15-4.23,3.33-4.57
				C275.83,310.27,289.02,310.84,301.92,314.02z"/>
			<path d="M301.92,327.94c2.14,0.53,3.45,2.7,2.93,4.84c-0.45,1.83-2.09,3.05-3.89,3.05c-0.31,0-0.63-0.04-0.96-0.12
				c-11.86-2.92-23.99-3.45-36.06-1.55c-2.18,0.34-4.23-1.15-4.57-3.34c-0.34-2.18,1.15-4.23,3.33-4.57
				C275.83,324.19,289.02,324.76,301.92,327.94z"/>
			<rect x="290.17" y="217.82" style="fill:#E6E6E6;" width="14.21" height="8.35"/>
			<rect x="290.17" y="185.11" style="fill:#E6E6E6;" width="14.21" height="8.35"/>
			<rect x="281.99" y="201.46" style="fill:#E6E6E6;" width="14.21" height="8.36"/>
			<path d="M283.75,132.83c2.21,0,4,1.8,4,4c0,2.21-1.79,4-4,4h-81.67c-2.21,0-4-1.79-4-4c0-2.2,1.79-4,4-4H283.75z"/>
			<rect x="267.96" y="217.82" style="fill:#E6E6E6;" width="14.21" height="8.35"/>
			<rect x="267.96" y="185.11" style="fill:#E6E6E6;" width="14.21" height="8.35"/>
			<path d="M276.75,90.33c2.21,0,4,1.8,4,4c0,2.21-1.79,4-4,4h-38c-2.21,0-4-1.79-4-4c0-2.2,1.79-4,4-4H276.75z"/>
			<rect x="259.78" y="201.46" style="fill:#E6E6E6;" width="14.21" height="8.36"/>
			<path style="fill:#E6E6E6;" d="M266.75,247.79v15.32h-50v-15.32c0-1.26,1.02-2.29,2.28-2.29h45.43
				C265.72,245.5,266.75,246.53,266.75,247.79z"/>
			<path d="M260.75,104.5c2.21,0,4,1.79,4,4s-1.79,4-4,4h-59.67c-2.21,0-4-1.79-4-4s1.79-4,4-4H260.75z"/>
			<rect x="223.54" y="217.82" style="fill:#E6E6E6;" width="36.42" height="8.35"/>
			<rect x="245.75" y="185.11" style="fill:#E6E6E6;" width="14.21" height="8.35"/>
			<path d="M254.25,71.83c2.21,0,4,1.8,4,4c0,2.21-1.79,4-4,4h-26c-2.21,0-4-1.79-4-4c0-2.2,1.79-4,4-4H254.25z"/>
			<path d="M251.75,118.67c2.21,0,4,1.79,4,4s-1.79,4-4,4h-18.34c-2.21,0-4-1.79-4-4s1.79-4,4-4H251.75z"/>
			<rect x="237.57" y="201.46" style="fill:#E6E6E6;" width="14.21" height="8.36"/>
			<path style="fill:#EFBF7F;" d="M240.72,369.39v10.03c-1.5-0.09-3-0.11-4.5-0.03v-10.03
				C237.72,369.26,239.22,369.27,240.72,369.39z"/>
			<path style="fill:#EFBF7F;" d="M240.72,351.35v10.03c-1.5-0.1-3-0.12-4.5-0.04v-10.03C237.72,351.21,239.22,351.22,240.72,351.35
				z"/>
			<path style="fill:#EFBF7F;" d="M240.72,333.3v10.03c-1.5-0.1-3-0.11-4.5-0.03v-10.04C237.72,333.16,239.22,333.17,240.72,333.3z"
				/>
			<path style="fill:#EFBF7F;" d="M240.72,315.25v10.03c-1.5-0.1-3-0.11-4.5-0.03v-10.03C237.72,315.12,239.22,315.12,240.72,315.25
				z"/>
			<rect x="223.54" y="185.11" style="fill:#E6E6E6;" width="14.21" height="8.35"/>
			<rect x="215.36" y="201.46" style="fill:#E6E6E6;" width="14.21" height="8.36"/>
			<path d="M225.75,90.33c2.21,0,4,1.8,4,4c0,2.21-1.79,4-4,4h-38.67c-2.21,0-4-1.79-4-4c0-2.2,1.79-4,4-4H225.75z"/>
			<path style="fill:#F2F2F2;" d="M228.22,389.06v4.11c-9.68-3.03-19.72-4.55-29.75-4.55s-20.06,1.52-29.75,4.55v-88.13
				c19.29-6.63,40.22-6.63,59.5,0v3.45c-1.15,0.31-2.29,0.68-3.41,1.1c-2.07,0.78-3.11,3.09-2.33,5.16
				c0.78,2.06,3.09,3.11,5.16,2.33c0.19-0.08,0.39-0.14,0.58-0.21v9.66c-1.15,0.32-2.29,0.69-3.41,1.11
				c-2.07,0.78-3.11,3.09-2.33,5.16c0.61,1.6,2.13,2.58,3.74,2.58c0.47,0,0.95-0.08,1.42-0.26c0.19-0.07,0.39-0.13,0.58-0.2v9.66
				c-1.15,0.32-2.29,0.68-3.41,1.11c-2.07,0.78-3.11,3.09-2.33,5.15c0.61,1.61,2.13,2.59,3.74,2.59c0.47,0,0.95-0.08,1.42-0.26
				c0.19-0.07,0.39-0.14,0.58-0.2v9.66c-1.15,0.31-2.29,0.68-3.41,1.11c-2.07,0.78-3.11,3.09-2.33,5.15
				c0.61,1.6,2.13,2.59,3.74,2.59c0.47,0,0.95-0.08,1.42-0.26c0.19-0.07,0.39-0.14,0.58-0.21v9.67c-1.15,0.31-2.29,0.68-3.41,1.1
				c-2.07,0.78-3.11,3.09-2.33,5.16c0.61,1.6,2.13,2.59,3.74,2.59c0.47,0,0.95-0.09,1.42-0.26
				C227.83,389.19,228.03,389.13,228.22,389.06z M217.22,316.9c0.34-2.18-1.15-4.23-3.34-4.57c-13.12-2.06-26.31-1.49-39.21,1.69
				c-2.15,0.53-3.46,2.7-2.93,4.84c0.45,1.82,2.08,3.04,3.88,3.04c0.32,0,0.64-0.03,0.96-0.11c11.86-2.93,23.99-3.45,36.07-1.56
				C214.83,320.58,216.87,319.08,217.22,316.9z M217.22,330.82c0.34-2.18-1.15-4.23-3.34-4.57c-13.12-2.06-26.31-1.49-39.21,1.69
				c-2.15,0.53-3.46,2.7-2.93,4.84c0.45,1.83,2.08,3.05,3.88,3.05c0.32,0,0.64-0.04,0.96-0.12c11.86-2.92,23.99-3.45,36.07-1.55
				C214.83,334.5,216.87,333.01,217.22,330.82z M217.22,344.75c0.34-2.19-1.15-4.23-3.34-4.57c-13.12-2.06-26.31-1.49-39.21,1.68
				c-2.15,0.53-3.46,2.7-2.93,4.85c0.45,1.82,2.08,3.04,3.88,3.04c0.32,0,0.64-0.04,0.96-0.12c11.86-2.92,23.99-3.44,36.07-1.55
				C214.83,348.42,216.87,346.93,217.22,344.75z M217.22,358.67c0.34-2.18-1.15-4.23-3.34-4.57c-13.12-2.06-26.31-1.49-39.21,1.69
				c-2.15,0.53-3.46,2.69-2.93,4.84c0.45,1.82,2.08,3.04,3.88,3.04c0.32,0,0.64-0.04,0.96-0.11c11.86-2.93,23.99-3.45,36.07-1.56
				C214.83,362.35,216.87,360.85,217.22,358.67z M217.22,372.59c0.34-2.18-1.15-4.23-3.34-4.57c-13.12-2.06-26.31-1.49-39.21,1.69
				c-2.15,0.53-3.46,2.7-2.93,4.84c0.45,1.83,2.08,3.05,3.88,3.05c0.32,0,0.64-0.04,0.96-0.12c11.86-2.93,23.99-3.45,36.07-1.56
				C214.83,376.27,216.87,374.77,217.22,372.59z"/>
			<path d="M220.75,118.67c2.21,0,4,1.79,4,4s-1.79,4-4,4h-59c-2.21,0-4-1.79-4-4s1.79-4,4-4H220.75z"/>
			<path d="M213.88,312.33c2.19,0.34,3.68,2.39,3.34,4.57c-0.35,2.18-2.39,3.68-4.57,3.33c-12.08-1.89-24.21-1.37-36.07,1.56
				c-0.32,0.08-0.64,0.11-0.96,0.11c-1.8,0-3.43-1.22-3.88-3.04c-0.53-2.14,0.78-4.31,2.93-4.84
				C187.57,310.84,200.76,310.27,213.88,312.33z"/>
			<path d="M213.88,326.25c2.19,0.34,3.68,2.39,3.34,4.57c-0.35,2.19-2.39,3.68-4.57,3.34c-12.08-1.9-24.21-1.37-36.07,1.55
				c-0.32,0.08-0.64,0.12-0.96,0.12c-1.8,0-3.43-1.22-3.88-3.05c-0.53-2.14,0.78-4.31,2.93-4.84
				C187.57,324.76,200.76,324.19,213.88,326.25z"/>
			<path d="M213.88,340.18c2.19,0.34,3.68,2.38,3.34,4.57c-0.35,2.18-2.39,3.67-4.57,3.33c-12.08-1.89-24.21-1.37-36.07,1.55
				c-0.32,0.08-0.64,0.12-0.96,0.12c-1.8,0-3.43-1.22-3.88-3.04c-0.53-2.15,0.78-4.32,2.93-4.85
				C187.57,338.69,200.76,338.12,213.88,340.18z"/>
			<path d="M213.88,354.1c2.19,0.34,3.68,2.39,3.34,4.57c-0.35,2.18-2.39,3.68-4.57,3.33c-12.08-1.89-24.21-1.37-36.07,1.56
				c-0.32,0.07-0.64,0.11-0.96,0.11c-1.8,0-3.43-1.22-3.88-3.04c-0.53-2.15,0.78-4.31,2.93-4.84
				C187.57,352.61,200.76,352.04,213.88,354.1z"/>
			<path d="M213.88,368.02c2.19,0.34,3.68,2.39,3.34,4.57c-0.35,2.18-2.39,3.68-4.57,3.33c-12.08-1.89-24.21-1.37-36.07,1.56
				c-0.32,0.08-0.64,0.12-0.96,0.12c-1.8,0-3.43-1.22-3.88-3.05c-0.53-2.14,0.78-4.31,2.93-4.84
				C187.57,366.53,200.76,365.96,213.88,368.02z"/>
			<rect x="201.32" y="217.82" style="fill:#E6E6E6;" width="14.22" height="8.35"/>
			<rect x="201.32" y="185.11" style="fill:#E6E6E6;" width="14.22" height="8.35"/>
			<rect x="193.15" y="201.46" style="fill:#E6E6E6;" width="14.21" height="8.36"/>
			<rect x="179.11" y="217.82" style="fill:#E6E6E6;" width="14.21" height="8.35"/>
			<rect x="179.11" y="185.11" style="fill:#E6E6E6;" width="14.21" height="8.35"/>
			<path d="M188.75,132.83c2.21,0,4,1.8,4,4c0,2.21-1.79,4-4,4h-27c-2.21,0-4-1.79-4-4c0-2.2,1.79-4,4-4H188.75z"/>
			<path d="M188.41,104.5c2.21,0,4,1.79,4,4s-1.79,4-4,4h-26.66c-2.21,0-4-1.79-4-4s1.79-4,4-4H188.41z"/>
			<rect x="170.94" y="201.46" style="fill:#E6E6E6;" width="14.21" height="8.36"/>
			<path d="M174.75,90.33c2.21,0,4,1.8,4,4c0,2.21-1.79,4-4,4h-13c-2.21,0-4-1.79-4-4c0-2.2,1.79-4,4-4H174.75z"/>
			<rect x="158.28" y="217.82" style="fill:#E6E6E6;" width="12.83" height="8.35"/>
			<rect x="158.28" y="185.11" style="fill:#E6E6E6;" width="12.83" height="8.35"/>
			<rect x="158.28" y="201.46" style="fill:#E6E6E6;" width="4.66" height="8.36"/>
			<path d="M128.08,125.33v87.92c0,2.21-1.79,4-4,4H18.75c-2.21,0-4-1.79-4-4v-87.92c0-2.2,1.79-4,4-4h7v-3c0-2.2,1.79-4,4-4
				s4,1.8,4,4v3h8.6v-3c0-2.2,1.79-4,4-4c2.21,0,4,1.8,4,4v3h8.6v-3c0-2.2,1.79-4,4-4c2.21,0,4,1.8,4,4v3h8.6v-3c0-2.2,1.79-4,4-4
				c2.21,0,4,1.8,4,4v3h8.6v-3c0-2.2,1.79-4,4-4s4,1.8,4,4v3h8.6v-3c0-2.2,1.79-4,4-4s4,1.8,4,4v3h7.33
				C126.29,121.33,128.08,123.13,128.08,125.33z M120.08,209.25v-26.17V171.5v-11.58v-30.59h-3.33v2.5c0,2.21-1.79,4-4,4
				s-4-1.79-4-4v-2.5h-8.6v2.5c0,2.21-1.79,4-4,4s-4-1.79-4-4v-2.5h-8.6v2.5c0,2.21-1.79,4-4,4c-2.21,0-4-1.79-4-4v-2.5h-8.6v2.5
				c0,2.21-1.79,4-4,4c-2.21,0-4-1.79-4-4v-2.5h-8.6v2.5c0,2.21-1.79,4-4,4c-2.21,0-4-1.79-4-4v-2.5h-8.6v2.5c0,2.21-1.79,4-4,4
				s-4-1.79-4-4v-2.5h-3v30.59v11.58v11.58v26.17H120.08z"/>
			<path d="M120.25,300.83v99.36c0,2.21-1.79,4-4,4h-66c-2.21,0-4-1.79-4-4v-99.36c0-2.2,1.79-4,4-4h9.44l0.81-3.09
				c0.57-2.14,2.76-3.41,4.9-2.85c2.13,0.57,3.4,2.76,2.84,4.89l-0.28,1.05h6.38l0.82-3.09c0.57-2.14,2.76-3.41,4.89-2.85
				c2.14,0.57,3.41,2.76,2.84,4.89l-0.27,1.05H89l0.82-3.09c0.56-2.14,2.75-3.41,4.89-2.85c2.13,0.57,3.41,2.76,2.84,4.89
				l-0.28,1.05h6.38l0.82-3.09c0.57-2.14,2.76-3.41,4.89-2.85c2.14,0.57,3.41,2.76,2.85,4.89l-0.28,1.05h4.32
				C118.46,296.83,120.25,298.63,120.25,300.83z M112.25,396.19v-3.36h-58v3.36H112.25z M112.25,384.83v-80h-2.44l-1.33,5.03
				c-0.47,1.79-2.09,2.98-3.86,2.98c-0.34,0-0.69-0.05-1.03-0.14c-2.13-0.56-3.41-2.75-2.84-4.89l0.79-2.98h-6.38l-1.33,5.03
				c-0.48,1.79-2.1,2.98-3.87,2.98c-0.34,0-0.68-0.05-1.02-0.14c-2.14-0.56-3.41-2.75-2.85-4.89l0.79-2.98H80.5l-1.33,5.03
				c-0.47,1.79-2.09,2.98-3.86,2.98c-0.34,0-0.69-0.05-1.03-0.14c-2.14-0.56-3.41-2.75-2.84-4.89l0.78-2.98h-6.38l-1.33,5.03
				c-0.47,1.79-2.09,2.98-3.86,2.98c-0.34,0-0.68-0.05-1.03-0.14c-2.13-0.56-3.41-2.75-2.84-4.89l0.79-2.98h-3.32v80H112.25z"/>
			<path style="fill:#E6E6E6;" d="M120.08,183.08v26.17H22.75v-26.17h3c0,2.21,1.79,4,4,4h4c2.21,0,4-1.79,4-4h1.27
				c0,2.21,1.8,4,4,4h4c2.21,0,4-1.79,4-4h1.28c0,2.21,1.79,4,4,4h4c2.21,0,4-1.79,4-4h1.28c0,2.21,1.79,4,4,4h4c2.21,0,4-1.79,4-4
				h1.28c0,2.21,1.79,4,4,4h4c2.21,0,4-1.79,4-4h1.28c0,2.21,1.79,4,4,4h4c2.2,0,4-1.79,4-4h1.27c0,2.21,1.79,4,4,4h4
				c2.21,0,4-1.79,4-4H120.08z M77.58,194.67c0-2.21-1.79-4-4-4h-4c-2.21,0-4,1.79-4,4c0,2.21,1.79,4,4,4h4
				C75.79,198.67,77.58,196.88,77.58,194.67z M64.3,194.67c0-2.21-1.79-4-4-4h-4c-2.21,0-4,1.79-4,4c0,2.21,1.79,4,4,4h4
				C62.51,198.67,64.3,196.88,64.3,194.67z M51.02,194.67c0-2.21-1.79-4-4-4h-4c-2.2,0-4,1.79-4,4c0,2.21,1.8,4,4,4h4
				C49.23,198.67,51.02,196.88,51.02,194.67z M37.75,194.67c0-2.21-1.79-4-4-4h-4c-2.21,0-4,1.79-4,4c0,2.21,1.79,4,4,4h4
				C35.96,198.67,37.75,196.88,37.75,194.67z"/>
			<path style="fill:#E6E6E6;" d="M120.08,171.5v11.58h-2.67c0-2.2-1.79-4-4-4h-4c-2.21,0-4,1.8-4,4h-1.27c0-2.2-1.8-4-4-4h-4
				c-2.21,0-4,1.8-4,4h-1.28c0-2.2-1.79-4-4-4h-4c-2.21,0-4,1.8-4,4h-1.28c0-2.2-1.79-4-4-4h-4c-2.21,0-4,1.8-4,4H64.3
				c0-2.2-1.79-4-4-4h-4c-2.21,0-4,1.8-4,4h-1.28c0-2.2-1.79-4-4-4h-4c-2.2,0-4,1.8-4,4h-1.27c0-2.2-1.79-4-4-4h-4
				c-2.21,0-4,1.8-4,4h-3V171.5h3c0,2.21,1.79,4,4,4h4c2.21,0,4-1.79,4-4h1.27c0,2.21,1.8,4,4,4h4c2.21,0,4-1.79,4-4h1.28
				c0,2.21,1.79,4,4,4h4c2.21,0,4-1.79,4-4h1.28c0,2.21,1.79,4,4,4h4c2.21,0,4-1.79,4-4h1.28c0,2.21,1.79,4,4,4h4c2.21,0,4-1.79,4-4
				h1.28c0,2.21,1.79,4,4,4h4c2.2,0,4-1.79,4-4h1.27c0,2.21,1.79,4,4,4h4c2.21,0,4-1.79,4-4H120.08z"/>
			<path style="fill:#E6E6E6;" d="M120.08,159.92v11.58h-2.67c0-2.21-1.79-4-4-4h-4c-2.21,0-4,1.79-4,4h-1.27c0-2.21-1.8-4-4-4h-4
				c-2.21,0-4,1.79-4,4h-1.28c0-2.21-1.79-4-4-4h-4c-2.21,0-4,1.79-4,4h-1.28c0-2.21-1.79-4-4-4h-4c-2.21,0-4,1.79-4,4H64.3
				c0-2.21-1.79-4-4-4h-4c-2.21,0-4,1.79-4,4h-1.28c0-2.21-1.79-4-4-4h-4c-2.2,0-4,1.79-4,4h-1.27c0-2.21-1.79-4-4-4h-4
				c-2.21,0-4,1.79-4,4h-3v-11.58h3c0,2.21,1.79,4,4,4h4c2.21,0,4-1.79,4-4h1.27c0,2.21,1.8,4,4,4h4c2.21,0,4-1.79,4-4h1.28
				c0,2.21,1.79,4,4,4h4c2.21,0,4-1.79,4-4h1.28c0,2.21,1.79,4,4,4h4c2.21,0,4-1.79,4-4h1.28c0,2.21,1.79,4,4,4h4c2.21,0,4-1.79,4-4
				h1.28c0,2.21,1.79,4,4,4h4c2.2,0,4-1.79,4-4h1.27c0,2.21,1.79,4,4,4h4c2.21,0,4-1.79,4-4H120.08z"/>
			<path style="fill:#E6E6E6;" d="M120.08,129.33v30.59h-2.67c0-2.21-1.79-4-4-4h-4c-2.21,0-4,1.79-4,4h-1.27c0-2.21-1.8-4-4-4h-4
				c-2.21,0-4,1.79-4,4h-1.28c0-2.21-1.79-4-4-4h-4c-2.21,0-4,1.79-4,4h-1.28c0-2.21-1.79-4-4-4h-4c-2.21,0-4,1.79-4,4H64.3
				c0-2.21-1.79-4-4-4h-4c-2.21,0-4,1.79-4,4h-1.28c0-2.21-1.79-4-4-4h-4c-2.2,0-4,1.79-4,4h-1.27c0-2.21-1.79-4-4-4h-4
				c-2.21,0-4,1.79-4,4h-3v-30.59h3v2.5c0,2.21,1.79,4,4,4s4-1.79,4-4v-2.5h8.6v2.5c0,2.21,1.79,4,4,4c2.21,0,4-1.79,4-4v-2.5h8.6
				v2.5c0,2.21,1.79,4,4,4c2.21,0,4-1.79,4-4v-2.5h8.6v2.5c0,2.21,1.79,4,4,4c2.21,0,4-1.79,4-4v-2.5h8.6v2.5c0,2.21,1.79,4,4,4
				s4-1.79,4-4v-2.5h8.6v2.5c0,2.21,1.79,4,4,4s4-1.79,4-4v-2.5H120.08z M117.41,148.33c0-2.2-1.79-4-4-4h-4c-2.21,0-4,1.8-4,4
				c0,2.21,1.79,4,4,4h4C115.62,152.33,117.41,150.54,117.41,148.33z M104.14,148.33c0-2.2-1.8-4-4-4h-4c-2.21,0-4,1.8-4,4
				c0,2.21,1.79,4,4,4h4C102.34,152.33,104.14,150.54,104.14,148.33z M90.86,148.33c0-2.2-1.79-4-4-4h-4c-2.21,0-4,1.8-4,4
				c0,2.21,1.79,4,4,4h4C89.07,152.33,90.86,150.54,90.86,148.33z M77.58,148.33c0-2.2-1.79-4-4-4h-4c-2.21,0-4,1.8-4,4
				c0,2.21,1.79,4,4,4h4C75.79,152.33,77.58,150.54,77.58,148.33z M64.3,148.33c0-2.2-1.79-4-4-4h-4c-2.21,0-4,1.8-4,4
				c0,2.21,1.79,4,4,4h4C62.51,152.33,64.3,150.54,64.3,148.33z"/>
			<path d="M113.41,144.33c2.21,0,4,1.8,4,4c0,2.21-1.79,4-4,4h-4c-2.21,0-4-1.79-4-4c0-2.2,1.79-4,4-4H113.41z"/>
			<path d="M113.41,155.92c2.21,0,4,1.79,4,4c0,2.21-1.79,4-4,4h-4c-2.21,0-4-1.79-4-4c0-2.21,1.79-4,4-4H113.41z"/>
			<path d="M113.41,167.5c2.21,0,4,1.79,4,4s-1.79,4-4,4h-4c-2.21,0-4-1.79-4-4s1.79-4,4-4H113.41z"/>
			<path d="M113.41,179.08c2.21,0,4,1.8,4,4c0,2.21-1.79,4-4,4h-4c-2.21,0-4-1.79-4-4c0-2.2,1.79-4,4-4H113.41z"/>
			<path d="M114.75,228.33v52c0,2.21-1.79,4-4,4h-83.5c-2.21,0-4-1.79-4-4v-52c0-2.2,1.79-4,4-4h83.5
				C112.96,224.33,114.75,226.13,114.75,228.33z M106.75,276.33v-31.5h-50.5v31.5H106.75z M106.75,236.83v-4.5h-3.17v4.5H106.75z
				 M95.58,236.83v-4.5h-3.5v4.5H95.58z M84.08,236.83v-4.5h-3.5v4.5H84.08z M72.58,236.83v-4.5H31.25v4.5H72.58z M48.25,276.33v-5
				h-17v5H48.25z M48.25,263.33v-5.5h-17v5.5H48.25z M48.25,249.83v-5h-17v5H48.25z"/>
			<rect x="54.25" y="392.83" style="fill:#B3B3B3;" width="58" height="3.36"/>
			<path style="fill:#29ABE2;" d="M112.25,304.83v80h-58v-80h3.32l-0.79,2.98c-0.57,2.14,0.71,4.33,2.84,4.89
				c0.35,0.09,0.69,0.14,1.03,0.14c1.77,0,3.39-1.19,3.86-2.98l1.33-5.03h6.38l-0.78,2.98c-0.57,2.14,0.7,4.33,2.84,4.89
				c0.34,0.09,0.69,0.14,1.03,0.14c1.77,0,3.39-1.19,3.86-2.98l1.33-5.03h6.38l-0.79,2.98c-0.56,2.14,0.71,4.33,2.85,4.89
				c0.34,0.09,0.68,0.14,1.02,0.14c1.77,0,3.39-1.19,3.87-2.98l1.33-5.03h6.38l-0.79,2.98c-0.57,2.14,0.71,4.33,2.84,4.89
				c0.34,0.09,0.69,0.14,1.03,0.14c1.77,0,3.39-1.19,3.86-2.98l1.33-5.03H112.25z M102.75,330.83c0-2.2-1.79-4-4-4h-31
				c-2.21,0-4,1.8-4,4c0,2.21,1.79,4,4,4h31C100.96,334.83,102.75,333.04,102.75,330.83z M102.75,342.33c0-2.2-1.79-4-4-4h-31
				c-2.21,0-4,1.8-4,4c0,2.21,1.79,4,4,4h31C100.96,346.33,102.75,344.54,102.75,342.33z"/>
			<path style="fill:#29ABE2;" d="M106.75,244.83v31.5h-50.5v-31.5H106.75z M102.2,261.08c0-6.02-4.9-10.91-10.92-10.91
				c-6.02,0-10.92,4.89-10.92,10.91c0,6.02,4.9,10.92,10.92,10.92C97.3,272,102.2,267.1,102.2,261.08z M74.53,261.08
				c0-2.34-1.9-4.25-4.25-4.25s-4.25,1.91-4.25,4.25c0,2.35,1.9,4.25,4.25,4.25S74.53,263.43,74.53,261.08z"/>
			<rect x="103.58" y="232.33" style="fill:#E6E6E6;" width="3.17" height="4.5"/>
			<path d="M100.14,144.33c2.2,0,4,1.8,4,4c0,2.21-1.8,4-4,4h-4c-2.21,0-4-1.79-4-4c0-2.2,1.79-4,4-4H100.14z"/>
			<path d="M100.14,155.92c2.2,0,4,1.79,4,4c0,2.21-1.8,4-4,4h-4c-2.21,0-4-1.79-4-4c0-2.21,1.79-4,4-4H100.14z"/>
			<path d="M100.14,167.5c2.2,0,4,1.79,4,4s-1.8,4-4,4h-4c-2.21,0-4-1.79-4-4s1.79-4,4-4H100.14z"/>
			<path d="M100.14,179.08c2.2,0,4,1.8,4,4c0,2.21-1.8,4-4,4h-4c-2.21,0-4-1.79-4-4c0-2.2,1.79-4,4-4H100.14z"/>
			<path d="M98.75,326.83c2.21,0,4,1.8,4,4c0,2.21-1.79,4-4,4h-31c-2.21,0-4-1.79-4-4c0-2.2,1.79-4,4-4H98.75z"/>
			<path d="M98.75,338.33c2.21,0,4,1.8,4,4c0,2.21-1.79,4-4,4h-31c-2.21,0-4-1.79-4-4c0-2.2,1.79-4,4-4H98.75z"/>
			<path d="M91.28,250.17c6.02,0,10.92,4.89,10.92,10.91c0,6.02-4.9,10.92-10.92,10.92c-6.02,0-10.92-4.9-10.92-10.92
				C80.36,255.06,85.26,250.17,91.28,250.17z M94.2,261.08c0-1.6-1.31-2.91-2.92-2.91s-2.92,1.31-2.92,2.91
				c0,1.61,1.31,2.92,2.92,2.92S94.2,262.69,94.2,261.08z"/>
			<rect x="92.08" y="232.33" style="fill:#E6E6E6;" width="3.5" height="4.5"/>
			<path style="fill:#E8653D;" d="M91.28,258.17c1.61,0,2.92,1.31,2.92,2.91c0,1.61-1.31,2.92-2.92,2.92s-2.92-1.31-2.92-2.92
				C88.36,259.48,89.67,258.17,91.28,258.17z"/>
			<path d="M86.86,144.33c2.21,0,4,1.8,4,4c0,2.21-1.79,4-4,4h-4c-2.21,0-4-1.79-4-4c0-2.2,1.79-4,4-4H86.86z"/>
			<path d="M86.86,155.92c2.21,0,4,1.79,4,4c0,2.21-1.79,4-4,4h-4c-2.21,0-4-1.79-4-4c0-2.21,1.79-4,4-4H86.86z"/>
			<path d="M86.86,167.5c2.21,0,4,1.79,4,4s-1.79,4-4,4h-4c-2.21,0-4-1.79-4-4s1.79-4,4-4H86.86z"/>
			<path d="M86.86,179.08c2.21,0,4,1.8,4,4c0,2.21-1.79,4-4,4h-4c-2.21,0-4-1.79-4-4c0-2.2,1.79-4,4-4H86.86z"/>
			<rect x="80.58" y="232.33" style="fill:#E6E6E6;" width="3.5" height="4.5"/>
			<path d="M73.58,144.33c2.21,0,4,1.8,4,4c0,2.21-1.79,4-4,4h-4c-2.21,0-4-1.79-4-4c0-2.2,1.79-4,4-4H73.58z"/>
			<path d="M73.58,155.92c2.21,0,4,1.79,4,4c0,2.21-1.79,4-4,4h-4c-2.21,0-4-1.79-4-4c0-2.21,1.79-4,4-4H73.58z"/>
			<path d="M73.58,167.5c2.21,0,4,1.79,4,4s-1.79,4-4,4h-4c-2.21,0-4-1.79-4-4s1.79-4,4-4H73.58z"/>
			<path d="M73.58,179.08c2.21,0,4,1.8,4,4c0,2.21-1.79,4-4,4h-4c-2.21,0-4-1.79-4-4c0-2.2,1.79-4,4-4H73.58z"/>
			<path d="M73.58,190.67c2.21,0,4,1.79,4,4c0,2.21-1.79,4-4,4h-4c-2.21,0-4-1.79-4-4c0-2.21,1.79-4,4-4H73.58z"/>
			<path d="M70.28,256.83c2.35,0,4.25,1.91,4.25,4.25c0,2.35-1.9,4.25-4.25,4.25s-4.25-1.9-4.25-4.25
				C66.03,258.74,67.93,256.83,70.28,256.83z"/>
			<rect x="31.25" y="232.33" style="fill:#29ABE2;" width="41.33" height="4.5"/>
			<path d="M60.3,144.33c2.21,0,4,1.8,4,4c0,2.21-1.79,4-4,4h-4c-2.21,0-4-1.79-4-4c0-2.2,1.79-4,4-4H60.3z"/>
			<path d="M60.3,155.92c2.21,0,4,1.79,4,4c0,2.21-1.79,4-4,4h-4c-2.21,0-4-1.79-4-4c0-2.21,1.79-4,4-4H60.3z"/>
			<path d="M60.3,167.5c2.21,0,4,1.79,4,4s-1.79,4-4,4h-4c-2.21,0-4-1.79-4-4s1.79-4,4-4H60.3z"/>
			<path d="M60.3,179.08c2.21,0,4,1.8,4,4c0,2.21-1.79,4-4,4h-4c-2.21,0-4-1.79-4-4c0-2.2,1.79-4,4-4H60.3z"/>
			<path d="M60.3,190.67c2.21,0,4,1.79,4,4c0,2.21-1.79,4-4,4h-4c-2.21,0-4-1.79-4-4c0-2.21,1.79-4,4-4H60.3z"/>
			<path d="M47.02,155.92c2.21,0,4,1.79,4,4c0,2.21-1.79,4-4,4h-4c-2.2,0-4-1.79-4-4c0-2.21,1.8-4,4-4H47.02z"/>
			<path d="M47.02,167.5c2.21,0,4,1.79,4,4s-1.79,4-4,4h-4c-2.2,0-4-1.79-4-4s1.8-4,4-4H47.02z"/>
			<path d="M47.02,179.08c2.21,0,4,1.8,4,4c0,2.21-1.79,4-4,4h-4c-2.2,0-4-1.79-4-4c0-2.2,1.8-4,4-4H47.02z"/>
			<path d="M47.02,190.67c2.21,0,4,1.79,4,4c0,2.21-1.79,4-4,4h-4c-2.2,0-4-1.79-4-4c0-2.21,1.8-4,4-4H47.02z"/>
			<rect x="31.25" y="271.33" style="fill:#047FA0;" width="17" height="5"/>
			<rect x="31.25" y="257.83" style="fill:#047FA0;" width="17" height="5.5"/>
			<rect x="31.25" y="244.83" style="fill:#047FA0;" width="17" height="5"/>
			<path d="M33.75,155.92c2.21,0,4,1.79,4,4c0,2.21-1.79,4-4,4h-4c-2.21,0-4-1.79-4-4c0-2.21,1.79-4,4-4H33.75z"/>
			<path d="M33.75,167.5c2.21,0,4,1.79,4,4s-1.79,4-4,4h-4c-2.21,0-4-1.79-4-4s1.79-4,4-4H33.75z"/>
			<path d="M33.75,179.08c2.21,0,4,1.8,4,4c0,2.21-1.79,4-4,4h-4c-2.21,0-4-1.79-4-4c0-2.2,1.79-4,4-4H33.75z"/>
			<path d="M33.75,190.67c2.21,0,4,1.79,4,4c0,2.21-1.79,4-4,4h-4c-2.21,0-4-1.79-4-4c0-2.21,1.79-4,4-4H33.75z"/>
		</g>
		<g>
		</g>
	</g>
</g>
<g>
</g>
<g>
</g>
<g>
</g>
<g>
</g>
<g>
</g>
<g>
</g>
<g>
</g>
<g>
</g>
<g>
</g>
<g>
</g>
<g>
</g>
<g>
</g>
<g>
</g>
<g>
</g>
<g>
</g>
</svg>
