<?xml version="1.0" ?><svg width="512px" height="512px" viewBox="0 0 512 512" id="Layer_1" style="enable-background:new 0 0 512 512;" version="1.1" xml:space="preserve" xmlns="http://www.w3.org/2000/svg" xmlns:xlink="http://www.w3.org/1999/xlink"><style type="text/css">
	.st0{fill:#FC8A8A;}
	.st1{fill:#F96364;}
	.st2{fill:#FCB0B0;}
	.st3{fill:#D3D9D9;}
	.st4{fill:#E8EAEA;}
	.st5{fill:#A8B2B4;}
	.st6{fill:#FEDD8E;}
	.st7{fill:#FDD367;}
	.st8{fill:#FEE9B4;}
	.st9{fill:#333333;}
	.st10{fill:#7AD1F9;}
	.st11{fill:#D3F0FD;}
	.st12{fill:#4CC3F7;}
	.st13{fill:#A6E1FB;}
	.st14{fill:#7BDE9E;}
	.st15{fill:#D3F3DE;}
	.st16{fill:#50D27E;}
	.st17{fill:#A7E9BF;}
	.st18{fill:#BD90BE;}
	.st19{fill:#E9DAE9;}
	.st20{fill:#A76BA8;}
	.st21{fill:#D3B5D3;}
</style><g><g><g><g><path class="st0" d="M104.6,184v108.9H38.7c-4.7,0-8.6-3.8-8.6-8.6v-91.8c0-4.7,3.8-8.6,8.6-8.6H104.6z"/></g><g><path class="st1" d="M104.6,273.7v19.1H38.7c-4.7,0-8.6-3.8-8.6-8.6v-19.2c0,4.8,3.8,8.6,8.6,8.6H104.6z"/></g><g><path class="st2" d="M104.6,184v19.1H38.7c-4.7,0-8.6,3.8-8.6,8.6v-19.1c0-4.8,3.8-8.6,8.6-8.6H104.6z"/></g><g><path class="st3" d="M4,204.6v67.6c0,4.7,3.8,8.6,8.6,8.6h17.6v-84.7H12.6C7.8,196.1,4,199.9,4,204.6z"/></g><g><path class="st4" d="M30.2,196.1v14.6H12.6c-4.7,0-8.6,3.8-8.6,8.6v-14.6c0-4.7,3.8-8.6,8.6-8.6H30.2z"/></g><g><path class="st5" d="M30.2,266.2v14.6H12.6c-4.7,0-8.6-3.8-8.6-8.6v-14.6c0,4.7,3.8,8.6,8.6,8.6H30.2z"/></g><g><polygon class="st6" points="292.4,95.7 104.6,184 104.6,292.9 292.4,381.2     "/></g><g><path class="st0" d="M329.9,93.4v290c0,4.5-3.7,8.3-8.3,8.3h-20.9c-4.5,0-8.3-3.7-8.3-8.3v-290c0-4.5,3.7-8.3,8.3-8.3h20.9      C326.1,85.1,329.9,88.9,329.9,93.4z"/></g><g><path class="st2" d="M329.9,93.4v22.7c0-4.5-3.7-8.3-8.3-8.3h-20.9c-4.5,0-8.3,3.7-8.3,8.3V93.4c0-4.5,3.7-8.3,8.3-8.3h20.9      C326.1,85.1,329.9,88.9,329.9,93.4z"/></g><g><path class="st1" d="M329.9,360.7v22.7c0,4.5-3.7,8.3-8.3,8.3h-20.9c-4.5,0-8.3-3.7-8.3-8.3v-22.7c0,4.5,3.7,8.3,8.3,8.3h20.9      C326.1,369,329.9,365.3,329.9,360.7z"/></g><g><polygon class="st7" points="292.4,351.8 104.6,264.8 104.6,292.9 292.4,381.2     "/></g><g><polygon class="st8" points="292.4,95.7 104.6,184 104.6,212.1 292.4,125.1     "/></g></g><g><g><path class="st3" d="M95.9,337.6c0,11.2-8.5,11.2-8.5,22.3c0,11.2,8.5,11.2,8.5,22.3c0,11.2-8.5,11.2-8.5,22.3      c0,11.2,8.5,11.2,8.5,22.3H48.6c-5.4,0-9.8-4.3-9.8-9.7V292.9h57.1c0,11.2-8.5,11.2-8.5,22.3C87.4,326.4,95.9,326.4,95.9,337.6z      "/></g><g><path class="st4" d="M87.4,315.2c0,0.2,0,0.5,0,0.7H38.8v-23.1H96C96,304.1,87.4,304.1,87.4,315.2z"/></g><g><path class="st5" d="M96,426.9H48.6c-5.3,0-9.8-4.3-9.8-9.7v-23.1c0,5.4,4.4,9.7,9.8,9.7h38.8c0,0.2,0,0.5,0,0.7      C87.4,415.7,96,415.7,96,426.9z"/></g><path class="st9" d="M321.6,81.1h-20.9c-6.7,0-12.1,5.4-12.2,12L103.8,180h-65c-6.8,0-12.3,5.4-12.5,12.1H12.6     c-6.9,0-12.6,5.6-12.6,12.6v67.6c0,6.9,5.6,12.6,12.6,12.6h13.6c0.2,5.4,3.8,9.8,8.6,11.4v121c0,7.6,6.2,13.8,13.8,13.8H96     c2.2,0,4-1.8,4-4c0-6.9-2.8-10.6-5.1-13.6c-4.6-6-4.8-11.2,0-17.4c6.7-8.7,7.2-17.8,0-27.2c-4.7-6.2-4.7-11.4,0-17.5     c6.9-9.2,6.9-18,0-27.2c-4.5-5.9-4.8-11.1,0-17.4c1.8-2.3,3.9-5.2,4.7-9.6h4.1l184.7,86.9c0.2,6.6,5.6,12,12.2,12h20.9     c6.8,0,12.3-5.5,12.3-12.3v-290C333.9,86.6,328.4,81.1,321.6,81.1z M26.2,276.8H12.6c-2.5,0-4.6-2-4.6-4.6v-67.6     c0-2.5,2-4.6,4.6-4.6h13.6V276.8z M88.5,346.3c-6.9,9-6.8,18.4,0,27.2c4.8,6.3,4.6,11.5,0,17.5c-6.8,8.8-6.9,18,0,27.2     c1.2,1.6,2.2,2.9,2.8,4.7H48.6c-3.2,0-5.8-2.6-5.8-5.8V296.9h48.5c-0.6,1.8-1.6,3.2-2.8,4.8c-7,9-6.8,18.4,0,27.2     C93.2,334.8,93.3,340.1,88.5,346.3z M100.6,288.9H38.7c-2.5,0-4.6-2-4.6-4.6v-91.8c0-2.5,2-4.6,4.6-4.6h61.9V288.9z M288.4,374.9     l-179.8-84.6V186.5L288.4,102V374.9z M325.9,383.4c0,2.3-2,4.3-4.3,4.3h-20.9c-2.3,0-4.3-2-4.3-4.3v-290c0-2.3,2-4.3,4.3-4.3     h20.9c2.3,0,4.3,2,4.3,4.3V383.4z"/></g></g><g><g><g><path class="st10" d="M508,71.9c0,37.4-30.4,67.8-67.9,67.8c-12.4,0-24-3.3-34-9.1l-41.7,16.9l16.9-41.7      c-5.8-10-9.1-21.6-9.1-33.9c0-37.5,30.4-67.9,67.9-67.9C477.6,4,508,34.4,508,71.9z"/></g></g><g><g><ellipse class="st11" cx="420.7" cy="91.3" rx="8.6" ry="8.6"/></g><g><path class="st11" d="M465.6,58.5c-3.4,3.4-8.8,3.4-12.2,0c-3.3-3.4-3.3-8.8,0-12.1c3.4-3.4,8.8-3.4,12.2,0      C468.9,49.7,468.9,55.1,465.6,58.5z"/></g><g><circle class="st11" cx="440.1" cy="71.9" r="8.6"/></g></g><g><g><path class="st12" d="M508,71.9c0,37.4-30.4,67.8-67.9,67.8c-12.4,0-24-3.3-34-9.1l-41.7,16.9l8.3-20.5l31-12.6      c10,5.8,21.6,9.1,34,9.1c37.5,0,67.9-30.4,67.9-67.8c0-0.6,0-1.2,0-1.8C507.1,59.6,508,65.6,508,71.9z"/></g></g><g><g><path class="st13" d="M508,70.2c-7.9-28.8-34.2-49.9-65.5-49.9c-37.5,0-67.9,30.4-67.9,67.9c0,0.6,0,1.1,0,1.6      c-1.6-5.7-2.4-11.7-2.4-17.8c0-37.5,30.4-67.9,67.9-67.9C477,4,507.1,33.5,508,70.2z"/></g></g><g><g><path class="st14" d="M488.1,304c-26.5,26.5-69.4,26.5-96,0c-8.8-8.8-14.6-19.4-17.6-30.5L341.4,256l33.2-17.5      c3-11.2,8.8-21.7,17.6-30.4c26.5-26.5,69.5-26.5,96,0C514.6,234.5,514.6,277.5,488.1,304z"/></g></g><g><g><path class="st14" d="M488.1,304c-26.5,26.5-69.4,26.5-96,0c-8.8-8.8-14.6-19.4-17.6-30.5L341.4,256l33.2-17.5      c3-11.2,8.8-21.7,17.6-30.4c26.5-26.5,69.5-26.5,96,0C514.6,234.5,514.6,277.5,488.1,304z"/></g></g><g><g><path class="st15" d="M419.9,256c0,5-4.2,9.2-9.2,9.2c-5.1,0-9.2-4.2-9.2-9.2c0-5.1,4.1-9.2,9.2-9.2      C415.8,246.8,419.9,250.9,419.9,256z"/></g><g><path class="st15" d="M478.8,256c0,5.1-4.1,9.2-9.2,9.2c-5,0-9.2-4.1-9.2-9.2c0-5.1,4.1-9.2,9.2-9.2S478.8,250.9,478.8,256z"/></g><g><path class="st15" d="M449.4,256c0,5.1-4.2,9.2-9.2,9.2c-5.1,0-9.2-4.1-9.2-9.2c0-5,4.1-9.2,9.2-9.2      C445.2,246.8,449.3,250.9,449.4,256z"/></g></g><g><g><path class="st16" d="M494.2,297c-1.8,2.4-3.9,4.8-6.1,7c-26.5,26.5-69.4,26.5-96,0c-8.8-8.8-14.6-19.4-17.6-30.5L341.4,256      l13.9-7.4l28.4,15c2.9,11.2,8.8,21.8,17.6,30.5C426.8,319.6,467.6,320.6,494.2,297z"/></g></g><g><g><path class="st17" d="M488.1,304c-1,1-2,2-3,2.8c20.2-26.6,18.2-64.7-6.1-89c-25.5-25.5-66.4-26.4-93-2.8      c1.9-2.5,3.9-4.8,6.2-7.1c26.5-26.5,69.5-26.5,96,0C514.6,234.5,514.6,277.5,488.1,304z"/></g></g><g><g><path class="st18" d="M508,440.1c0,37.5-30.4,67.9-67.9,67.9c-37.4,0-67.8-30.4-67.8-67.9c0-12.4,3.3-24,9.1-34l-16.9-41.7      l41.7,16.9c10-5.8,21.6-9.1,33.9-9.1C477.6,372.2,508,402.6,508,440.1z"/></g></g><g><g><path class="st19" d="M446.6,433.6c3.6,3.6,3.6,9.4,0,13c-3.6,3.6-9.4,3.6-13,0c-3.6-3.6-3.6-9.4,0-13      C437.2,430.1,443,430.1,446.6,433.6z"/></g><g><circle class="st19" cx="419.3" cy="419.3" r="9.2"/></g><g><path class="st19" d="M467.4,467.4c-3.6,3.6-9.4,3.6-13,0c-3.6-3.6-3.6-9.4,0-13c3.6-3.6,9.4-3.6,13,0      C471,458,471,463.9,467.4,467.4z"/></g></g><g><g><path class="st20" d="M508,440.1c0,37.5-30.4,67.9-67.9,67.9c-36.9,0-66.9-29.5-67.8-66.2c7.9,28.8,34.2,49.9,65.4,49.9      c37.5,0,67.9-30.4,67.9-67.9c0-0.6,0-1.2,0-1.7C507.1,427.9,508,433.9,508,440.1z"/></g></g><g><g><path class="st21" d="M505.6,438.4c-7.9-28.8-34.2-49.9-65.5-49.9c-12.4,0-24,3.3-33.9,9.1l-36.6-14.8l-7.4-18.2l41.7,16.9      c10-5.8,21.6-9.1,33.9-9.1C474.7,372.2,504.7,401.7,505.6,438.4z"/></g></g></g><g><g><g><path class="st9" d="M364.5,151.5c-1,0-2.1-0.4-2.8-1.2c-1.1-1.1-1.5-2.8-0.9-4.3l16.2-39.9c-5.7-10.4-8.7-22.2-8.7-34.2      c0-39.6,32.2-71.9,71.9-71.9S512,32.2,512,71.9c0,39.6-32.2,71.8-71.9,71.8c-12,0-23.8-3-34.2-8.7L366,151.2      C365.5,151.4,365,151.5,364.5,151.5z M440.1,8c-35.2,0-63.9,28.7-63.9,63.9c0,11.2,3,22.3,8.6,31.9c0.6,1.1,0.7,2.4,0.3,3.5      l-13.3,32.9l32.9-13.3c1.1-0.5,2.4-0.4,3.5,0.2c9.7,5.6,20.7,8.6,32,8.6c35.2,0,63.9-28.6,63.9-63.8C504,36.7,475.3,8,440.1,8z"/></g></g><g><g><path class="st9" d="M389.3,306.8c-8.6-8.6-14.8-19.1-18.1-30.6l-31.6-16.7c-1.3-0.7-2.1-2.1-2.1-3.5c0-1.5,0.8-2.8,2.1-3.5      l31.6-16.7c3.4-11.5,9.6-22,18.1-30.5c28-28,73.6-28,101.6,0c13.6,13.6,21.1,31.6,21.1,50.8s-7.5,37.2-21.1,50.8      C463,334.7,417.5,334.9,389.3,306.8z M350,256l26.5,13.9c1,0.5,1.7,1.4,2,2.5c2.8,10.8,8.5,20.7,16.5,28.7      c24.9,24.9,65.4,24.9,90.3,0c24.9-24.9,24.9-65.4,0-90.3c-24.9-24.9-65.4-24.9-90.3,0c-7.9,7.9-13.7,17.8-16.5,28.6      c-0.3,1.1-1,2-2,2.5L350,256z"/></g></g><g><g><path class="st9" d="M440.1,512c-39.6,0-71.8-32.2-71.8-71.9c0-12,3-23.8,8.7-34.2L360.8,366c-0.6-1.5-0.3-3.2,0.9-4.3      c1.1-1.1,2.9-1.5,4.3-0.9l39.9,16.2c10.4-5.7,22.2-8.7,34.2-8.7c39.6,0,71.9,32.2,71.9,71.9C512,479.8,479.7,512,440.1,512z       M371.8,371.7l13.3,32.9c0.5,1.1,0.4,2.4-0.3,3.5c-5.6,9.6-8.6,20.7-8.6,31.9c0,35.2,28.6,63.9,63.8,63.9      c35.2,0,63.9-28.7,63.9-63.9c0-35.2-28.7-63.9-63.9-63.9c-11.2,0-22.3,3-31.9,8.6c-1.1,0.6-2.4,0.7-3.5,0.3L371.8,371.7z"/></g></g></g></g></svg>