<?xml version="1.0" encoding="utf-8"?>
<!-- Generator: Adobe Illustrator 27.0.1, SVG Export Plug-In . SVG Version: 6.00 Build 0)  -->
<svg version="1.1" id="Layer_1" xmlns="http://www.w3.org/2000/svg" xmlns:xlink="http://www.w3.org/1999/xlink" x="0px" y="0px"
	 viewBox="0 0 512 512" style="enable-background:new 0 0 512 512;" xml:space="preserve">
<style type="text/css">
	.st0{fill:#F7BDC4;}
	.st1{fill:#C9D1D9;}
	.st2{fill:#FC8A8A;}
	.st3{fill:#F96364;}
	.st4{fill:#FCB0B0;}
	.st5{fill:#D3D9D9;}
	.st6{fill:#E8EAEA;}
	.st7{fill:#A8B2B4;}
	.st8{fill:#FEDD8E;}
	.st9{fill:#FDD367;}
	.st10{fill:#FEE9B4;}
	.st11{fill:#333333;}
	.st12{fill:#7AD1F9;}
	.st13{fill:#D3F0FD;}
	.st14{fill:#4CC3F7;}
	.st15{fill:#A6E1FB;}
	.st16{fill:#7BDE9E;}
	.st17{fill:#D3F3DE;}
	.st18{fill:#50D27E;}
	.st19{fill:#A7E9BF;}
	.st20{fill:#BD90BE;}
	.st21{fill:#E9DAE9;}
	.st22{fill:#A76BA8;}
	.st23{fill:#D3B5D3;}
</style>
<g>
	<path class="st0" d="M75,507c-38.6,0-70-31.4-70-70V75C5,36.4,36.4,5,75,5h362c38.6,0,70,31.4,70,70v362c0,38.6-31.4,70-70,70H75z"
		/>
	<path class="st1" d="M437,10c35.8,0,65,29.2,65,65v362c0,35.8-29.2,65-65,65H75c-35.8,0-65-29.2-65-65V75c0-35.8,29.2-65,65-65H437
		 M437,0H75C33.6,0,0,33.6,0,75v362c0,41.4,33.6,75,75,75h362c41.4,0,75-33.6,75-75V75C512,33.6,478.4,0,437,0L437,0z"/>
</g>
<g>
	<g>
		<g>
			<g>
				<path class="st2" d="M152.5,206.8v74.4h-45c-3.2,0-5.9-2.6-5.9-5.9v-62.8c0-3.2,2.6-5.9,5.9-5.9L152.5,206.8L152.5,206.8z"/>
			</g>
			<g>
				<path class="st3" d="M152.5,268.1v13.1h-45c-3.2,0-5.9-2.6-5.9-5.9v-13.1c0,3.3,2.6,5.9,5.9,5.9L152.5,268.1L152.5,268.1z"/>
			</g>
			<g>
				<path class="st4" d="M152.5,206.8v13.1h-45c-3.2,0-5.9,2.6-5.9,5.9v-13.1c0-3.3,2.6-5.9,5.9-5.9H152.5z"/>
			</g>
			<g>
				<path class="st5" d="M83.7,220.9v46.2c0,3.2,2.6,5.9,5.9,5.9h12v-57.9h-12C86.3,215.1,83.7,217.7,83.7,220.9z"/>
			</g>
			<g>
				<path class="st6" d="M101.6,215.1v10h-12c-3.2,0-5.9,2.6-5.9,5.9v-10c0-3.2,2.6-5.9,5.9-5.9H101.6z"/>
			</g>
			<g>
				<path class="st7" d="M101.6,263v10h-12c-3.2,0-5.9-2.6-5.9-5.9v-10c0,3.2,2.6,5.9,5.9,5.9H101.6z"/>
			</g>
			<g>
				<polygon class="st8" points="280.9,146.4 152.5,206.8 152.5,281.2 280.9,341.6 				"/>
			</g>
			<g>
				<path class="st2" d="M306.5,144.8v198.2c0,3.1-2.5,5.7-5.7,5.7h-14.3c-3.1,0-5.7-2.5-5.7-5.7V144.8c0-3.1,2.5-5.7,5.7-5.7h14.3
					C303.9,139.2,306.5,141.8,306.5,144.8z"/>
			</g>
			<g>
				<path class="st4" d="M306.5,144.8v15.5c0-3.1-2.5-5.7-5.7-5.7h-14.3c-3.1,0-5.7,2.5-5.7,5.7v-15.5c0-3.1,2.5-5.7,5.7-5.7h14.3
					C303.9,139.2,306.5,141.8,306.5,144.8z"/>
			</g>
			<g>
				<path class="st3" d="M306.5,327.6v15.5c0,3.1-2.5,5.7-5.7,5.7h-14.3c-3.1,0-5.7-2.5-5.7-5.7v-15.5c0,3.1,2.5,5.7,5.7,5.7h14.3
					C303.9,333.2,306.5,330.7,306.5,327.6z"/>
			</g>
			<g>
				<polygon class="st9" points="280.9,321.5 152.5,262 152.5,281.2 280.9,341.6 				"/>
			</g>
			<g>
				<polygon class="st10" points="280.9,146.4 152.5,206.8 152.5,226 280.9,166.5 				"/>
			</g>
		</g>
		<g>
			<g>
				<path class="st5" d="M146.6,311.8c0,7.7-5.8,7.7-5.8,15.2c0,7.7,5.8,7.7,5.8,15.2c0,7.7-5.8,7.7-5.8,15.2
					c0,7.7,5.8,7.7,5.8,15.2h-32.3c-3.7,0-6.7-2.9-6.7-6.6v-84.9h39c0,7.7-5.8,7.7-5.8,15.2C140.7,304.1,146.6,304.1,146.6,311.8z"
					/>
			</g>
			<g>
				<path class="st6" d="M140.7,296.5c0,0.1,0,0.3,0,0.5h-33.2v-15.8h39.1C146.6,288.9,140.7,288.9,140.7,296.5z"/>
			</g>
			<g>
				<path class="st7" d="M146.6,372.8h-32.4c-3.6,0-6.7-2.9-6.7-6.6v-15.8c0,3.7,3,6.6,6.7,6.6h26.5c0,0.1,0,0.3,0,0.5
					C140.7,365.2,146.6,365.2,146.6,372.8z"/>
			</g>
			<path class="st11" d="M300.8,136.4h-14.3c-4.6,0-8.3,3.7-8.3,8.2L152,204h-44.4c-4.6,0-8.4,3.7-8.5,8.3h-9.4
				c-4.7,0-8.6,3.8-8.6,8.6v46.2c0,4.7,3.8,8.6,8.6,8.6h9.3c0.1,3.7,2.6,6.7,5.9,7.8v82.7c0,5.2,4.2,9.4,9.4,9.4h32.4
				c1.5,0,2.7-1.2,2.7-2.7c0-4.7-1.9-7.2-3.5-9.3c-3.1-4.1-3.3-7.7,0-11.9c4.6-5.9,4.9-12.2,0-18.6c-3.2-4.2-3.2-7.8,0-12
				c4.7-6.3,4.7-12.3,0-18.6c-3.1-4-3.3-7.6,0-11.9c1.2-1.6,2.7-3.6,3.2-6.6h2.8l126.3,59.4c0.1,4.5,3.8,8.2,8.3,8.2h14.3
				c4.6,0,8.4-3.8,8.4-8.4V145.1C309.3,140.2,305.5,136.4,300.8,136.4z M98.9,270.2h-9.3c-1.7,0-3.1-1.4-3.1-3.1v-46.2
				c0-1.7,1.4-3.1,3.1-3.1h9.3V270.2z M141.5,317.7c-4.7,6.2-4.6,12.6,0,18.6c3.3,4.3,3.1,7.9,0,12c-4.6,6-4.7,12.3,0,18.6
				c0.8,1.1,1.5,2,1.9,3.2h-29.2c-2.2,0-4-1.8-4-4V284h33.2c-0.4,1.2-1.1,2.2-1.9,3.3c-4.8,6.2-4.6,12.6,0,18.6
				C144.7,309.9,144.8,313.5,141.5,317.7z M149.8,278.5h-42.3c-1.7,0-3.1-1.4-3.1-3.1v-62.8c0-1.7,1.4-3.1,3.1-3.1h42.3
				C149.8,209.4,149.8,278.5,149.8,278.5z M278.1,337.3l-122.9-57.8v-71l122.9-57.8V337.3z M303.8,343.1c0,1.6-1.4,2.9-2.9,2.9
				h-14.3c-1.6,0-2.9-1.4-2.9-2.9V144.8c0-1.6,1.4-2.9,2.9-2.9h14.3c1.6,0,2.9,1.4,2.9,2.9V343.1z"/>
		</g>
	</g>
	<g>
		<g>
			<g>
				<path class="st12" d="M428.3,130.2c0,25.6-20.8,46.3-46.4,46.3c-8.5,0-16.4-2.3-23.2-6.2l-28.5,11.6l11.6-28.5
					c-4-6.8-6.2-14.8-6.2-23.2c0-25.6,20.8-46.4,46.4-46.4C407.5,83.7,428.3,104.5,428.3,130.2z"/>
			</g>
		</g>
		<g>
			<g>
				<ellipse class="st13" cx="368.6" cy="143.4" rx="5.9" ry="5.9"/>
			</g>
			<g>
				<path class="st13" d="M399.3,121c-2.3,2.3-6,2.3-8.3,0c-2.3-2.3-2.3-6,0-8.3c2.3-2.3,6-2.3,8.3,0
					C401.5,115,401.5,118.7,399.3,121z"/>
			</g>
			<g>
				<circle class="st13" cx="381.8" cy="130.2" r="5.9"/>
			</g>
		</g>
		<g>
			<g>
				<path class="st14" d="M428.3,130.2c0,25.6-20.8,46.3-46.4,46.3c-8.5,0-16.4-2.3-23.2-6.2l-28.5,11.6l5.7-14l21.2-8.6
					c6.8,4,14.8,6.2,23.2,6.2c25.6,0,46.4-20.8,46.4-46.3c0-0.4,0-0.8,0-1.2C427.7,121.7,428.3,125.8,428.3,130.2z"/>
			</g>
		</g>
		<g>
			<g>
				<path class="st15" d="M428.3,129c-5.4-19.7-23.4-34.1-44.8-34.1c-25.6,0-46.4,20.8-46.4,46.4c0,0.4,0,0.8,0,1.1
					c-1.1-3.9-1.6-8-1.6-12.2c0-25.6,20.8-46.4,46.4-46.4C407.1,83.7,427.7,103.9,428.3,129z"/>
			</g>
		</g>
		<g>
			<g>
				<path class="st16" d="M414.7,288.8c-18.1,18.1-47.4,18.1-65.6,0c-6-6-10-13.3-12-20.8l-22.6-12l22.7-12c2.1-7.7,6-14.8,12-20.8
					c18.1-18.1,47.5-18.1,65.6,0C432.8,241.3,432.8,270.7,414.7,288.8z"/>
			</g>
		</g>
		<g>
			<g>
				<path class="st16" d="M414.7,288.8c-18.1,18.1-47.4,18.1-65.6,0c-6-6-10-13.3-12-20.8l-22.6-12l22.7-12c2.1-7.7,6-14.8,12-20.8
					c18.1-18.1,47.5-18.1,65.6,0C432.8,241.3,432.8,270.7,414.7,288.8z"/>
			</g>
		</g>
		<g>
			<g>
				<path class="st17" d="M368,256c0,3.4-2.9,6.3-6.3,6.3c-3.5,0-6.3-2.9-6.3-6.3c0-3.5,2.8-6.3,6.3-6.3
					C365.2,249.7,368,252.5,368,256z"/>
			</g>
			<g>
				<path class="st17" d="M408.3,256c0,3.5-2.8,6.3-6.3,6.3c-3.4,0-6.3-2.8-6.3-6.3s2.8-6.3,6.3-6.3
					C405.5,249.7,408.3,252.5,408.3,256z"/>
			</g>
			<g>
				<path class="st17" d="M388.2,256c0,3.5-2.9,6.3-6.3,6.3c-3.5,0-6.3-2.8-6.3-6.3c0-3.4,2.8-6.3,6.3-6.3
					C385.3,249.7,388.1,252.5,388.2,256z"/>
			</g>
		</g>
		<g>
			<g>
				<path class="st18" d="M418.8,284c-1.2,1.6-2.7,3.3-4.2,4.8c-18.1,18.1-47.4,18.1-65.6,0c-6-6-10-13.3-12-20.8l-22.6-12l9.5-5.1
					l19.4,10.3c2,7.7,6,14.9,12,20.8C372.8,299.5,400.6,300.2,418.8,284z"/>
			</g>
		</g>
		<g>
			<g>
				<path class="st19" d="M414.7,288.8c-0.7,0.7-1.4,1.4-2.1,1.9c13.8-18.2,12.4-44.2-4.2-60.8c-17.4-17.4-45.4-18-63.6-1.9
					c1.3-1.7,2.7-3.3,4.2-4.9c18.1-18.1,47.5-18.1,65.6,0C432.8,241.3,432.8,270.7,414.7,288.8z"/>
			</g>
		</g>
		<g>
			<g>
				<path class="st20" d="M428.3,381.8c0,25.6-20.8,46.4-46.4,46.4c-25.6,0-46.3-20.8-46.3-46.4c0-8.5,2.3-16.4,6.2-23.2l-11.6-28.5
					l28.5,11.6c6.8-4,14.8-6.2,23.2-6.2C407.5,335.4,428.3,356.2,428.3,381.8z"/>
			</g>
		</g>
		<g>
			<g>
				<path class="st21" d="M386.3,377.4c2.5,2.5,2.5,6.4,0,8.9s-6.4,2.5-8.9,0s-2.5-6.4,0-8.9C379.9,375,383.8,375,386.3,377.4z"/>
			</g>
			<g>
				<circle class="st21" cx="367.6" cy="367.6" r="6.3"/>
			</g>
			<g>
				<path class="st21" d="M400.5,400.5c-2.5,2.5-6.4,2.5-8.9,0s-2.5-6.4,0-8.9s6.4-2.5,8.9,0S403,398.1,400.5,400.5z"/>
			</g>
		</g>
		<g>
			<g>
				<path class="st22" d="M428.3,381.8c0,25.6-20.8,46.4-46.4,46.4c-25.2,0-45.7-20.2-46.3-45.3c5.4,19.7,23.4,34.1,44.7,34.1
					c25.6,0,46.4-20.8,46.4-46.4c0-0.4,0-0.8,0-1.2C427.7,373.5,428.3,377.6,428.3,381.8z"/>
			</g>
		</g>
		<g>
			<g>
				<path class="st23" d="M426.6,380.7c-5.4-19.7-23.4-34.1-44.8-34.1c-8.5,0-16.4,2.3-23.2,6.2l-25-10.1l-5.1-12.4l28.5,11.6
					c6.8-4,14.8-6.2,23.2-6.2C405.5,335.4,426,355.6,426.6,380.7z"/>
			</g>
		</g>
	</g>
	<g>
		<g>
			<g>
				<path class="st11" d="M330.2,184.6c-0.7,0-1.4-0.3-1.9-0.8c-0.8-0.8-1-1.9-0.6-2.9l11.1-27.3c-3.9-7.1-5.9-15.2-5.9-23.4
					c0-27.1,22-49.2,49.2-49.2c27.1,0,49.1,22,49.1,49.2c0,27.1-22,49.1-49.2,49.1c-8.2,0-16.3-2.1-23.4-5.9l-27.3,11.1
					C330.9,184.5,330.5,184.6,330.2,184.6z M381.8,86.5c-24.1,0-43.7,19.6-43.7,43.7c0,7.7,2.1,15.2,5.9,21.8
					c0.4,0.8,0.5,1.6,0.2,2.4l-9.1,22.5l22.5-9.1c0.8-0.3,1.6-0.3,2.4,0.1c6.6,3.8,14.2,5.9,21.9,5.9c24.1,0,43.7-19.6,43.7-43.6
					C425.5,106.1,405.9,86.5,381.8,86.5z"/>
			</g>
		</g>
		<g>
			<g>
				<path class="st11" d="M347.1,290.7c-5.9-5.9-10.1-13.1-12.4-20.9l-21.6-11.4c-0.9-0.5-1.4-1.4-1.4-2.4c0-1,0.5-1.9,1.4-2.4
					l21.6-11.4c2.3-7.9,6.6-15,12.4-20.8c19.1-19.1,50.3-19.1,69.5,0c9.3,9.3,14.4,21.6,14.4,34.7c0,13.1-5.1,25.4-14.4,34.7
					C397.5,309.8,366.4,309.9,347.1,290.7z M320.3,256l18.1,9.5c0.7,0.3,1.2,1,1.4,1.7c1.9,7.4,5.8,14.2,11.3,19.6
					c17,17,44.7,17,61.7,0s17-44.7,0-61.7s-44.7-17-61.7,0c-5.4,5.4-9.4,12.2-11.3,19.6c-0.2,0.8-0.7,1.4-1.4,1.7L320.3,256z"/>
			</g>
		</g>
		<g>
			<g>
				<path class="st11" d="M381.8,431c-27.1,0-49.1-22-49.1-49.2c0-8.2,2.1-16.3,5.9-23.4l-11.1-27.3c-0.4-1-0.2-2.2,0.6-2.9
					c0.8-0.8,2-1,2.9-0.6l27.3,11.1c7.1-3.9,15.2-5.9,23.4-5.9c27.1,0,49.2,22,49.2,49.2C431,409,408.9,431,381.8,431z M335.2,335.1
					l9.1,22.5c0.3,0.8,0.3,1.6-0.2,2.4c-3.8,6.6-5.9,14.2-5.9,21.8c0,24.1,19.6,43.7,43.6,43.7c24.1,0,43.7-19.6,43.7-43.7
					c0-24.1-19.6-43.7-43.7-43.7c-7.7,0-15.2,2.1-21.8,5.9c-0.8,0.4-1.6,0.5-2.4,0.2L335.2,335.1z"/>
			</g>
		</g>
	</g>
</g>
</svg>
