<?xml version="1.0" encoding="iso-8859-1"?>
<!-- Generator: Adobe Illustrator 19.0.0, SVG Export Plug-In . SVG Version: 6.00 Build 0)  -->
<svg version="1.1" id="Layer_1" xmlns="http://www.w3.org/2000/svg" xmlns:xlink="http://www.w3.org/1999/xlink" x="0px" y="0px"
	 viewBox="0 0 512.003 512.003" style="enable-background:new 0 0 512.003 512.003;" xml:space="preserve">
<g>
	<path style="fill:#FF3F62;" d="M256.002,512c-5.938,0-10.752-4.813-10.752-10.752c0-5.939,4.814-10.752,10.752-10.752
		c5.716,0,9.925-1.542,12.866-4.718c6.725-7.259,5.955-21.735,5.954-22.003c0,0-0.074-46.959-0.152-110.644
		c-3.458,0.487-6.99,0.739-10.581,0.739c-50.523,0-91.627-41.104-91.627-91.627c0-58.37,44.942-106.44,102.044-111.419
		c-0.006-26.805,0.162-131.697,0.196-135.045c0.069-6.821,0.124-12.208,6.746-14.958c5.236-2.168,11.262,0.092,13.769,5.177
		c34.62,70.219,43.228,119.466,25.585,146.371c-7.186,10.959-17.049,15.79-24.789,17.906c0.005,15.679,0.015,31.957,0.026,48.585
		c25.204,8.062,43.501,31.712,43.501,59.556c0,30.142-17.767,56.212-43.378,68.29c0.051,42.631,0.108,83.016,0.161,116.688
		c0.231,3.872,0.734,23.595-11.682,36.997C277.608,507.987,267.704,512,256.002,512z M274.514,172.429
		c-45.226,4.895-80.547,43.307-80.547,89.813c0,38.668,31.457,70.124,70.123,70.124c3.611,0,7.141-0.357,10.556-1.035
		c-0.033-29.544-0.067-61.675-0.092-93.821c-15.751,1.264-28.181,14.486-28.181,30.557c0,5.938-4.814,10.752-10.752,10.752
		c-5.938,0-10.752-4.813-10.752-10.752c0-27.925,22.06-50.797,49.668-52.101C274.527,200.639,274.519,186.123,274.514,172.429z
		 M296.058,242.099c0.021,26.387,0.048,53.279,0.077,79.694c13.279-9.836,21.903-25.618,21.903-43.375
		C318.038,262.67,309.114,248.965,296.058,242.099z M296.041,61.779c-0.031,22.94-0.041,52.366-0.033,85.385
		c2.473-1.491,4.957-3.668,6.98-6.842C308.685,131.385,313.695,110.156,296.041,61.779z"/>
	<circle style="fill:#FF3F62;" cx="243.996" cy="269.03" r="19.114"/>
</g>
<g>
	<circle style="fill:#D80027;" cx="257.496" cy="492.889" r="19.114"/>
	<path style="fill:#D80027;" d="M296.029,147.2c-0.007-32.956,0.002-62.325,0.033-85.228l-21.357-46.459l-0.2,135.31
		C274.506,150.824,287.937,150.434,296.029,147.2z"/>
	<path style="fill:#D80027;" d="M296.013,170.278c0,0-5.602,1.681-21.501,2.151c0,0-0.509,43.368,0.024,43.536
		c0.534,0.167,14.436,0.148,21.503,2.896L296.013,170.278z"/>
	<path style="fill:#D80027;" d="M274.553,237.51l0.092,93.821c0,0,13.946-2.769,21.489-9.538l-0.077-79.694
		C296.058,242.099,287.011,237.466,274.553,237.51z"/>
	<path style="fill:#D80027;" d="M274.848,463.775c0.001,0.269,0.771,14.745-5.954,22.003c-2.94,3.175-7.149,4.718-12.866,4.718
		c-5.938,0-10.752,4.813-10.752,10.752c0,5.938,4.814,10.752,10.752,10.752c11.702,0,21.605-4.013,28.641-11.607
		c12.415-13.402,11.913-33.124,11.682-36.997c-0.053-33.672-0.11-74.058-0.161-116.688c0,0-7.004,4.276-21.492,6.423
		C274.774,416.816,274.848,463.775,274.848,463.775z"/>
</g>
<g>
</g>
<g>
</g>
<g>
</g>
<g>
</g>
<g>
</g>
<g>
</g>
<g>
</g>
<g>
</g>
<g>
</g>
<g>
</g>
<g>
</g>
<g>
</g>
<g>
</g>
<g>
</g>
<g>
</g>
</svg>
