<?xml version="1.0" encoding="utf-8"?>
<!-- Generator: Adobe Illustrator 27.0.1, SVG Export Plug-In . SVG Version: 6.00 Build 0)  -->
<svg version="1.1" id="Layer_1" xmlns="http://www.w3.org/2000/svg" xmlns:xlink="http://www.w3.org/1999/xlink" x="0px" y="0px"
	 viewBox="0 0 512 512" style="enable-background:new 0 0 512 512;" xml:space="preserve">
<style type="text/css">
	.st0{fill:#1D1D1B;}
	.st1{fill:#C9D1D9;}
	.st2{fill:#FF3F62;}
	.st3{fill:#D80027;}
</style>
<g>
	<path class="st0" d="M75,507c-38.6,0-70-31.4-70-70V75C5,36.4,36.4,5,75,5h362c38.6,0,70,31.4,70,70v362c0,38.6-31.4,70-70,70H75z"
		/>
	<path class="st1" d="M437,10c35.8,0,65,29.2,65,65v362c0,35.8-29.2,65-65,65H75c-35.8,0-65-29.2-65-65V75c0-35.8,29.2-65,65-65H437
		 M437,0H75C33.6,0,0,33.6,0,75v362c0,41.4,33.6,75,75,75h362c41.4,0,75-33.6,75-75V75C512,33.6,478.4,0,437,0L437,0z"/>
</g>
<g>
	<path class="st2" d="M256,431c-4.1,0-7.3-3.3-7.3-7.3c0-4.1,3.3-7.3,7.3-7.3c3.9,0,6.8-1.1,8.8-3.2c4.6-5,4.1-14.9,4.1-15
		c0,0-0.1-32.1-0.1-75.6c-2.4,0.3-4.8,0.5-7.2,0.5c-34.5,0-62.6-28.1-62.6-62.6c0-39.9,30.7-72.8,69.8-76.2c0-18.3,0.1-90,0.1-92.3
		c0-4.7,0.1-8.3,4.6-10.2c3.6-1.5,7.7,0.1,9.4,3.5c23.7,48,29.6,81.7,17.5,100.1c-4.9,7.5-11.7,10.8-16.9,12.2c0,10.7,0,21.8,0,33.2
		c17.2,5.5,29.7,21.7,29.7,40.7c0,20.6-12.1,38.4-29.7,46.7c0,29.1,0.1,56.7,0.1,79.8c0.2,2.6,0.5,16.1-8,25.3
		C270.8,428.3,264,431,256,431z M268.7,198.9c-30.9,3.3-55.1,29.6-55.1,61.4c0,26.4,21.5,47.9,47.9,47.9c2.5,0,4.9-0.2,7.2-0.7
		c0-20.2,0-42.2-0.1-64.1c-10.8,0.9-19.3,9.9-19.3,20.9c0,4.1-3.3,7.3-7.3,7.3s-7.3-3.3-7.3-7.3c0-19.1,15.1-34.7,34-35.6
		C268.7,218.2,268.7,208.2,268.7,198.9z M283.4,246.5c0,18,0,36.4,0.1,54.5c9.1-6.7,15-17.5,15-29.7
		C298.4,260.6,292.3,251.2,283.4,246.5z M283.4,123.2c0,15.7,0,35.8,0,58.4c1.7-1,3.4-2.5,4.8-4.7
		C292,170.8,295.4,156.3,283.4,123.2z"/>
	<circle class="st2" cx="247.8" cy="264.9" r="13.1"/>
</g>
<g>
	
		<ellipse transform="matrix(9.853750e-02 -0.9951 0.9951 9.853750e-02 -184.2047 632.525)" class="st3" cx="257" cy="417.9" rx="13.1" ry="13.1"/>
	<path class="st3" d="M283.4,181.6c0-22.5,0-42.6,0-58.3l-14.6-31.8l-0.1,92.5C268.7,184.1,277.8,183.8,283.4,181.6z"/>
	<path class="st3" d="M283.4,197.4c0,0-3.8,1.1-14.7,1.5c0,0-0.3,29.6,0,29.8c0.4,0.1,9.9,0.1,14.7,2L283.4,197.4z"/>
	<path class="st3" d="M268.7,243.4l0.1,64.1c0,0,9.5-1.9,14.7-6.5l-0.1-54.5C283.4,246.5,277.2,243.3,268.7,243.4z"/>
	<path class="st3" d="M268.9,398c0,0.2,0.5,10.1-4.1,15c-2,2.2-4.9,3.2-8.8,3.2c-4.1,0-7.3,3.3-7.3,7.3c0,4.1,3.3,7.3,7.3,7.3
		c8,0,14.8-2.7,19.6-7.9c8.5-9.2,8.1-22.6,8-25.3c0-23-0.1-50.6-0.1-79.8c0,0-4.8,2.9-14.7,4.4C268.8,365.9,268.9,398,268.9,398z"/>
</g>
</svg>
