<?xml version="1.0" encoding="utf-8"?>
<!-- Generator: Adobe Illustrator 27.0.1, SVG Export Plug-In . SVG Version: 6.00 Build 0)  -->
<svg version="1.1" id="Layer_1" xmlns="http://www.w3.org/2000/svg" xmlns:xlink="http://www.w3.org/1999/xlink" x="0px" y="0px"
	 viewBox="0 0 512 512" style="enable-background:new 0 0 512 512;" xml:space="preserve">
<style type="text/css">
	.st0{fill:#058036;}
	.st1{fill:#C9D1D9;}
	.st2{fill:#434A54;}
	.st3{fill:#ED5564;}
	.st4{fill:#A0D468;}
	.st5{fill:#EC87C0;}
	.st6{fill:#48CFAD;}
	.st7{fill:#EAC6BB;}
	.st8{fill:#AC92EB;}
	.st9{fill:#FFCE54;}
</style>
<g>
	<path class="st0" d="M75,507c-38.6,0-70-31.4-70-70V75C5,36.4,36.4,5,75,5h362c38.6,0,70,31.4,70,70v362c0,38.6-31.4,70-70,70H75z"
		/>
	<path class="st1" d="M437,10c35.8,0,65,29.2,65,65v362c0,35.8-29.2,65-65,65H75c-35.8,0-65-29.2-65-65V75c0-35.8,29.2-65,65-65H437
		 M437,0H75C33.6,0,0,33.6,0,75v362c0,41.4,33.6,75,75,75h362c41.4,0,75-33.6,75-75V75C512,33.6,478.4,0,437,0L437,0z"/>
</g>
<g>
	<polygon class="st2" points="335,383.7 167.6,253 177,241 344.4,371.7 	"/>
	<polygon class="st2" points="347.2,378.7 332.1,376.8 362.6,133.3 377.7,135.2 	"/>
	<polygon class="st2" points="176.1,253.6 168.5,240.4 366.4,127.7 373.9,140.9 	"/>
</g>
<path class="st3" d="M263.6,256c0,50.4-40.9,91.3-91.3,91.3S81,306.4,81,256c0-50.4,40.9-91.3,91.3-91.3S263.6,205.6,263.6,256z"/>
<path class="st4" d="M431,134.3c0,33.6-27.3,60.9-60.9,60.9s-60.9-27.2-60.9-60.9c0-33.6,27.3-60.9,60.9-60.9S431,100.6,431,134.3z"
	/>
<path class="st5" d="M400.6,377.7c0,33.6-27.2,60.9-60.9,60.9c-33.6,0-60.9-27.2-60.9-60.9c0-33.6,27.2-60.9,60.9-60.9
	C373.3,316.9,400.6,344.1,400.6,377.7z"/>
<path class="st6" d="M239.9,317.3V313c0-7-4.5-13.2-11.1-15.4l-0.5-0.1c-7.3-2-9.8-3.9-13.1-5.1c-11.6-4.4-14.6-7.6-15.3-9.1
	c0-0.1,0-0.1-0.1-0.2l-0.1-13.4l-27.4-0.3l-27.4,0.3l-0.1,13.4c0,0.1,0,0.1-0.1,0.2c-0.8,1.5-3.8,4.7-15.3,9.1
	c-3.3,1.2-5.7,3.1-13.1,5.1l-0.5,0.1c-6.7,2.2-11.1,8.4-11.1,15.4v4.3c16.7,18.4,40.8,30,67.6,30S223.2,335.7,239.9,317.3z"/>
<path class="st7" d="M210.4,243.8c0,24.7-23.6,47.5-38,47.5c-14.5,0-38-22.7-38-47.5s17-41,38-41S210.4,219.1,210.4,243.8z"/>
<path class="st8" d="M415.4,175v-4c0-4.7-3-8.8-7.5-10.3l-0.3-0.1c-4.9-1.3-6.6-2.6-8.7-3.4c-7.7-2.9-9.7-5.1-10.3-6.1
	c0,0,0-0.1,0-0.1l-0.1-9l-18.3-0.2l-18.3,0.2l-0.1,9c0,0,0,0.1,0,0.1c-0.5,1-2.5,3.1-10.3,6.1c-2.2,0.8-3.8,2.1-8.7,3.4l-0.4,0.1
	c-4.5,1.5-7.4,5.6-7.4,10.3v4c11.1,12.4,27.3,20.2,45.2,20.2S404.2,187.3,415.4,175z"/>
<path class="st7" d="M395.6,131.3c0,16.5-15.8,31.8-25.5,31.8c-9.7,0-25.5-15.2-25.5-31.8c0-16.5,11.4-27.5,25.5-27.5
	C384.2,103.8,395.6,114.7,395.6,131.3z"/>
<path class="st9" d="M384.9,418.4v-4c0-4.7-3-8.8-7.5-10.3l-0.3-0.1c-4.9-1.3-6.6-2.6-8.7-3.4c-7.7-3-9.7-5.1-10.3-6.1
	c0,0,0-0.1-0.1-0.1l0-9l-18.3-0.2l-18.3,0.2l-0.1,9c0,0,0,0.1,0,0.1c-0.5,1-2.5,3.1-10.3,6.1c-2.2,0.8-3.8,2.1-8.7,3.4l-0.3,0.1
	c-4.5,1.5-7.4,5.6-7.4,10.3v4c11.1,12.4,27.3,20.2,45.2,20.2S373.8,430.8,384.9,418.4z"/>
<path class="st7" d="M365.2,374.8c0,16.5-15.8,31.8-25.5,31.8c-9.7,0-25.5-15.2-25.5-31.8c0-16.5,11.4-27.5,25.5-27.5
	C353.7,347.3,365.2,358.2,365.2,374.8z"/>
</svg>
