<?xml version="1.0" encoding="utf-8"?>
<!-- Generator: Adobe Illustrator 27.0.1, SVG Export Plug-In . SVG Version: 6.00 Build 0)  -->
<svg version="1.1" id="Layer_1" xmlns="http://www.w3.org/2000/svg" xmlns:xlink="http://www.w3.org/1999/xlink" x="0px" y="0px"
	 viewBox="0 0 512 512" style="enable-background:new 0 0 512 512;" xml:space="preserve">
<style type="text/css">
	.st0{fill:#003638;}
	.st1{fill:#C9D1D9;}
	.st2{fill:#00A1A7;}
	.st3{fill:#FFDA44;}
	.st4{fill:#FF9811;}
</style>
<g>
	<path class="st0" d="M75,507c-38.6,0-70-31.4-70-70V75C5,36.4,36.4,5,75,5h362c38.6,0,70,31.4,70,70v362c0,38.6-31.4,70-70,70H75z"
		/>
	<path class="st1" d="M437,10c17.3,0,33.6,6.8,45.9,19.1C495.2,41.4,502,57.7,502,75v362c0,17.3-6.8,33.6-19.1,45.9
		C470.6,495.2,454.3,502,437,502H75c-17.3,0-33.6-6.8-45.9-19.1C16.8,470.6,10,454.3,10,437V75c0-17.3,6.8-33.6,19.1-45.9
		C41.4,16.8,57.7,10,75,10H437 M437,0H75C33.8,0,0,33.8,0,75v362c0,41.2,33.8,75,75,75h362c41.2,0,75-33.8,75-75V75
		C512,33.8,478.2,0,437,0L437,0z"/>
</g>
<g>
	<path class="st2" d="M81,156c0-41.2,33.8-75,75-75h200c41.2,0,75,33.8,75,75v200c0,41.2-33.8,75-75,75H156c-41.3,0-75-33.8-75-75
		V156z"/>
</g>
<polygon class="st3" points="357,407.9 256,354.9 155,407.9 174.3,295.5 92.6,215.9 205.5,199.5 256,97.2 306.5,199.5 419.4,215.9 
	337.7,295.5 "/>
<polygon class="st4" points="256,318.9 197.3,349.8 208.5,284.4 161,238.1 226.6,228.6 256,169.1 285.4,228.6 351,238.1 
	303.5,284.4 314.7,349.8 "/>
<circle class="st0" cx="256" cy="266.6" r="26.5"/>
</svg>
