<?xml version="1.0" encoding="UTF-8"?>
<!-- Created with Inkscape (http://www.inkscape.org/) -->
<svg width="14.77mm" height="14.739mm" version="1.1" viewBox="0 0 14.77 14.739" xmlns="http://www.w3.org/2000/svg" xmlns:xlink="http://www.w3.org/1999/xlink"><defs><linearGradient id="e" x1="30.973" x2="1.1089" y1="27.509" y2="28.797" gradientTransform="scale(.83554 1.1968)" gradientUnits="userSpaceOnUse" xlink:href="#b"/><linearGradient id="b" x1="26.799" x2="6.4908" y1="19.64" y2="20.515" gradientTransform="scale(.85442 1.1704)" gradientUnits="userSpaceOnUse"><stop stop-color="#FF5C34" offset="0"/><stop stop-color="#EB0256" offset="1"/></linearGradient><linearGradient id="i" x1="18.604" x2="29.552" y1="60.089" y2="34.263" gradientTransform="scale(1.2182 .82091)" gradientUnits="userSpaceOnUse"><stop stop-color="#A63FDB" offset="0"/><stop stop-color="#FF257E" offset="1"/></linearGradient><linearGradient id="h" x1="31.906" x2="56.143" y1="22.861" y2="28.198" gradientTransform="scale(.87862 1.1382)" gradientUnits="userSpaceOnUse"><stop stop-color="#00FFF0" offset="0"/><stop stop-color="#0087FF" offset="1"/></linearGradient><linearGradient id="g" x1="40.014" x2="21.611" y1="3.0504" y2="22.693" gradientTransform="scale(1.048 .9542)" gradientUnits="userSpaceOnUse"><stop stop-color="#17C934" offset="0"/><stop stop-color="#03FF6E" offset="1"/></linearGradient><linearGradient id="d" x1="15.185" x2="9.5917" y1="33.22" y2="1.0193" gradientTransform="scale(1.1393 .87774)" gradientUnits="userSpaceOnUse" xlink:href="#a"/><linearGradient id="a" x1=".5" x2=".3056" y1="1.1191"><stop stop-color="#FFB000" offset="0"/><stop stop-color="#FF7725" offset="1"/></linearGradient><linearGradient id="c" x1="29.277" x2="25.329" y1="23.493" y2=".76444" gradientTransform="scale(.85442 1.1704)" gradientUnits="userSpaceOnUse" xlink:href="#a"/><linearGradient id="l" x1="16.691" x2="57.873" y1="19.196" y2="21.721" gradientTransform="scale(.85442 1.1704)" gradientUnits="userSpaceOnUse"><stop stop-color="#9EE85D" offset="0"/><stop stop-color="#0ED061" offset="1"/></linearGradient><linearGradient id="k" x1="38.66" x2="29.418" y1="42.314" y2="17.769" gradientTransform="scale(.85442 1.1704)" gradientUnits="userSpaceOnUse"><stop stop-color="#21EFE3" offset="0"/><stop stop-color="#2598FF" offset="1"/></linearGradient><linearGradient id="j" x1="32.778" x2="-5.7372" y1="31.292" y2="34.564" gradientTransform="scale(.85442 1.1704)" gradientUnits="userSpaceOnUse"><stop stop-color="#A63FDB" offset="0"/><stop stop-color="#FF257E" offset="1"/></linearGradient><linearGradient id="f" x1="26.799" x2="6.4908" y1="19.64" y2="20.515" gradientTransform="scale(.85442 1.1704)" gradientUnits="userSpaceOnUse" xlink:href="#b"/></defs><g transform="translate(33.915 11.461)"><g id="Group" transform="matrix(.29726 0 0 .29726 -33.959 -11.511)"><mask fill="#ffffff"><rect y=".11211" width="50" height="49.776"/></mask><g transform="translate(-12.599 -12.101)"><g transform="rotate(40 14.707 46.949)" fill-rule="evenodd"><path id="Combined-Shape" d="m25.88 24.664c-6.6904-1.6477-13.466 2.3738-15.134 8.9822-1.6681 6.6084 2.4033 13.301 9.0937 14.949l0.50617 0.12466c-10.654-2.3814-18.724-11.491-19.391-22.569l-0.010371-0.19546c-0.36087-6.8014 4.9286-12.604 11.814-12.96 6.8858-0.35644 12.76 4.8682 13.121 11.67z" fill="url(#e)"/><path d="m25.88 24.664c-3.5513 5.8379-1.6389 13.414 4.2715 16.922 5.9104 3.5078 13.581 1.6188 17.132-4.2191l0.23527-0.38675c-4.3151 7.3807-12.39 12.348-21.639 12.348-1.902 0-3.7544-0.21006-5.5346-0.60796l-0.50617-0.12466c-6.6904-1.6477-10.762-8.3405-9.0937-14.949 1.6681-6.6084 8.444-10.63 15.134-8.9822z" fill="url(#i)"/><path d="m25.88 24.664c4.4322 5.2173 12.307 5.8978 17.589 1.52 5.2821-4.3778 5.971-12.156 1.5389-17.373l-0.10148-0.11946c3.7066 4.3034 5.9433 9.8802 5.9433 15.973 0 4.4858-1.2124 8.6919-3.3312 12.316l-0.23527 0.38675c-3.5513 5.8379-11.222 7.7268-17.132 4.2191-5.9104-3.5078-7.8228-11.084-4.2715-16.922z" fill="url(#h)"/><path d="m25.88 24.664c6.3932-2.5513 9.4819-9.7387 6.8989-16.053s-9.8596-9.3656-16.253-6.8143l-0.52338 0.20887c3.0294-1.2901 6.3688-2.0048 9.8773-2.0048 7.622 0 14.446 3.3732 19.027 8.6907l0.10148 0.11946c4.4322 5.2173 3.7432 12.996-1.5389 17.373-5.2821 4.3778-13.157 3.6973-17.589-1.52z" fill="url(#g)"/><g fill="url(#d)"><path d="m25.88 24.664c-0.36087-6.8014-6.2354-12.026-13.121-11.67-6.8858 0.35644-12.175 6.159-11.814 12.96l0.010371 0.19546c-0.029587-0.49168-0.044591-0.98724-0.044591-1.4863 0-10.156 6.2146-18.878 15.093-22.659l0.52338-0.20887c6.3931-2.5513 13.67 0.49954 16.253 6.8143s-0.50574 13.502-6.8989 16.053z"/><path d="m25.88 24.664c-0.36087-6.8014-6.2354-12.026-13.121-11.67-6.8858 0.35644-12.175 6.159-11.814 12.96l0.010371 0.19546c-0.029587-0.49168-0.044591-0.98724-0.044591-1.4863 0-10.156 6.2146-18.878 15.093-22.659l0.52338-0.20887c6.3931-2.5513 13.67 0.49954 16.253 6.8143s-0.50574 13.502-6.8989 16.053z" fill-opacity=".1" style="mix-blend-mode:multiply"/></g><g opacity=".50491"><path d="m16.339 1.8705 0.18698-0.07462c6.3931-2.5513 13.67 0.49954 16.253 6.8143 2.583 6.3148-0.50574 13.502-6.8989 16.053-0.05343-1.007-0.22773-1.9795-0.50829-2.9043 3.43-1.8567 5.7555-5.456 5.7555-9.5919 0-6.0367-4.9545-10.93-11.066-10.93-1.3058 0-2.5588 0.2234-3.7219 0.63361z" fill="url(#c)"/><path d="m16.339 1.8705 0.18698-0.07462c6.3931-2.5513 13.67 0.49954 16.253 6.8143 2.583 6.3148-0.50574 13.502-6.8989 16.053-0.05343-1.007-0.22773-1.9795-0.50829-2.9043 3.43-1.8567 5.7555-5.456 5.7555-9.5919 0-6.0367-4.9545-10.93-11.066-10.93-1.3058 0-2.5588 0.2234-3.7219 0.63361z" fill-opacity=".49618" style="mix-blend-mode:overlay"/></g><g transform="rotate(72 37.056 20.179)" opacity=".54425"><path d="m28.379 9.2701 0.18698-0.07462c6.3931-2.5513 13.67 0.49954 16.253 6.8143 2.583 6.3148-0.50574 13.502-6.8989 16.053-0.05343-1.007-0.22773-1.9795-0.50829-2.9043 3.43-1.8567 5.7555-5.456 5.7555-9.5919 0-6.0367-4.9545-10.93-11.066-10.93-1.3058 0-2.5588 0.2234-3.7219 0.63361z" fill="url(#l)"/><path d="m28.379 9.2701 0.18698-0.07462c6.3931-2.5513 13.67 0.49954 16.253 6.8143 2.583 6.3148-0.50574 13.502-6.8989 16.053-0.05343-1.007-0.22773-1.9795-0.50829-2.9043 3.43-1.8567 5.7555-5.456 5.7555-9.5919 0-6.0367-4.9545-10.93-11.066-10.93-1.3058 0-2.5588 0.2234-3.7219 0.63361z" fill-opacity=".49989" style="mix-blend-mode:overlay"/></g><g transform="rotate(143 33.811 33.641)" opacity=".56222"><path d="m25.135 22.732 0.18698-0.07462c6.3932-2.5513 13.67 0.49954 16.253 6.8143 2.583 6.3148-0.50574 13.502-6.8989 16.053-0.05343-1.007-0.22773-1.9795-0.50829-2.9043 3.43-1.8567 5.7555-5.456 5.7555-9.5919 0-6.0367-4.9545-10.93-11.066-10.93-1.3058 0-2.5588 0.2234-3.7219 0.63361z" fill="url(#k)"/><path d="m25.135 22.732 0.18698-0.07462c6.3932-2.5513 13.67 0.49954 16.253 6.8143 2.583 6.3148-0.50574 13.502-6.8989 16.053-0.05343-1.007-0.22773-1.9795-0.50829-2.9043 3.43-1.8567 5.7555-5.456 5.7555-9.5919 0-6.0367-4.9545-10.93-11.066-10.93-1.3058 0-2.5588 0.2234-3.7219 0.63361z" style="mix-blend-mode:overlay"/></g><g transform="rotate(217 19.33 34.673)" opacity=".58415"><path d="m10.654 23.765 0.18698-0.07462c6.3931-2.5513 13.67 0.49954 16.253 6.8143 2.583 6.3148-0.50574 13.502-6.8989 16.053-0.05343-1.007-0.22773-1.9795-0.50829-2.9043 3.43-1.8567 5.7555-5.456 5.7555-9.5919 0-6.0367-4.9545-10.93-11.066-10.93-1.3058 0-2.5588 0.2234-3.7219 0.63361z" fill="url(#j)"/><path d="m10.654 23.765 0.18698-0.07462c6.3931-2.5513 13.67 0.49954 16.253 6.8143 2.583 6.3148-0.50574 13.502-6.8989 16.053-0.05343-1.007-0.22773-1.9795-0.50829-2.9043 3.43-1.8567 5.7555-5.456 5.7555-9.5919 0-6.0367-4.9545-10.93-11.066-10.93-1.3058 0-2.5588 0.2234-3.7219 0.63361z" fill-opacity=".50308" style="mix-blend-mode:overlay"/></g><g transform="rotate(-71 14.222 21.606)" opacity=".18013"><path d="m5.5459 10.697 0.18698-0.07462c6.3932-2.5513 13.67 0.49954 16.253 6.8143 2.583 6.3148-0.50574 13.502-6.8989 16.053-0.05343-1.007-0.22773-1.9795-0.50829-2.9043 3.43-1.8567 5.7555-5.456 5.7555-9.5919 0-6.0367-4.9545-10.93-11.066-10.93-1.3058 0-2.5588 0.2234-3.7219 0.63361z" fill="url(#f)"/><path d="m5.5459 10.697 0.18698-0.07462c6.3932-2.5513 13.67 0.49954 16.253 6.8143 2.583 6.3148-0.50574 13.502-6.8989 16.053-0.05343-1.007-0.22773-1.9795-0.50829-2.9043 3.43-1.8567 5.7555-5.456 5.7555-9.5919 0-6.0367-4.9545-10.93-11.066-10.93-1.3058 0-2.5588 0.2234-3.7219 0.63361z" fill-opacity=".77284" style="mix-blend-mode:multiply"/></g></g><g><path d="m35.632 42.373h4.5448c4.2814 0 7.7522-3.3636 7.7522-7.5129 0-4.1493-3.4708-7.5129-7.7522-7.5129h-6.5595c-2.47 0-4.4724 1.9406-4.4724 4.3344v16.87z" fill="#fff"/></g></g></g></g></svg>
