<?xml version="1.0" encoding="utf-8"?>
<!-- Generator: Adobe Illustrator 27.0.1, SVG Export Plug-In . SVG Version: 6.00 Build 0)  -->
<svg version="1.1" id="Layer_1" xmlns="http://www.w3.org/2000/svg" xmlns:xlink="http://www.w3.org/1999/xlink" x="0px" y="0px"
	 viewBox="0 0 512 512" style="enable-background:new 0 0 512 512;" xml:space="preserve">
<style type="text/css">
	.st0{fill:#09140E;}
	.st1{fill:#C9D1D9;}
	.st2{fill:#F2F2F2;}
	.st3{fill:#CDD6E0;}
	.st4{fill:#CDD6E0;stroke:#FFFFFF;stroke-miterlimit:10;}
	.st5{fill:#84DBFF;stroke:#FFFFFF;stroke-miterlimit:10;}
	.st6{fill:#FFD15C;stroke:#FFFFFF;stroke-miterlimit:10;}
	.st7{fill:#4CDBC4;stroke:#FFFFFF;stroke-miterlimit:10;}
	.st8{fill:#B8CAD8;}
</style>
<g>
	<path class="st0" d="M75,507c-38.6,0-70-31.4-70-70V75C5,36.4,36.4,5,75,5h362c38.6,0,70,31.4,70,70v362c0,38.6-31.4,70-70,70H75z"
		/>
	<path class="st1" d="M437,10c35.8,0,65,29.2,65,65v362c0,35.8-29.2,65-65,65H75c-35.8,0-65-29.2-65-65V75c0-35.8,29.2-65,65-65H437
		 M437,0H75C33.6,0,0,33.6,0,75v362c0,41.4,33.6,75,75,75h362c41.4,0,75-33.6,75-75V75C512,33.6,478.4,0,437,0L437,0z"/>
</g>
<path class="st2" d="M405.3,197.3c2.2-8.1,3.7-16.9,3.7-26.4c0-50.6-41.1-91-91-91c-34.5,0-63.8,19.1-79.2,47
	c-10.3-4.4-22-7.3-33.8-7.3c-41.8,0-75.6,30.8-81.4,70.4c-24.2,5.9-41.8,27.1-41.8,53.6c0,30.1,24.9,55,55,55H376
	c30.1,0,55-24.9,55-55C430.3,223.7,420,206.8,405.3,197.3z"/>
<path class="st3" d="M122.8,204.6c5.9-39.6,40.4-70.4,81.4-70.4c12.5,0,23.5,2.9,33.8,7.3c15.4-27.9,45.5-47,79.2-47
	c47.7,0,87.3,36.7,91,84.4c0-2.2,0-5.1,0-7.3c0-50.6-41.1-91-91-91c-34.5,0-63.8,19.1-79.2,47c-10.3-4.4-22-7.3-33.8-7.3
	c-41.8,0-75.6,30.8-81.4,70.4C98.6,196.6,81,217.8,81,244.3c0,2.2,0,5.1,0.7,7.3C84.7,228.1,101.5,209.8,122.8,204.6z"/>
<path class="st2" d="M405.3,219.3c11.7,8.1,20.5,20.5,23.5,35.2c0.7-3.7,1.5-7.3,1.5-11c0-17.6-8.1-33-21.3-43.3
	C408.3,206.8,407.5,213.4,405.3,219.3z"/>
<polygon class="st4" points="369.4,330.8 369.4,368.3 354.7,368.3 354.7,345.5 263,345.5 263,368.3 248.3,368.3 248.3,345.5 
	156.6,345.5 156.6,368.3 141.9,368.3 141.9,330.8 248.3,330.8 248.3,297.8 263,297.8 263,330.8 "/>
<path class="st5" d="M280.6,432.1h-49.2c-8.1,0-14.7-6.6-14.7-14.7v-34.5c0-8.1,6.6-14.7,14.7-14.7h49.2c8.1,0,14.7,6.6,14.7,14.7
	v34.5C295.3,425.5,288.7,432.1,280.6,432.1z"/>
<path class="st6" d="M387,432.1h-49.2c-8.1,0-14.7-6.6-14.7-14.7v-34.5c0-8.1,6.6-14.7,14.7-14.7H387c8.1,0,14.7,6.6,14.7,14.7v34.5
	C401.7,425.5,395,432.1,387,432.1z"/>
<path class="st7" d="M173.5,432.1h-49.2c-8.1,0-14.7-6.6-14.7-14.7v-34.5c0-8.1,6.6-14.7,14.7-14.7h49.2c8.1,0,14.7,6.6,14.7,14.7
	v34.5C188.1,425.5,181.5,432.1,173.5,432.1z"/>
<rect x="248.3" y="297.8" class="st8" width="14.7" height="11"/>
</svg>
