<?xml version="1.0" encoding="iso-8859-1"?>
<!-- Generator: Adobe Illustrator 19.0.0, SVG Export Plug-In . SVG Version: 6.00 Build 0)  -->
<svg version="1.1" id="Layer_1" xmlns="http://www.w3.org/2000/svg" xmlns:xlink="http://www.w3.org/1999/xlink" x="0px" y="0px"
	 viewBox="0 0 501.551 501.551" style="enable-background:new 0 0 501.551 501.551;" xml:space="preserve">
<path style="fill:#F2F2F2;" d="M463.412,167.184c3.135-11.494,5.224-24.033,5.224-37.616C468.637,57.469,410.122,0,339.069,0
	c-49.11,0-90.906,27.167-112.849,66.873c-14.629-6.269-31.347-10.449-48.065-10.449c-59.559,0-107.624,43.886-115.984,100.31
	c-34.482,8.359-59.559,38.661-59.559,76.278c0,42.841,35.527,78.367,78.367,78.367h340.637c42.841,0,78.367-35.527,78.367-78.367
	C498.939,204.8,484.31,180.767,463.412,167.184z"/>
<path style="fill:#CDD6E0;" d="M61.127,177.633c8.359-56.424,57.469-100.31,115.984-100.31c17.763,0,33.437,4.18,48.065,10.449
	c21.943-39.706,64.784-66.873,112.849-66.873c67.918,0,124.343,52.245,129.567,120.163c0-3.135,0-7.314,0-10.449
	c0-72.098-58.514-129.567-129.567-129.567c-49.11,0-90.906,27.167-112.849,66.873c-14.629-6.269-31.347-10.449-48.065-10.449
	c-59.559,0-107.624,43.886-115.984,100.31c-34.482,8.359-59.559,38.661-59.559,76.278c0,3.135,0,7.314,1.045,10.449
	C6.792,211.069,30.824,184.947,61.127,177.633z"/>
<path style="fill:#F2F2F2;" d="M463.412,198.531c16.718,11.494,29.257,29.257,33.437,50.155c1.045-5.224,2.09-10.449,2.09-15.673
	c0-25.078-11.494-47.02-30.302-61.649C467.592,180.767,466.547,190.171,463.412,198.531z"/>
<polygon style="fill:#CDD6E0;" points="412.212,357.355 412.212,410.645 391.314,410.645 391.314,378.253 260.702,378.253 
	260.702,410.645 239.804,410.645 239.804,378.253 109.192,378.253 109.192,410.645 88.294,410.645 88.294,357.355 239.804,357.355 
	239.804,310.335 260.702,310.335 260.702,357.355 "/>
<path style="fill:#84DBFF;" d="M285.78,501.551h-70.008c-11.494,0-20.898-9.404-20.898-20.898v-49.11
	c0-11.494,9.404-20.898,20.898-20.898h70.008c11.494,0,20.898,9.404,20.898,20.898v49.11
	C306.678,492.147,297.273,501.551,285.78,501.551z"/>
<path style="fill:#FFD15C;" d="M437.29,501.551h-70.008c-11.494,0-20.898-9.404-20.898-20.898v-49.11
	c0-11.494,9.404-20.898,20.898-20.898h70.008c11.494,0,20.898,9.404,20.898,20.898v49.11
	C458.188,492.147,448.784,501.551,437.29,501.551z"/>
<path style="fill:#4CDBC4;" d="M133.224,501.551H63.216c-11.494,0-20.898-9.404-20.898-20.898v-49.11
	c0-11.494,9.404-20.898,20.898-20.898h70.008c11.494,0,20.898,9.404,20.898,20.898v49.11
	C154.122,492.147,144.718,501.551,133.224,501.551z"/>
<rect x="239.804" y="310.335" style="fill:#B8CAD8;" width="20.898" height="15.673"/>
<g>
</g>
<g>
</g>
<g>
</g>
<g>
</g>
<g>
</g>
<g>
</g>
<g>
</g>
<g>
</g>
<g>
</g>
<g>
</g>
<g>
</g>
<g>
</g>
<g>
</g>
<g>
</g>
<g>
</g>
</svg>
