<?xml version="1.0" encoding="utf-8"?>
<!-- Generator: Adobe Illustrator 27.0.1, SVG Export Plug-In . SVG Version: 6.00 Build 0)  -->
<svg version="1.1" id="Capa_1" xmlns="http://www.w3.org/2000/svg" xmlns:xlink="http://www.w3.org/1999/xlink" x="0px" y="0px"
	 viewBox="0 0 512 512" style="enable-background:new 0 0 512 512;" xml:space="preserve">
<style type="text/css">
	.st0{fill:#04202A;}
	.st1{fill:#C9D1D9;}
	.st2{fill:#E2574C;}
	.st3{fill:#E5685E;}
	.st4{fill:#ABADAF;}
	.st5{fill:#3E525C;}
	.st6{fill:#E1E5E7;}
	.st7{fill:#BCBDBE;}
	.st8{fill:#CFD1D3;}
	.st9{fill:#CACED0;}
	.st10{fill:#B5B6B7;}
	.st11{fill:#BCBEC0;}
	.st12{fill:#475F6C;}
</style>
<g>
	<path class="st0" d="M75,507c-38.6,0-70-31.4-70-70V75C5,36.4,36.4,5,75,5h362c38.6,0,70,31.4,70,70v362c0,38.6-31.4,70-70,70H75z"
		/>
	<path class="st1" d="M437,10c35.8,0,65,29.2,65,65v362c0,35.8-29.2,65-65,65H75c-35.8,0-65-29.2-65-65V75c0-35.8,29.2-65,65-65H437
		 M437,0H75C33.6,0,0,33.6,0,75v362c0,41.4,33.6,75,75,75h362c41.4,0,75-33.6,75-75V75C512,33.6,478.4,0,437,0L437,0z"/>
</g>
<path class="st2" d="M256,81c-96.6,0-175,78.3-175,175c0,96.6,78.4,175,175,175s175-78.4,175-175C431,159.3,352.6,81,256,81z"/>
<path class="st3" d="M329.2,97.1C306.9,86.8,282.1,81,256,81s-50.9,5.8-73.2,16.1l-55.5,277.5c32,34.7,77.7,56.4,128.6,56.5h0.3
	c50.9,0,96.6-21.8,128.6-56.5C384.7,374.5,329.2,97.1,329.2,97.1z"/>
<path class="st4" d="M245.5,375h21v56h-21V375z"/>
<path class="st5" d="M277,354v10.5c0,5.8-4.7,10.5-10.5,10.5h-21c-5.8,0-10.5-4.7-10.5-10.5V354H277z"/>
<path class="st6" d="M228,158h56c19.3,0,35,15.7,35,35v126c0,19.3-15.7,35-35,35h-56c-19.3,0-35-15.7-35-35V193
	C193,173.7,208.7,158,228,158z"/>
<g>
	<path class="st7" d="M291,263h-70c-3.9,0-7,3.1-7,7s3.1,7,7,7h70c3.9,0,7-3.1,7-7S294.9,263,291,263z M291,207h-70
		c-3.9,0-7,3.1-7,7s3.1,7,7,7h70c3.9,0,7-3.1,7-7S294.9,207,291,207z M284,186c3.9,0,7-3.1,7-7v-20.3c-2.3-0.5-4.6-0.7-7-0.7h-7v21
		C277,182.9,280.1,186,284,186z M291,305c3.9,0,7-3.1,7-7s-3.1-7-7-7h-70c-3.9,0-7,3.1-7,7s3.1,7,7,7H291z M291,235h-70
		c-3.9,0-7,3.1-7,7s3.1,7,7,7h70c3.9,0,7-3.1,7-7S294.9,235,291,235z M291,333c0-3.9-3.1-7-7-7s-7,3.1-7,7v21h7c2.4,0,4.7-0.2,7-0.7
		V333z M256,186c3.9,0,7-3.1,7-7v-21h-14v21C249,182.9,252.1,186,256,186z M257.8,326h-3.5c-2.9,0-5.2,2.4-5.2,5.2V354h14v-22.8
		C263,328.3,260.6,326,257.8,326z M228,326c-3.9,0-7,3.1-7,7v20.3c2.3,0.5,4.6,0.7,7,0.7h7v-21C235,329.1,231.9,326,228,326z
		 M221,179c0,3.9,3.1,7,7,7s7-3.1,7-7v-21h-7c-2.4,0-4.7,0.2-7,0.7V179z"/>
</g>
<path class="st8" d="M245.5,207h21v14h-21V207z M245.5,235h21v14h-21V235z M245.5,263h21v14h-21V263z M245.5,291h21v14h-21V291z"/>
<path class="st9" d="M284,340h-56c-19.3,0-35-15.7-35-35v14c0,19.3,15.7,35,35,35h56c19.3,0,35-15.7,35-35v-14
	C319,324.3,303.3,340,284,340z"/>
<path class="st10" d="M228,340c-2.4,0-4.7-0.2-7-0.7v14c1.1,0.2,2.3,0.4,3.4,0.5c1.2,0.1,2.4,0.2,3.6,0.2h7v-14
	C235,340,228,340,228,340z M249,340h14v14h-14V340z M291,353.3v-14c-2.3,0.5-4.6,0.7-7,0.7h-7v14h7c1.2,0,2.4-0.1,3.6-0.2
	C288.7,353.7,289.9,353.5,291,353.3z"/>
<path class="st11" d="M245.5,385.5h21V431h-21V385.5z"/>
<path class="st12" d="M277,361v3.5c0,5.8-4.7,10.5-10.5,10.5h-21c-5.8,0-10.5-4.7-10.5-10.5V361H277z"/>
</svg>
