<?xml version="1.0" encoding="iso-8859-1"?>
<!-- Generator: Adobe Illustrator 19.0.0, SVG Export Plug-In . SVG Version: 6.00 Build 0)  -->
<svg version="1.1" id="Layer_1" xmlns="http://www.w3.org/2000/svg" xmlns:xlink="http://www.w3.org/1999/xlink" x="0px" y="0px"
	 viewBox="0 0 512 512" style="enable-background:new 0 0 512 512;" xml:space="preserve">
<g>
	<path style="fill:#E8E8E8;" d="M256,407.577c-3.365-8.945-30.914-45.506-30.914-45.506l-72.921-106.728
		c-6.682-13.165-22.771-18.42-35.936-11.738c-2.347,1.191-4.44,2.682-6.26,4.401l-15.42-130.872
		c-1.729-14.662-15.013-25.148-29.676-23.419c-14.662,1.728-25.147,15.013-23.419,29.676l14.238,110.508
		c3.4,26.388,12.09,51.82,25.55,74.77l76.655,108.971c4.521,6.993,7.904,14.658,10.025,22.711v42.101
		c3.76,14.274,18.217,19.348,32.878,19.348H256v-27.279V407.577z"/>
	<path style="fill:#E8E8E8;" d="M256,407.577c3.366-8.945,30.914-45.506,30.914-45.506l72.921-106.728
		c6.681-13.165,22.771-18.42,35.936-11.738c2.347,1.191,4.44,2.682,6.26,4.401l15.42-130.873
		c1.729-14.662,15.013-25.148,29.676-23.419c14.662,1.728,25.147,15.013,23.419,29.676l-14.238,110.508
		c-3.4,26.388-12.09,51.82-25.55,74.77l-76.655,108.971c-4.521,6.993-7.904,14.658-10.025,22.711v42.101
		c-3.76,14.275-18.217,19.349-32.878,19.349H256v-27.279V407.577z"/>
</g>
<polygon style="fill:#F07057;" points="340.129,73.808 256,10.199 171.872,73.808 171.872,213.338 340.129,213.338 "/>
<rect x="227.616" y="124.644" style="fill:#84B3D2;" width="56.762" height="88.695"/>
<path d="M311.2,512c22.318,0,38.295-10.075,42.741-26.949c0.223-0.849,0.337-1.722,0.337-2.599v-40.735
	c1.843-6.507,4.627-12.684,8.287-18.378L439.1,314.537c0.162-0.229,0.314-0.466,0.456-0.708
	c14.232-24.267,23.272-50.721,26.868-78.627l14.238-110.509c0.005-0.037,0.009-0.073,0.014-0.109
	c1.155-9.796-1.576-19.457-7.687-27.2c-6.11-7.743-14.871-12.643-24.669-13.797c-20.226-2.386-38.613,12.132-40.999,32.356
	l-13.66,115.936c-6.987-1.978-14.401-1.846-21.457,0.46c-9.151,2.988-16.631,9.28-21.136,17.757l-72.444,106.029
	c-4.347,5.772-14.723,19.708-22.626,31.539c-7.903-11.831-18.279-25.766-22.626-31.539l-72.443-106.03
	c-4.505-8.477-11.985-14.767-21.136-17.757c-7.057-2.305-14.471-2.44-21.457-0.46l-13.66-115.938
	c-2.386-20.222-20.769-34.741-40.999-32.354c-9.796,1.155-18.557,6.054-24.669,13.797s-8.842,17.404-7.687,27.2
	c0.005,0.037,0.009,0.073,0.014,0.109l14.238,110.509c3.595,27.906,12.636,54.36,26.868,78.627c0.143,0.242,0.294,0.478,0.456,0.708
	l76.536,108.802c3.659,5.694,6.444,11.871,8.287,18.378v40.735c0,0.877,0.113,1.75,0.337,2.599
	C162.505,501.925,178.482,512,200.8,512H311.2z M178.121,480.943V440.35c0-0.876-0.112-1.749-0.337-2.597
	c-2.399-9.111-6.208-17.741-11.323-25.65c-0.071-0.112-0.147-0.222-0.223-0.33L89.829,303.151
	c-12.714-21.788-20.797-45.524-24.022-70.555l-14.23-110.45c-0.502-4.369,0.721-8.673,3.446-12.127
	c2.736-3.466,6.657-5.66,11.043-6.177c9.066-1.061,17.287,5.432,18.353,14.484l14.914,126.586
	c-7.83,10.374-9.909,24.532-4.321,37.173c0.266,0.603,0.55,1.2,0.851,1.794c0.192,0.379,0.407,0.746,0.646,1.098l29.221,43.297
	c1.972,2.919,5.187,4.495,8.463,4.495c1.963,0,3.947-0.566,5.696-1.746c4.669-3.152,5.9-9.49,2.749-14.16l-28.826-42.71
	c-0.049-0.106-0.098-0.212-0.145-0.317c-3.474-7.864-0.308-17.035,7.192-21.144c3.937-1.992,8.411-2.336,12.602-0.967
	c4.198,1.371,7.61,4.295,9.609,8.233c0.199,0.394,0.424,0.773,0.673,1.138l72.921,106.728c0.089,0.13,0.182,0.258,0.276,0.383
	c11.814,15.679,25.416,34.961,28.861,41.556v81.837H200.8C193.634,491.601,181.415,490.184,178.121,480.943z M460.424,122.146
	l-14.23,110.449c-3.225,25.031-11.308,48.766-24.022,70.555l-76.409,108.622c-0.077,0.108-0.151,0.218-0.223,0.33
	c-5.115,7.909-8.924,16.54-11.323,25.65c-0.224,0.848-0.337,1.721-0.337,2.597v40.593c-3.293,9.241-15.513,10.658-22.679,10.658
	h-45.001v-81.835c3.445-6.595,17.047-25.876,28.861-41.557c0.095-0.125,0.188-0.254,0.276-0.383l72.921-106.728
	c0.249-0.364,0.474-0.745,0.673-1.138c1.999-3.938,5.411-6.862,9.609-8.233c4.192-1.369,8.668-1.025,12.601,0.967
	c7.499,4.109,10.666,13.28,7.195,21.14c-0.048,0.107-0.097,0.214-0.147,0.321l-28.826,42.71c-3.152,4.669-1.921,11.008,2.749,14.16
	c1.749,1.181,3.733,1.746,5.696,1.746c3.275,0,6.493-1.575,8.463-4.495l29.221-43.297c0.238-0.353,0.453-0.719,0.646-1.098
	c0.301-0.594,0.584-1.191,0.853-1.798c5.586-12.639,3.506-26.796-4.323-37.169l14.914-126.585
	c1.068-9.054,9.283-15.55,18.353-14.486c4.386,0.517,8.307,2.711,11.043,6.177C459.703,113.474,460.926,117.778,460.424,122.146z"/>
<path d="M340.128,223.538c5.632,0,10.199-4.566,10.199-10.199V73.808c0-3.196-1.498-6.207-4.048-8.136L262.151,2.064
	c-3.639-2.752-8.663-2.752-12.303,0L165.72,65.673c-2.55,1.928-4.048,4.939-4.048,8.136v139.53c0,5.633,4.567,10.199,10.199,10.199
	L340.128,223.538L340.128,223.538z M237.819,203.14v-68.297h36.362v68.297H237.819z M182.071,78.883L256,22.985l73.929,55.898
	V203.14H294.58v-78.496c0-5.633-4.567-10.199-10.199-10.199H227.62c-5.632,0-10.199,4.566-10.199,10.199v78.496h-35.349
	L182.071,78.883L182.071,78.883z"/>
<path d="M284.558,408.988c-5.632,0-10.199,4.566-10.199,10.199v2.04c0,5.633,4.567,10.199,10.199,10.199
	c5.632,0,10.199-4.566,10.199-10.199v-2.04C294.757,413.554,290.191,408.988,284.558,408.988z"/>
<path d="M284.558,440.605c-5.632,0-10.199,4.566-10.199,10.199v24.478c0,5.633,4.567,10.199,10.199,10.199
	c5.632,0,10.199-4.566,10.199-10.199v-24.478C294.757,445.171,290.191,440.605,284.558,440.605z"/>
<g>
</g>
<g>
</g>
<g>
</g>
<g>
</g>
<g>
</g>
<g>
</g>
<g>
</g>
<g>
</g>
<g>
</g>
<g>
</g>
<g>
</g>
<g>
</g>
<g>
</g>
<g>
</g>
<g>
</g>
</svg>
