<?xml version="1.0" encoding="utf-8"?>
<!-- Generator: Adobe Illustrator 27.0.1, SVG Export Plug-In . SVG Version: 6.00 Build 0)  -->
<svg version="1.1" id="Layer_1" xmlns="http://www.w3.org/2000/svg" xmlns:xlink="http://www.w3.org/1999/xlink" x="0px" y="0px"
	 viewBox="0 0 512 512" style="enable-background:new 0 0 512 512;" xml:space="preserve">
<style type="text/css">
	.st0{fill:#A2CB78;}
	.st1{fill:#C9D1D9;}
	.st2{fill:#E8E8E8;}
	.st3{fill:#F07057;}
	.st4{fill:#84B3D2;}
</style>
<g>
	<path class="st0" d="M75,507c-38.6,0-70-31.4-70-70V75C5,36.4,36.4,5,75,5h362c38.6,0,70,31.4,70,70v362c0,38.6-31.4,70-70,70H75z"
		/>
	<path class="st1" d="M437,10c35.8,0,65,29.2,65,65v362c0,35.8-29.2,65-65,65H75c-35.8,0-65-29.2-65-65V75c0-35.8,29.2-65,65-65H437
		 M437,0H75C33.6,0,0,33.6,0,75v362c0,41.4,33.6,75,75,75h362c41.4,0,75-33.6,75-75V75C512,33.6,478.4,0,437,0L437,0z"/>
</g>
<g>
	<path class="st2" d="M256,373.9c-2.6-7-24.1-35.4-24.1-35.4l-56.7-83c-5.2-10.2-17.7-14.3-28-9.1c-1.8,0.9-3.5,2.1-4.9,3.4
		l-12-101.8c-1.3-11.4-11.7-19.6-23.1-18.2c-11.4,1.3-19.6,11.7-18.2,23.1l11.1,86c2.6,20.5,9.4,40.3,19.9,58.2l59.6,84.8
		c3.5,5.4,6.1,11.4,7.8,17.7v32.8c2.9,11.1,14.2,15.1,25.6,15.1H256V426V373.9z"/>
	<path class="st2" d="M256,373.9c2.6-7,24.1-35.4,24.1-35.4l56.7-83c5.2-10.2,17.7-14.3,28-9.1c1.8,0.9,3.5,2.1,4.9,3.4l12-101.8
		c1.3-11.4,11.7-19.6,23.1-18.2c11.4,1.3,19.6,11.7,18.2,23.1l-11.1,86c-2.6,20.5-9.4,40.3-19.9,58.2l-59.6,84.8
		c-3.5,5.4-6.1,11.4-7.8,17.7v32.8c-2.9,11.1-14.2,15.1-25.6,15.1H256V426V373.9z"/>
</g>
<polygon class="st3" points="321.5,114.3 256,64.8 190.5,114.3 190.5,222.8 321.5,222.8 "/>
<rect x="233.9" y="153.8" class="st4" width="44.2" height="69"/>
<path d="M298.9,455.2c17.4,0,29.8-7.8,33.3-21c0.2-0.7,0.3-1.3,0.3-2v-31.7c1.4-5.1,3.6-9.9,6.4-14.3l59.5-84.6
	c0.1-0.2,0.2-0.4,0.4-0.6c11.1-18.9,18.1-39.5,20.9-61.2l11.1-86c0,0,0-0.1,0-0.1c0.9-7.6-1.2-15.1-6-21.2
	c-4.8-6-11.6-9.8-19.2-10.7c-15.7-1.9-30,9.4-31.9,25.2l-10.6,90.2c-5.4-1.5-11.2-1.4-16.7,0.4c-7.1,2.3-12.9,7.2-16.4,13.8
	l-56.4,82.5c-3.4,4.5-11.5,15.3-17.6,24.5c-6.1-9.2-14.2-20-17.6-24.5L182,251.4c-3.5-6.6-9.3-11.5-16.4-13.8
	c-5.5-1.8-11.3-1.9-16.7-0.4L138.3,147c-1.9-15.7-16.2-27-31.9-25.2c-7.6,0.9-14.4,4.7-19.2,10.7c-4.8,6-6.9,13.5-6,21.2
	c0,0,0,0.1,0,0.1l11.1,86c2.8,21.7,9.8,42.3,20.9,61.2c0.1,0.2,0.2,0.4,0.4,0.6l59.5,84.6c2.8,4.4,5,9.2,6.4,14.3v31.7
	c0,0.7,0.1,1.4,0.3,2c3.5,13.1,15.9,21,33.3,21H298.9z M195.4,431v-31.6c0-0.7-0.1-1.4-0.3-2c-1.9-7.1-4.8-13.8-8.8-20
	c-0.1-0.1-0.1-0.2-0.2-0.3l-59.4-84.5c-9.9-17-16.2-35.4-18.7-54.9L97,151.9c-0.4-3.4,0.6-6.7,2.7-9.4c2.1-2.7,5.2-4.4,8.6-4.8
	c7.1-0.8,13.4,4.2,14.3,11.3l11.6,98.5c-6.1,8.1-7.7,19.1-3.4,28.9c0.2,0.5,0.4,0.9,0.7,1.4c0.1,0.3,0.3,0.6,0.5,0.9l22.7,33.7
	c1.5,2.3,4,3.5,6.6,3.5c1.5,0,3.1-0.4,4.4-1.4c3.6-2.5,4.6-7.4,2.1-11l-22.4-33.2c0-0.1-0.1-0.2-0.1-0.2c-2.7-6.1-0.2-13.3,5.6-16.4
	c3.1-1.5,6.5-1.8,9.8-0.8c3.3,1.1,5.9,3.3,7.5,6.4c0.2,0.3,0.3,0.6,0.5,0.9l56.7,83c0.1,0.1,0.1,0.2,0.2,0.3
	c9.2,12.2,19.8,27.2,22.5,32.3v63.7h-35C207.5,439.3,198,438.2,195.4,431z M415,151.9L404,237.8c-2.5,19.5-8.8,37.9-18.7,54.9
	l-59.4,84.5c-0.1,0.1-0.1,0.2-0.2,0.3c-4,6.2-6.9,12.9-8.8,20c-0.2,0.7-0.3,1.3-0.3,2V431c-2.6,7.2-12.1,8.3-17.6,8.3h-35v-63.7
	c2.7-5.1,13.3-20.1,22.5-32.3c0.1-0.1,0.1-0.2,0.2-0.3l56.7-83c0.2-0.3,0.4-0.6,0.5-0.9c1.6-3.1,4.2-5.3,7.5-6.4
	c3.3-1.1,6.7-0.8,9.8,0.8c5.8,3.2,8.3,10.3,5.6,16.4c0,0.1-0.1,0.2-0.1,0.2l-22.4,33.2c-2.5,3.6-1.5,8.6,2.1,11
	c1.4,0.9,2.9,1.4,4.4,1.4c2.5,0,5.1-1.2,6.6-3.5l22.7-33.7c0.2-0.3,0.4-0.6,0.5-0.9c0.2-0.5,0.5-0.9,0.7-1.4
	c4.3-9.8,2.7-20.8-3.4-28.9l11.6-98.5c0.8-7,7.2-12.1,14.3-11.3c3.4,0.4,6.5,2.1,8.6,4.8C414.5,145.1,415.4,148.5,415,151.9z"/>
<path d="M321.5,230.7c4.4,0,7.9-3.6,7.9-7.9V114.3c0-2.5-1.2-4.8-3.1-6.3l-65.5-49.5c-2.8-2.1-6.7-2.1-9.6,0l-65.5,49.5
	c-2,1.5-3.1,3.8-3.1,6.3v108.6c0,4.4,3.6,7.9,7.9,7.9H321.5L321.5,230.7z M241.9,214.9v-53.1h28.3v53.1H241.9z M198.5,118.2
	L256,74.7l57.5,43.5v96.7H286v-61.1c0-4.4-3.6-7.9-7.9-7.9h-44.2c-4.4,0-7.9,3.6-7.9,7.9v61.1h-27.5L198.5,118.2L198.5,118.2z"/>
<path d="M278.2,375c-4.4,0-7.9,3.6-7.9,7.9v1.6c0,4.4,3.6,7.9,7.9,7.9c4.4,0,7.9-3.6,7.9-7.9V383C286.2,378.6,282.6,375,278.2,375z"
	/>
<path d="M278.2,399.6c-4.4,0-7.9,3.6-7.9,7.9v19c0,4.4,3.6,7.9,7.9,7.9c4.4,0,7.9-3.6,7.9-7.9v-19
	C286.2,403.2,282.6,399.6,278.2,399.6z"/>
</svg>
