<?xml version="1.0" encoding="utf-8"?>
<!-- Generator: Adobe Illustrator 27.0.1, SVG Export Plug-In . SVG Version: 6.00 Build 0)  -->
<svg version="1.1" id="Layer_1" xmlns="http://www.w3.org/2000/svg" xmlns:xlink="http://www.w3.org/1999/xlink" x="0px" y="0px"
	 viewBox="0 0 512 512" style="enable-background:new 0 0 512 512;" xml:space="preserve">
<style type="text/css">
	.st0{fill:#00599E;}
	.st1{fill:#C9D1D9;}
	.st2{fill:#2D4452;}
	.st3{fill:#FFEEBF;}
	.st4{fill:#FFF1CC;}
	.st5{fill:#E6D9B8;}
	.st6{fill:#F2E2B5;}
</style>
<g>
	<path class="st0" d="M75,507c-38.6,0-70-31.4-70-70V75C5,36.4,36.4,5,75,5h362c38.6,0,70,31.4,70,70v362c0,38.6-31.4,70-70,70H75z"
		/>
	<path class="st1" d="M437,10c35.8,0,65,29.2,65,65v362c0,35.8-29.2,65-65,65H75c-35.8,0-65-29.2-65-65V75c0-35.8,29.2-65,65-65H437
		 M437,0H75C33.6,0,0,33.6,0,75v362c0,41.4,33.6,75,75,75h362c41.4,0,75-33.6,75-75V75C512,33.6,478.4,0,437,0L437,0z"/>
</g>
<circle class="st2" cx="256" cy="256" r="175"/>
<path class="st3" d="M139.5,217.7c-11.2,0-14.8,3.3-14.8,14.2v139.8c16.5,18.7,37,33.9,60.2,44.2V217.7H139.5z"/>
<path class="st4" d="M410.6,174H208.4c-11.2,0-15.3,5-15.3,15.9v27.9v201.6c19.5,7.5,40.7,11.7,62.9,11.7c18.5,0,36.3-2.9,53.1-8.2
	H215v-8.2h115c3.6-1.7,7.2-3.5,10.7-5.5H215v-8.2h139.2c3.8-2.6,7.5-5.3,11.1-8.2H215v-8.2h159.8c2.9-2.6,5.6-5.4,8.3-8.2H215v-5.5
	h173c2.3-2.7,4.6-5.4,6.7-8.2H215v-8.2h185.7c1.8-2.7,3.6-5.4,5.3-8.2H215V338h195.6c13-24.5,20.4-52.4,20.4-82
	S423.6,198.4,410.6,174z M316.2,324.4H215v-8.2h101.2V324.4z M316.2,308H215v-8.2h101.2V308z M316.2,294.3H215v-8.2h101.2V294.3z
	 M316.2,277.9H215v-8.2h101.2V277.9z M316.2,261.5H215V256h101.2V261.5z M411.9,324.4h-84.8v-76.6h84.8V324.4z M215,228.7v-27.3
	h196.9v27.3H215z"/>
<rect x="327.1" y="247.8" class="st5" width="84.8" height="76.6"/>
<path class="st6" d="M184.9,217.7v198.2c2.7,1.2,5.4,2.3,8.2,3.4V217.7H184.9z"/>
<g>
	<rect x="215" y="201.3" class="st5" width="196.9" height="27.3"/>
	<rect x="215" y="256" class="st5" width="101.2" height="5.5"/>
	<rect x="215" y="269.7" class="st5" width="101.2" height="8.2"/>
	<rect x="215" y="286.1" class="st5" width="101.2" height="8.2"/>
	<rect x="215" y="299.8" class="st5" width="101.2" height="8.2"/>
	<rect x="215" y="316.2" class="st5" width="101.2" height="8.2"/>
	<path class="st5" d="M215,346.2h191c1.6-2.7,3.2-5.4,4.6-8.2H215V346.2z"/>
	<path class="st5" d="M215,362.6h179.8c2.1-2.7,4.1-5.4,6-8.2H215V362.6z"/>
	<path class="st5" d="M215,376.3H383c1.7-1.8,3.3-3.6,5-5.5H215V376.3z"/>
	<path class="st5" d="M215,392.7h150.2c3.3-2.6,6.5-5.4,9.6-8.2H215V392.7z"/>
	<path class="st5" d="M215,409.1h125.8c4.6-2.5,9.1-5.3,13.4-8.2H215V409.1z"/>
	<path class="st5" d="M215,422.8h94.1c7.2-2.3,14.2-5,21-8.2H215V422.8z"/>
</g>
</svg>
