<?xml version="1.0" encoding="iso-8859-1"?>
<!-- Generator: Adobe Illustrator 19.0.0, SVG Export Plug-In . SVG Version: 6.00 Build 0)  -->
<svg version="1.1" id="Layer_1" xmlns="http://www.w3.org/2000/svg" xmlns:xlink="http://www.w3.org/1999/xlink" x="0px" y="0px"
	 viewBox="0 0 512 512" style="enable-background:new 0 0 512 512;" xml:space="preserve">
<circle style="fill:#2D4452;" cx="256" cy="256" r="256"/>
<path style="fill:#FFEEBF;" d="M85.6,200c-16.42,0-21.6,4.86-21.6,20.8v204.484c24.192,27.416,54.152,49.584,88,64.648V200H85.6z"/>
<path style="fill:#FFF1CC;" d="M482.164,136H186.4c-16.416,0-22.4,7.264-22.4,23.2V200v294.912c28.56,11,59.56,17.088,92,17.088
	c27.06,0,53.124-4.224,77.608-12H196v-12h168.276c5.336-2.496,10.576-5.156,15.708-8H196v-12h203.568
	c5.568-3.776,10.948-7.808,16.192-12H196v-12h233.74c4.176-3.86,8.196-7.872,12.108-12H196v-8h253.112
	c3.396-3.9,6.684-7.896,9.844-12H196v-12h271.696c2.672-3.924,5.24-7.924,7.696-12H196v-12h286.164
	C501.184,340.212,512,299.388,512,256S501.184,171.788,482.164,136z M344,356H196v-12h148V356z M344,332H196v-12h148V332z M344,312
	H196v-12h148V312z M344,288H196v-12h148V288z M344,264H196v-8h148V264z M484,356H360V244h124V356z M196,216v-40h288v40H196z"/>
<rect x="360" y="244" style="fill:#E6D9B8;" width="124" height="112"/>
<path style="fill:#F2E2B5;" d="M152,200v289.932c3.948,1.756,7.948,3.42,12,4.98V200H152z"/>
<g>
	<rect x="196" y="176" style="fill:#E6D9B8;" width="288" height="40"/>
	<rect x="196" y="256" style="fill:#E6D9B8;" width="148" height="8"/>
	<rect x="196" y="276" style="fill:#E6D9B8;" width="148" height="12"/>
	<rect x="196" y="300" style="fill:#E6D9B8;" width="148" height="12"/>
	<rect x="196" y="320" style="fill:#E6D9B8;" width="148" height="12"/>
	<rect x="196" y="344" style="fill:#E6D9B8;" width="148" height="12"/>
	<path style="fill:#E6D9B8;" d="M196,388h279.396c2.368-3.928,4.612-7.936,6.768-12H196V388z"/>
	<path style="fill:#E6D9B8;" d="M196,412h262.956c3.016-3.92,5.952-7.904,8.744-12H196V412z"/>
	<path style="fill:#E6D9B8;" d="M196,432h245.848c2.476-2.616,4.9-5.28,7.264-8H196V432z"/>
	<path style="fill:#E6D9B8;" d="M196,456h219.756c4.8-3.84,9.472-7.832,13.984-12H196V456z"/>
	<path style="fill:#E6D9B8;" d="M196,480h183.984c6.712-3.724,13.26-7.708,19.584-12H196V480z"/>
	<path style="fill:#E6D9B8;" d="M196,500h137.608c10.54-3.348,20.772-7.376,30.668-12H196V500z"/>
</g>
<g>
</g>
<g>
</g>
<g>
</g>
<g>
</g>
<g>
</g>
<g>
</g>
<g>
</g>
<g>
</g>
<g>
</g>
<g>
</g>
<g>
</g>
<g>
</g>
<g>
</g>
<g>
</g>
<g>
</g>
</svg>
