<?xml version="1.0" encoding="utf-8"?>
<!-- Generator: Adobe Illustrator 27.0.1, SVG Export Plug-In . SVG Version: 6.00 Build 0)  -->
<svg version="1.1" id="Capa_1" xmlns="http://www.w3.org/2000/svg" xmlns:xlink="http://www.w3.org/1999/xlink" x="0px" y="0px"
	 viewBox="0 0 512 512" style="enable-background:new 0 0 512 512;" xml:space="preserve">
<style type="text/css">
	.st0{fill:#315CA8;}
	.st1{fill:#C9D1D9;}
	.st2{fill:#FBB03B;}
	.st3{fill:none;stroke:#FBB03B;stroke-width:1.5;stroke-linecap:round;}
	.st4{fill:none;stroke:#E1503C;stroke-width:1.5;stroke-linecap:round;}
	.st5{fill:none;stroke:#000000;stroke-width:1.5;stroke-linecap:round;}
	.st6{fill:none;stroke:#000000;stroke-width:2;stroke-linecap:round;stroke-linejoin:round;}
	.st7{stroke:#FFFFFF;stroke-width:2;stroke-miterlimit:10;}
</style>
<g>
	<g>
		<path class="st0" d="M75,507c-38.6,0-70-31.4-70-70V75C5,36.4,36.4,5,75,5h362c38.6,0,70,31.4,70,70v362c0,38.6-31.4,70-70,70H75z
			"/>
		<path class="st1" d="M437,10c17.3,0,33.5,6.8,45.9,19.1C495.2,41.5,502,57.7,502,75v362c0,17.3-6.8,33.5-19.1,45.9
			C470.5,495.2,454.3,502,437,502H75c-17.3,0-33.5-6.8-45.9-19.1C16.8,470.5,10,454.3,10,437V75c0-17.3,6.8-33.5,19.1-45.9
			C41.5,16.8,57.7,10,75,10H437 M437,0H75C33.8,0,0,33.8,0,75v362c0,41.2,33.8,75,75,75h362c41.2,0,75-33.8,75-75V75
			C512,33.8,478.2,0,437,0L437,0z"/>
	</g>
</g>
<polyline points="292.1,350.5 292.1,418.5 212.9,418.5 212.9,350.5 "/>
<polygon points="269.9,438.4 237.6,438.4 225.7,417.6 281.8,417.6 "/>
<path class="st2" d="M252.3,358.5c54.8,0,99.3-44.5,99.3-99.3s-44.5-99.3-99.3-99.3S153,204.3,153,259.2l0,0
	C153,314,197.5,358.5,252.3,358.5z"/>
<path class="st3" d="M252.3,139.3v14.2"/>
<path class="st3" d="M103.3,259.2h14.2"/>
<path class="st4" d="M119.1,315.1l13.2-5.1"/>
<path class="st3" d="M372.2,379.1l-24.6-24.6"/>
<path class="st3" d="M420.9,259.2h-33.8"/>
<path class="st3" d="M83.7,259.2h33.8"/>
<path class="st4" d="M394.3,321.6l-13-5.7"/>
<path class="st3" d="M132.4,379.1l24.6-24.6"/>
<path class="st5" d="M262.7,371v-70.6l15.6-15.6l15.6,15.6L278.4,316h-52.1l-15.6-15.6l15.6-15.6l15.6,15.6V371"/>
<path d="M360.1,138.2v75.1c0,0-33.9,37.6-107.3,37.6s-107.3-37.6-107.3-37.6v-75.1"/>
<path class="st6" d="M422.1,203.4v-69.9"/>
<path class="st7" d="M248.5,67.2L81.6,120.8l166.9,53.6l183.1-53.7L248.5,67.2z"/>
<path class="st4" d="M116.4,202.1l13,5.7"/>
<path class="st4" d="M395.2,202.4l-13.2,5.1"/>
<line class="st4" x1="279.4" y1="371.8" x2="224.8" y2="379.8"/>
<line class="st4" x1="279.4" y1="384.4" x2="224.8" y2="392.4"/>
<line class="st4" x1="279.4" y1="397.1" x2="224.8" y2="405"/>
</svg>
