<?xml version="1.0" encoding="utf-8"?>
<!-- Generator: Adobe Illustrator 27.0.1, SVG Export Plug-In . SVG Version: 6.00 Build 0)  -->
<svg version="1.1" id="Capa_1" xmlns="http://www.w3.org/2000/svg" xmlns:xlink="http://www.w3.org/1999/xlink" x="0px" y="0px"
	 viewBox="0 0 200 200" style="enable-background:new 0 0 200 200;" xml:space="preserve">
<style type="text/css">
	.st0{fill:#315CA8;}
	.st1{fill:#FBB03B;}
	.st2{fill:none;stroke:#FBB03B;stroke-width:1.5;stroke-linecap:round;}
	.st3{fill:none;stroke:#E1503C;stroke-width:1.5;stroke-linecap:round;}
	.st4{fill:none;stroke:#000000;stroke-width:1.5;stroke-linecap:round;}
	.st5{fill:none;stroke:#000000;stroke-width:2;stroke-linecap:round;stroke-linejoin:round;}
	.st6{stroke:#FFFFFF;stroke-width:2;stroke-miterlimit:10;}
</style>
<rect class="st0" width="200" height="200"/>
<polyline points="117.2,142.5 117.2,174.3 80.2,174.3 80.2,142.5 "/>
<polygon points="106.9,183.6 91.7,183.6 86.1,173.9 112.4,173.9 "/>
<path class="st1" d="M98.6,146.3c25.7,0,46.5-20.8,46.5-46.5c0-25.7-20.8-46.5-46.5-46.5c-25.7,0-46.5,20.8-46.5,46.5c0,0,0,0,0,0
	C52.1,125.4,72.9,146.3,98.6,146.3z"/>
<path class="st2" d="M98.6,43.7v6.6"/>
<path class="st2" d="M28.9,99.8h6.6"/>
<path class="st3" d="M36.3,126l6.2-2.4"/>
<path class="st2" d="M154.7,155.9l-11.5-11.5"/>
<path class="st2" d="M177.5,99.8h-15.8"/>
<path class="st2" d="M19.7,99.8h15.8"/>
<path class="st3" d="M165,129l-6.1-2.7"/>
<path class="st2" d="M42.5,155.9L54,144.4"/>
<path class="st4" d="M103.5,152.1v-33l7.3-7.3l7.3,7.3l-7.3,7.3H86.4l-7.3-7.3l7.3-7.3l7.3,7.3v33"/>
<path d="M149,43.2v35.2c0,0-15.9,17.6-50.2,17.6S48.7,78.3,48.7,78.3V43.2"/>
<path class="st5" d="M178,73.7V41"/>
<path class="st6" d="M96.8,10L18.7,35l78.1,25.1L182.5,35L96.8,10z"/>
<path class="st3" d="M35,73.1l6.1,2.7"/>
<path class="st3" d="M165.5,73.2l-6.2,2.4"/>
<line class="st3" x1="111.3" y1="152.5" x2="85.7" y2="156.2"/>
<line class="st3" x1="111.3" y1="158.4" x2="85.7" y2="162.1"/>
<line class="st3" x1="111.3" y1="164.3" x2="85.7" y2="168"/>
</svg>
