<?xml version="1.0" encoding="utf-8"?>
<!-- Generator: Adobe Illustrator 27.0.1, SVG Export Plug-In . SVG Version: 6.00 Build 0)  -->
<svg version="1.1" id="Layer_1" xmlns="http://www.w3.org/2000/svg" xmlns:xlink="http://www.w3.org/1999/xlink" x="0px" y="0px"
	 viewBox="0 0 512 512" style="enable-background:new 0 0 512 512;" xml:space="preserve">
<style type="text/css">
	.st0{fill:#C91517;}
	.st1{fill:#C9D1D9;}
	.st2{fill:#4EFFBB;}
	.st3{fill:#302C58;}
	.st4{fill:#222051;}
</style>
<g>
	<path class="st0" d="M75,507c-38.6,0-70-31.4-70-70V75C5,36.4,36.4,5,75,5h362c38.6,0,70,31.4,70,70v362c0,38.6-31.4,70-70,70H75z"
		/>
	<path class="st1" d="M437,10c35.8,0,65,29.2,65,65v362c0,35.8-29.2,65-65,65H75c-35.8,0-65-29.2-65-65V75c0-35.8,29.2-65,65-65H437
		 M437,0H75C33.6,0,0,33.6,0,75v362c0,41.4,33.6,75,75,75h362c41.4,0,75-33.6,75-75V75C512,33.6,478.4,0,437,0L437,0z"/>
</g>
<g>
	<g>
		<g>
			<path class="st2" d="M430.8,410.4l-5.6-41.9c-1.3-9.9-9.9-17.4-19.9-17.4h-43.8c-10,0-18.5,7.4-19.9,17.4l-5.6,41.9
				c-0.8,5.8,0.9,11.6,4.7,15.9c3.9,4.4,9.4,6.9,15.1,6.9h55.2c5.8,0,11.3-2.5,15.1-6.9C429.8,422,431.6,416.2,430.8,410.4z"/>
			<path class="st2" d="M382.8,347.9c19,0,34.4-15.4,34.4-34.4c0-19-15.4-34.4-34.4-34.4c-19,0-34.4,15.4-34.4,34.4
				C348.4,332.4,363.8,347.9,382.8,347.9z"/>
			<path class="st2" d="M314.4,199.1c-1.3-9.9-9.9-17.4-19.9-17.4h-43.8c-10,0-18.5,7.5-19.9,17.4l-5.6,41.9
				c-0.8,5.7,0.9,11.6,4.7,15.9c3.9,4.4,9.4,6.9,15.1,6.9h55.2c5.8,0,11.3-2.5,15.1-6.9c3.8-4.3,5.6-10.2,4.8-15.9L314.4,199.1z"/>
			<path class="st2" d="M281.8,332.7v-49.5c0-4.9-4-9-9-9c-4.9,0-9,4-9,9v49.3L227.4,369c-3.5,3.5-3.5,9.2,0,12.7
				c1.7,1.7,4,2.6,6.3,2.6s4.6-0.9,6.4-2.6l32.6-32.6l31.7,34.2c1.8,1.9,4.2,2.9,6.6,2.9c2.2,0,4.4-0.8,6.1-2.4
				c3.6-3.4,3.9-9,0.5-12.7L281.8,332.7z"/>
			<path class="st2" d="M272,178.5c19,0,34.4-15.4,34.4-34.4s-15.4-34.4-34.4-34.4S237.6,125,237.6,144S253,178.5,272,178.5z"/>
			<path class="st2" d="M201.3,368.6c-1.3-9.9-9.9-17.4-19.9-17.4h-43.8c-10,0-18.5,7.4-19.9,17.4l-5.6,41.9
				c-0.8,5.8,0.9,11.6,4.7,15.9c3.9,4.4,9.4,6.9,15.1,6.9h55.2c5.8,0,11.3-2.5,15.1-6.9c3.8-4.3,5.6-10.1,4.8-15.9L201.3,368.6z"/>
			<path class="st2" d="M158.9,347.9c19,0,34.4-15.4,34.4-34.4c0-19-15.4-34.4-34.4-34.4s-34.4,15.4-34.4,34.4
				C124.5,332.4,139.9,347.9,158.9,347.9z"/>
		</g>
		<g>
			<g id="XMLID_18_">
				<g>
					<path class="st3" d="M352,266.1c9.1,0,16.5,7.4,16.5,16.5c0,9.1-7.4,16.5-16.5,16.5c-9.1,0-16.5-7.4-16.5-16.5
						C335.5,273.5,342.9,266.1,352,266.1z"/>
					<path class="st3" d="M382.2,382c0.1,0.8-0.2,1.4-0.5,1.7c-0.3,0.4-0.8,0.8-1.6,0.8H325c-0.8,0-1.3-0.4-1.6-0.8
						c-0.3-0.3-0.6-0.9-0.5-1.7l5.6-41.9c0.2-1.1,1.1-1.9,2.2-1.9h43.8c1.1,0,2,0.8,2.2,1.8L382.2,382z"/>
					<path class="st3" d="M128.1,266.1c9.1,0,16.5,7.4,16.5,16.5c0,9.1-7.4,16.5-16.5,16.5c-9.1,0-16.5-7.4-16.5-16.5
						C111.6,273.5,119,266.1,128.1,266.1z"/>
					<path class="st3" d="M158.3,382c0.1,0.8-0.2,1.4-0.5,1.7c-0.3,0.4-0.8,0.8-1.6,0.8h-55.2c-0.8,0-1.3-0.4-1.6-0.8
						c-0.3-0.3-0.6-0.9-0.5-1.7l5.6-41.9c0.2-1.1,1.1-1.9,2.2-1.9h43.8c1.1,0,2,0.8,2.2,1.8L158.3,382z"/>
					<path class="st3" d="M241.1,96.7c9.1,0,16.5,7.4,16.5,16.5s-7.4,16.5-16.5,16.5c-9.1,0-16.5-7.4-16.5-16.5
						S232.1,96.7,241.1,96.7z"/>
					<path class="st3" d="M271.4,212.6c0.1,0.8-0.2,1.4-0.5,1.7c-0.3,0.3-0.8,0.7-1.6,0.7h-55.2c-0.8,0-1.3-0.4-1.6-0.7
						c-0.3-0.4-0.6-0.9-0.5-1.7l5.6-41.9c0.2-1.1,1.1-1.9,2.2-1.9h43.8c1.1,0,2,0.8,2.2,1.9L271.4,212.6z"/>
					<path class="st4" d="M400,379.6c0.8,5.8-1,11.6-4.8,15.9c-3.8,4.4-9.3,6.9-15.1,6.9H325c-5.8,0-11.3-2.5-15.1-6.9
						c-3.8-4.3-5.6-10.1-4.7-15.9l5.6-41.9c1.3-9.9,9.9-17.4,19.9-17.4h43.8c10,0,18.6,7.4,19.9,17.4L400,379.6z M381.7,383.7
						c0.3-0.3,0.6-0.9,0.5-1.7l-5.6-41.9c-0.1-1-1.1-1.8-2.2-1.8h-43.8c-1.1,0-2,0.8-2.2,1.9l-5.6,41.9c-0.1,0.8,0.2,1.4,0.5,1.7
						c0.3,0.4,0.8,0.8,1.6,0.8h55.2C380.9,384.5,381.4,384.1,381.7,383.7z"/>
					<path class="st4" d="M352,248.2c19,0,34.4,15.4,34.4,34.4S371,317.1,352,317.1c-19,0-34.4-15.4-34.4-34.4
						C317.6,263.6,333,248.2,352,248.2z M368.5,282.6c0-9.1-7.4-16.5-16.5-16.5c-9.1,0-16.5,7.4-16.5,16.5c0,9.1,7.4,16.5,16.5,16.5
						C361.1,299.1,368.5,291.8,368.5,282.6z"/>
					<path class="st4" d="M289.2,210.2c0.8,5.7-1,11.6-4.8,15.9c-3.8,4.4-9.3,6.9-15.1,6.9h-55.2c-5.8,0-11.3-2.5-15.1-6.9
						c-3.8-4.3-5.6-10.2-4.7-15.9l5.6-41.9c1.3-9.9,9.9-17.4,19.9-17.4h43.8c10,0,18.6,7.5,19.9,17.4L289.2,210.2z M270.9,214.3
						c0.3-0.4,0.6-0.9,0.5-1.7l-5.6-41.9c-0.1-1.1-1.1-1.9-2.2-1.9h-43.8c-1.1,0-2,0.8-2.2,1.9l-5.6,41.9c-0.1,0.8,0.2,1.4,0.5,1.7
						c0.3,0.3,0.8,0.7,1.6,0.7h55.2C270.1,215.1,270.6,214.6,270.9,214.3z"/>
					<path class="st4" d="M286.7,340.3c3.4,3.6,3.1,9.3-0.5,12.7c-1.7,1.6-3.9,2.4-6.1,2.4c-2.4,0-4.8-0.9-6.6-2.9l-31.7-34.2
						l-32.6,32.6c-1.8,1.7-4.1,2.6-6.4,2.6c-2.3,0-4.6-0.9-6.3-2.6c-3.5-3.5-3.5-9.2,0-12.7l36.5-36.5v-49.3c0-4.9,4-9,9-9
						c5,0,9,4,9,9v49.5L286.7,340.3z"/>
					<path class="st4" d="M241.1,78.8c19,0,34.4,15.4,34.4,34.4s-15.4,34.4-34.4,34.4c-19,0-34.4-15.4-34.4-34.4
						S222.2,78.8,241.1,78.8z M257.7,113.2c0-9.1-7.4-16.5-16.5-16.5c-9.1,0-16.5,7.4-16.5,16.5s7.4,16.5,16.5,16.5
						C250.3,129.7,257.7,122.3,257.7,113.2z"/>
					<path class="st4" d="M176.1,379.6c0.8,5.8-1,11.6-4.8,15.9c-3.8,4.4-9.3,6.9-15.1,6.9h-55.2c-5.8,0-11.3-2.5-15.1-6.9
						c-3.8-4.3-5.6-10.1-4.7-15.9l5.6-41.9c1.3-9.9,9.9-17.4,19.9-17.4h43.8c10,0,18.6,7.4,19.9,17.4L176.1,379.6z M157.9,383.7
						c0.3-0.3,0.6-0.9,0.5-1.7l-5.6-41.9c-0.1-1-1.1-1.8-2.2-1.8h-43.8c-1.1,0-2,0.8-2.2,1.9L98.9,382c-0.1,0.8,0.2,1.4,0.5,1.7
						c0.3,0.4,0.8,0.8,1.6,0.8h55.2C157,384.5,157.5,384.1,157.9,383.7z"/>
					<path class="st4" d="M128.1,248.2c19,0,34.4,15.4,34.4,34.4s-15.4,34.4-34.4,34.4s-34.4-15.4-34.4-34.4
						C93.7,263.6,109.1,248.2,128.1,248.2z M144.6,282.6c0-9.1-7.4-16.5-16.5-16.5c-9.1,0-16.5,7.4-16.5,16.5
						c0,9.1,7.4,16.5,16.5,16.5C137.2,299.1,144.6,291.8,144.6,282.6z"/>
				</g>
			</g>
		</g>
	</g>
</g>
</svg>
