<?xml version="1.0" encoding="iso-8859-1"?>
<!-- Generator: Adobe Illustrator 19.0.0, SVG Export Plug-In . SVG Version: 6.00 Build 0)  -->
<svg version="1.1" id="Layer_1" xmlns="http://www.w3.org/2000/svg" xmlns:xlink="http://www.w3.org/1999/xlink" x="0px" y="0px"
	 viewBox="0 0 306.534 306.534" style="enable-background:new 0 0 306.534 306.534;" xml:space="preserve">
<g>
	<g>
		<g>
			<path style="fill:#4EFFBB;" d="M304.471,286.823l-4.881-36.21c-1.163-8.598-8.559-15.026-17.235-15.026h-37.914
				c-8.637,0-16.033,6.428-17.196,15.026l-4.881,36.21c-0.697,4.995,0.814,9.992,4.105,13.749c3.33,3.796,8.093,5.962,13.091,5.962
				h47.714c4.995,0,9.758-2.17,13.052-5.962C303.618,296.815,305.13,291.818,304.471,286.823z"/>
			<path style="fill:#4EFFBB;" d="M262.915,232.72c16.421,0,29.782-13.361,29.782-29.782s-13.361-29.743-29.782-29.743
				s-29.743,13.322-29.743,29.743C233.172,219.358,246.494,232.72,262.915,232.72z"/>
			<path style="fill:#4EFFBB;" d="M203.739,104.065c-1.163-8.559-8.559-15.026-17.235-15.026H148.59
				c-8.637,0-16.033,6.467-17.196,15.065l-4.881,36.21c-0.697,4.959,0.814,9.992,4.105,13.749c3.33,3.796,8.093,5.926,13.091,5.926
				h47.714c4.995,0,9.758-2.131,13.052-5.926c3.291-3.757,4.802-8.79,4.144-13.749L203.739,104.065z"/>
			<path style="fill:#4EFFBB;" d="M175.622,219.59v-42.795c0-4.258-3.447-7.745-7.744-7.745c-4.261,0-7.744,3.486-7.744,7.745
				v42.638L128.53,251.04c-3.02,3.02-3.02,7.94,0,10.96c1.509,1.512,3.486,2.284,5.461,2.284s3.949-0.775,5.5-2.284l28.195-28.195
				l27.42,29.59c1.551,1.665,3.603,2.479,5.692,2.479c1.896,0,3.796-0.658,5.268-2.053c3.137-2.903,3.33-7.823,0.427-10.96
				L175.622,219.59z"/>
			<path style="fill:#4EFFBB;" d="M167.063,86.211c16.421,0,29.782-13.361,29.782-29.782s-13.361-29.782-29.782-29.782
				S137.32,40.009,137.32,56.429S150.642,86.211,167.063,86.211z"/>
			<path style="fill:#4EFFBB;" d="M105.948,250.613c-1.163-8.598-8.559-15.026-17.235-15.026H50.802
				c-8.637,0-16.033,6.428-17.196,15.026l-4.881,36.21c-0.697,4.995,0.814,9.992,4.105,13.749c3.33,3.796,8.093,5.962,13.091,5.962
				h47.714c4.995,0,9.758-2.17,13.052-5.962c3.291-3.757,4.802-8.751,4.144-13.749L105.948,250.613z"/>
			<path style="fill:#4EFFBB;" d="M69.276,232.72c16.421,0,29.782-13.361,29.782-29.782s-13.361-29.743-29.782-29.743
				s-29.743,13.322-29.743,29.743C39.53,219.358,52.855,232.72,69.276,232.72z"/>
		</g>
		<g>
			<g id="XMLID_18_">
				<g>
					<path style="fill:#302C58;" d="M236.268,162.039c7.901,0,14.29,6.389,14.29,14.251c0,7.901-6.389,14.29-14.29,14.29
						c-7.862,0-14.251-6.389-14.251-14.29C222.017,168.429,228.406,162.039,236.268,162.039z"/>
					<path style="fill:#302C58;" d="M262.446,262.267c0.117,0.697-0.153,1.202-0.427,1.473c-0.27,0.31-0.697,0.658-1.394,0.658
						h-47.711c-0.697,0-1.163-0.349-1.394-0.658c-0.27-0.27-0.541-0.775-0.466-1.473l4.881-36.21
						c0.156-0.929,0.929-1.626,1.86-1.626h37.914c0.929,0,1.743,0.697,1.86,1.587L262.446,262.267z"/>
					<path style="fill:#302C58;" d="M42.628,162.039c7.901,0,14.29,6.389,14.29,14.251c0,7.901-6.389,14.29-14.29,14.29
						c-7.862,0-14.251-6.389-14.251-14.29C28.374,168.429,34.766,162.039,42.628,162.039z"/>
					<path style="fill:#302C58;" d="M68.807,262.267c0.117,0.697-0.156,1.202-0.427,1.473c-0.27,0.31-0.697,0.658-1.394,0.658
						H19.274c-0.697,0-1.163-0.349-1.394-0.658c-0.27-0.27-0.541-0.775-0.466-1.473l4.881-36.21c0.156-0.929,0.929-1.626,1.86-1.626
						h37.914c0.929,0,1.743,0.697,1.86,1.587L68.807,262.267z"/>
					<path style="fill:#302C58;" d="M140.416,15.492c7.901,0,14.29,6.428,14.29,14.29s-6.389,14.29-14.29,14.29
						c-7.862,0-14.251-6.428-14.251-14.29S132.554,15.492,140.416,15.492z"/>
					<path style="fill:#302C58;" d="M166.594,115.72c0.117,0.697-0.153,1.199-0.427,1.512c-0.27,0.27-0.697,0.619-1.394,0.619
						h-47.711c-0.697,0-1.163-0.349-1.394-0.619c-0.27-0.31-0.541-0.814-0.466-1.512l4.881-36.21
						c0.153-0.929,0.929-1.626,1.86-1.626h37.914c0.929,0,1.743,0.697,1.86,1.626L166.594,115.72z"/>
					<path style="fill:#222051;" d="M277.824,260.175c0.658,4.995-0.853,9.992-4.144,13.749c-3.291,3.796-8.054,5.965-13.052,5.965
						h-47.714c-4.995,0-9.758-2.17-13.091-5.965c-3.291-3.757-4.802-8.751-4.105-13.749l4.881-36.21
						c1.163-8.598,8.559-15.026,17.196-15.026h37.914c8.676,0,16.072,6.428,17.235,15.026L277.824,260.175z M262.023,263.74
						c0.27-0.27,0.541-0.775,0.427-1.473l-4.881-36.249c-0.117-0.89-0.929-1.587-1.86-1.587h-37.914
						c-0.929,0-1.704,0.697-1.86,1.626l-4.877,36.21c-0.078,0.697,0.192,1.202,0.466,1.473c0.231,0.31,0.697,0.658,1.394,0.658
						h47.714C261.325,264.398,261.752,264.049,262.023,263.74z"/>
					<path style="fill:#222051;" d="M236.268,146.547c16.421,0,29.782,13.322,29.782,29.743s-13.361,29.782-29.782,29.782
						s-29.743-13.361-29.743-29.782S219.847,146.547,236.268,146.547z M250.558,176.29c0-7.862-6.389-14.251-14.29-14.251
						c-7.862,0-14.251,6.389-14.251,14.251c0,7.901,6.389,14.29,14.251,14.29C244.168,190.58,250.558,184.191,250.558,176.29z"/>
					<path style="fill:#222051;" d="M181.972,113.667c0.658,4.956-0.853,9.992-4.144,13.749c-3.291,3.796-8.054,5.926-13.052,5.926
						h-47.714c-4.995,0-9.761-2.131-13.091-5.926c-3.291-3.757-4.802-8.79-4.105-13.749l4.881-36.21
						c1.163-8.598,8.559-15.065,17.196-15.065h37.914c8.676,0,16.072,6.467,17.235,15.026L181.972,113.667z M166.17,117.231
						c0.27-0.31,0.541-0.814,0.427-1.512l-4.881-36.21c-0.117-0.929-0.929-1.626-1.86-1.626h-37.914
						c-0.929,0-1.704,0.697-1.86,1.626l-4.881,36.21c-0.078,0.697,0.192,1.199,0.466,1.512c0.231,0.27,0.697,0.619,1.394,0.619
						h47.714C165.473,117.85,165.9,117.502,166.17,117.231z"/>
					<path style="fill:#222051;" d="M179.841,226.21c2.906,3.137,2.711,8.054-0.427,10.96c-1.473,1.394-3.369,2.053-5.268,2.053
						c-2.092,0-4.144-0.814-5.692-2.479l-27.42-29.59l-28.195,28.195c-1.548,1.512-3.525,2.284-5.5,2.284
						c-1.974,0-3.952-0.775-5.461-2.284c-3.02-3.02-3.02-7.94,0-10.96l31.603-31.603v-42.638c0-4.258,3.486-7.745,7.745-7.745
						c4.297,0,7.744,3.486,7.744,7.745v42.795L179.841,226.21z"/>
					<path style="fill:#222051;" d="M140.416,0c16.421,0,29.782,13.361,29.782,29.782s-13.361,29.782-29.782,29.782
						s-29.743-13.361-29.743-29.782S123.995,0,140.416,0z M154.705,29.782c0-7.862-6.389-14.29-14.29-14.29
						c-7.862,0-14.251,6.428-14.251,14.29s6.389,14.29,14.251,14.29C148.316,44.072,154.705,37.644,154.705,29.782z"/>
					<path style="fill:#222051;" d="M84.182,260.175c0.658,4.995-0.853,9.992-4.144,13.749c-3.291,3.796-8.057,5.965-13.052,5.965
						H19.274c-4.995,0-9.758-2.17-13.091-5.965c-3.291-3.757-4.802-8.751-4.105-13.749l4.881-36.21
						c1.163-8.598,8.559-15.026,17.196-15.026h37.914c8.676,0,16.072,6.428,17.235,15.026L84.182,260.175z M68.38,263.74
						c0.27-0.27,0.541-0.775,0.427-1.473l-4.881-36.249c-0.117-0.89-0.929-1.587-1.86-1.587H24.155c-0.929,0-1.704,0.697-1.86,1.626
						l-4.881,36.21c-0.078,0.697,0.192,1.202,0.466,1.473c0.231,0.31,0.697,0.658,1.394,0.658h47.711
						C67.683,264.398,68.11,264.049,68.38,263.74z"/>
					<path style="fill:#222051;" d="M42.628,146.547c16.421,0,29.782,13.322,29.782,29.743s-13.361,29.782-29.782,29.782
						s-29.743-13.361-29.743-29.782C12.882,159.87,26.207,146.547,42.628,146.547z M56.918,176.29
						c0-7.862-6.389-14.251-14.29-14.251c-7.862,0-14.251,6.389-14.251,14.251c0,7.901,6.389,14.29,14.251,14.29
						C50.529,190.58,56.918,184.191,56.918,176.29z"/>
				</g>
			</g>
		</g>
	</g>
</g>
<g>
</g>
<g>
</g>
<g>
</g>
<g>
</g>
<g>
</g>
<g>
</g>
<g>
</g>
<g>
</g>
<g>
</g>
<g>
</g>
<g>
</g>
<g>
</g>
<g>
</g>
<g>
</g>
<g>
</g>
</svg>
