<?xml version="1.0" encoding="utf-8"?>
<!-- Generator: Adobe Illustrator 27.0.1, SVG Export Plug-In . SVG Version: 6.00 Build 0)  -->
<svg version="1.1" id="Layer_1" xmlns="http://www.w3.org/2000/svg" xmlns:xlink="http://www.w3.org/1999/xlink" x="0px" y="0px"
	 viewBox="0 0 512 512" style="enable-background:new 0 0 512 512;" xml:space="preserve">
<style type="text/css">
	.st0{fill:#213B84;}
	.st1{fill:#C9D1D9;}
	.st2{fill:#242524;}
	.st3{fill:#ABCB57;}
	.st4{fill:#E5C400;}
	.st5{fill:#C8523B;}
	.st6{fill:#808083;}
</style>
<g>
	<path class="st0" d="M75,507c-38.6,0-70-31.4-70-70V75C5,36.4,36.4,5,75,5h362c38.6,0,70,31.4,70,70v362c0,38.6-31.4,70-70,70H75z"
		/>
	<path class="st1" d="M437,10c35.8,0,65,29.2,65,65v362c0,35.8-29.2,65-65,65H75c-35.8,0-65-29.2-65-65V75c0-35.8,29.2-65,65-65H437
		 M437,0H75C33.6,0,0,33.6,0,75v362c0,41.4,33.6,75,75,75h362c41.4,0,75-33.6,75-75V75C512,33.6,478.4,0,437,0L437,0z"/>
</g>
<path class="st2" d="M363.2,190.3c-0.2-0.1-0.3-0.2-0.5-0.2c0-0.2,0-0.4,0-0.5c1.3-36.9-10.1-64.2-32.2-76.9
	c-22.1-12.7-51.4-9-82.7,10.6c-0.1,0.1-0.3,0.2-0.4,0.3c-0.1-0.1-0.3-0.2-0.4-0.3c-31.3-19.6-60.7-23.3-82.7-10.6
	c-22.1,12.7-33.5,40.1-32.2,76.9c0,0.2,0,0.4,0,0.5c-0.2,0.1-0.3,0.2-0.5,0.2C98.9,207.6,81,231.2,81,256.7s17.9,49,50.5,66.4
	c0.2,0.1,0.3,0.2,0.5,0.2c0,0.2,0,0.4,0,0.5c-1.3,36.9,10.1,64.2,32.2,76.9c8.6,5,18.3,7.4,28.8,7.4c16.5,0,34.9-6.1,54-18
	c0.1-0.1,0.3-0.2,0.4-0.3c0.1,0.1,0.3,0.2,0.4,0.3c19.1,12,37.5,18,54,18c10.5,0,20.2-2.5,28.8-7.4c22.1-12.7,33.5-40.1,32.2-76.9
	c0-0.2,0-0.4,0-0.5c0.2-0.1,0.3-0.2,0.5-0.2c32.6-17.3,50.5-40.9,50.5-66.4S395.8,207.6,363.2,190.3z M313.8,295.1
	c-7.3,12.6-15.4,24.5-24,35.2c-13.6,2.1-27.9,3.1-42.5,3.1c-14.6,0-28.9-1.1-42.5-3.1c-8.6-10.8-16.7-22.6-24-35.2
	c-7.3-12.6-13.5-25.5-18.5-38.4c5-12.8,11.2-25.7,18.5-38.4c7.3-12.6,15.4-24.5,24-35.2c13.6-2.1,27.9-3.1,42.5-3.1
	c14.6,0,28.9,1.1,42.5,3.1c8.6,10.8,16.7,22.6,24,35.2c7.3,12.6,13.5,25.5,18.5,38.4C327.3,269.5,321.1,282.4,313.8,295.1z
	 M339.7,278.2c3.6,12.3,6,24.4,7.1,35.9c-10.6,4.8-22.3,8.7-34.7,11.8c5.2-7.4,10.2-15.2,14.8-23.3
	C331.7,294.6,335.9,286.4,339.7,278.2z M247.4,371.5c-9.4-6.8-18.7-14.9-27.6-24.1c9,0.8,18.2,1.2,27.6,1.2c9.3,0,18.5-0.4,27.6-1.2
	C266.1,356.6,256.8,364.8,247.4,371.5z M182.6,325.9c-12.4-3.1-24.1-7-34.7-11.8c1.2-11.6,3.6-23.6,7.1-35.9
	c3.8,8.2,8,16.4,12.7,24.5C172.4,310.7,177.4,318.5,182.6,325.9z M167.7,210.7c-4.7,8.1-8.9,16.3-12.7,24.5
	c-3.6-12.3-6-24.4-7.1-35.9c10.6-4.8,22.3-8.7,34.7-11.8C177.4,194.9,172.4,202.6,167.7,210.7z M247.4,141.8
	c9.4,6.8,18.7,14.9,27.6,24.1c-9-0.8-18.2-1.2-27.6-1.2c-9.3,0-18.5,0.4-27.6,1.2C228.7,156.7,237.9,148.6,247.4,141.8z M327,210.7
	c-4.7-8.1-9.6-15.8-14.8-23.3c12.4,3.1,24.1,7,34.7,11.8c-1.2,11.6-3.6,23.6-7.1,35.9C335.9,227,331.7,218.8,327,210.7z
	 M301.7,120.4c7.9,0,15,1.8,21.2,5.4c15.8,9.1,24.5,29.4,24.7,57.2c-15-6.2-31.8-10.9-49.6-14c-11.6-13.9-24.1-26.1-37-36
	C275.8,124.7,289.6,120.4,301.7,120.4z M171.8,125.8c6.2-3.6,13.4-5.4,21.2-5.4c12.1,0,26,4.3,40.7,12.6c-12.9,9.9-25.4,22.1-37,36
	c-17.8,3.1-34.6,7.8-49.6,14C147.3,155.1,156,134.9,171.8,125.8z M96.2,256.7c0-18.3,13.2-35.9,37.2-50c2.1,16.1,6.4,33,12.7,50
	c-6.2,17-10.5,33.9-12.7,50C109.4,292.6,96.2,275,96.2,256.7z M171.8,387.6c-15.8-9.1-24.5-29.4-24.7-57.2c15,6.2,31.8,10.9,49.6,14
	c11.6,13.9,24.1,26.1,37,36C209.5,394.1,187.6,396.7,171.8,387.6z M323,387.6c-15.8,9.1-37.7,6.5-61.9-7.2c12.9-9.9,25.4-22.1,37-36
	c17.8-3.1,34.6-7.8,49.6-14C347.5,358.2,338.8,378.4,323,387.6z M361.3,306.7c-2.1-16.1-6.4-33-12.7-50c6.2-17,10.5-33.9,12.7-50
	c24.1,14.1,37.2,31.7,37.2,50S385.4,292.6,361.3,306.7z"/>
<circle class="st3" cx="406.1" cy="256.7" r="24.9"/>
<ellipse transform="matrix(7.088903e-02 -0.9975 0.9975 7.088903e-02 -235.0069 533.3199)" class="st4" cx="168.8" cy="392.8" rx="24.9" ry="24.9"/>
<circle class="st5" cx="168" cy="119.2" r="24.9"/>
<circle class="st6" cx="246.9" cy="256.8" r="24.9"/>
</svg>
