<?xml version="1.0" encoding="utf-8"?>
<!-- Generator: Adobe Illustrator 27.0.1, SVG Export Plug-In . SVG Version: 6.00 Build 0)  -->
<svg version="1.1" id="Layer_1" xmlns="http://www.w3.org/2000/svg" xmlns:xlink="http://www.w3.org/1999/xlink" x="0px" y="0px"
	 viewBox="0 0 512 512" style="enable-background:new 0 0 512 512;" xml:space="preserve">
<style type="text/css">
	.st0{fill:#78BD77;}
	.st1{fill:#C9D1D9;}
	.st2{fill:#FF675C;}
	.st3{fill:#FBC96C;}
	.st4{fill:#FAEC8E;}
	.st5{fill:#E0DDDF;}
	.st6{fill:#C1BCBF;}
	.st7{fill:#FDF7D2;}
	.st8{fill:#736770;}
	.st9{fill:#F9F8F9;}
	.st10{fill:#439EE8;}
	.st11{fill:#837880;}
	.st12{fill:#5CC4E0;}
</style>
<g>
	<path class="st0" d="M75,507c-38.6,0-70-31.4-70-70V75C5,36.4,36.4,5,75,5h362c38.6,0,70,31.4,70,70v362c0,38.6-31.4,70-70,70H75z"
		/>
	<path class="st1" d="M437,10c35.8,0,65,29.2,65,65v362c0,35.8-29.2,65-65,65H75c-35.8,0-65-29.2-65-65V75c0-35.8,29.2-65,65-65H437
		 M437,0H75C33.6,0,0,33.6,0,75v362c0,41.4,33.6,75,75,75h362c41.4,0,75-33.6,75-75V75C512,33.6,478.4,0,437,0L437,0z"/>
</g>
<path class="st2" d="M408.3,191.9h-31.3c-1.5,0-2.7,0.3-2.7,3.4v181.9c0,3.1,1.2,5.6,2.7,5.6h31.3c1.5,0,2.7-2.5,2.7-5.6V195.2
	C410.9,192.2,409.8,191.9,408.3,191.9z"/>
<path class="st3" d="M359.8,191.1c-3.1,0-5.6,2.5-5.6,5.6v180.4c0,3.1,2.5,5.6,5.6,5.6h15.3V191.1H359.8z"/>
<path class="st4" d="M425.4,190.4h-15.3v192.3h15.3c3.1,0,5.6-2.5,5.6-5.6V196C431,192.9,428.5,190.4,425.4,190.4z"/>
<path id="SVGCleanerId_0" class="st5" d="M354.2,414.4c0,11.3,9.2,20.5,20.5,20.5h35.8c11.3,0,20.5-9.2,20.5-20.5v-36.5h-76.8V414.4
	z"/>
<g>
	<path id="SVGCleanerId_0_1_" class="st5" d="M354.2,414.4c0,11.3,9.2,20.5,20.5,20.5h35.8c11.3,0,20.5-9.2,20.5-20.5v-36.5h-76.8
		V414.4z"/>
</g>
<path class="st6" d="M375.1,414.4v-36.5h-20.9v36.5c0,11.3,9.2,20.5,20.5,20.5h20.9C384.3,434.9,375.1,425.7,375.1,414.4z"/>
<path class="st7" d="M430.4,192.8l-32.8-66.3c-0.9-1.9-2.9-3.1-5-3.1c-2.1,0-4.1,1.2-5,3.1l-32.8,66.3c-0.9,1.7-0.8,3.8,0.3,5.4
	c1,1.6,2.8,2.6,4.7,2.6h65.6c1.9,0,3.7-1,4.7-2.6C431.2,196.6,431.3,194.5,430.4,192.8z"/>
<path class="st8" d="M397.6,126.4c-0.9-1.9-2.9-3.1-5-3.1c-2.1,0-4.1,1.2-5,3.1l-17.4,35.2H415L397.6,126.4z"/>
<path class="st9" d="M342.3,112.9H86.6c-3.1,0-5.6,2.5-5.6,5.6v310.1c0,3.1,2.5,5.6,5.6,5.6h255.7c3.1,0,5.6-2.5,5.6-5.6V118.5
	C347.9,115.4,345.4,112.9,342.3,112.9z"/>
<g>
	<path class="st5" d="M347.9,118.5c0-3.1-2.5-5.6-5.6-5.6H86.6c-3.1,0-5.6,2.5-5.6,5.6v19.1h266.9V118.5z"/>
	<path class="st5" d="M290.1,382v52.4l58-58h-52.4C292.6,376.4,290.1,378.9,290.1,382z"/>
</g>
<g>
	<path class="st10" d="M229.3,77.1h-26.8c-3.1,0-5.6,2.5-5.6,5.6v35.8V155c0,3.1,2.5,5.6,5.6,5.6h26.8c3.1,0,5.6-2.5,5.6-5.6v-36.5
		V82.7C234.9,79.6,232.4,77.1,229.3,77.1z"/>
	<path class="st10" d="M301.7,77.1h-26.8c-3.1,0-5.6,2.5-5.6,5.6v35.8V155c0,3.1,2.5,5.6,5.6,5.6h26.8c3.1,0,5.6-2.5,5.6-5.6v-36.5
		V82.7C307.3,79.6,304.7,77.1,301.7,77.1z"/>
	<path class="st10" d="M153.3,77.1h-26.8c-3.1,0-5.6,2.5-5.6,5.6v35.8V155c0,3.1,2.5,5.6,5.6,5.6h26.8c3.1,0,5.6-2.5,5.6-5.6v-36.5
		V82.7C158.9,79.6,156.4,77.1,153.3,77.1z"/>
</g>
<path class="st11" d="M289.4,272.4c-7.3,0-14.1,2.2-19.8,6l-21-22.2c4.3-6.5,6.8-14.3,6.8-22.6c0-22.6-18.4-41-41-41s-41,18.4-41,41
	c0,8.4,2.5,16.2,6.9,22.7l-20,22.3c-5.7-4-12.6-6.3-20.1-6.3c-19.5,0-35.4,15.9-35.4,35.4c0,19.5,15.9,35.4,35.4,35.4
	s35.4-15.9,35.4-35.4c0-8-2.7-15.5-7.2-21.4l19.4-21.6c7.2,6.1,16.5,9.9,26.6,9.9c10.2,0,19.5-3.8,26.7-9.9l20.3,21.4
	c-4.7,6-7.5,13.5-7.5,21.7c0,19.5,15.9,35.4,35.4,35.4s35.4-15.9,35.4-35.4C324.8,288.3,308.9,272.4,289.4,272.4z M140.3,332
	c-13.4,0-24.2-10.9-24.2-24.2c0-13.4,10.9-24.2,24.2-24.2c13.4,0,24.2,10.9,24.2,24.2C164.5,321.2,153.6,332,140.3,332z
	 M214.4,263.5c-16.4,0-29.8-13.4-29.8-29.8s13.4-29.8,29.8-29.8s29.8,13.4,29.8,29.8S230.9,263.5,214.4,263.5z M289.4,332
	c-13.4,0-24.2-10.9-24.2-24.2c0-6.4,2.5-12.3,6.6-16.6c0.5-0.2,0.9-0.5,1.3-0.9c0.4-0.4,0.7-0.8,0.9-1.2c4.2-3.4,9.5-5.5,15.3-5.5
	c13.4,0,24.2,10.9,24.2,24.2C313.6,321.2,302.7,332,289.4,332z"/>
<g>
	<path class="st12" d="M226.7,221c-3.1,0-5.6,2.5-5.6,5.6v4.8h-12.7v-4.8c0-3.1-2.5-5.6-5.6-5.6s-5.6,2.5-5.6,5.6v20.9
		c0,3.1,2.5,5.6,5.6,5.6s5.6-2.5,5.6-5.6v-4.8h12.7v4.8c0,3.1,2.5,5.6,5.6,5.6c3.1,0,5.6-2.5,5.6-5.6v-20.9
		C232.3,223.5,229.8,221,226.7,221z"/>
	<path class="st12" d="M140.3,324.6c-9.2,0-16.8-7.5-16.8-16.8c0-9.2,7.5-16.8,16.8-16.8c9.2,0,16.8,7.5,16.8,16.8
		C157,317.1,149.5,324.6,140.3,324.6z M140.3,302.2c-3.1,0-5.6,2.5-5.6,5.6s2.5,5.6,5.6,5.6c3.1,0,5.6-2.5,5.6-5.6
		C145.9,304.7,143.3,302.2,140.3,302.2z"/>
	<path class="st12" d="M289.4,324.6c-9.2,0-16.8-7.5-16.8-16.8c0-9.2,7.5-16.8,16.8-16.8c9.2,0,16.8,7.5,16.8,16.8
		C306.1,317.1,298.6,324.6,289.4,324.6z M289.4,302.2c-3.1,0-5.6,2.5-5.6,5.6s2.5,5.6,5.6,5.6s5.6-2.5,5.6-5.6
		C295,304.7,292.4,302.2,289.4,302.2z"/>
</g>
<g>
	<path class="st11" d="M297.6,253.8h-23.1c-3.1,0-5.6-2.5-5.6-5.6c0-3.1,2.5-5.6,5.6-5.6h23.1c3.1,0,5.6,2.5,5.6,5.6
		C303.2,251.3,300.6,253.8,297.6,253.8z"/>
	<path class="st11" d="M316.9,253.8h-6.7c-3.1,0-5.6-2.5-5.6-5.6c0-3.1,2.5-5.6,5.6-5.6h6.7c3.1,0,5.6,2.5,5.6,5.6
		C322.5,251.3,320,253.8,316.9,253.8z"/>
	<path class="st11" d="M227.5,376.8H119.4c-3.1,0-5.6-2.5-5.6-5.6c0-3.1,2.5-5.6,5.6-5.6h108.1c3.1,0,5.6,2.5,5.6,5.6
		C233.1,374.3,230.6,376.8,227.5,376.8z"/>
	<path class="st11" d="M258,376.8h-13.4c-3.1,0-5.6-2.5-5.6-5.6c0-3.1,2.5-5.6,5.6-5.6H258c3.1,0,5.6,2.5,5.6,5.6
		C263.6,374.3,261.1,376.8,258,376.8z"/>
	<path class="st11" d="M198.4,401.4h-79.8c-3.1,0-5.6-2.5-5.6-5.6c0-3.1,2.5-5.6,5.6-5.6h79.8c3.1,0,5.6,2.5,5.6,5.6
		C204,398.9,201.5,401.4,198.4,401.4z"/>
	<path class="st11" d="M154.4,195.6h-38c-3.1,0-5.6-2.5-5.6-5.6s2.5-5.6,5.6-5.6h38c3.1,0,5.6,2.5,5.6,5.6S157.5,195.6,154.4,195.6z
		"/>
	<path class="st11" d="M176.8,195.6h-8.2c-3.1,0-5.6-2.5-5.6-5.6s2.5-5.6,5.6-5.6h8.2c3.1,0,5.6,2.5,5.6,5.6
		S179.9,195.6,176.8,195.6z"/>
	<path class="st11" d="M146.2,219.5h-29.8c-3.1,0-5.6-2.5-5.6-5.6c0-3.1,2.5-5.6,5.6-5.6h29.8c3.1,0,5.6,2.5,5.6,5.6
		C151.8,217,149.3,219.5,146.2,219.5z"/>
</g>
</svg>
