<?xml version="1.0" encoding="iso-8859-1"?>
<!-- Generator: Adobe Illustrator 19.0.0, SVG Export Plug-In . SVG Version: 6.00 Build 0)  -->
<svg version="1.1" id="Layer_1" xmlns="http://www.w3.org/2000/svg" xmlns:xlink="http://www.w3.org/1999/xlink" x="0px" y="0px"
	 viewBox="0 0 512 512" style="enable-background:new 0 0 512 512;" xml:space="preserve">
<path style="fill:#FF675C;" d="M473.887,164.267h-44.842c-2.111,0-3.822,0.382-3.822,4.8v260.267c0,4.418,1.711,8,3.822,8h44.842
	c2.111,0,3.822-3.582,3.822-8V169.067C477.709,164.649,475.998,164.267,473.887,164.267z"/>
<path style="fill:#FBC96C;" d="M404.533,163.2c-4.419,0-8,3.582-8,8v258.133c0,4.418,3.581,8,8,8H426.4V163.2H404.533z"/>
<path style="fill:#FAEC8E;" d="M498.4,162.133h-21.867v275.2H498.4c4.419,0,8-3.582,8-8v-259.2
	C506.4,165.715,502.819,162.133,498.4,162.133z"/>
<path id="SVGCleanerId_0" style="fill:#E0DDDF;" d="M396.533,482.667c0,16.175,13.159,29.333,29.333,29.333h51.2
	c16.174,0,29.333-13.158,29.333-29.333V430.4H396.533V482.667z"/>
<g>
	<path id="SVGCleanerId_0_1_" style="fill:#E0DDDF;" d="M396.533,482.667c0,16.175,13.159,29.333,29.333,29.333h51.2
		c16.174,0,29.333-13.158,29.333-29.333V430.4H396.533V482.667z"/>
</g>
<path style="fill:#C1BCBF;" d="M426.4,482.667V430.4h-29.867v52.267c0,16.175,13.159,29.333,29.333,29.333h29.867
	C439.559,512,426.4,498.842,426.4,482.667z"/>
<path style="fill:#FDF7D2;" d="M505.571,165.521l-46.933-94.933c-1.348-2.727-4.129-4.454-7.171-4.454s-5.823,1.727-7.172,4.454
	l-46.933,94.933c-1.226,2.48-1.084,5.417,0.377,7.766c1.459,2.35,4.029,3.778,6.796,3.778H498.4c2.767,0,5.337-1.429,6.796-3.778
	C506.655,170.938,506.798,168.001,505.571,165.521z"/>
<path style="fill:#736770;" d="M458.638,70.588c-1.348-2.727-4.129-4.454-7.171-4.454s-5.823,1.727-7.172,4.454l-24.868,50.301
	h64.08L458.638,70.588z"/>
<path style="fill:#F9F8F9;" d="M379.467,51.2H13.6c-4.419,0-8,3.582-8,8v443.733c0,4.418,3.581,8,8,8h365.867c4.419,0,8-3.582,8-8
	V59.2C387.467,54.782,383.886,51.2,379.467,51.2z"/>
<g>
	<path style="fill:#E0DDDF;" d="M387.467,59.2c0-4.418-3.581-8-8-8H13.6c-4.419,0-8,3.582-8,8v27.378h381.867V59.2z"/>
	<path style="fill:#E0DDDF;" d="M304.8,436.267v75.022l83.022-83.022H312.8C308.381,428.267,304.8,431.849,304.8,436.267z"/>
</g>
<g>
	<path style="fill:#439EE8;" d="M217.867,0h-38.4c-4.419,0-8,3.582-8,8v51.2v52.267c0,4.418,3.581,8,8,8h38.4c4.419,0,8-3.582,8-8
		V59.2V8C225.867,3.582,222.286,0,217.867,0z"/>
	<path style="fill:#439EE8;" d="M321.333,0h-38.4c-4.419,0-8,3.582-8,8v51.2v52.267c0,4.418,3.581,8,8,8h38.4c4.419,0,8-3.582,8-8
		V59.2V8C329.333,3.582,325.753,0,321.333,0z"/>
	<path style="fill:#439EE8;" d="M109.067,0h-38.4c-4.419,0-8,3.582-8,8v51.2v52.267c0,4.418,3.581,8,8,8h38.4c4.419,0,8-3.582,8-8
		V59.2V8C117.067,3.582,113.486,0,109.067,0z"/>
</g>
<path style="fill:#837880;" d="M303.733,279.467c-10.465,0-20.199,3.19-28.282,8.647l-30.044-31.712
	c6.18-9.292,9.792-20.431,9.792-32.402c0-32.349-26.318-58.667-58.667-58.667S137.867,191.651,137.867,224
	c0,12.017,3.637,23.198,9.861,32.511l-28.575,31.937c-8.175-5.657-18.081-8.981-28.753-8.981c-27.937,0-50.667,22.73-50.667,50.667
	c0,27.937,22.73,50.667,50.667,50.667s50.667-22.73,50.667-50.667c0-11.501-3.858-22.114-10.339-30.627l27.698-30.957
	c10.26,8.789,23.569,14.117,38.108,14.117c14.599,0,27.959-5.373,38.237-14.229l28.997,30.609
	c-6.697,8.59-10.701,19.376-10.701,31.087c0,27.937,22.73,50.667,50.667,50.667s50.667-22.73,50.667-50.667
	S331.67,279.467,303.733,279.467z M90.4,364.8c-19.116,0-34.667-15.552-34.667-34.667s15.551-34.667,34.667-34.667
	s34.667,15.552,34.667,34.667S109.516,364.8,90.4,364.8z M196.533,266.667c-23.526,0-42.667-19.14-42.667-42.667
	s19.14-42.667,42.667-42.667S239.2,200.474,239.2,224S220.06,266.667,196.533,266.667z M303.733,364.8
	c-19.116,0-34.667-15.552-34.667-34.667c0-9.213,3.62-17.593,9.503-23.807c0.666-0.34,1.295-0.778,1.866-1.318
	c0.537-0.509,0.98-1.077,1.344-1.682c5.982-4.909,13.629-7.859,21.954-7.859c19.116,0,34.667,15.552,34.667,34.667
	S322.849,364.8,303.733,364.8z"/>
<g>
	<path style="fill:#5CC4E0;" d="M214.133,205.867c-4.419,0-8,3.582-8,8v6.933H188v-6.933c0-4.418-3.581-8-8-8s-8,3.582-8,8v29.867
		c0,4.418,3.581,8,8,8s8-3.582,8-8V236.8h18.133v6.933c0,4.418,3.581,8,8,8s8-3.582,8-8v-29.867
		C222.133,209.449,218.553,205.867,214.133,205.867z"/>
	<path style="fill:#5CC4E0;" d="M90.4,354.133c-13.233,0-24-10.766-24-24c0-13.234,10.767-24,24-24s24,10.766,24,24
		C114.4,343.367,103.633,354.133,90.4,354.133z M90.4,322.133c-4.412,0-8,3.588-8,8c0,4.412,3.588,8,8,8s8-3.588,8-8
		C98.4,325.722,94.812,322.133,90.4,322.133z"/>
	<path style="fill:#5CC4E0;" d="M303.733,354.133c-13.233,0-24-10.766-24-24c0-13.234,10.767-24,24-24c13.233,0,24,10.766,24,24
		C327.733,343.367,316.966,354.133,303.733,354.133z M303.733,322.133c-4.412,0-8,3.588-8,8c0,4.412,3.588,8,8,8s8-3.588,8-8
		C311.733,325.722,308.145,322.133,303.733,322.133z"/>
</g>
<g>
	<path style="fill:#837880;" d="M315.467,252.8H282.4c-4.419,0-8-3.582-8-8c0-4.418,3.581-8,8-8h33.067c4.419,0,8,3.582,8,8
		C323.467,249.218,319.886,252.8,315.467,252.8z"/>
	<path style="fill:#837880;" d="M343.2,252.8h-9.6c-4.419,0-8-3.582-8-8c0-4.418,3.581-8,8-8h9.6c4.419,0,8,3.582,8,8
		C351.2,249.218,347.619,252.8,343.2,252.8z"/>
	<path style="fill:#837880;" d="M215.2,428.8H60.533c-4.419,0-8-3.582-8-8s3.581-8,8-8H215.2c4.419,0,8,3.582,8,8
		S219.619,428.8,215.2,428.8z"/>
	<path style="fill:#837880;" d="M258.933,428.8h-19.2c-4.419,0-8-3.582-8-8s3.581-8,8-8h19.2c4.419,0,8,3.582,8,8
		S263.353,428.8,258.933,428.8z"/>
	<path style="fill:#837880;" d="M173.6,464H59.467c-4.419,0-8-3.582-8-8c0-4.418,3.581-8,8-8H173.6c4.419,0,8,3.582,8,8
		C181.6,460.418,178.019,464,173.6,464z"/>
	<path style="fill:#837880;" d="M110.667,169.6h-54.4c-4.419,0-8-3.582-8-8s3.581-8,8-8h54.4c4.419,0,8,3.582,8,8
		S115.086,169.6,110.667,169.6z"/>
	<path style="fill:#837880;" d="M142.667,169.6h-11.733c-4.419,0-8-3.582-8-8s3.581-8,8-8h11.733c4.419,0,8,3.582,8,8
		S147.086,169.6,142.667,169.6z"/>
	<path style="fill:#837880;" d="M98.933,203.733H56.267c-4.419,0-8-3.582-8-8c0-4.418,3.581-8,8-8h42.667c4.419,0,8,3.582,8,8
		C106.933,200.151,103.353,203.733,98.933,203.733z"/>
</g>
<g>
</g>
<g>
</g>
<g>
</g>
<g>
</g>
<g>
</g>
<g>
</g>
<g>
</g>
<g>
</g>
<g>
</g>
<g>
</g>
<g>
</g>
<g>
</g>
<g>
</g>
<g>
</g>
<g>
</g>
</svg>
