<?xml version="1.0" encoding="utf-8"?>
<!-- Generator: Adobe Illustrator 27.0.1, SVG Export Plug-In . SVG Version: 6.00 Build 0)  -->
<svg version="1.1" id="Layer_1" xmlns="http://www.w3.org/2000/svg" xmlns:xlink="http://www.w3.org/1999/xlink" x="0px" y="0px"
	 viewBox="0 0 512 512" style="enable-background:new 0 0 512 512;" xml:space="preserve">
<style type="text/css">
	.st0{fill:#28100D;}
	.st1{fill:#C9D1D9;}
	.st2{fill:#507C5C;stroke:#C9D1D9;stroke-width:3;stroke-miterlimit:10;}
	.st3{fill:#CFF09E;stroke:#C9D1D9;stroke-width:3;stroke-miterlimit:10;}
</style>
<g>
	<path class="st0" d="M75,507c-38.6,0-70-31.4-70-70V75C5,36.4,36.4,5,75,5h362c38.6,0,70,31.4,70,70v362c0,38.6-31.4,70-70,70H75z"
		/>
	<path class="st1" d="M437,10c35.8,0,65,29.2,65,65v362c0,35.8-29.2,65-65,65H75c-35.8,0-65-29.2-65-65V75c0-35.8,29.2-65,65-65H437
		 M437,0H75C33.6,0,0,33.6,0,75v362c0,41.4,33.6,75,75,75h362c41.4,0,75-33.6,75-75V75C512,33.6,478.4,0,437,0L437,0z"/>
</g>
<g>
	<path class="st2" d="M312.7,437.4C312.7,437.4,312.7,437.4,312.7,437.4H199.3c-3.4,0-6.6-1.7-8.5-4.6c-1.9-2.9-2.2-6.5-0.8-9.6
		l30.3-68.7c1.6-3.7,5.2-6,9.2-6h52.7c4,0,7.6,2.4,9.2,6l30.1,68.1c0.7,1.4,1.1,3,1.1,4.7C322.8,432.9,318.3,437.4,312.7,437.4z
		 M214.9,417.2h82.3l-21.4-48.5h-39.5L214.9,417.2z"/>
	<path class="st2" d="M91.1,331.3c-5.6,0-10.1-4.5-10.1-10.1V140.3c0-5.6,4.5-10.1,10.1-10.1h329.8c5.6,0,10.1,4.5,10.1,10.1V258
		c0,5.6-4.5,10.1-10.1,10.1c-5.6,0-10.1-4.5-10.1-10.1V150.4H101.2v170.8C101.2,326.8,96.7,331.3,91.1,331.3z"/>
</g>
<path class="st3" d="M125.4,376.8h261.2c18.9,0,34.3-15.4,34.3-34.3v-21.3H91.1v21.3C91.1,361.4,106.5,376.8,125.4,376.8z"/>
<g>
	<path class="st2" d="M386.6,386.9H125.4c-24.5,0-44.4-19.9-44.4-44.4v-21.3c0-5.6,4.5-10.1,10.1-10.1h329.8
		c5.6,0,10.1,4.5,10.1,10.1v21.3C431,367,411.1,386.9,386.6,386.9z M101.2,331.3v11.2c0,13.3,10.9,24.2,24.2,24.2h261.2
		c13.3,0,24.2-10.9,24.2-24.2v-11.2H101.2L101.2,331.3z"/>
	<path class="st2" d="M420.9,150.4H91.1c-5.6,0-10.1-4.5-10.1-10.1V119c0-24.5,19.9-44.4,44.4-44.4h261.2
		c24.5,0,44.4,19.9,44.4,44.4v21.3C431,145.9,426.5,150.4,420.9,150.4z M101.2,130.2h309.6V119c0-13.3-10.9-24.2-24.2-24.2H125.4
		c-13.3,0-24.2,10.9-24.2,24.2C101.2,119,101.2,130.2,101.2,130.2z"/>
	<path class="st2" d="M141.1,225h15.7c2.7,0,4.2,2.6,4.2,5.4c0,2.4-1.3,5.2-4.2,5.2h-15.7v20.7h29.2c2.7,0,4.2,2.8,4.2,6
		c0,2.8-1.3,5.8-4.2,5.8h-36.7c-3,0-5.9-1.4-5.9-4.2v-66.9c0-2.8,2.9-4.2,5.9-4.2h36.7c2.9,0,4.2,3,4.2,5.8c0,3.2-1.5,6-4.2,6h-29.2
		V225z"/>
	<path class="st2" d="M185.8,226.6h26.6c2.2,0,4.3,2.5,4.3,5.6c0,3.3-2.2,5.5-4.3,5.5h-26.6c-2.5,0-4.1-2.2-4.1-5.5
		C181.6,229.1,183.3,226.6,185.8,226.6z M185.8,247.6h26.6c2.2,0,4.3,2.5,4.3,5.6c0,3.3-2.2,5.5-4.3,5.5h-26.6
		c-2.5,0-4.1-2.2-4.1-5.5C181.6,250,183.3,247.6,185.8,247.6z"/>
	<path class="st2" d="M257,239.3c0-5.8-4.1-9.3-8.5-9.3c-4,0-8,3.2-8,9.3v24.4c0,2.1-3.1,4.2-6.7,4.2c-3.9,0-6.6-2.2-6.6-4.2v-40.6
		c0-2.5,2.7-4.1,6.6-4.1c3.2,0,5.9,1.6,5.9,4.1v3.1c2.3-4,6.8-7.8,13.6-7.8c5.9,0,10.7,4.2,12.9,10.3c3.6-7,9.6-10.3,15.6-10.3
		c9.4,0,18.3,7.5,18.3,20.9v24.4c0,2.1-3.1,4.2-6.7,4.2c-3.5,0-6.6-2.2-6.6-4.2v-24.4c0-6.2-4.2-9.4-8.4-9.4c-4.1,0-8.1,3.3-8.1,9.3
		v24.6c0,2.9-3.4,4.1-6.7,4.1c-3.1,0-6.6-1.2-6.6-4.1L257,239.3L257,239.3z"/>
	<path class="st2" d="M308.3,247.8v-8.2c0-11.9,6.7-21.1,22.3-21.1c9.7,0,16.5,4,16.5,8c0,2.5-2.1,6.5-5.3,6.5
		c-2.3,0-4.1-2.9-10.2-2.9c-7,0-10,3.5-10,9.5v8.2c0,6,3,9.5,10.1,9.5c6.2,0,7.7-3.1,10.3-3.1c3.6,0,5.7,3.7,5.7,6.3
		c0,4.1-7.3,8.5-17,8.5C315.1,268.9,308.3,259.8,308.3,247.8z"/>
	<path class="st2" d="M379.7,233.4h-14.9c0.6-1.5,3.5-3.5,6.1-5.3c5.9-4.1,13.2-9.2,13.2-18c0-9.4-8.1-14.5-15.8-14.5
		c-7.4,0-15.2,4.7-15.2,13.3c0,4,2.1,6.3,5.6,6.3c4,0,6.2-2.6,6.2-5c0-0.8,0-3.4,3.4-3.4c3.5,0,3.7,2.9,3.7,3.4
		c0,3.2-4.4,6.4-8.6,9.4c-5.5,4-11.2,8.2-11.2,14.3v6c0,2.9,3.3,4.5,5.5,4.5h21.9c2.5,0,4.5-2.6,4.5-5.6
		C384.3,235.8,382.2,233.4,379.7,233.4z"/>
</g>
</svg>
