<?xml version="1.0" encoding="iso-8859-1"?>
<!-- Generator: Adobe Illustrator 19.0.0, SVG Export Plug-In . SVG Version: 6.00 Build 0)  -->
<svg version="1.1" id="Layer_1" xmlns="http://www.w3.org/2000/svg" xmlns:xlink="http://www.w3.org/1999/xlink" x="0px" y="0px"
	 viewBox="0 0 512 512" style="enable-background:new 0 0 512 512;" xml:space="preserve">
<g>
	<path style="fill:#507C5C;" d="M335.99,512c-0.01,0-0.019,0-0.029,0H176.038c-4.821,0-9.317-2.436-11.948-6.476
		c-2.632-4.039-3.047-9.134-1.1-13.546l42.794-96.991c2.281-5.17,7.4-8.505,13.05-8.505h74.333c5.65,0,10.769,3.336,13.05,8.505
		l42.432,96.169c1.026,1.968,1.605,4.206,1.605,6.58C350.254,505.614,343.867,512,335.99,512z M197.923,483.473h116.156
		l-30.208-68.464h-55.74L197.923,483.473z"/>
	<path style="fill:#507C5C;" d="M23.271,362.28c-7.878,0-14.263-6.386-14.263-14.263V92.712c0-7.878,6.386-14.263,14.263-14.263
		h465.459c7.878,0,14.263,6.386,14.263,14.263v166.159c0,7.878-6.386,14.263-14.263,14.263s-14.263-6.386-14.263-14.263V106.975
		H37.534v241.042C37.534,355.895,31.148,362.28,23.271,362.28z"/>
</g>
<path style="fill:#CFF09E;" d="M71.689,426.466h368.622c26.741,0,48.418-21.677,48.418-48.418v-30.03H23.271v30.03
	C23.271,404.788,44.948,426.466,71.689,426.466z"/>
<g>
	<path style="fill:#507C5C;" d="M440.311,440.729H71.689c-34.563,0-62.682-28.119-62.682-62.682v-30.03
		c0-7.878,6.386-14.263,14.263-14.263h465.459c7.878,0,14.263,6.386,14.263,14.263v30.03
		C502.993,412.61,474.874,440.729,440.311,440.729z M37.534,362.28v15.767c0,18.833,15.322,34.155,34.155,34.155h368.622
		c18.833,0,34.155-15.322,34.155-34.155v-15.767L37.534,362.28L37.534,362.28z"/>
	<path style="fill:#507C5C;" d="M488.729,106.975H23.271c-7.878,0-14.263-6.386-14.263-14.263v-30.03
		C9.007,28.119,37.126,0,71.689,0h368.622c34.563,0,62.682,28.119,62.682,62.682v30.03
		C502.993,100.589,496.607,106.975,488.729,106.975z M37.534,78.448h436.932V62.682c0-18.833-15.322-34.155-34.155-34.155H71.689
		c-18.833,0-34.155,15.322-34.155,34.155C37.534,62.682,37.534,78.448,37.534,78.448z"/>
	<path style="fill:#507C5C;" d="M93.886,212.217h22.115c3.783,0,5.966,3.637,5.966,7.565c0,3.346-1.891,7.276-5.966,7.276H93.886
		v29.244h41.175c3.781,0,5.965,3.928,5.965,8.438c0,3.928-1.891,8.147-5.965,8.147H83.265c-4.219,0-8.293-2.037-8.293-5.965v-94.425
		c0-3.928,4.074-5.965,8.293-5.965h51.796c4.072,0,5.965,4.219,5.965,8.147c0,4.51-2.182,8.44-5.965,8.44H93.886V212.217z"/>
	<path style="fill:#507C5C;" d="M156.881,214.545h37.537c3.055,0,6.11,3.492,6.11,7.856c0,4.656-3.057,7.711-6.11,7.711h-37.537
		c-3.492,0-5.819-3.055-5.819-7.711C151.062,218.037,153.389,214.545,156.881,214.545z M156.881,244.08h37.537
		c3.055,0,6.11,3.492,6.11,7.856c0,4.656-3.057,7.711-6.11,7.711h-37.537c-3.492,0-5.819-3.057-5.819-7.711
		C151.062,247.572,153.389,244.08,156.881,244.08z"/>
	<path style="fill:#507C5C;" d="M257.412,232.44c0-8.147-5.819-13.095-11.93-13.095c-5.675,0-11.349,4.511-11.349,13.095v34.482
		c0,2.91-4.365,5.965-9.457,5.965c-5.528,0-9.311-3.055-9.311-5.965v-57.324c0-3.492,3.783-5.819,9.311-5.819
		c4.51,0,8.293,2.328,8.293,5.819v4.365c3.201-5.674,9.602-11.057,19.206-11.057c8.291,0,15.131,5.965,18.186,14.55
		c5.092-9.894,13.53-14.55,21.97-14.55c13.239,0,25.897,10.62,25.897,29.535v34.482c0,2.91-4.365,5.965-9.457,5.965
		c-4.948,0-9.311-3.055-9.311-5.965V232.44c0-8.729-5.966-13.239-11.786-13.239c-5.819,0-11.495,4.656-11.495,13.094v34.773
		c0,4.074-4.801,5.819-9.457,5.819c-4.366,0-9.311-1.746-9.311-5.819V232.44H257.412z"/>
	<path style="fill:#507C5C;" d="M329.861,244.371v-11.639c0-16.731,9.457-29.826,31.426-29.826c13.676,0,23.278,5.674,23.278,11.349
		c0,3.492-2.91,9.166-7.42,9.166c-3.201,0-5.819-4.074-14.405-4.074c-9.895,0-14.114,4.947-14.114,13.386v11.639
		c0,8.44,4.219,13.386,14.259,13.386c8.729,0,10.91-4.365,14.549-4.365c5.092,0,8.002,5.238,8.002,8.875
		c0,5.819-10.33,11.93-24.007,11.93C339.465,274.197,329.861,261.393,329.861,244.371z"/>
	<path style="fill:#507C5C;" d="M430.622,224.033h-21.068c0.871-2.147,4.982-4.998,8.658-7.547
		c8.306-5.762,18.644-12.931,18.644-25.474c0-13.278-11.471-20.444-22.262-20.444c-10.414,0-21.483,6.588-21.483,18.796
		c0,5.668,2.904,8.919,7.965,8.919c5.68,0,8.745-3.613,8.745-7.013c0-1.181,0-4.773,4.86-4.773c4.955,0,5.205,4.048,5.205,4.86
		c0,4.467-6.162,8.967-12.121,13.319c-7.758,5.668-15.781,11.529-15.781,20.128v8.405c0,4.125,4.607,6.406,7.792,6.406h30.847
		c3.473,0,6.406-3.609,6.406-7.879C437.029,227.49,434.155,224.033,430.622,224.033z"/>
</g>
<g>
</g>
<g>
</g>
<g>
</g>
<g>
</g>
<g>
</g>
<g>
</g>
<g>
</g>
<g>
</g>
<g>
</g>
<g>
</g>
<g>
</g>
<g>
</g>
<g>
</g>
<g>
</g>
<g>
</g>
</svg>
