<?xml version="1.0" encoding="utf-8"?>
<!-- Generator: Adobe Illustrator 27.0.1, SVG Export Plug-In . SVG Version: 6.00 Build 0)  -->
<svg version="1.1" id="Capa_1" xmlns="http://www.w3.org/2000/svg" xmlns:xlink="http://www.w3.org/1999/xlink" x="0px" y="0px"
	 viewBox="0 0 512 512" style="enable-background:new 0 0 512 512;" xml:space="preserve">
<style type="text/css">
	.st0{fill:#F18807;}
	.st1{fill:#C9D1D9;}
</style>
<g>
	<path class="st0" d="M75,507c-38.6,0-70-31.4-70-70V75C5,36.4,36.4,5,75,5h362c38.6,0,70,31.4,70,70v362c0,38.6-31.4,70-70,70H75z"
		/>
	<path class="st1" d="M437,10c35.8,0,65,29.2,65,65v362c0,35.8-29.2,65-65,65H75c-35.8,0-65-29.2-65-65V75c0-35.8,29.2-65,65-65H437
		 M437,0H75C33.6,0,0,33.6,0,75v362c0,41.4,33.6,75,75,75h362c41.4,0,75-33.6,75-75V75C512,33.6,478.4,0,437,0L437,0z"/>
</g>
<g id="XMLID_159_">
	<path id="XMLID_170_" d="M272.4,273.4c20.8-45.5,15.3-33.5,22.8-49.9v-17.3l4,8.7l11-24.1c0.2-0.5,0.6-1,0.9-1.5l-14.8-32.4
		c-1.9-4.3-6.3-6.1-10.7-6.1c-5.5,0-38,0-41.3,0c-4.4,0-8.8,1.8-10.8,6.1l-3.7,8.1c-1,6.3-3.6,11.9-7.6,16.6
		c-0.1,0.1-0.2,0.2-0.2,0.3c0,0,0.1,0,0.1,0c6.4,1.3,11.6,5.9,13.8,10.7l21.1,46.2C257.3,239.3,271.6,270.7,272.4,273.4z"/>
	<path id="XMLID_169_" d="M196.5,185c13.8,0,25-11.2,25-25c0-13.8-11.2-25-25-25c-13.8,0-25,11.2-25,25
		C171.5,173.8,182.7,185,196.5,185z"/>
	<path id="XMLID_168_" d="M293,314.1l1.2-5.7c-4.7,1.3-9.9,1-14.4-1.1c-4.8-2.2-8.4-6.1-10.4-10.6v42.7c0,7.1,5.8,12.8,12.8,12.8
		c7.1,0,12.8-5.7,12.8-12.8v-13.6C293,322.3,292.2,318.2,293,314.1z"/>
	<path id="XMLID_167_" d="M236.1,286.9l-0.6-1.2l0,0.7l0,53.3c0,8,6.5,12.6,11.7,12.6c7.1,0,12.8-5.7,12.8-12.8v-42.3
		C251,300.2,240.2,295.8,236.1,286.9z"/>
	<path id="XMLID_166_" d="M264.8,145.7c13.8,0,25-11.2,25-25c0-13.8-11.2-25-25-25c-13.8,0-25,11.2-25,25
		C239.8,134.4,251,145.7,264.8,145.7z"/>
	<path id="XMLID_165_" d="M353.7,181.6c14.6,0,28.4-12,28.4-28.4c0-15.7-12.7-28.4-28.4-28.4c-15.7,0-28.4,12.7-28.4,28.4
		C325.2,169.6,339.1,181.6,353.7,181.6z"/>
	<path id="XMLID_164_" d="M429.9,283.2l-40.6-88.9c-2-4.4-6.3-6.9-10.8-7h-49.6c-4.5,0.1-8.8,2.6-10.8,7l-40.6,88.9
		c-2.8,6.1-0.1,13.3,6,16.1c6.1,2.8,13.3,0.1,16.1-6l12.7-27.7l-10.7,50.3c-0.9,4.4,2.4,8.6,7,8.6h10.6v77.3
		c0,8.1,6.5,14.6,14.6,14.6c8.1,0,14.6-6.5,14.6-14.6v-77.3H359v77.3c0,8.1,6.5,14.6,14.6,14.6c8.1,0,14.6-6.5,14.6-14.6v-77.3h10.6
		c4.6,0,7.9-4.2,7-8.6l-10.7-50.3l12.7,27.7c2.8,6.1,10.1,8.8,16.1,6C430,296.6,432.7,289.3,429.9,283.2z"/>
	<path id="XMLID_163_" d="M121.5,270.8l13.6-29.7l22.1-48.4c2.4-5.4,7.2-9.1,12.9-10.6v-1.4c-4.1-5.2-6.6-11.8-7.1-18.8h-39.1
		c-4.1,0-8,1.7-9.7,5.5l-32.3,70.8c-2.2,4.9-0.1,10.6,4.8,12.8c4.9,2.2,10.6,0,12.8-4.8l15.6-34.2c0,2.8,0,45.1,0,120.6
		c0,6.4,5.2,11.6,11.6,11.6c6.4,0,11.6-5.2,11.6-11.6v-34.4c-2.5-0.1-4.9-0.6-7.2-1.6C121.4,292.1,117,280.6,121.5,270.8z"/>
	<path id="XMLID_162_" d="M146.8,296.4v36.1c0,6,4.7,10.9,10.6,11.4v-58.3l-0.6,1.2C154.8,291.3,151.1,294.6,146.8,296.4z"/>
	<path id="XMLID_161_" d="M142.6,157.2c12.5,0,22.6-10.1,22.6-22.6c0-12.5-10.1-22.6-22.6-22.6c-12.5,0-22.7,10.1-22.7,22.6
		C119.9,147.1,130.1,157.2,142.6,157.2z"/>
	<path id="XMLID_160_" d="M227.9,196.2c-1.9-4.3-6.3-6.1-10.7-6.1c-3.7,0-36.2,0-41.3,0c-4.4,0-8.8,1.8-10.7,6.1l-35.7,78.2
		c-2.4,5.4-0.1,11.7,5.3,14.2c5.3,2.5,11.7,0.1,14.2-5.3l17.3-37.8l0,133.3c0,7.1,5.7,12.8,12.8,12.8c7.1,0,12.8-5.7,12.8-12.8
		v-76.6h9.4v76.6c0,7.1,5.8,12.8,12.8,12.8c7.1,0,12.8-5.7,12.8-12.8l0-133.2l17.3,37.8c2.5,5.4,8.8,7.7,14.2,5.3
		c5.4-2.4,7.8-8.8,5.3-14.2L227.9,196.2z"/>
</g>
</svg>
