<?xml version="1.0" encoding="iso-8859-1"?>
<!-- Generator: Adobe Illustrator 18.0.0, SVG Export Plug-In . SVG Version: 6.00 Build 0)  -->
<!DOCTYPE svg PUBLIC "-//W3C//DTD SVG 1.1//EN" "http://www.w3.org/Graphics/SVG/1.1/DTD/svg11.dtd">
<svg version="1.1" id="Capa_1" xmlns="http://www.w3.org/2000/svg" xmlns:xlink="http://www.w3.org/1999/xlink" x="0px" y="0px"
	 viewBox="0 0 464.164 464.164" style="enable-background:new 0 0 464.164 464.164;" xml:space="preserve">
<g id="XMLID_159_">
	<path id="XMLID_170_" d="M253.819,255.117c27.556-60.381,20.256-44.386,30.191-66.158v-22.997l5.255,11.499l14.563-31.907
		c0.321-0.72,0.781-1.324,1.158-2.007l-19.598-42.923c-2.565-5.669-8.369-8.09-14.241-8.09c-7.318,0-50.354,0-54.713,0
		c-5.895,0-11.697,2.421-14.264,8.09l-4.925,10.801c-1.272,8.32-4.826,15.804-10.029,21.949c-0.099,0.123-0.199,0.252-0.298,0.375
		c0.046,0.008,0.077,0.008,0.122,0.016c8.45,1.723,15.322,7.775,18.256,14.188l27.962,61.277
		C233.817,209.872,252.784,251.632,253.819,255.117z"/>
	<path id="XMLID_169_" d="M153.157,137.871c18.333,0,33.194-14.862,33.194-33.187c0-18.348-14.861-33.194-33.194-33.194
		c-18.331,0-33.201,14.846-33.201,33.194C119.955,123.008,134.825,137.871,153.157,137.871z"/>
	<path id="XMLID_168_" d="M281.213,309.125l1.602-7.584c-6.167,1.762-13.085,1.31-19.099-1.448
		c-6.42-2.926-11.084-8.074-13.728-14.072v56.674c0,9.407,7.63,17.03,17.037,17.03c9.407,0,17.03-7.623,17.03-17.03v-18.096
		C281.175,319.996,280.057,314.519,281.213,309.125z"/>
	<path id="XMLID_167_" d="M205.741,273.027l-0.743-1.631l0.016,0.988l-0.016,70.662c0,10.611,8.588,16.678,15.528,16.678
		c9.415,0,17.037-7.623,17.037-17.03v-56.139C225.466,290.648,211.118,284.818,205.741,273.027z"/>
	<path id="XMLID_166_" d="M243.776,85.739c18.339,0,33.201-14.862,33.201-33.187c0-18.347-14.862-33.193-33.201-33.193
		c-18.325,0-33.193,14.846-33.193,33.193C210.582,70.877,225.45,85.739,243.776,85.739z"/>
	<path id="XMLID_165_" d="M361.635,133.457c19.321,0,37.722-15.949,37.722-37.721c0-20.837-16.893-37.713-37.722-37.713
		c-20.836,0-37.721,16.876-37.721,37.713C323.914,117.462,342.261,133.457,361.635,133.457z"/>
	<path id="XMLID_164_" d="M462.703,268.202l-53.785-117.844c-2.66-5.838-8.39-9.186-14.388-9.3h-65.79
		c-5.998,0.114-11.728,3.47-14.388,9.3L260.56,268.202c-3.699,8.105-0.13,17.674,7.982,21.373
		c8.044,3.685,17.658,0.169,21.365-7.982l16.786-36.771l-14.165,66.708c-1.257,5.869,3.225,11.453,9.268,11.453h14.058v102.462
		c0,10.694,8.673,19.359,19.358,19.359c10.695,0,19.367-8.665,19.367-19.359V322.983h14.111v102.462
		c0,10.694,8.665,19.359,19.359,19.359c10.688,0,19.358-8.665,19.358-19.359V322.983h14.058c6.051,0,10.525-5.584,9.276-11.453
		l-14.172-66.708l16.784,36.771c3.716,8.152,13.33,11.668,21.374,7.982C462.833,285.875,466.403,276.307,462.703,268.202z"/>
	<path id="XMLID_163_" d="M53.691,251.646l18.002-39.452l29.326-64.25c3.225-7.103,9.599-12.12,17.045-14.012v-1.808
		c-5.378-6.841-8.74-15.674-9.37-24.882H56.885c-5.47-0.06-10.563,2.199-12.893,7.316L1.16,208.394
		c-2.941,6.458-0.099,14.073,6.352,17.015c6.518,2.979,14.097,0.053,17.022-6.351l20.707-45.367c0,3.691-0.045,59.837-0.045,159.918
		c0,8.51,6.901,15.413,15.413,15.413c8.519,0,15.413-6.903,15.413-15.413v-45.658c-3.271-0.085-6.535-0.773-9.614-2.184
		C53.591,279.923,47.723,264.685,53.691,251.646z"/>
	<path id="XMLID_162_" d="M87.268,285.692v47.918c0,8.021,6.205,14.401,14.041,15.129v-77.327l-0.75,1.624
		C97.902,278.889,92.991,283.232,87.268,285.692z"/>
	<path id="XMLID_161_" d="M81.653,101.091c16.585,0,30.038-13.445,30.038-30.03c0-16.593-13.453-30.03-30.038-30.03
		c-16.601,0-30.045,13.437-30.045,30.03C51.608,87.646,65.052,101.091,81.653,101.091z"/>
	<path id="XMLID_160_" d="M194.763,152.755c-2.575-5.661-8.37-8.089-14.241-8.089c-4.846,0-47.951,0-54.729,0
		c-5.889,0-11.676,2.413-14.248,8.089L64.209,256.45c-3.248,7.125-0.107,15.551,7.024,18.799c7.079,3.25,15.537,0.162,18.801-7.016
		l22.891-50.139l-0.047,176.731c0,9.407,7.623,17.03,17.03,17.03c9.415,0,17.037-7.623,17.037-17.03V293.298h12.425v101.527
		c0,9.407,7.63,17.03,17.039,17.03c9.407,0,17.028-7.623,17.028-17.03l-0.045-176.709l22.883,50.117
		c3.271,7.178,11.72,10.266,18.798,7.016c7.141-3.248,10.281-11.674,7.026-18.799L194.763,152.755z"/>
</g>
<g>
</g>
<g>
</g>
<g>
</g>
<g>
</g>
<g>
</g>
<g>
</g>
<g>
</g>
<g>
</g>
<g>
</g>
<g>
</g>
<g>
</g>
<g>
</g>
<g>
</g>
<g>
</g>
<g>
</g>
</svg>
