<?xml version="1.0" encoding="utf-8"?>
<!-- Generator: Adobe Illustrator 27.0.1, SVG Export Plug-In . SVG Version: 6.00 Build 0)  -->
<svg version="1.1" id="Layer_1" xmlns="http://www.w3.org/2000/svg" xmlns:xlink="http://www.w3.org/1999/xlink" x="0px" y="0px"
	 viewBox="0 0 512 512" style="enable-background:new 0 0 512 512;" xml:space="preserve">
<style type="text/css">
	.st0{fill:#ED6A20;}
	.st1{fill:#C9D1D9;}
	.st2{fill:#71CCCE;}
	.st3{fill:#41BBBE;}
	.st4{fill:#D0EEEF;}
	.st5{fill:#F76720;}
	.st6{fill:#D92622;}
	.st7{fill:#20AAB0;}
</style>
<g>
	<path class="st0" d="M75,507c-38.6,0-70-31.4-70-70V75C5,36.4,36.4,5,75,5h362c38.6,0,70,31.4,70,70v362c0,38.6-31.4,70-70,70H75z"
		/>
	<path class="st1" d="M437,10c35.8,0,65,29.2,65,65v362c0,35.8-29.2,65-65,65H75c-35.8,0-65-29.2-65-65V75c0-35.8,29.2-65,65-65H437
		 M437,0H75C33.6,0,0,33.6,0,75v362c0,41.4,33.6,75,75,75h362c41.4,0,75-33.6,75-75V75C512,33.6,478.4,0,437,0L437,0z"/>
</g>
<polygon class="st2" points="81,98.3 81,144.5 313.7,159.8 306,98.3 "/>
<polygon class="st3" points="431,98.3 306,98.3 306,159.8 431,144.5 "/>
<rect x="81" y="144.5" class="st4" width="350" height="269.2"/>
<circle class="st5" cx="368.7" cy="121.4" r="5.8"/>
<circle class="st4" cx="337.2" cy="121.4" r="5.8"/>
<circle class="st6" cx="400.2" cy="121.4" r="5.8"/>
<path class="st7" d="M350.7,292.3v-30.8H322c-1.7-7.3-4.6-14.2-8.5-20.4l20.3-20.3l-21.8-21.8l-20.3,20.3
	c-6.2-3.9-13.1-6.8-20.4-8.5v-28.7h-30.8V211c-7.3,1.7-14.2,4.6-20.4,8.5l-20.3-20.3l-21.8,21.8l20.3,20.3
	c-3.9,6.2-6.8,13.1-8.5,20.4h-28.7v30.8H190c1.7,7.3,4.6,14.2,8.5,20.4L178.2,333l21.8,21.8l20.3-20.3c6.2,3.9,13.1,6.8,20.4,8.5
	v28.7h30.8V343c7.3-1.7,14.2-4.6,20.4-8.5l20.3,20.3l21.8-21.8l-20.3-20.3c3.9-6.2,6.8-13.1,8.5-20.4L350.7,292.3L350.7,292.3z
	 M256,313.9c-20.4,0-36.9-16.5-36.9-36.9c0-20.4,16.5-36.9,36.9-36.9s36.9,16.5,36.9,36.9C292.9,297.4,276.4,313.9,256,313.9z"/>
</svg>
