<?xml version="1.0" encoding="utf-8"?>
<!-- Generator: Adobe Illustrator 27.0.1, SVG Export Plug-In . SVG Version: 6.00 Build 0)  -->
<svg version="1.1" id="Capa_1" xmlns="http://www.w3.org/2000/svg" xmlns:xlink="http://www.w3.org/1999/xlink" x="0px" y="0px"
	 viewBox="0 0 360 360" style="enable-background:new 0 0 360 360;" xml:space="preserve">
<style type="text/css">
	.st0{fill-rule:evenodd;clip-rule:evenodd;fill:#212121;}
	.st1{fill-rule:evenodd;clip-rule:evenodd;fill:#EC407A;}
	.st2{fill-rule:evenodd;clip-rule:evenodd;fill:#FFFFFF;}
	.st3{fill-rule:evenodd;clip-rule:evenodd;fill:#81D4FA;}
</style>
<path class="st0" d="M49,0H311c27.1,0,49,22,49,49V311c0,27.1-22,49-49,49H49C22,360,0,338,0,311V49C0,22,22,0,49,0z"/>
<path class="st1" d="M232.1,146.1c15.8,11.3,35.1,17.9,55.9,17.9v-40.1c-4,0-7.9-0.4-11.7-1.2v31.6c-20.9,0-40.2-6.6-55.9-17.9v81.8
	c0,40.9-33.2,74.1-74.2,74.1c-15.3,0-29.5-4.6-41.3-12.5c13.5,13.8,32.2,22.3,53,22.3c41,0,74.2-33.2,74.2-74.1V146.1L232.1,146.1z
	 M246.6,105.6c-8.1-8.8-13.3-20.2-14.5-32.7v-5.2h-11.1C223.8,83.7,233.3,97.3,246.6,105.6L246.6,105.6z M130.8,248.3
	c-4.5-5.9-6.9-13.1-6.9-20.5c0-18.7,15.2-33.9,33.9-33.9c3.5,0,7,0.5,10.3,1.6v-41c-3.9-0.5-7.8-0.8-11.7-0.7v31.9
	c-3.3-1.1-6.8-1.6-10.3-1.6c-18.7,0-33.9,15.2-33.9,33.9C112.1,231.3,119.7,242.7,130.8,248.3z"/>
<path class="st2" d="M220.3,136.3c15.8,11.3,35.1,17.9,55.9,17.9v-31.6c-11.6-2.5-21.9-8.6-29.7-17c-13.3-8.3-22.8-21.9-25.6-37.9
	h-29.2v160.2c-0.1,18.7-15.2,33.8-33.9,33.8c-11,0-20.8-5.2-27-13.4c-11.1-5.6-18.7-17.1-18.7-30.3c0-18.7,15.2-33.9,33.9-33.9
	c3.6,0,7,0.6,10.3,1.6v-31.9c-40.2,0.8-72.6,33.7-72.6,74.1c0,20.2,8.1,38.5,21.1,51.8c11.8,7.9,26,12.5,41.3,12.5
	c41,0,74.2-33.2,74.2-74.1L220.3,136.3L220.3,136.3z"/>
<path class="st3" d="M276.3,122.6v-8.5c-10.5,0-20.8-2.9-29.7-8.5C254.4,114.2,264.8,120.2,276.3,122.6z M220.9,67.7
	c-0.3-1.5-0.5-3.1-0.6-4.6V58H180v160.2c-0.1,18.7-15.2,33.8-33.9,33.8c-5.5,0-10.7-1.3-15.3-3.6c6.2,8.1,16,13.4,27,13.4
	c18.7,0,33.9-15.1,33.9-33.8V67.7H220.9z M156.4,153.8v-9.1c-3.4-0.5-6.8-0.7-10.2-0.7c-41,0-74.2,33.2-74.2,74.1
	c0,25.7,13.1,48.3,32.9,61.6c-13.1-13.4-21.1-31.7-21.1-51.8C83.7,187.5,116.1,154.6,156.4,153.8z"/>
</svg>
