<?xml version="1.0" encoding="utf-8"?>
<!-- Generator: Adobe Illustrator 27.0.1, SVG Export Plug-In . SVG Version: 6.00 Build 0)  -->
<svg version="1.1" id="Layer_1" xmlns="http://www.w3.org/2000/svg" xmlns:xlink="http://www.w3.org/1999/xlink" x="0px" y="0px"
	 viewBox="0 0 512 512" style="enable-background:new 0 0 512 512;" xml:space="preserve">
<style type="text/css">
	.st0{fill:#683A8E;}
	.st1{fill:#C9D1D9;}
	.st2{fill:#F77E65;}
	.st3{fill:#F0EFE4;}
</style>
<g>
	<path class="st0" d="M75,507c-38.6,0-70-31.4-70-70V75C5,36.4,36.4,5,75,5h362c38.6,0,70,31.4,70,70v362c0,38.6-31.4,70-70,70H75z"
		/>
	<path class="st1" d="M437,10c35.8,0,65,29.2,65,65v362c0,35.8-29.2,65-65,65H75c-35.8,0-65-29.2-65-65V75c0-35.8,29.2-65,65-65H437
		 M437,0H75C33.6,0,0,33.6,0,75v362c0,41.4,33.6,75,75,75h362c41.4,0,75-33.6,75-75V75C512,33.6,478.4,0,437,0L437,0z"/>
</g>
<g>
	<rect x="148.6" y="219.6" class="st2" width="214.8" height="197.3"/>
	<polygon class="st3" points="88.6,219.6 256,73.7 423.4,219.6 	"/>
	<g>
		<rect x="105.7" y="219.6" class="st3" width="43" height="197.3"/>
		<rect x="191.6" y="219.6" class="st3" width="43" height="197.3"/>
		<rect x="277.5" y="219.6" class="st3" width="43" height="197.3"/>
		<rect x="363.4" y="219.6" class="st3" width="43" height="197.3"/>
	</g>
	<rect x="89" y="416.9" class="st2" width="333.3" height="21.5"/>
	<g>
		<path d="M423.4,227.2c3.2,0,6-2,7.1-4.9c1.1-3,0.3-6.3-2.1-8.4L261,67.9c-2.8-2.5-7.1-2.5-9.9,0l-167.4,146
			c-2.4,2.1-3.2,5.4-2.1,8.4c1.1,3,3.9,4.9,7.1,4.9h9.5v182.1H89c-4.2,0-7.6,3.4-7.6,7.6v21.5c0,4.2,3.4,7.6,7.6,7.6h333.3
			c4.2,0,7.6-3.4,7.6-7.6v-21.5c0-4.2-3.4-7.6-7.6-7.6h-8.3V227.2H423.4z M108.8,212L256,83.7L403.2,212L108.8,212L108.8,212z
			 M355.8,409.3H328V227.2h27.8V409.3z M299,326.6c-4.2,0-7.6,3.4-7.6,7.6v75.2H285V227.2h27.8v182.1h-6.3v-75.2
			C306.5,330,303.1,326.6,299,326.6z M242.1,409.3V227.2h27.8v182.1L242.1,409.3L242.1,409.3z M156.2,409.3V227.2H184v182.1
			L156.2,409.3L156.2,409.3z M199.1,227.2H227v182.1h-27.8V227.2z M113.2,227.2h27.8v182.1h-6.3v-107c0-4.2-3.4-7.6-7.6-7.6
			c-4.2,0-7.6,3.4-7.6,7.6v107h-6.3C113.2,409.3,113.2,227.2,113.2,227.2z M414.7,424.4v6.3H96.5v-6.3H414.7z M398.8,409.3h-27.8
			V227.2h27.8V409.3z"/>
		<path d="M168.1,198.1h43.3c4.2,0,7.6-3.4,7.6-7.6s-3.4-7.6-7.6-7.6h-23.2l72.7-63.3c3.1-2.7,3.5-7.5,0.7-10.7
			c-2.7-3.1-7.5-3.5-10.7-0.7l-87.9,76.6c-2.4,2.1-3.2,5.4-2.1,8.4C162.1,196.2,165,198.1,168.1,198.1z"/>
		<path d="M311.5,172.4l27.4,23.9c1.4,1.2,3.2,1.9,5,1.9c2.1,0,4.2-0.9,5.7-2.6c2.7-3.1,2.4-7.9-0.7-10.7L321.5,161
			c-3.2-2.7-7.9-2.4-10.7,0.7C308.1,164.9,308.4,169.7,311.5,172.4z"/>
		<path d="M278.7,143.8l12.1,10.5c1.4,1.2,3.2,1.9,5,1.9c2.1,0,4.2-0.9,5.7-2.6c2.7-3.1,2.4-7.9-0.7-10.7l-12.1-10.5
			c-3.1-2.7-7.9-2.4-10.7,0.7C275.2,136.3,275.6,141,278.7,143.8z"/>
		<path d="M238.9,166.3c0,4.2,3.4,7.6,7.6,7.6h19.1c4.2,0,7.6-3.4,7.6-7.6c0-4.2-3.4-7.6-7.6-7.6h-19.1
			C242.3,158.8,238.9,162.1,238.9,166.3z"/>
		<path d="M306.5,296.8c0-4.2-3.4-7.6-7.6-7.6s-7.6,3.4-7.6,7.6v10.3c0,4.2,3.4,7.6,7.6,7.6s7.6-3.4,7.6-7.6V296.8z"/>
	</g>
</g>
</svg>
