<?xml version="1.0" encoding="utf-8"?>
<!-- Generator: Adobe Illustrator 27.0.1, SVG Export Plug-In . SVG Version: 6.00 Build 0)  -->
<svg version="1.1" id="Layer_1" xmlns="http://www.w3.org/2000/svg" xmlns:xlink="http://www.w3.org/1999/xlink" x="0px" y="0px"
	 viewBox="0 0 512 512" style="enable-background:new 0 0 512 512;" xml:space="preserve">
<style type="text/css">
	.st0{fill:#079539;}
	.st1{fill:#C9D1D9;}
	.st2{fill:#88C5CC;}
	.st3{fill:#80B9BF;}
	.st4{fill:#263740;}
	.st5{fill:#E6E6E6;}
	.st6{fill:#F2CF61;}
	.st7{fill:#CC584C;}
	.st8{fill:#F5F5F5;}
	.st9{fill:#E16B5A;}
</style>
<g>
	<path class="st0" d="M75,507c-38.6,0-70-31.4-70-70V75C5,36.4,36.4,5,75,5h362c38.6,0,70,31.4,70,70v362c0,38.6-31.4,70-70,70H75z"
		/>
	<path class="st1" d="M437,10c35.8,0,65,29.2,65,65v362c0,35.8-29.2,65-65,65H75c-35.8,0-65-29.2-65-65V75c0-35.8,29.2-65,65-65H437
		 M437,0H75C33.6,0,0,33.6,0,75v362c0,41.4,33.6,75,75,75h362c41.4,0,75-33.6,75-75V75C512,33.6,478.4,0,437,0L437,0z"/>
</g>
<g>
	<circle class="st2" cx="256" cy="256" r="175"/>
	<path class="st3" d="M430.9,261.5l-38.1-92.6c0-3.8-3.1-5.9-7-5.9H126.2c-3.8,0-7,2.5-7,6.3v1.4v1.4v133v1.4v1.4v30.5v2.2
		l18.7,44.5c31.1,28.4,72.5,45.8,118,45.8C350.8,431,427.9,355.6,430.9,261.5z"/>
	<g>
		<g>
			<path class="st4" d="M119.3,305.2V169.4c0-3.8,3.1-6.3,7-6.3h259.5c3.8,0,7,2.5,7,6.3v135.8H119.3z"/>
		</g>
		<g>
			<path class="st5" d="M119.3,305.2v33.3c0,3.8,3.1,7.7,7,7.7h259.5c3.8,0,7-3.9,7-7.7v-33.3H119.3z"/>
		</g>
		<g>
			<rect x="130.2" y="176.7" class="st6" width="251.6" height="117.6"/>
		</g>
		<g>
			<circle class="st7" cx="256" cy="171.2" r="2.7"/>
		</g>
		<g>
			<path class="st8" d="M300,389.9c-13.9-4.6-20.9-35.5-20.9-43.7H256h-23.2c0,8.2-7,39-20.9,43.7c-2.3,0-4.6,1.8-4.6,4.1
				c0,2.3,2.3,4.2,4.6,4.2c4.6,0,44,0,44,0s39.4,0,44,0c2.3,0,4.6-1.8,4.6-4.2C304.7,391.7,302.3,389.9,300,389.9z"/>
		</g>
		<g>
			<path class="st5" d="M212,390c-2.3,0-4.6,1.8-4.6,4.1s2.3,4.1,4.6,4.1c4.6,0,44,0,44,0s39.4,0,44,0c2.3,0,4.6-1.8,4.6-4.1
				s-2.3-4.1-4.6-4.1H212z"/>
		</g>
		<g>
			<circle class="st8" cx="256" cy="324.4" r="5.5"/>
		</g>
		<path class="st7" d="M231.4,209.8c0-8.5,6.3-11.8,13.6-7.3l40.8,25c7.2,4.4,7.3,11.7,0.1,16.2l-41,25c-7.2,4.4-13.5,1.1-13.5-7.3
			V209.8z"/>
	</g>
	<g>
		<path class="st4" d="M119.3,305.2V169.4c0-3.8,3.1-6.3,7-6.3h259.5c3.8,0,7,2.5,7,6.3v135.8H119.3z"/>
	</g>
	<g>
		<path class="st5" d="M119.3,305.2v33.3c0,3.8,3.1,7.7,7,7.7h259.5c3.8,0,7-3.9,7-7.7v-33.3H119.3z"/>
	</g>
	<g>
		<g>
			<rect x="130.2" y="176.7" class="st9" width="251.6" height="117.6"/>
		</g>
	</g>
	<g>
		<circle class="st7" cx="256" cy="171.2" r="2.7"/>
	</g>
	<g>
		<path class="st8" d="M300,389.9c-13.9-4.6-20.9-35.5-20.9-43.7H256h-23.2c0,8.2-7,39-20.9,43.7c-2.3,0-4.6,1.8-4.6,4.1
			c0,2.3,2.3,4.2,4.6,4.2c4.6,0,44,0,44,0s39.4,0,44,0c2.3,0,4.6-1.8,4.6-4.2C304.7,391.7,302.3,389.9,300,389.9z"/>
	</g>
	<g>
		<path class="st5" d="M212,390c-2.3,0-4.6,1.8-4.6,4.1s2.3,4.1,4.6,4.1c4.6,0,44,0,44,0s39.4,0,44,0c2.3,0,4.6-1.8,4.6-4.1
			s-2.3-4.1-4.6-4.1H212z"/>
	</g>
	<g>
		<circle class="st8" cx="256" cy="324.4" r="5.5"/>
	</g>
	<path class="st8" d="M234.1,203.5c0-1.4,1.3-2,2.5-1.2l46.5,30.4c1.2,0.8,1.3,2.1,0.1,2.9L236.6,266c-1.2,0.8-2.4,0.3-2.4-1.2
		V203.5z"/>
</g>
</svg>
