<?xml version="1.0" encoding="iso-8859-1"?>
<!-- Generator: Adobe Illustrator 15.1.0, SVG Export Plug-In . SVG Version: 6.00 Build 0)  -->
<!DOCTYPE svg PUBLIC "-//W3C//DTD SVG 1.1//EN" "http://www.w3.org/Graphics/SVG/1.1/DTD/svg11.dtd">
<svg xmlns="http://www.w3.org/2000/svg" xmlns:xlink="http://www.w3.org/1999/xlink" version="1.1" id="Layer_1" x="0px" y="0px" width="512" height="512" viewBox="0 0 128 128" style="enable-background:new 0 0 128 128;" xml:space="preserve">
<g>
	<circle style="fill:#88C5CC;" cx="64" cy="64" r="64"/>
	<path style="fill:#80B9BF;" d="M127.949,66.021L114,32.154c0-1.398-1.145-2.154-2.542-2.154H16.542C15.144,30,14,30.924,14,32.322   v0.512v0.512V82v0.512v0.514v11.162V95l6.845,16.257C32.225,121.654,47.37,128,64,128C98.668,128,126.879,100.43,127.949,66.021z"/>
	<g>
		<g>
			<path style="fill:#263740;" d="M14,82V32.322C14,30.924,15.144,30,16.542,30h94.916c1.397,0,2.542,0.924,2.542,2.322V82H14z"/>
		</g>
		<g>
			<path style="fill:#E6E6E6;" d="M14,82v12.188C14,95.585,15.144,97,16.542,97h94.916c1.397,0,2.542-1.415,2.542-2.813V82H14z"/>
		</g>
		<g>
			<rect x="18" y="35" style="fill:#F2CF61;" width="92" height="43"/>
		</g>
		<g>
			<circle style="fill:#CC584C;" cx="64" cy="33" r="1"/>
		</g>
		<g>
			<path style="fill:#F5F5F5;" d="M80.102,112.966C75.018,111.271,72.475,100,72.475,97H64h-8.475c0,3-2.542,14.271-7.627,15.966     c-0.848,0-1.695,0.669-1.695,1.517c0,0.849,0.848,1.518,1.695,1.518C49.592,116,64,116,64,116s14.407,0,16.102,0     c0.849,0,1.695-0.67,1.695-1.518C81.797,113.634,80.949,112.966,80.102,112.966z"/>
		</g>
		<g>
			<path style="fill:#E6E6E6;" d="M47.898,113c-0.848,0-1.695,0.652-1.695,1.5s0.848,1.5,1.695,1.5C49.592,116,64,116,64,116     s14.407,0,16.102,0c0.849,0,1.695-0.652,1.695-1.5s-0.848-1.5-1.695-1.5H47.898z"/>
		</g>
		<g>
			<circle style="fill:#F5F5F5;" cx="64" cy="89" r="2"/>
		</g>
		<path style="fill:#CC584C;" d="M55,47.097c0-3.104,2.32-4.313,4.963-2.685l14.92,9.131c2.645,1.626,2.684,4.287,0.04,5.914    l-14.979,9.132C57.3,70.215,55,69.006,55,65.904V47.097z"/>
	</g>
	<g>
		<path style="fill:#263740;" d="M14,82V32.322C14,30.924,15.144,30,16.542,30h94.916c1.397,0,2.542,0.924,2.542,2.322V82H14z"/>
	</g>
	<g>
		<path style="fill:#E6E6E6;" d="M14,82v12.188C14,95.585,15.144,97,16.542,97h94.916c1.397,0,2.542-1.415,2.542-2.813V82H14z"/>
	</g>
	<g>
		<g>
			<rect x="18" y="35" style="fill:#E16B5A;" width="92" height="43"/>
		</g>
	</g>
	<g>
		<circle style="fill:#CC584C;" cx="64" cy="33" r="1"/>
	</g>
	<g>
		<path style="fill:#F5F5F5;" d="M80.102,112.966C75.018,111.271,72.475,100,72.475,97H64h-8.475c0,3-2.542,14.271-7.627,15.966    c-0.848,0-1.695,0.669-1.695,1.517c0,0.849,0.848,1.518,1.695,1.518C49.592,116,64,116,64,116s14.407,0,16.102,0    c0.849,0,1.695-0.67,1.695-1.518C81.797,113.634,80.949,112.966,80.102,112.966z"/>
	</g>
	<g>
		<path style="fill:#E6E6E6;" d="M47.898,113c-0.848,0-1.695,0.652-1.695,1.5s0.848,1.5,1.695,1.5C49.592,116,64,116,64,116    s14.407,0,16.102,0c0.849,0,1.695-0.652,1.695-1.5s-0.848-1.5-1.695-1.5H47.898z"/>
	</g>
	<g>
		<circle style="fill:#F5F5F5;" cx="64" cy="89" r="2"/>
	</g>
	<path style="fill:#F5F5F5;" d="M56,44.793c0-0.528,0.469-0.724,0.91-0.434l17.017,11.114c0.442,0.29,0.468,0.763,0.026,1.053   L56.896,67.641C56.455,67.93,56,67.734,56,67.207V44.793z"/>
</g>
</svg>
