<?xml version="1.0" encoding="utf-8"?>
<!-- Generator: Adobe Illustrator 27.0.1, SVG Export Plug-In . SVG Version: 6.00 Build 0)  -->
<svg version="1.1" id="Website_2_" xmlns="http://www.w3.org/2000/svg" xmlns:xlink="http://www.w3.org/1999/xlink" x="0px" y="0px"
	 viewBox="0 0 500 500" style="enable-background:new 0 0 500 500;" xml:space="preserve">
<style type="text/css">
	.st0{fill:#2A8BDB;}
	.st1{fill:#FFFFFF;}
</style>
<g id="Background">
	<rect id="bg_1_" y="0" class="st0" width="500" height="500"/>
</g>
<path id="Website_1_" class="st1" d="M250,25C125.7,25,25,125.7,25,250s100.7,225,225,225s225-100.7,225-225S374.3,25,250,25z
	 M419.6,155.4c8,14.3,14.1,29.5,18.2,45.3h-75.6c-2.8-15.4-6.9-30.6-12.4-45.3H419.6z M341.4,282.3l-21.2-64.6l13.5-6l15.1,50.3
	l11.7-32.1h14.9l11.7,32.1l15.1-50.3l13.5,6l-21.2,64.6l-13.3,5.9l-13.2-44.1l-13.2,44.1L341.4,282.3z M343,299.2
	c-3,15.4-7.5,30.5-13.3,45.1h-70.2v-45.1H343z M387.2,112.8c7.5,7.5,14.2,15.4,20.3,23.8H342c-12.9-28.1-30.9-54.3-53.9-76.9
	C325.4,67,359.7,85.3,387.2,112.8z M259.4,59.1c26.5,22,47.1,48.5,61.6,77.5h-61.6V59.1z M259.4,155.4h70.1
	c5.9,14.7,10.4,29.9,13.4,45.3h-83.6V155.4z M240.6,59.3v77.2h-61.3C193.8,107.7,214.2,81.3,240.6,59.3z M157.3,200.8
	c3-15.4,7.5-30.6,13.4-45.3h69.9v45.3H157.3z M179.8,217.8l-21.2,64.6l-13.3,5.9l-13.2-44.1l-13.2,44.1l-13.3-5.9l-21.2-64.6l13.5-6
	l15.1,50.3l11.7-32.1h14.9l11.7,32.1l15.1-50.3L179.8,217.8z M112.8,112.8c27.6-27.6,62-45.8,99.4-53.2c-23.1,22.7-41,48.9-53.9,77
	H92.5C98.5,128.2,105.3,120.2,112.8,112.8z M80.4,155.4h70c-5.4,14.8-9.6,29.9-12.4,45.3H62.2C66.3,184.9,72.4,169.7,80.4,155.4z
	 M80.3,344.4c-7.9-14.2-14-29.4-18.1-45.1h75.9c2.8,15.3,6.9,30.4,12.3,45.1H80.3z M112.8,387.2c-7.5-7.5-14.3-15.6-20.4-24h65.8
	c12.9,28.2,30.9,54.5,54,77.2C174.8,433.1,140.4,414.8,112.8,387.2z M240.6,440.7c-26.4-22-46.9-48.5-61.4-77.5h61.4V440.7z
	 M240.6,344.4h-69.9c-5.9-14.6-10.3-29.8-13.3-45.1h83.3L240.6,344.4L240.6,344.4z M249.9,244.2l-13.2,44.1l-13.3-5.9l-21.2-64.6
	l13.5-6l15.1,50.3l11.7-32.1h14.9l11.7,32.1l15.1-50.3l13.5,6l-21.2,64.6l-13.3,5.9L249.9,244.2z M259.4,440.9v-77.7h61.7
	C306.6,392.2,286,418.8,259.4,440.9z M387.2,387.2c-27.5,27.5-61.8,45.7-99.1,53.1c23.1-22.7,41.1-49,54-77.1h65.6
	C401.6,371.7,394.8,379.7,387.2,387.2z M419.7,344.4h-69.8c5.4-14.7,9.5-29.8,12.3-45.1h75.6C433.7,315,427.6,330.1,419.7,344.4z"/>
</svg>
