<?xml version="1.0" encoding="utf-8"?>
<!-- Generator: Adobe Illustrator 27.0.1, SVG Export Plug-In . SVG Version: 6.00 Build 0)  -->
<svg version="1.1" id="Capa_1" xmlns="http://www.w3.org/2000/svg" xmlns:xlink="http://www.w3.org/1999/xlink" x="0px" y="0px"
	 viewBox="0 0 36 36" style="enable-background:new 0 0 36 36;" xml:space="preserve">
<style type="text/css">
	.st0{opacity:0.97;fill:#F8B84E;enable-background:new    ;}
	.st1{opacity:0.15;enable-background:new    ;}
	.st2{fill:#E9EDED;}
	.st3{fill:#F05542;}
	.st4{fill:#2B4255;}
	.st5{fill:#F8B74E;fill-opacity:0.976;}
	.st6{fill:#25B39E;}
	.st7{fill:#4BBFEB;}
</style>
<g transform="translate(-174.667 -14.362)">
	<path class="st0" d="M177.7,14.4h30c1.7,0,3,1.3,3,3v30c0,1.7-1.3,3-3,3h-30c-1.7,0-3-1.3-3-3v-30C174.7,15.7,176,14.4,177.7,14.4z
		"/>
	<g transform="translate(330.667 -1084)">
		<path class="st1" d="M-152.5,1103.4c-0.3,0-0.5,0.2-0.5,0.5v27c0,0.3,0.2,0.5,0.5,0.5h27c0.3,0,0.5-0.2,0.5-0.5v-27
			c0-0.3-0.2-0.5-0.5-0.5H-152.5z"/>
		<path class="st2" d="M-151,1105.4h26v24h-26V1105.4z"/>
		<path class="st3" d="M-150,1106.4h24v22h-24V1106.4z"/>
		<path class="st4" d="M-151.5,1102.4c-0.3,0-0.5,0.2-0.5,0.5v27c0,0.3,0.2,0.5,0.5,0.5h27c0.3,0,0.5-0.2,0.5-0.5v-27
			c0-0.3-0.2-0.5-0.5-0.5H-151.5z M-151,1105.4h26v24h-26V1105.4z"/>
		<circle class="st5" cx="-149.5" cy="1103.9" r="0.5"/>
		<circle class="st6" cx="-147.5" cy="1103.9" r="0.5"/>
		<circle class="st3" cx="-145.5" cy="1103.9" r="0.5"/>
		<path class="st1" d="M-139,1111.4c-0.4,0-0.7,0.1-1.1,0.2c-0.2,0.6-0.5,1.3-0.6,2h1.7L-139,1111.4L-139,1111.4z M-138,1111.4v2.2
			h1.6c-0.2-0.7-0.4-1.3-0.6-2C-137.3,1111.5-137.6,1111.4-138,1111.4z M-135.6,1112.1c0.1,0.5,0.3,0.9,0.4,1.4h1.3
			C-134.3,1112.9-134.9,1112.5-135.6,1112.1L-135.6,1112.1z M-141.5,1112.1c-0.6,0.4-1.2,0.8-1.7,1.4h1.3
			C-141.8,1113.1-141.6,1112.6-141.5,1112.1z M-143.9,1114.6c-0.4,0.7-0.6,1.4-0.6,2.2h2.2c0-0.7,0.1-1.5,0.2-2.2H-143.9z
			 M-141,1114.6c-0.1,0.7-0.2,1.5-0.3,2.2h2.2v-2.2H-141L-141,1114.6z M-138,1114.6v2.2h2.2c0-0.7-0.1-1.5-0.3-2.2H-138z
			 M-134.9,1114.6c0.1,0.7,0.2,1.5,0.2,2.2h2.2c-0.1-0.8-0.3-1.5-0.6-2.2H-134.9z M-144.5,1117.9c0.1,0.8,0.3,1.5,0.6,2.2h1.7
			c-0.1-0.7-0.2-1.5-0.2-2.2H-144.5z M-141.3,1117.9c0,0.7,0.1,1.5,0.2,2.2h2v-2.2H-141.3L-141.3,1117.9z M-138,1117.9v2.2h2
			c0.1-0.7,0.2-1.5,0.2-2.2H-138z M-134.7,1117.9c0,0.7-0.1,1.5-0.2,2.2h1.7c0.4-0.7,0.6-1.4,0.6-2.2H-134.7L-134.7,1117.9z
			 M-143.1,1121.2c0.4,0.5,0.9,1,1.5,1.3c-0.1-0.4-0.2-0.9-0.4-1.3H-143.1z M-140.8,1121.2c0.2,0.7,0.4,1.3,0.6,1.9
			c0.4,0.1,0.8,0.2,1.2,0.2v-2.2H-140.8L-140.8,1121.2z M-138,1121.2v2.2c0.4,0,0.8-0.1,1.1-0.2c0.3-0.6,0.5-1.3,0.6-1.9
			L-138,1121.2L-138,1121.2z M-135.1,1121.2c-0.1,0.5-0.2,0.9-0.4,1.3c0.6-0.4,1.1-0.8,1.6-1.3H-135.1L-135.1,1121.2z"/>
		<path class="st7" d="M-138,1111.4c-0.4,0-0.7,0.1-1.1,0.2c-0.2,0.6-0.5,1.3-0.6,2h1.7L-138,1111.4L-138,1111.4z M-137,1111.4v2.2
			h1.6c-0.2-0.7-0.4-1.3-0.6-2C-136.3,1111.5-136.6,1111.4-137,1111.4z M-134.6,1112.1c0.1,0.5,0.3,0.9,0.4,1.4h1.3
			C-133.3,1112.9-133.9,1112.5-134.6,1112.1L-134.6,1112.1z M-140.5,1112.1c-0.6,0.4-1.2,0.8-1.7,1.4h1.3
			C-140.8,1113.1-140.6,1112.6-140.5,1112.1z M-142.9,1114.6c-0.4,0.7-0.6,1.4-0.6,2.2h2.2c0-0.7,0.1-1.5,0.2-2.2H-142.9z
			 M-140,1114.6c-0.1,0.7-0.2,1.5-0.3,2.2h2.2v-2.2H-140L-140,1114.6z M-137,1114.6v2.2h2.2c0-0.7-0.1-1.5-0.3-2.2H-137z
			 M-133.9,1114.6c0.1,0.7,0.2,1.5,0.2,2.2h2.2c-0.1-0.8-0.3-1.5-0.6-2.2H-133.9z M-143.5,1117.9c0.1,0.8,0.3,1.5,0.6,2.2h1.7
			c-0.1-0.7-0.2-1.5-0.2-2.2H-143.5z M-140.3,1117.9c0,0.7,0.1,1.5,0.2,2.2h2v-2.2H-140.3L-140.3,1117.9z M-137,1117.9v2.2h2
			c0.1-0.7,0.2-1.5,0.2-2.2H-137z M-133.7,1117.9c0,0.7-0.1,1.5-0.2,2.2h1.7c0.4-0.7,0.6-1.4,0.6-2.2H-133.7L-133.7,1117.9z
			 M-142.1,1121.2c0.4,0.5,0.9,1,1.5,1.3c-0.1-0.4-0.2-0.9-0.4-1.3H-142.1z M-139.8,1121.2c0.2,0.7,0.4,1.3,0.6,1.9
			c0.4,0.1,0.8,0.2,1.2,0.2v-2.2H-139.8L-139.8,1121.2z M-137,1121.2v2.2c0.4,0,0.8-0.1,1.1-0.2c0.3-0.6,0.5-1.3,0.6-1.9
			L-137,1121.2L-137,1121.2z M-134.1,1121.2c-0.1,0.5-0.2,0.9-0.4,1.3c0.6-0.4,1.1-0.8,1.6-1.3H-134.1L-134.1,1121.2z"/>
	</g>
</g>
</svg>
