<?xml version="1.0" encoding="utf-8"?>
<!-- Generator: Adobe Illustrator 27.0.1, SVG Export Plug-In . SVG Version: 6.00 Build 0)  -->
<svg version="1.1" id="Website_2_" xmlns="http://www.w3.org/2000/svg" xmlns:xlink="http://www.w3.org/1999/xlink" x="0px" y="0px"
	 viewBox="0 0 512 512" style="enable-background:new 0 0 512 512;" xml:space="preserve">
<style type="text/css">
	.st0{fill:#2A8BDB;}
	.st1{fill:#FFFFFF;}
</style>
<g id="Background">
	<g>
		<g id="bg_00000122721706001302635730000002966778396975722396_">
			<path class="st0" d="M0,75C0,33.8,33.8,0,75,0h362c41.2,0,75,33.8,75,75v362c0,41.2-33.8,75-75,75H75c-41.2,0-75-33.8-75-75V75z"
				/>
		</g>
	</g>
</g>
<path id="Website_1_" class="st1" d="M256,78.5c-98.1,0-177.5,79.4-177.5,177.5S157.9,433.5,256,433.5S433.5,354.1,433.5,256
	S354.1,78.5,256,78.5z M389.8,181.4c6.3,11.3,11.1,23.3,14.4,35.7h-59.6c-2.2-12.1-5.4-24.1-9.8-35.7H389.8z M328.1,281.5l-16.7-51
	l10.7-4.7l11.9,39.7l9.2-25.3h11.8l9.2,25.3l11.9-39.7l10.6,4.7l-16.7,51l-10.5,4.7l-10.4-34.8l-10.4,34.8L328.1,281.5z
	 M329.4,294.8c-2.4,12.1-5.9,24.1-10.5,35.6h-55.4v-35.6H329.4z M364.2,147.8c5.9,5.9,11.2,12.1,16,18.8h-51.7
	c-10.2-22.2-24.4-42.8-42.5-60.7C315.5,111.6,342.5,126.1,364.2,147.8z M263.4,105.4c20.9,17.4,37.2,38.3,48.6,61.1h-48.6V105.4z
	 M263.4,181.4h55.3c4.7,11.6,8.2,23.6,10.6,35.7h-66L263.4,181.4L263.4,181.4z M248.6,105.6v60.9h-48.4
	C211.7,143.7,227.8,122.9,248.6,105.6z M182.9,217.2c2.4-12.1,5.9-24.1,10.6-35.7h55.1v35.7H182.9z M200.6,230.6l-16.7,51l-10.5,4.7
	L163,251.4l-10.4,34.8l-10.5-4.7l-16.7-51l10.7-4.7l11.9,39.7l9.2-25.3h11.8l9.2,25.3l11.9-39.7L200.6,230.6z M147.8,147.8
	c21.8-21.8,48.9-36.1,78.4-42c-18.2,17.9-32.3,38.6-42.5,60.7h-51.9C136.5,159.9,141.8,153.6,147.8,147.8z M122.2,181.4h55.2
	c-4.3,11.7-7.6,23.6-9.8,35.7h-59.8C111.1,204.6,115.9,192.7,122.2,181.4z M122.1,330.5c-6.2-11.2-11-23.2-14.3-35.6h59.9
	c2.2,12.1,5.4,24,9.7,35.6H122.1z M147.8,364.2c-5.9-5.9-11.3-12.3-16.1-18.9h51.9c10.2,22.2,24.4,43,42.6,60.9
	C196.7,400.4,169.5,386,147.8,364.2z M248.6,406.4c-20.8-17.4-37-38.3-48.4-61.1h48.4V406.4z M248.6,330.5h-55.1
	c-4.7-11.5-8.1-23.5-10.5-35.6h65.7L248.6,330.5L248.6,330.5z M255.9,251.4l-10.4,34.8l-10.5-4.7l-16.7-51l10.6-4.7l11.9,39.7
	l9.2-25.3h11.8l9.2,25.3l11.9-39.7l10.6,4.7l-16.7,51l-10.5,4.7L255.9,251.4z M263.4,406.6v-61.3h48.7
	C300.7,368.2,284.4,389.2,263.4,406.6z M364.2,364.2c-21.7,21.7-48.8,36.1-78.2,41.9c18.2-17.9,32.4-38.7,42.6-60.8h51.8
	C375.6,352,370.2,358.3,364.2,364.2z M389.9,330.5h-55.1c4.3-11.6,7.5-23.5,9.7-35.6h59.6C400.9,307.3,396.1,319.2,389.9,330.5z"/>
</svg>
