<svg width="32px" height="32px" viewBox="0 0 32 32" xmlns="http://www.w3.org/2000/svg">
  <g id="work-suitcase" transform="translate(-1265 -43)">
    <rect id="Rectangle_17" data-name="Rectangle 17" width="30" height="16.27" transform="translate(1266 57.73)" fill="#99ecff" stroke="#333" stroke-linecap="round" stroke-linejoin="round" stroke-width="2"/>
    <path id="Rectangle_18" data-name="Rectangle 18" d="M2.543,0H27.457A2.543,2.543,0,0,1,30,2.543V11.71A3.29,3.29,0,0,1,26.71,15H3.29A3.29,3.29,0,0,1,0,11.71V2.543A2.543,2.543,0,0,1,2.543,0Z" transform="translate(1266 49)" fill="#99ecff" stroke="#333" stroke-linecap="round" stroke-linejoin="round" stroke-width="2"/>
    <path id="Rectangle_19" data-name="Rectangle 19" d="M2.6,0H11.4A2.6,2.6,0,0,1,14,2.6V5a0,0,0,0,1,0,0H0A0,0,0,0,1,0,5V2.6A2.6,2.6,0,0,1,2.6,0Z" transform="translate(1274 44)" fill="none" stroke="#333" stroke-linecap="round" stroke-linejoin="round" stroke-width="2"/>
    <rect id="Rectangle_20" data-name="Rectangle 20" width="4" height="6" transform="translate(1279 61)" fill="#e8f7f9" stroke="#333" stroke-linecap="round" stroke-linejoin="round" stroke-width="2"/>
  </g>
</svg>
