<svg xmlns="http://www.w3.org/2000/svg" viewBox="0 0 48 48"><linearGradient id="a" x1="916.402" x2="929.96" y1="101.285" y2="86.346" gradientTransform="matrix(3.0757 0 0 -3.0757 -2815.638 312.324)" gradientUnits="userSpaceOnUse"><stop offset="0" stop-color="#EC2579"/><stop offset="1" stop-color="#F37721"/></linearGradient><path fill="url(#a)" d="M10.144 0h27.712C43.458 0 48 4.542 48 10.144v27.712C48 43.458 43.458 48 37.856 48H10.144C4.542 48 0 43.458 0 37.856V10.144C0 4.542 4.542 0 10.144 0z"/><path fill="#fff" d="M35.026 40a.5.5 0 0 1-.5-.5v-4.279a3.48 3.48 0 0 0-1.65-2.971l-6.143-3.826a.5.5 0 0 1 .528-.848l6.143 3.826a4.472 4.472 0 0 1 2.122 3.82V39.5a.5.5 0 0 1-.5.5zM12.974 40a.5.5 0 0 1-.5-.5v-4.28c0-1.564.792-2.992 2.12-3.819l6.139-3.826a.5.5 0 0 1 .529.849l-6.139 3.826a3.48 3.48 0 0 0-1.649 2.97v4.28a.5.5 0 0 1-.5.5z"/><path fill="#fff" d="M27.497 28h-1v-2.131a5.72 5.72 0 0 1-5 0V28h-1v-3.973l.788.556a4.735 4.735 0 0 0 5.424 0l.788-.556V28zM17.5 40a.5.5 0 0 1-.5-.5v-2.393a2.73 2.73 0 0 0-.714-1.842l-.673-.737a.5.5 0 1 1 .739-.675l.673.737c.628.69.975 1.583.975 2.517V39.5a.5.5 0 0 1-.5.5zM30.5 40a.5.5 0 0 1-.5-.5v-2.393c0-.934.347-1.828.976-2.517l.673-.737a.5.5 0 1 1 .739.675l-.673.737A2.722 2.722 0 0 0 31 37.107V39.5a.5.5 0 0 1-.5.5z"/><path fill="#fff" d="M24 26.452a5.506 5.506 0 0 1-5.5-5.5V19.5a.5.5 0 0 1 1 0v1.452c0 2.481 2.019 4.5 4.5 4.5s4.5-2.019 4.5-4.5v-2.266a.5.5 0 0 1 1 0v2.266c0 3.032-2.467 5.5-5.5 5.5zM26.618 17.816a9.195 9.195 0 0 1-5.432-1.759.5.5 0 1 1 .587-.809 8.206 8.206 0 0 0 4.845 1.569.5.5 0 0 1 0 .999z"/><path fill="#fff" d="M19 20.484a.5.5 0 0 1-.5-.5 4.412 4.412 0 0 1 3.435-4.321.501.501 0 0 1 .225.975 3.416 3.416 0 0 0-2.659 3.346.501.501 0 0 1-.501.5z"/><path fill="#fff" d="M29.042 20.24a.5.5 0 0 1-.5-.5 1.926 1.926 0 0 0-1.924-1.924.5.5 0 0 1 0-1c1.055 0 1.981.562 2.495 1.401.076-.354.116-.725.116-1.103a5.12 5.12 0 0 0-5.114-5.115 5.122 5.122 0 0 0-4.704 7.129.499.499 0 1 1-.919.393A6.122 6.122 0 0 1 24.115 11a6.12 6.12 0 0 1 5.558 8.664l-.208.341a.497.497 0 0 1-.423.235z"/><path fill="#fff" d="M26.618 17.816a9.195 9.195 0 0 1-5.432-1.759.5.5 0 1 1 .587-.809 8.206 8.206 0 0 0 4.845 1.569.5.5 0 0 1 0 .999z"/><path fill="#fff" d="M19 20.484a.5.5 0 0 1-.5-.5 4.412 4.412 0 0 1 3.435-4.321.501.501 0 0 1 .225.975 3.416 3.416 0 0 0-2.659 3.346.501.501 0 0 1-.501.5z"/><path fill="#fff" d="M29.042 20.24a.5.5 0 0 1-.5-.5 1.926 1.926 0 0 0-1.924-1.924.5.5 0 0 1 0-1c1.055 0 1.981.562 2.495 1.401.076-.354.116-.725.116-1.103a5.12 5.12 0 0 0-5.114-5.115 5.122 5.122 0 0 0-4.704 7.129.499.499 0 1 1-.919.393A6.122 6.122 0 0 1 24.115 11a6.12 6.12 0 0 1 5.558 8.664l-.208.341a.497.497 0 0 1-.423.235z"/><path fill="#fff" d="M22.169 12.354a.499.499 0 0 1-.327-.122C21.299 11.761 21 11.146 21 10.5 21 9.122 22.346 8 24 8s3 1.122 3 2.5c0 .606-.271 1.195-.765 1.657a.499.499 0 0 1-.5.109 5.065 5.065 0 0 0-3.392.056.496.496 0 0 1-.174.032zM24 9c-1.103 0-2 .673-2 1.5 0 .273.106.542.304.78a6.029 6.029 0 0 1 3.434-.057c.142-.186.262-.43.262-.723 0-.827-.897-1.5-2-1.5zM24 32a6.535 6.535 0 0 1-5.183-2.577.5.5 0 0 1 .798-.604C20.648 30.185 22.287 31 24 31s3.352-.815 4.385-2.181a.5.5 0 1 1 .798.604A6.535 6.535 0 0 1 24 32z"/></svg>